<svg height="14" viewBox="0 0 14 14" width="14" xmlns="http://www.w3.org/2000/svg"><path d="m7 0c-3.8675 0-7 3.13425-7 7 0 3.0934167 2.0055 5.7166667 4.78625001 6.64125.34999999.0659167.47833333-.1505.47833333-.3365833 0-.16625-.00583334-.6066667-.00875001-1.19-1.94716666.4223333-2.35783333-.9391667-2.35783333-.9391667-.3185-.8079167-.77875-1.02375-.77875-1.02375-.63408334-.43399996.049-.42524998.049-.42524998.70291667.04900003 1.07216666.72099998 1.07216666.72099998.62416668 1.0704167 1.63858334.7612501 2.03875001.5821667.063-.4526667.24325-.76125.44333333-.93625-1.55458333-.175-3.1885-.77700003-3.1885-3.4591667 0-.76416667.27125-1.38833333.72041667-1.87833333-.07875-.17675-.31500001-.88841667.06125-1.85266667 0 0 .58625-.18783333 1.925.7175.56-.15575 1.155-.23275 1.75-.23625.595.0035 1.19000001.0805 1.75.23625 1.33000003-.90533333 1.91624993-.7175 1.91624993-.7175.3762501.96425.1400001 1.67591667.07 1.85266667.4462501.49.7175001 1.11416666.7175001 1.87833333 0 2.68916668-1.63625006 3.28125004-3.19375003 3.4533334.245.2099999.4725.6393332.4725 1.2949999 0 .9368334-.00875 1.6893334-.00875 1.9168334 0 .18375.1225.4024999.48125.3324999 2.80058333-.9181666 4.80433333-3.5431666 4.80433333-6.6319166 0-3.86575-3.13425-7-7-7"/></svg>