<svg height="14" viewBox="0 0 13 14" width="13" xmlns="http://www.w3.org/2000/svg"><path d="m6.38822766.00017697c-1.76417295.00715482-3.51583408.23113522-4.4272699.65137108 0 0-1.96095775.89267268-1.96095775 3.93332279 0 3.61946027-.0026283 8.16488506 3.24887006 9.04390516 1.24522984.3346701 2.31608837.4067019 3.17700243.3570562 1.56237796-.088194 2.33512543-.5669551 2.33512543-.5669551l-.05247488-1.1544437s-1.012689.356874-2.26667984.3159887c-1.2423095-.0438044-2.55108402-.137036-2.75492324-1.6883167-.01869013-.1442644-.02796219-.290336-.02737812-.4357685 2.63238784.6535704 4.87707407.2846594 5.49501646.2098989 1.72533249-.2096799 3.22726889-1.29154459 3.41884279-2.28036922.3002102-1.55828949.2749218-3.80099574.2749218-3.80099574 0-3.04065011-1.9575357-3.93332279-1.9575357-3.93332279-.9610815-.44885512-2.7383866-.65852589-4.50255954-.65137108zm-1.88794949 2.31915477c.60443584.01620785 1.20171688.28663065 1.56967879.85784771l.35591554.60459992.35477486-.60459992c.73884415-1.14885886 2.39480067-1.0771738 3.18270641-.18822455.72657873.84572863.56467373 1.39157501.56467373 5.16990138v.00114068h-1.42936611v-3.28765558c0-1.53901536-1.96209849-1.5984533-1.96209849.21332095v1.90506089h-1.42024012v-1.90506089c0-1.81177425-1.96095722-1.75347705-1.96095722-.21446163v3.28765558h-1.4327885c0-3.7812467-.15898472-4.33059748.56467371-5.16990138.39687297-.44739496 1.00859155-.685831 1.6130274-.66962316z"/></svg>
