<svg height="12" viewBox="0 0 14 12" width="14" xmlns="http://www.w3.org/2000/svg"><path d="m3.56390746 10.0827408.00223815-.10097068.09998915-.02719545c.69058822-.18783401 1.35698306-.4982739 2.00221941-.93273473.17305961-.11652655.43917072-.31700318.43548152-.32807238-.00175181-.00525383-.03890618-.03083105-.08256624-.05683783-.87560573-.52156817-1.66158279-1.107847-2.41894377-1.80434578-.16545163-.15215708-.5599248-.5452144-.73105262-.72843051-1.4266731-1.52745304-2.37489098-3.22317733-2.72403625-4.87147117-.07714202-.36418326-.12879161-.76348937-.14190619-1.09707851l-.00533062-.13560376.05126083.0194842c.02819374.01071628.47061528.1822147.98315966.38110751 1.33304007.51728602 1.35140527.52365677 2.4352292.84474527.49686765.14719954.9054233.26966424.90790143.27214373.00247893.00247949.00332284.12029454.00187659.26181117-.00583296.57068444.06243562 1.12565147.21467509 1.74514157.31208052 1.26991308.94484702 2.55914942 1.78830744 3.64360448.23129417.29737971.58890814.70392357.61920245.70392357.02203521 0 .21570762-.2099268.42262612-.45809666 1.06023521-1.27160114 1.81916721-2.86440652 2.09296548-4.39260276.08034088-.44842003.11018404-.78934054.10737634-1.2266405-.00096789-.15068348-.00025597-.27543985.00157423-.2772363.0018334-.00179652.40109004-.12090703.88723724-.26469014 1.0766231-.31842255 1.12375-.33478885 2.4957291-.86672224l.9878927-.38301834.0025653.06092402c.0028765.06828867-.0093014.26595977-.0271602.4408827-.0304815.29856145-.0971263.67566115-.1745915.98789277-.4837906 1.94997908-1.8163356 3.96949606-3.7083893 5.62018747-.62613366.5462599-1.29310364 1.03288714-2.00978183 1.46635608-.10008914.06053663-.18198024.11305572-.18198024.11670973 0 .00831429.18368565.14776875.33196395.25202703.67509231.47467407 1.38935556.81260698 2.15176642 1.01804467l.0559939.01508796.0022389.10132181.002239.1013218h-.0262364c-.0418778 0-.2994922-.0303383-.48218681-.0567658-.68503362-.0990941-1.42251515-.30593483-2.05977636-.57770372-.31811042-.13566287-.57161786-.24678361-.69592484-.30504608-.07259212-.03402431-.14278482-.0654513-.15598338-.06983802-.02149927-.00714642-.04064679-.00031197-.18398003.06569847-.16161685.07442792-.47676432.21234654-.71192278.31156057-.76488256.32270656-1.58549186.53449158-2.40259355.62006708-.06316274.0066153-.12536399.0120275-.13822419.0120275h-.02338146z" transform="translate(0 .898)"/></svg>