<svg height="13" viewBox="0 0 15 13" width="15" xmlns="http://www.w3.org/2000/svg"><path d="m14.5812942 2.83908372c-.1386625-.76536169-.7993475-1.32272964-1.5660685-1.49673725-1.1473627-.24333886-3.27079949-.41734647-5.56824356-.41734647-2.29608506 0-4.45350729.17400761-5.60222967.41734647-.76536134.17400761-1.427406.69603044-1.56606849 1.49673725-.14002149.87003805-.27868398 2.08809133-.27868398 3.65415983 0 1.56606849.13866249 2.78412177.3126701 3.65415985.14002149.7653617.80070681 1.3227296 1.5660685 1.4967372 1.21805327.2433389 3.3061446.4173465 5.60358867.4173465 2.29744441 0 4.38553573-.1740076 5.60358903-.4173465.7653613-.1740076 1.4260466-.6960304 1.5660685-1.4967372.1386621-.87003808.3126697-2.12343648.3480152-3.65415985-.0706906-1.5660685-.2446982-2.78412178-.4187058-3.65415983zm-9.01305065 6.09026638v-4.87221311l4.2455139 2.43610656z"/></svg>