<svg fill="none" height="280" viewBox="0 0 516 280" width="516" xmlns="http://www.w3.org/2000/svg" xmlns:xlink="http://www.w3.org/1999/xlink"><filter id="a" color-interpolation-filters="sRGB" filterUnits="userSpaceOnUse" height="289" width="285" x="142" y="34"><feFlood flood-opacity="0" result="BackgroundImageFix"/><feColorMatrix in="SourceAlpha" result="hardAlpha" type="matrix" values="0 0 0 0 0 0 0 0 0 0 0 0 0 0 0 0 0 0 127 0"/><feOffset dy="11"/><feGaussianBlur stdDeviation="16"/><feComposite in2="hardAlpha" operator="out"/><feColorMatrix type="matrix" values="0 0 0 0 0.0941176 0 0 0 0 0.101961 0 0 0 0 0.105882 0 0 0 0.14 0"/><feBlend in2="BackgroundImageFix" mode="normal" result="effect1_dropShadow_83_430"/><feBlend in="SourceGraphic" in2="effect1_dropShadow_83_430" mode="normal" result="shape"/></filter><filter id="b" color-interpolation-filters="sRGB" filterUnits="userSpaceOnUse" height="89" width="85" x="242" y="95"><feFlood flood-opacity="0" result="BackgroundImageFix"/><feBlend in="SourceGraphic" in2="BackgroundImageFix" mode="normal" result="shape"/><feColorMatrix in="SourceAlpha" result="hardAlpha" type="matrix" values="0 0 0 0 0 0 0 0 0 0 0 0 0 0 0 0 0 0 127 0"/><feOffset dy="2"/><feGaussianBlur stdDeviation="2"/><feComposite in2="hardAlpha" k2="-1" k3="1" operator="arithmetic"/><feColorMatrix type="matrix" values="0 0 0 0 1 0 0 0 0 1 0 0 0 0 1 0 0 0 0.25 0"/><feBlend in2="shape" mode="normal" result="effect1_innerShadow_83_430"/><feColorMatrix in="SourceAlpha" result="hardAlpha" type="matrix" values="0 0 0 0 0 0 0 0 0 0 0 0 0 0 0 0 0 0 127 0"/><feOffset dy="-4"/><feGaussianBlur stdDeviation="1"/><feComposite in2="hardAlpha" k2="-1" k3="1" operator="arithmetic"/><feColorMatrix type="matrix" values="0 0 0 0 0 0 0 0 0 0 0 0 0 0 0 0 0 0 0.1 0"/><feBlend in2="effect1_innerShadow_83_430" mode="multiply" result="effect2_innerShadow_83_430"/></filter><filter id="c" color-interpolation-filters="sRGB" filterUnits="userSpaceOnUse" height="59.8796" width="52.0391" x="258.477" y="112.712"><feFlood flood-opacity="0" result="BackgroundImageFix"/><feColorMatrix in="SourceAlpha" result="hardAlpha" type="matrix" values="0 0 0 0 0 0 0 0 0 0 0 0 0 0 0 0 0 0 127 0"/><feOffset dy="4"/><feGaussianBlur stdDeviation="2"/><feComposite in2="hardAlpha" operator="out"/><feColorMatrix type="matrix" values="0 0 0 0 0 0 0 0 0 0 0 0 0 0 0 0 0 0 0.15 0"/><feBlend in2="BackgroundImageFix" mode="normal" result="effect1_dropShadow_83_430"/><feBlend in="SourceGraphic" in2="effect1_dropShadow_83_430" mode="normal" result="shape"/></filter><linearGradient id="d" gradientUnits="userSpaceOnUse" x1="746" x2="746" y1="523.5" y2="280"><stop offset=".517777" stop-color="#f6f7fb"/><stop offset="1" stop-color="#f6f7fb" stop-opacity="0"/></linearGradient><radialGradient id="e" cx="0" cy="0" gradientTransform="matrix(-77.50106898 -112.4995539 112.4995539 -77.50106898 327 198)" gradientUnits="userSpaceOnUse" r="1"><stop offset="0" stop-color="#1e2d86"/><stop offset="1" stop-color="#4b5cc5"/></radialGradient><clipPath id="f"><path d="m0 0h516v248c0 17.673-14.327 32-32 32h-452c-17.6731 0-32-14.327-32-32z"/></clipPath><mask id="g" height="280" maskUnits="userSpaceOnUse" width="518" x="-1" y="0"><path d="m517 280h518v280h-518z" fill="url(#d)" transform="matrix(-1 0 0 -1 1034 560)"/></mask><g clip-path="url(#f)"><g mask="url(#g)"><path d="m48 9.05662c0-5.00183 4.0548-9.05662 9.0566-9.05662h459.9434v280h-469z" fill="#fff"/><path d="m57.0566.566038h459.3774v278.867962h-467.868v-270.37738c0-4.68922 3.8014-8.490582 8.4906-8.490582z" stroke="#81899b" stroke-opacity=".1" stroke-width="1.13208"/><g filter="url(#a)"><path d="m174 71c0-8.8366 7.163-16 16-16h189c8.837 0 16 7.1634 16 16v209h-221z" fill="#fff"/><path d="m190 55.566h189c8.524 0 15.434 6.9101 15.434 15.434v208.434h-219.868v-208.434c0-8.5239 6.91-15.434 15.434-15.434z" stroke="#81899b" stroke-opacity=".1" stroke-width="1.13208"/></g><g fill="#f0f2f7"><circle cx="78" cy="27" r="7"/><circle cx="102" cy="27" r="7"/><circle cx="126" cy="27" r="7"/></g><g filter="url(#b)"><rect fill="url(#e)" height="85" rx="20" width="85" x="242" y="97"/></g><g filter="url(#c)"><path clip-rule="evenodd" d="m266.887 124.87 21.69-9.032c.334-.138.701-.104.967.033.269.138.269.271.269.28v6.58c-.002.038-.002.078-.002.117v10.885c-.033.571-.445 1.248-1.368 1.629l-.004.002-9.26 3.855v-.002l-6.637 2.765-4.574 1.904.008.021c-.833.434-1.509 1.042-1.978 1.763-.32-.805-.484-1.644-.484-2.485v-16.611c0-.585.406-1.304 1.37-1.703zm25.963-8.719v3.51c.973-.133 2.06.082 2.942.813l.002.002 5.619 4.678 1.164.97c2.478 2.063 3.939 4.931 3.939 7.991v16.615c0 2.043-1.374 3.735-3.245 4.509l-.002.001-21.688 9.031-.002.001c-1.2.498-2.501.387-3.52-.138-1.015-.522-1.916-1.564-1.916-2.981v-3.514c-.974.133-2.062-.081-2.945-.813l-6.203-5.165c-.035-.029-.068-.058-.102-.087l-.478-.398c-2.478-2.063-3.938-4.931-3.938-7.991v-16.611c0-2.044 1.374-3.735 3.245-4.509l.001-.001 21.69-9.031c1.201-.499 2.501-.387 3.52.137 1.016.522 1.917 1.564 1.917 2.981zm8.165 17.241.01.026-20.472 8.522-.003.002c-.964.398-1.37 1.117-1.37 1.703v17.508c0 .009 0 .142.269.28.265.137.633.171.966.033l21.69-9.032.004-.001c.963-.399 1.37-1.118 1.37-1.703v-16.615c0-.842-.164-1.682-.486-2.487-.469.722-1.145 1.33-1.978 1.764zm-8.165-10.538v10.672l6.536-2.723h.001c.821-.341 1.188-.9 1.279-1.364.086-.444-.04-.988-.614-1.466l-6.199-5.161-.001-.001c-.173-.142-.47-.202-.765-.1-.137.047-.209.109-.234.139zm-23.328 26.959.001-.002-.652-.543c-.517-.463-.63-.981-.547-1.407.091-.464.458-1.023 1.279-1.365l4.121-1.716 2.418-1.007v10.671l-.005.006c-.025.03-.098.092-.234.139-.295.102-.592.042-.765-.1l-.001-.001z" fill="#fff" fill-rule="evenodd"/></g><rect fill="#f6f7fb" height="48" rx="4" width="134" x="218" y="198"/><path d="m239.21 229h2.794v-12.564h-2.794zm8.951 0h2.793v-7.527l5.873 7.527h2.046v-12.564h-2.793v7.635l-5.962-7.635h-1.957zm20.404.196c3.025 0 4.822-1.442 4.822-3.844 0-4.573-5.89-3.488-5.89-5.677 0-.694.587-1.067 1.584-1.067.961 0 1.708.373 2.456 1.156l1.815-1.797c-.943-1.05-2.456-1.726-4.218-1.726-2.598 0-4.413 1.388-4.413 3.701 0 4.413 5.89 3.292 5.89 5.659 0 .747-.694 1.21-1.868 1.21-1.317 0-2.26-.516-3.061-1.459l-1.815 1.797c1.228 1.388 2.634 2.047 4.698 2.047zm12.948-.196h2.794v-10.126h3.933v-2.438h-10.659v2.438h3.932zm9.534 0h2.901l.837-2.278h4.911l.836 2.278h2.954l-4.929-12.564h-2.527zm4.574-4.556 1.637-4.484 1.619 4.484zm12.932 4.556h8.364v-2.456h-5.57v-10.108h-2.794zm13.712 0h8.364v-2.456h-5.57v-10.108h-2.794z" fill="#4d5982"/></g></g></svg>