<svg height="224" viewBox="0 0 178 224" width="178" xmlns="http://www.w3.org/2000/svg" xmlns:xlink="http://www.w3.org/1999/xlink"><defs><linearGradient id="a" x1="49.999914%" x2="75.931775%" y1="0%" y2="115.010332%"><stop offset="0" stop-color="#2c245e"/><stop offset="1" stop-color="#4f4880"/></linearGradient><path id="b" d="m43.1095003 103.128756v49.008c.034 1.289-.323 2.559-1.026 3.641-.702 1.082-1.716 1.925-2.907 2.419-1.192.494-2.5053.615-3.7671.347s-2.4126-.912-3.3006-1.848l-19.5298-19.593c-1.4282-1.43-2.4965-3.178-3.11680001-5.1-.6203-1.923-.7749-3.966-.4511-5.96.3238-1.995 1.11680001-3.883 2.31370001-5.511 1.1968-1.628 2.7632-2.948 4.5703-3.852z"/><filter id="c" height="168.9%" width="211.8%" x="-55.9%" y="-26.6%"><feOffset dx="0" dy="4.4" in="SourceAlpha" result="shadowOffsetOuter1"/><feGaussianBlur in="shadowOffsetOuter1" result="shadowBlurOuter1" stdDeviation="5.65"/><feColorMatrix in="shadowBlurOuter1" type="matrix" values="0 0 0 0 0.17254902   0 0 0 0 0.141176471   0 0 0 0 0.368627451  0 0 0 0.2 0"/></filter><filter id="d" height="162%" width="200.5%" x="-50.3%" y="-23.1%"><feGaussianBlur in="SourceAlpha" result="shadowBlurInner1" stdDeviation=".41"/><feOffset dx="-1.1" dy=".27" in="shadowBlurInner1" result="shadowOffsetInner1"/><feComposite in="shadowOffsetInner1" in2="SourceAlpha" k2="-1" k3="1" operator="arithmetic" result="shadowInnerInner1"/><feColorMatrix in="shadowInnerInner1" result="shadowMatrixInner1" type="matrix" values="0 0 0 0 0.392156863   0 0 0 0 0.349019608   0 0 0 0 0.674509804  0 0 0 1 0"/><feGaussianBlur in="SourceAlpha" result="shadowBlurInner2" stdDeviation="3.58"/><feOffset dx="1.37" dy="4.68" in="shadowBlurInner2" result="shadowOffsetInner2"/><feComposite in="shadowOffsetInner2" in2="SourceAlpha" k2="-1" k3="1" operator="arithmetic" result="shadowInnerInner2"/><feColorMatrix in="shadowInnerInner2" result="shadowMatrixInner2" type="matrix" values="0 0 0 0 0.129411765   0 0 0 0 0.101960784   0 0 0 0 0.309803922  0 0 0 1 0"/><feMerge><feMergeNode in="shadowMatrixInner1"/><feMergeNode in="shadowMatrixInner2"/></feMerge></filter><linearGradient id="e" x1="44.572571%" x2="58.498154%" y1="9.267542%" y2="106.956097%"><stop offset="0" stop-color="#6edbff"/><stop offset="1" stop-color="#28c5fc"/></linearGradient><path id="f" d="m86.1545003 7.26475567v66.22600003c-.001 2.441-.681 4.833-1.965 6.908s-3.121 3.752-5.305 4.842l-35.775 17.8880003-27.2146 13.615c-1.7955.906-3.3512 2.224-4.5401 3.847-1.1889 1.622-1.97720001 3.503-2.30050001 5.488-.3234 1.985-.1726 4.019.4399 5.935.61260001 1.915 1.66950001 3.659 3.08460001 5.089l-1.8971-1.77c-3.38710001-3.388-6.07370001-7.409-7.90650001-11.835-1.8327-4.426-2.77520029-9.17-2.77520029-13.96v-62.8626003c0-2.4405.68140029-4.8325 1.96550029-6.9079 1.284-2.0753 3.1208-3.752 5.3044-4.8419l68.37860001-34.16530003c1.108-.5508 2.338-.8097 3.574-.7522s2.437.4295 3.489 1.0809c1.052.6513 1.92 1.5604 2.523 2.6412.602 1.0807.919 2.2974.92 3.5348z"/><filter id="g" height="122.4%" width="135.6%" x="-17.8%" y="-11.2%"><feGaussianBlur in="SourceAlpha" result="shadowBlurInner1" stdDeviation=".41"/><feOffset dx="-1.4" dy="-1.4" in="shadowBlurInner1" result="shadowOffsetInner1"/><feComposite in="shadowOffsetInner1" in2="SourceAlpha" k2="-1" k3="1" operator="arithmetic" result="shadowInnerInner1"/><feColorMatrix in="shadowInnerInner1" result="shadowMatrixInner1" type="matrix" values="0 0 0 0 0.0862745098   0 0 0 0 0.77254902   0 0 0 0 1  0 0 0 1 0"/><feGaussianBlur in="SourceAlpha" result="shadowBlurInner2" stdDeviation="11.75"/><feOffset dx="7.15" dy="6.6" in="shadowBlurInner2" result="shadowOffsetInner2"/><feComposite in="shadowOffsetInner2" in2="SourceAlpha" k2="-1" k3="1" operator="arithmetic" result="shadowInnerInner2"/><feColorMatrix in="shadowInnerInner2" result="shadowMatrixInner2" type="matrix" values="0 0 0 0 0.533333333   0 0 0 0 0.878431373   0 0 0 0 0.992156863  0 0 0 1 0"/><feMerge><feMergeNode in="shadowMatrixInner1"/><feMergeNode in="shadowMatrixInner2"/></feMerge></filter><linearGradient id="h" x1="49.999616%" x2="75.929733%" y1=".000121%" y2="115.002573%"><stop offset="0" stop-color="#4f4880"/><stop offset="1" stop-color="#2c245e"/></linearGradient><path id="i" d="m142.0655 80.4257557-27.214 13.631v-49.0236c-.034-1.2895.323-2.5591 1.025-3.6411.702-1.0821 1.716-1.9258 2.908-2.4197 1.192-.494 2.505-.6149 3.767-.3469 1.262.2681 2.412.9124 3.3 1.8481l17.697 17.6962 1.833 1.834c1.428 1.429 2.497 3.177 3.117 5.1.62 1.922.775 3.965.451 5.96-.324 1.994-1.117 3.883-2.314 5.51-1.196 1.628-2.763 2.948-4.57 3.852z"/><filter id="j" height="119.8%" width="132.1%" x="-16.1%" y="-9.9%"><feGaussianBlur in="SourceAlpha" result="shadowBlurInner1" stdDeviation=".41"/><feOffset dx="1.1" dy="-.27" in="shadowBlurInner1" result="shadowOffsetInner1"/><feComposite in="shadowOffsetInner1" in2="SourceAlpha" k2="-1" k3="1" operator="arithmetic" result="shadowInnerInner1"/><feColorMatrix in="shadowInnerInner1" result="shadowMatrixInner1" type="matrix" values="0 0 0 0 0.392156863   0 0 0 0 0.349019608   0 0 0 0 0.674509804  0 0 0 1 0"/><feGaussianBlur in="SourceAlpha" result="shadowBlurInner2" stdDeviation="3.44"/><feOffset dx="-1.65" dy="-4.13" in="shadowBlurInner2" result="shadowOffsetInner2"/><feComposite in="shadowOffsetInner2" in2="SourceAlpha" k2="-1" k3="1" operator="arithmetic" result="shadowInnerInner2"/><feColorMatrix in="shadowInnerInner2" result="shadowMatrixInner2" type="matrix" values="0 0 0 0 0.129411765   0 0 0 0 0.101960784   0 0 0 0 0.309803922  0 0 0 1 0"/><feMerge><feMergeNode in="shadowMatrixInner1"/><feMergeNode in="shadowMatrixInner2"/></feMerge></filter><linearGradient id="k" x1="50.000227%" x2="73.435288%" y1="0%" y2="83.332887%"><stop offset="0" stop-color="#ff698b"/><stop offset=".572917" stop-color="#ff88a3"/><stop offset="1" stop-color="#ffafc1"/></linearGradient><path id="l" d="m157.89651 87.6797557v62.7990003c.00199 2.443-.67701 4.838-1.96101 6.917-1.284 2.078-3.123 3.757-5.309 4.848l-68.3149997 34.15c-1.106.555-2.336.817-3.572.763-1.237-.055-2.439-.425-3.492-1.076-1.053-.65-1.922-1.559-2.524-2.64-.603-1.081-.919-2.298-.9180024-3.536v-66.226c.0010024-2.441.6820024-4.833 1.9660024-6.908s3.121-3.752 5.304-4.842l35.7759997-17.8720003 27.214-13.615c1.807-.904 3.373-2.224 4.57-3.852 1.197-1.627 1.99-3.516 2.314-5.511.324-1.994.169-4.037-.451-5.96-.621-1.922-1.689-3.67-3.117-5.099l1.833 1.817c6.847 6.857 10.689 16.153 10.68201 25.843z"/><filter id="m" height="143.7%" width="169.7%" x="-34.8%" y="-15.3%"><feOffset dx="0" dy="9" in="SourceAlpha" result="shadowOffsetOuter1"/><feGaussianBlur in="shadowOffsetOuter1" result="shadowBlurOuter1" stdDeviation="8.5"/><feColorMatrix in="shadowBlurOuter1" type="matrix" values="0 0 0 0 0.91372549   0 0 0 0 0.192156863   0 0 0 0 0.356862745  0 0 0 0.2 0"/></filter><filter id="n" height="129.8%" width="147.5%" x="-23.8%" y="-8.3%"><feGaussianBlur in="SourceAlpha" result="shadowBlurInner1" stdDeviation=".4"/><feOffset dx="1.1" dy="1.1" in="shadowBlurInner1" result="shadowOffsetInner1"/><feComposite in="shadowOffsetInner1" in2="SourceAlpha" k2="-1" k3="1" operator="arithmetic" result="shadowInnerInner1"/><feColorMatrix in="shadowInnerInner1" result="shadowMatrixInner1" type="matrix" values="0 0 0 0 1   0 0 0 0 0.658823529   0 0 0 0 0.729411765  0 0 0 1 0"/><feGaussianBlur in="SourceAlpha" result="shadowBlurInner2" stdDeviation="2.75"/><feOffset dx="1.4" dy="1.1" in="shadowBlurInner2" result="shadowOffsetInner2"/><feComposite in="shadowOffsetInner2" in2="SourceAlpha" k2="-1" k3="1" operator="arithmetic" result="shadowInnerInner2"/><feColorMatrix in="shadowInnerInner2" result="shadowMatrixInner2" type="matrix" values="0 0 0 0 1   0 0 0 0 0.717647059   0 0 0 0 0.780392157  0 0 0 1 0"/><feMerge><feMergeNode in="shadowMatrixInner1"/><feMergeNode in="shadowMatrixInner2"/></feMerge></filter></defs><g fill="none" transform="translate(3)"><g><use fill="#000" filter="url(#c)" xlink:href="#b"/><use fill="url(#a)" xlink:href="#b"/><use fill="#000" filter="url(#d)" xlink:href="#b"/></g><g><use fill="url(#e)" xlink:href="#f"/><use fill="#000" filter="url(#g)" xlink:href="#f"/></g><g><use fill="url(#h)" xlink:href="#i"/><use fill="#000" filter="url(#j)" xlink:href="#i"/></g><g><use fill="#000" filter="url(#m)" xlink:href="#l"/><use fill="url(#k)" xlink:href="#l"/><use fill="#000" filter="url(#n)" xlink:href="#l"/></g></g></svg>