<svg height="14" viewBox="0 0 14 14" width="14" xmlns="http://www.w3.org/2000/svg"><path d="m5.71381802 6.5c.09801749-.0004299.19084035-.01957842.27846856-.05744556s.16604937-.09552765.23526348-.17298153l4.99803234-5.1067974c.1342725-.1347024.2014088-.2938017.2014088-.47729791 0-.13018844-.0303439-.24662003-.0910316-.34929479s-.142172-.18437391-.2444526-.24509747c-.1022807-.06072356-.2182645-.09108534-.3479514-.09108534-.1852875 0-.3491156.06774528-.4914846.20323583l-4.87174891 4.9883596h.66903389l-4.879917-4.9883596c-.13914471-.13549055-.30114585-.20323583-.4860034-.20323583-.1296869 0-.24567068.03036178-.34795136.09108534-.10228069.06072356-.18376489.14242271-.24445262.24509747s-.0910316.21910635-.0910316.34929479c0 .09357519.01782299.18055855.05346897.26095008.03564598.08039155.08495924.15250749.14793979.21634783l4.99255112 5.11303097c.15318817.14946234.32647421.22419352.51985814.22419352z" transform="translate(1.25 4)"/></svg>