<svg height="14" viewBox="0 0 14 14" width="14" xmlns="http://www.w3.org/2000/svg"><path d="m6.12030028-1.16349792c-.19019572 0-.34510803.05944061-.46473694.17832184-.11962891.11888122-.17944336.27452342-.17944336.46692657v8.25823975l.07498169 2.02471924.38975526-.1741028-2.22669983-2.4703369-1.4719696-1.44313049c-.05675253-.0612386-.1241862-.10714976-.20230103-.13773346-.07811483-.03058369-.16206868-.04587554-.25186157-.04587554-.1816508 0-.33115133.0593872-.44850159.17816162-.11735026.11877441-.17602539.26823934-.17602539.44839477 0 .17346192.06650798.33079529.19952393.47200012l4.27641296 4.2778015c.06864421.072347.14426676.1261088.22686768.1612854.08260091.0351766.16726684.0527649.25399779.0527649.09086101 0 .17769878-.0175883.26051331-.0527649s.15829468-.0889384.22644043-.1612854l4.27096558-4.2778015c.137146-.14120484.205719-.29853821.205719-.47200012 0-.18015543-.0597077-.32962036-.1791229-.44839477-.1194153-.11877442-.2676697-.17816162-.4447632-.17816162-.0897929 0-.1738536.01529184-.252182.04587554-.0783285.03058371-.147934.07649486-.20881656.13773346l-1.4664154 1.44313049-2.23908996 2.4703369.40214538.1741028.07498169-2.02471924v-8.25823975c0-.19240315-.06084696-.34804535-.18254089-.46692657s-.27763875-.17832184-.46783447-.17832184z" transform="matrix(0 -1 1 0 2.013498 13.083938)"/></svg>