<svg height="14" viewBox="0 0 14 14" width="14" xmlns="http://www.w3.org/2000/svg"><path d="m11.539568 0c1.6250295 0 2.460432.8353948 2.460432 2.43583917v9.13445063c0 1.6018346-.8354025 2.4297102-2.460432 2.4297102h-9.07912835c-1.61889281 0-2.46043965-.8278756-2.46043965-2.4297102v-9.13445063c0-1.60044437.84154684-2.43583917 2.46043965-2.43583917zm-.0851762 1.4708291h-8.90875292c-.69739249 0-1.07616153.36586589-1.07616153 1.09461766v8.87665634c0 .7287211.37876904 1.0883965 1.07616153 1.0883965h8.90875292c.6912405 0 1.0761078-.3596754 1.0761078-1.0883965v-8.87665634c0-.72875177-.3848673-1.09461766-1.0761078-1.09461766zm-2.25229175 2.56815796c.46628009 0 .75829078.23055941.75829078.74328317v3.49164751c0 .39631119-.24654243.67964297-.61981227.67964297-.37319304 0-.61366791-.2648987-.61366791-.67004241v-1.19771232l.1111361-1.08366533-1.01251364 1.10241331-2.62248946 2.61973985c-.1347074.13340941-.3015114.20760255-.50447496.20760255-.37862311 0-.65148644-.2579863-.65148644-.65352944 0-.17565188.07965394-.35268624.20491439-.47933685l2.63401013-2.63397173 1.11471739-1.01871177-1.02906502.12000703h-1.26652915c-.40862295 0-.67353701-.24046719-.67353701-.61368327 0-.37322376.26011378-.61368327.66528821-.61368327z"/></svg>