<svg height="10" viewBox="0 0 13 10" width="13" xmlns="http://www.w3.org/2000/svg"><path d="m4.95680237 0c-.19019572 0-.34510803.05944061-.46473694.17832184-.11962891.11888122-.17944336.27452342-.17944336.46692657v8.25823975l.07498169 2.02471924.38975525-.1741028-2.22669983-2.4703369-1.4719696-1.44313049c-.05675253-.06123861-.1241862-.10714976-.20230103-.13773346s-.16206868-.04587555-.25186157-.04587555c-.1816508 0-.33115133.05938721-.44850159.17816162s-.17602539.26823934-.17602539.44839477c0 .17346192.06650798.33079529.19952393.47200013l4.27641296 4.27780148c.06864421.072347.14426676.1261088.22686768.1612854.08260091.0351766.16726684.0527649.2539978.0527649.090861 0 .17769877-.0175883.2605133-.0527649.08281454-.0351766.15829468-.0889384.22644043-.1612854l4.27096558-4.27780148c.137146-.14120484.20571899-.29853821.20571899-.47200013 0-.18015543-.05970764-.32962036-.17912292-.44839477s-.26766968-.17816162-.44476318-.17816162c-.08979289 0-.17385356.01529185-.25218201.04587555s-.14793396.07649485-.20881653.13773346l-1.46641541 1.44313049-2.23908996 2.4703369.40214538.1741028.07498169-2.02471924v-8.25823975c0-.19240315-.06084696-.34804535-.18254089-.46692657-.12169393-.11888123-.27763875-.17832184-.46783447-.17832184z" fill="#fff" transform="matrix(0 -1 1 0 .710754 10.005927)"/></svg>