<svg height="14" viewBox="0 0 14 14" width="14" xmlns="http://www.w3.org/2000/svg"><path d="m5.66491699 0c-.21736653 0-.39440918.06793213-.53112793.20379639s-.20507812.31374105-.20507812.53363037v9.43798824l.08569336 2.3139649.44543457-.1989746-2.54479981-2.82324221-1.68225097-1.649292c-.06486003-.06998698-.14192709-.12245686-.23120118-.15740966-.08927408-.0349528-.18522135-.0524292-.28784179-.0524292-.20760091 0-.37845866.06787109-.51257324.20361328-.13411459.13574219-.20117188.30655924-.20117188.51245117 0 .19824219.07600911.37805176.22802734.53942871l4.88732911 4.88891601c.07845052.0826823.1648763.1441244.25927734.1843262s.19116211.0603027.2902832.0603027c.10384115 0 .20308431-.0201009.29772949-.0603027.09464519-.0402018.18090821-.1016439.25878907-.1843262l4.88110355-4.88891601c.1567382-.16137695.2351074-.34118652.2351074-.53942871 0-.20589193-.0682373-.37670898-.2047119-.51245117s-.3059082-.20361328-.5083008-.20361328c-.1026205 0-.1986898.0174764-.288208.0524292s-.1690674.08742268-.2386475.15740966l-1.6759033 1.649292-2.55895996 2.82324221.45959473.1989746.08569335-2.3139649v-9.43798824c0-.21988932-.06953938-.39776611-.20861816-.53363037s-.31730143-.20379639-.53466797-.20379639z" transform="translate(1.35)"/></svg>