<svg fill="none" height="64" viewBox="0 0 64 64" width="64" xmlns="http://www.w3.org/2000/svg" xmlns:xlink="http://www.w3.org/1999/xlink"><clipPath id="a"><rect height="64" rx="32" transform="matrix(-1 0 0 1 64 0)" width="64"/></clipPath><g clip-path="url(#a)"><path clip-rule="evenodd" d="m55.5172 8.84847.0007-.00069-.1823-.1823-.1823-.1823-.0007.00069c-12.8402-12.64516-33.4629-12.64516-46.30305 0l-.00069-.00069-.18231.1823-.1823.1823.0007.00069c-12.70541 12.90133-12.64488 33.65953.1816 46.48603 12.88735 12.8873 33.78175 12.8873 46.66905 0 12.8265-12.8265 12.887-33.5847.1816-46.48603zm-1.0938.36463c-6.2187-6.12123-14.3205-9.1818495-22.4223-9.1818495s-16.2036 3.0606195-22.42232 9.1818495l4.74002 4.74c9.8194-9.62497 25.5452-9.62497 35.3646 0zm-45.20922.3646c-6.12124 6.2187-9.1818515 14.3205-9.1818515 22.4223s3.0606115 16.2036 9.1818515 22.4223l4.74002-4.74c-9.62499-9.8194-9.62499-25.5452 0-35.3646zm45.57382 0-4.74 4.74c9.6249 9.8194 9.6249 25.5452 0 35.3646l4.74 4.74c6.1212-6.2187 9.1818-14.3205 9.1818-22.4223s-3.0606-16.2036-9.1818-22.4223zm-.3646 45.2092-4.74-4.74c-9.8194 9.625-25.5452 9.625-35.3646 0l-4.74002 4.74c6.21872 6.1212 14.32052 9.1818 22.42232 9.1818s16.2036-3.0606 22.4223-9.1818zm-40.1046-5.4692c-9.42363-9.618-9.42363-25.0174 0-34.6354l4.7402 4.7402c-6.8064 6.9997-6.8064 18.1553 0 25.155zm.3646-35 4.7402 4.7402c6.9997-6.8064 18.1553-6.8064 25.155 0l4.7401-4.7402c-9.6179-9.42361-25.0173-9.42361-34.6353 0zm4.7402 29.8952c-6.605-6.7983-6.605-17.6275 0-24.4258l6.5643 6.5644c-2.9824 3.1713-2.9824 8.1257 0 11.297zm.3646-24.7904 6.5643 6.5644c3.1714-2.9825 8.1257-2.9825 11.2971 0l6.5643-6.5644c-6.7982-6.605-17.6274-6.605-24.4257 0zm6.5645 17.8612c-2.7813-2.9697-2.7813-7.5977 0-10.5674l5.2838 5.2837zm.3646-10.932 5.2838 5.2837 5.2837-5.2837c-2.9697-2.7814-7.5977-2.7814-10.5675 0zm0 11.2966 5.2838-5.2837 5.2837 5.2837c-2.9697 2.7814-7.5977 2.7814-10.5675 0zm5.6484-5.6483 5.2837 5.2837c2.7814-2.9697 2.7814-7.5977 0-10.5674zm-6.0132 6.0131c3.1714 2.9825 8.1257 2.9825 11.2971 0l6.5643 6.5644c-6.7982 6.605-17.6274 6.605-24.4257 0zm11.6617-.3646 6.5643 6.5644c6.6051-6.7983 6.6051-17.6275 0-24.4258l-6.5643 6.5644c2.9825 3.1713 2.9825 8.1257 0 11.297zm-18.5906 7.2936c6.9997 6.8064 18.1553 6.8064 25.155 0l4.7401 4.7402c-9.6179 9.4236-25.0173 9.4236-34.6353 0zm25.5196-.3646 4.7401 4.7402c9.4237-9.618 9.4237-25.0174 0-34.6354l-4.7401 4.7402c6.8064 6.9997 6.8063 18.1553 0 25.155z" fill="#dcdfea" fill-rule="evenodd"/></g><rect height="62.6415" rx="31.3208" stroke="#dcdfea" stroke-width="1.35849" transform="matrix(-1 0 0 1 62.6415 0)" width="62.6415" x="-.679245" y=".679245"/></svg>