<svg height="20" viewBox="0 0 20 20" width="20" xmlns="http://www.w3.org/2000/svg"><g><path d="m10 20c5.4786617 0 10.0016853-4.529368 10.0016853-10 0-5.47862206-4.5310533-10-10.00961591-10-5.46895663 0-9.99206939 4.52137794-9.99206939 10 0 5.470632 4.53105328 10 10 10zm0-1.9698637c-4.45613879 0-8.0222057-3.5740273-8.0222057-8.0301363 0-4.45613879 3.55813631-8.03013631 8.01427509-8.03013631 4.45610901 0 8.03985131 3.57399752 8.03985131 8.03013631 0 4.456109-3.5758117 8.0301363-8.0319207 8.0301363z"/><path d="m5.52199257 9.99821561c0 .52490709.37096406.89149939.90825278.89149939h2.65452293v2.662404c0 .529368.37445353.9082527.89937051.9082527.53452291 0 .91519211-.3709541.91519211-.9082527v-2.662404h2.6641883c.529368 0 .9065675-.3665923.9065675-.89149939 0-.53454275-.3771995-.91519207-.9065675-.91519207h-2.6641883v-2.65451301c0-.53903345-.3806692-.91620322-.91519211-.91620322-.52491698 0-.89937051.37716977-.89937051.91620322v2.65451301h-2.65452293c-.53728872 0-.90825278.38064932-.90825278.91519207z"/></g></svg>