<svg height="12" viewBox="0 0 12 12" width="12" xmlns="http://www.w3.org/2000/svg"><path d="m60.2386064 94.7607073c.3238721.3164622.8701178.3124177 1.178491.0040445l4.5843374-4.5843374 4.5816207 4.5829638c.3137914.3137913.8594159.3185226 1.1771754-.0039682.3177595-.3238644.3191331-.8573555.0053418-1.1723678l-4.5816207-4.589145 4.5816207-4.5816588c.3137913-.313738.3185226-.8532752-.0053418-1.171037-.3238644-.3238724-.863384-.3252138-1.1771754-.0053654l-4.5816207 4.5816566-4.5843374-4.5829982c-.3083732-.3131414-.8607292-.3246177-1.178491.0053655-.3164202.3238728-.3123964.8626698-.0040239 1.1710354l4.5843351 4.5830019-4.5843351 4.5918159c-.3083725.3069997-.3185073.8532347.0040239 1.1709942z" transform="translate(-60 -83)"/></svg>