<svg width="1200" height="780" viewBox="0 0 1200 780" fill="none" xmlns="http://www.w3.org/2000/svg">
<g filter="url(#filter0_i_950_4624)">
<g clip-path="url(#clip0_950_4624)">
<g filter="url(#filter1_b_950_4624)">
<mask id="path-2-outside-1_950_4624" maskUnits="userSpaceOnUse" x="0" y="0" width="1201" height="780" fill="black">
<rect fill="white" width="1201" height="780"/>
<path d="M0 0H1200V780H0V0Z"/>
</mask>
<path d="M0 0H1200V780H0V0Z" fill="#F6F7FB" fill-opacity="0.8"/>
<path fill-rule="evenodd" clip-rule="evenodd" d="M26 32C29.3137 32 32 29.3137 32 26C32 22.6863 29.3137 20 26 20C22.6863 20 20 22.6863 20 26C20 29.3137 22.6863 32 26 32Z" fill="#EC6A5E"/>
<path d="M31.75 26C31.75 29.1756 29.1756 31.75 26 31.75C22.8244 31.75 20.25 29.1756 20.25 26C20.25 22.8244 22.8244 20.25 26 20.25C29.1756 20.25 31.75 22.8244 31.75 26Z" stroke="black" stroke-opacity="0.12" stroke-width="0.5"/>
<path fill-rule="evenodd" clip-rule="evenodd" d="M46 32C49.3137 32 52 29.3137 52 26C52 22.6863 49.3137 20 46 20C42.6863 20 40 22.6863 40 26C40 29.3137 42.6863 32 46 32Z" fill="#F5BF4F"/>
<path d="M51.75 26C51.75 29.1756 49.1756 31.75 46 31.75C42.8244 31.75 40.25 29.1756 40.25 26C40.25 22.8244 42.8244 20.25 46 20.25C49.1756 20.25 51.75 22.8244 51.75 26Z" stroke="black" stroke-opacity="0.12" stroke-width="0.5"/>
<path fill-rule="evenodd" clip-rule="evenodd" d="M66 32C69.3137 32 72 29.3137 72 26C72 22.6863 69.3137 20 66 20C62.6863 20 60 22.6863 60 26C60 29.3137 62.6863 32 66 32Z" fill="#61C554"/>
<path d="M71.75 26C71.75 29.1756 69.1756 31.75 66 31.75C62.8244 31.75 60.25 29.1756 60.25 26C60.25 22.8244 62.8244 20.25 66 20.25C69.1756 20.25 71.75 22.8244 71.75 26Z" stroke="black" stroke-opacity="0.12" stroke-width="0.5"/>
<path d="M1199 0V780H1201V0H1199Z" fill="#E5E5E5" mask="url(#path-2-outside-1_950_4624)"/>
</g>
</g>
</g>
<defs>
<filter id="filter0_i_950_4624" x="0" y="0" width="1200" height="780.5" filterUnits="userSpaceOnUse" color-interpolation-filters="sRGB">
<feFlood flood-opacity="0" result="BackgroundImageFix"/>
<feBlend mode="normal" in="SourceGraphic" in2="BackgroundImageFix" result="shape"/>
<feColorMatrix in="SourceAlpha" type="matrix" values="0 0 0 0 0 0 0 0 0 0 0 0 0 0 0 0 0 0 127 0" result="hardAlpha"/>
<feOffset dy="0.5"/>
<feGaussianBlur stdDeviation="0.5"/>
<feComposite in2="hardAlpha" operator="arithmetic" k2="-1" k3="1"/>
<feColorMatrix type="matrix" values="0 0 0 0 1 0 0 0 0 1 0 0 0 0 1 0 0 0 1 0"/>
<feBlend mode="normal" in2="shape" result="effect1_innerShadow_950_4624"/>
</filter>
<filter id="filter1_b_950_4624" x="-80" y="-80" width="1361" height="940" filterUnits="userSpaceOnUse" color-interpolation-filters="sRGB">
<feFlood flood-opacity="0" result="BackgroundImageFix"/>
<feGaussianBlur in="BackgroundImageFix" stdDeviation="40"/>
<feComposite in2="SourceAlpha" operator="in" result="effect1_backgroundBlur_950_4624"/>
<feBlend mode="normal" in="SourceGraphic" in2="effect1_backgroundBlur_950_4624" result="shape"/>
</filter>
<clipPath id="clip0_950_4624">
<rect width="1200" height="780" rx="10" fill="white"/>
</clipPath>
</defs>
</svg>
