<svg fill="none" height="780" viewBox="0 0 1200 780" width="1200" xmlns="http://www.w3.org/2000/svg" xmlns:xlink="http://www.w3.org/1999/xlink"><filter id="a" color-interpolation-filters="sRGB" filterUnits="userSpaceOnUse" height="780.5" width="1200" x="0" y="0"><feFlood flood-opacity="0" result="BackgroundImageFix"/><feBlend in="SourceGraphic" in2="BackgroundImageFix" mode="normal" result="shape"/><feColorMatrix in="SourceAlpha" result="hardAlpha" type="matrix" values="0 0 0 0 0 0 0 0 0 0 0 0 0 0 0 0 0 0 127 0"/><feOffset dy=".5"/><feGaussianBlur stdDeviation=".5"/><feComposite in2="hardAlpha" k2="-1" k3="1" operator="arithmetic"/><feColorMatrix type="matrix" values="0 0 0 0 1 0 0 0 0 1 0 0 0 0 1 0 0 0 1 0"/><feBlend in2="shape" mode="normal" result="effect1_innerShadow_950_4624"/></filter><filter id="b" color-interpolation-filters="sRGB" filterUnits="userSpaceOnUse" height="940" width="1361" x="-80" y="-80"><feFlood flood-opacity="0" result="BackgroundImageFix"/><feGaussianBlur in="BackgroundImageFix" stdDeviation="40"/><feComposite in2="SourceAlpha" operator="in" result="effect1_backgroundBlur_950_4624"/><feBlend in="SourceGraphic" in2="effect1_backgroundBlur_950_4624" mode="normal" result="shape"/></filter><clipPath id="c"><rect height="780" rx="10" width="1200"/></clipPath><mask id="d" fill="#000" height="780" maskUnits="userSpaceOnUse" width="1201" x="0" y="0"><path d="m0 0h1201v780h-1201z" fill="#fff"/><path d="m0 0h1200v780h-1200z" fill="#000"/></mask><g filter="url(#a)"><g clip-path="url(#c)"><g filter="url(#b)"><path d="m0 0h1200v780h-1200z" fill="#f6f7fb" fill-opacity=".8"/><path clip-rule="evenodd" d="m26 32c3.3137 0 6-2.6863 6-6s-2.6863-6-6-6-6 2.6863-6 6 2.6863 6 6 6z" fill="#ec6a5e" fill-rule="evenodd"/><path d="m31.75 26c0 3.1756-2.5744 5.75-5.75 5.75s-5.75-2.5744-5.75-5.75 2.5744-5.75 5.75-5.75 5.75 2.5744 5.75 5.75z" stroke="#000" stroke-opacity=".12" stroke-width=".5"/><path clip-rule="evenodd" d="m46 32c3.3137 0 6-2.6863 6-6s-2.6863-6-6-6-6 2.6863-6 6 2.6863 6 6 6z" fill="#f5bf4f" fill-rule="evenodd"/><path d="m51.75 26c0 3.1756-2.5744 5.75-5.75 5.75s-5.75-2.5744-5.75-5.75 2.5744-5.75 5.75-5.75 5.75 2.5744 5.75 5.75z" stroke="#000" stroke-opacity=".12" stroke-width=".5"/><path clip-rule="evenodd" d="m66 32c3.3137 0 6-2.6863 6-6s-2.6863-6-6-6-6 2.6863-6 6 2.6863 6 6 6z" fill="#61c554" fill-rule="evenodd"/><path d="m71.75 26c0 3.1756-2.5744 5.75-5.75 5.75s-5.75-2.5744-5.75-5.75 2.5744-5.75 5.75-5.75 5.75 2.5744 5.75 5.75z" stroke="#000" stroke-opacity=".12" stroke-width=".5"/><path d="m1199 0v780h2v-780z" fill="#e5e5e5" mask="url(#d)"/></g></g></g></svg>