<svg height="80" viewBox="0 0 80 80" width="80" xmlns="http://www.w3.org/2000/svg" xmlns:xlink="http://www.w3.org/1999/xlink"><linearGradient id="a"><stop offset=".011" stop-color="#1b3967"/><stop offset=".467" stop-color="#13b5ea"/><stop offset=".9945" stop-color="#002b5c"/></linearGradient><linearGradient id="b" x1="50.029886%" x2="50.029886%" xlink:href="#a" y1="99.999201%" y2="-.000788%"/><linearGradient id="c" x1="49.970012%" x2="49.970012%" xlink:href="#a" y1="99.999201%" y2="-.000788%"/><g fill="none" transform="translate(0 11)"><path d="m63.269339 6.48698911c.0352031.60028304-.8169885.44255444-.8169885 1.04832369 0 17.6249145-21.2855886 44.5142163-41.9183112 49.7096591v.7493252c27.4095707-2.5236576 58.7756123-30.9971031 59.4659607-57.99383992l-16.7324898 6.48698911z" fill="url(#b)"/><path d="m54.9796724 8.65541445c.0347461.60028304.0548622 1.20239482.0548622 1.80907845 0 17.6249145-14.0350931 41.373817-34.6669104 46.5688027v.7493251c26.9939947-1.2755443 48.3746731-28.8135906 48.3746731-49.92453575 0-1.08581281-.0585196-2.16202476-.1696154-3.22589273l-13.5920905 4.02230786z" fill="#e96d1f"/><path d="m68.7034321 4.38119802-3.4823686 1.24445578c.0187445.43981134.0301742 1.03049351.0301742 1.47441951 0 18.84468239-17.0397177 44.89733679-39.8993898 48.97359239-1.4835677.4974165-3.4462601.9495718-4.9979392 1.3400073v.7488679c29.8331048-2.5419449 50.7931782-32.8560146 48.3518093-53.78317162z" fill="#d9541e"/><path d="m16.730661 6.48653192c-.0352031.60028304.8169885.44255445.8169885 1.0483237 0 17.62491458 21.2855918 44.51421628 41.9183135 49.70965918v.7493251c-27.4095684-2.5236576-58.77561464-30.9971031-59.465963-57.9938399l16.7324898 6.48698911z" fill="url(#c)"/><path d="m25.0203276 8.65495726c-.0347461.60028304-.0548622 1.20239482-.0548622 1.80907844 0 17.6249145 14.0350999 41.373817 34.6669127 46.5688027v.7493251c-26.9939878-1.2755443-48.3746708-28.8135906-48.3746708-49.92453573 0-1.08581282.0585196-2.16202476.1696154-3.22589273l13.5920905 4.02230785z" fill="#a0ce67"/><path d="m11.2965679 4.38074084 3.4823732 1.24445578c-.0187446.43981134-.0301742 1.03049351-.0301742 1.47441951 0 18.84468237 17.0397177 44.89733677 39.8993875 48.97359237 1.4835632.4974165 3.4462555.9495719 4.9979392 1.3400073v.7488679c-29.8331026-2.5419449-50.79317598-32.8560146-48.3518116-53.7831716z" fill="#439639"/></g></svg>