<svg fill="none" height="170" viewBox="0 0 162 170" width="162" xmlns="http://www.w3.org/2000/svg" xmlns:xlink="http://www.w3.org/1999/xlink"><filter id="a" color-interpolation-filters="sRGB" filterUnits="userSpaceOnUse" height="101.158" width="101.158" x="30.4211" y="12.4211"><feFlood flood-opacity="0" result="BackgroundImageFix"/><feColorMatrix in="SourceAlpha" result="hardAlpha" type="matrix" values="0 0 0 0 0 0 0 0 0 0 0 0 0 0 0 0 0 0 127 0"/><feMorphology in="SourceAlpha" operator="erode" radius="4.42105" result="effect1_dropShadow_946_2473"/><feOffset dy="12"/><feGaussianBlur stdDeviation="10"/><feComposite in2="hardAlpha" operator="out"/><feColorMatrix type="matrix" values="0 0 0 0 0.211765 0 0 0 0 0.811765 0 0 0 0 0.462745 0 0 0 0.4 0"/><feBlend in2="BackgroundImageFix" mode="normal" result="effect1_dropShadow_946_2473"/><feBlend in="SourceGraphic" in2="effect1_dropShadow_946_2473" mode="normal" result="shape"/></filter><filter id="b" color-interpolation-filters="sRGB" filterUnits="userSpaceOnUse" height="73.3266" width="66.9922" x="47.4727" y="15.3628"><feFlood flood-opacity="0" result="BackgroundImageFix"/><feBlend in="SourceGraphic" in2="BackgroundImageFix" mode="normal" result="shape"/><feColorMatrix in="SourceAlpha" result="hardAlpha" type="matrix" values="0 0 0 0 0 0 0 0 0 0 0 0 0 0 0 0 0 0 127 0"/><feOffset dy="6.33309"/><feGaussianBlur stdDeviation="2.11103"/><feComposite in2="hardAlpha" k2="-1" k3="1" operator="arithmetic"/><feColorMatrix type="matrix" values="0 0 0 0 1 0 0 0 0 1 0 0 0 0 1 0 0 0 0.25 0"/><feBlend in2="shape" mode="normal" result="effect1_innerShadow_946_2473"/><feColorMatrix in="SourceAlpha" result="hardAlpha" type="matrix" values="0 0 0 0 0 0 0 0 0 0 0 0 0 0 0 0 0 0 127 0"/><feOffset dy="-2.11103"/><feGaussianBlur stdDeviation="2.11103"/><feComposite in2="hardAlpha" k2="-1" k3="1" operator="arithmetic"/><feColorMatrix type="matrix" values="0 0 0 0 0.09375 0 0 0 0 0.5625 0 0 0 0 0.291667 0 0 0 1 0"/><feBlend in2="effect1_innerShadow_946_2473" mode="normal" result="effect2_innerShadow_946_2473"/></filter><filter id="c" color-interpolation-filters="sRGB" filterUnits="userSpaceOnUse" height="44.4061" width="44.8765" x="58.4621" y="33.6725"><feFlood flood-opacity="0" result="BackgroundImageFix"/><feColorMatrix in="SourceAlpha" result="hardAlpha" type="matrix" values="0 0 0 0 0 0 0 0 0 0 0 0 0 0 0 0 0 0 127 0"/><feOffset dy="4.22206"/><feGaussianBlur stdDeviation="4.22206"/><feComposite in2="hardAlpha" operator="out"/><feColorMatrix type="matrix" values="0 0 0 0 0 0 0 0 0 0 0 0 0 0 0 0 0 0 0.17 0"/><feBlend in2="BackgroundImageFix" mode="normal" result="effect1_dropShadow_946_2473"/><feBlend in="SourceGraphic" in2="effect1_dropShadow_946_2473" mode="normal" result="shape"/><feColorMatrix in="SourceAlpha" result="hardAlpha" type="matrix" values="0 0 0 0 0 0 0 0 0 0 0 0 0 0 0 0 0 0 127 0"/><feOffset dy="-2.11103"/><feGaussianBlur stdDeviation="1.05551"/><feComposite in2="hardAlpha" k2="-1" k3="1" operator="arithmetic"/><feColorMatrix type="matrix" values="0 0 0 0 0 0 0 0 0 0 0 0 0 0 0 0 0 0 0.19 0"/><feBlend in2="shape" mode="normal" result="effect2_innerShadow_946_2473"/></filter><linearGradient id="d" gradientUnits="userSpaceOnUse" x1="81" x2="81" y1="0" y2="170"><stop offset="0" stop-color="#f6f7fb"/><stop offset="1" stop-color="#f6f7fb" stop-opacity=".95"/></linearGradient><linearGradient id="e" gradientUnits="userSpaceOnUse" x1="80.9684" x2="80.9684" y1="17.4739" y2="84.4674"><stop offset="0" stop-color="#36cf76"/><stop offset="1" stop-color="#27ae60"/></linearGradient><linearGradient id="f" gradientUnits="userSpaceOnUse" x1="80.9684" x2="80.9684" y1="17.4739" y2="84.4674"><stop offset="0" stop-color="#fff"/><stop offset="1" stop-color="#fff" stop-opacity="0"/></linearGradient><linearGradient id="g" gradientUnits="userSpaceOnUse" x1="81" x2="81" y1="0" y2="170"><stop offset="0" stop-color="#81899b"/><stop offset="1" stop-color="#81899b" stop-opacity=".49"/></linearGradient><rect fill="url(#d)" height="170" rx="32" width="162"/><g filter="url(#a)"><g filter="url(#b)"><path d="m63.2514 76.6001h6.2836c.5543 0 .9569.16 1.37.573l4.4589 4.4298c3.8023 3.8315 7.3828 3.8072 11.185 0l4.459-4.4298c.437-.413.8155-.573 1.394-.573h6.2595c5.3966 0 7.9346-2.5237 7.9346-7.9395v-6.2595c0-.573.165-.957.578-1.394l4.43-4.4537c3.826-3.802 3.802-7.3828 0-11.1903l-4.43-4.4536c-.418-.4131-.578-.8156-.578-1.3699v-6.2836c0-5.3731-2.524-7.9342-7.9346-7.9342h-6.2595c-.5785 0-.9622-.1412-1.394-.5543l-4.459-4.4297c-3.8075-3.8314-7.3827-3.8074-11.185.0053l-4.4589 4.4244c-.4078.4131-.8157.5543-1.37.5543h-6.2836c-5.397 0-7.9341 2.5078-7.9341 7.9342v6.2836c0 .5543-.1412.9621-.5543 1.3699l-4.4297 4.4536c-3.8262 3.8075-3.8022 7.3883 0 11.1903l4.4297 4.4537c.4131.437.5543.821.5543 1.394v6.2595c0 5.397 2.5424 7.9395 7.9341 7.9395z" fill="url(#e)"/></g><path d="m76.1131 80.8594-.0053-.0053-4.4566-4.4274c-.0004-.0005-.0009-.0009-.0013-.0014-.2812-.2809-.5973-.5133-.9736-.6689-.3772-.1561-.7593-.2118-1.1413-.2118h-6.2836c-2.5487 0-4.2083-.6018-5.2424-1.6365-1.0343-1.0348-1.6362-2.6958-1.6362-5.2475v-6.2595c0-.3746-.0463-.7529-.1948-1.1325-.1488-.3803-.3749-.6977-.648-.9865l-.0092-.0098-.0094-.0095-4.4297-4.4538-.0021-.002c-1.7986-1.7986-2.5491-3.392-2.5514-4.8484-.0024-1.4547.7413-3.0478 2.5496-4.8473l.0039-.0038 4.4266-4.4506c.2911-.2882.5206-.6118.6697-.9929.148-.3783.1948-.7574.1948-1.1244v-6.2836c0-2.5684.6016-4.2261 1.633-5.2546 1.0319-1.0291 2.6904-1.6241 5.2456-1.6241h6.2836c.3671 0 .7461-.0468 1.1245-.1948.3809-.149.7043-.3783.9924-.6692l4.4555-4.421.0039-.0039c1.7993-1.8043 3.3912-2.5561 4.8452-2.559 1.4523-.0029 3.0437.7411 4.8437 2.5524l.0048.0048 4.459 4.4297.007.007.0072.0069c.2875.275.6049.5028.9871.6523.3805.1489.7606.1948 1.1366.1948h6.2595c2.5576 0 4.2166.606 5.2486 1.6417 1.032 1.0364 1.63 2.6966 1.63 5.237v6.2836c0 .3818.056.7651.214 1.1437.156.3768.391.6928.675.9737.001.0011.002.0023.003.0035l4.423 4.447.002.0014c1.799 1.8016 2.549 3.3965 2.552 4.8531.002 1.4546-.741 3.0461-2.549 4.8427l-.005.0043-4.429 4.4538-.01.0095-.009.0098c-.264.2794-.494.5896-.651.9638-.158.3788-.216.7623-.216 1.1552v6.2595c0 2.5625-.601 4.2224-1.634 5.254-1.032 1.0318-2.691 1.63-5.2446 1.63h-6.2595c-.3907 0-.7737.0547-1.1534.2118-.376.1554-.6861.3854-.9656.6496l-.0096.009-.0093.0093-4.459 4.4298-.0029.0029c-1.799 1.8013-3.3923 2.5525-4.8474 2.5549-1.4533.0024-3.0446-.7418-4.8416-2.5525z" stroke="url(#f)" stroke-opacity=".5" stroke-width="2.11103"/><g filter="url(#c)"><path d="m77.7044 65.4124c-1.1067 0-2.0063-.4545-2.8258-1.517l-7.1796-8.7332c-.5238-.6705-.7928-1.3705-.7928-2.089 0-1.5163 1.1836-2.7268 2.6948-2.7268.9046 0 1.6072.335 2.3607 1.3018l5.6467 7.1697 12.109-19.3964c.641-1.0242 1.4712-1.527 2.3942-1.527 1.4338 0 2.7825 1.0266 2.7825 2.5377 0 .7002-.3545 1.4162-.764 2.0655l-13.7114 21.3767c-.668 1.0008-1.6178 1.538-2.7143 1.538z" fill="#fff"/></g></g><path d="m45.5819 120h2.3938v-14.57h-2.3938zm9.1087.208c1.2697 0 2.3521-.479 3.0598-1.29v1.082h2.2897v-14.987h-2.2897v6.099c-.7077-.812-1.7901-1.311-3.0598-1.311-2.7059 0-4.8083 2.289-4.8083 5.224 0 2.914 2.1024 5.183 4.8083 5.183zm.3747-2.165c-1.6652 0-2.8309-1.249-2.8309-3.039s1.1657-3.039 2.8309-3.039c1.686 0 2.8308 1.249 2.8308 3.039s-1.1448 3.039-2.8308 3.039zm11.8453 2.165c1.5611 0 2.9974-.583 3.9757-1.727l-1.4571-1.478c-.6036.707-1.5195 1.061-2.5394 1.061-1.4987 0-2.581-.832-2.9141-2.206h7.4518c.0832-.416.1249-.75.1249-1.083 0-2.872-1.9983-4.974-4.7667-4.974-2.8932 0-5.1621 2.268-5.1621 5.203 0 2.977 2.2897 5.204 5.287 5.204zm-.1665-8.305c1.3946 0 2.2688.749 2.5602 2.081h-5.3286c.3331-1.29 1.353-2.081 2.7684-2.081zm6.3315 8.097h2.2896v-5.766c0-1.332.9575-2.289 2.2897-2.289s2.2688.957 2.2688 2.289v5.766h2.2897v-6.265c0-1.957-1.6236-3.934-3.8716-3.934-1.2281 0-2.2897.499-2.9766 1.353v-1.145h-2.2896zm12.5498 0h2.2897v-7.91h2.3937v-2.081h-2.3937v-4.163h-2.2897v4.163h-2.3937v2.081h2.3937zm7.2005-11.823c.791 0 1.353-.604 1.353-1.374s-.562-1.373-1.353-1.373c-.7909 0-1.353.603-1.353 1.373s.5621 1.374 1.353 1.374zm-1.1448 11.823h2.2896v-9.991h-2.2896zm6.065 0h2.2899v-7.91h2.393v-2.081h-2.393v-4.163h-2.2899v4.163h-2.3938v2.081h2.3938zm6.2849 4.163h2.539l1.853-4.059 4.641-10.095h-2.539l-2.706 6.515-2.56-6.515h-2.519l3.789 8.992zm-53.6408 23.837h1.6652l5.9323-14.57h-2.5603l-4.1838 10.636-4.1422-10.636h-2.6018zm11.7102.208c1.5611 0 2.9974-.583 3.9757-1.727l-1.4571-1.478c-.6036.707-1.5195 1.061-2.5394 1.061-1.4987 0-2.5811-.832-2.9141-2.206h7.4518c.0832-.416.1249-.75.1249-1.083 0-2.872-1.9983-4.974-4.7667-4.974-2.8933 0-5.1621 2.268-5.1621 5.203 0 2.977 2.2897 5.204 5.287 5.204zm-.1665-8.305c1.3946 0 2.2688.749 2.5602 2.081h-5.3286c.333-1.29 1.353-2.081 2.7684-2.081zm6.3315 8.097h2.2896v-5.558c0-1.706.9159-2.497 2.2064-2.497.5828 0 .9991.166 1.3738.541l1.4987-1.541c-.6869-.79-1.4779-1.144-2.477-1.144-1.1656 0-2.0399.458-2.6019 1.249v-1.041h-2.2896zm9.3298-11.823c.791 0 1.353-.604 1.353-1.374s-.562-1.373-1.353-1.373-1.353.603-1.353 1.373.562 1.374 1.353 1.374zm-1.1448 11.823h2.2896v-9.991h-2.2896zm5.9192 0h2.2897v-7.91h3.7467v7.91h2.2896v-9.991h-6.0363v-1.749c0-.791.4371-1.311 1.2489-1.311.4163 0 .7285.125.9991.354l1.4987-1.499c-.6869-.645-1.4571-.999-2.4978-.999-2.1023 0-3.5386 1.499-3.5386 3.476v1.728h-2.3937v2.081h2.3937zm7.1812-10.865c.791 0 1.353-.604 1.353-1.374s-.562-1.374-1.353-1.374-1.353.604-1.353 1.374.562 1.374 1.353 1.374zm8.0318 11.073c1.5612 0 2.9974-.583 3.9754-1.727l-1.457-1.478c-.6034.707-1.5193 1.061-2.5392 1.061-1.4987 0-2.581-.832-2.9141-2.206h7.4513c.084-.416.125-.75.125-1.083 0-2.872-1.998-4.974-4.7663-4.974-2.8932 0-5.1621 2.268-5.1621 5.203 0 2.977 2.2897 5.204 5.287 5.204zm-.1665-8.305c1.3946 0 2.2688.749 2.5603 2.081h-5.3287c.3331-1.29 1.353-2.081 2.7684-2.081zm10.5149 8.305c1.27 0 2.353-.479 3.06-1.29v1.082h2.29v-14.987h-2.29v6.099c-.707-.812-1.79-1.311-3.06-1.311-2.706 0-4.808 2.289-4.808 5.224 0 2.914 2.102 5.183 4.808 5.183zm.375-2.165c-1.665 0-2.831-1.249-2.831-3.039s1.166-3.039 2.831-3.039c1.686 0 2.831 1.249 2.831 3.039s-1.145 3.039-2.831 3.039z" fill="#121f3e"/><rect height="168.5" rx="31.25" stroke="url(#g)" stroke-opacity=".2" stroke-width="1.5" width="160.5" x=".75" y=".75"/></svg>