<svg fill="none" height="83" viewBox="0 0 271 83" width="271" xmlns="http://www.w3.org/2000/svg" xmlns:xlink="http://www.w3.org/1999/xlink"><linearGradient id="a" gradientUnits="userSpaceOnUse" x1="135.5" x2="135.5" y1="0" y2="82.4527"><stop offset="0" stop-color="#f6f7fb"/><stop offset="1" stop-color="#f6f7fb" stop-opacity=".95"/></linearGradient><linearGradient id="b" gradientUnits="userSpaceOnUse" x1="135.5" x2="135.5" y1="0" y2="82.4527"><stop offset="0" stop-color="#81899b"/><stop offset="1" stop-color="#81899b" stop-opacity=".49"/></linearGradient><rect fill="url(#a)" height="82.4527" rx="30" width="271"/><path d="m25.5893 39h10.7943v-2.6489h-7.7922v-3.9954h7.0196v-2.5606h-7.0196v-3.6643h7.6818v-2.6489h-10.6839zm12.6388 0h2.8917v-15.9596h-2.8917zm6.5796-12.3836c.9492 0 1.6335-.7284 1.6335-1.6555s-.6843-1.6556-1.6335-1.6556c-.9491 0-1.6334.7285-1.6334 1.6556s.6843 1.6555 1.6334 1.6555zm-1.4568 12.3836h2.9137v-10.6618h-2.9137zm4.3937 0h9.0063v-2.5164h-4.8563l4.9887-6.4898v-1.6556h-8.7413v2.5165h4.5914l-4.9888 6.4897zm14.9669.2207c1.2583 0 2.3399-.4635 3.0904-1.2361v1.0154h2.8696v-10.6618h-2.8696v1.0154c-.7505-.7726-1.8321-1.2361-3.1124-1.2361-2.8917 0-5.0991 2.4061-5.0991 5.5626 0 3.1566 2.2074 5.5406 5.1211 5.5406zm.5298-2.6709c-1.5893 0-2.693-1.192-2.693-2.8917 0-1.6777 1.1037-2.8697 2.693-2.8697 1.6114 0 2.7151 1.192 2.7151 2.8697 0 1.6997-1.1037 2.8917-2.7151 2.8917zm7.6573 2.4502h2.8696v-.9492c.7506.7285 1.8101 1.1699 3.0463 1.1699 2.9579 0 5.1653-2.384 5.1653-5.5406 0-3.1565-2.2074-5.5626-5.1653-5.5626-1.2141 0-2.2737.4194-3.0242 1.1258v-6.2029h-2.8917zm5.4302-2.4502c-1.6114 0-2.7151-1.192-2.7151-2.8917 0-1.6777 1.1037-2.8697 2.6931-2.8697 1.5893 0 2.7151 1.192 2.7151 2.8697 0 1.6997-1.1258 2.8917-2.6931 2.8917zm12.315 2.6709c1.7217 0 3.2448-.618 4.3044-1.8321l-1.6997-1.6997c-.6402.7284-1.5673 1.1037-2.6268 1.1037-1.479 0-2.5165-.7726-2.8696-2.097l7.7921-.0221c.1104-.4856.1545-.883.1545-1.2582 0-3.0683-2.2074-5.3199-5.2536-5.3199-3.1566 0-5.6068 2.4061-5.6068 5.5627 0 3.2228 2.4723 5.5626 5.8055 5.5626zm-.1987-8.7192c1.3465 0 2.1853.7064 2.4723 2.0308h-5.1653c.3531-1.2582 1.3244-2.0087 2.693-2.0308zm8.041 8.4985h2.8917v-8.1233h2.4942v-2.5385h-2.4942v-4.4369h-2.8917v4.4369h-2.4944v2.5385h2.4944zm6.6809 0h2.892v-6.1145c0-1.2582.905-2.1412 2.141-2.1412 1.258 0 2.141.883 2.141 2.1412v6.1145h2.892v-6.7547c0-2.4281-1.722-4.1278-4.15-4.1278-1.236 0-2.296.4415-3.024 1.2141v-6.2912h-2.892z" fill="#121f3e"/><path d="m125.992 39.1472c2.252 0 3.856-1.4569 3.856-3.4583 0-1.8395-1.163-3.3553-3.341-3.3553-.706 0-1.236.1178-1.648.3679l.28-2.487h4.135v-1.5157h-5.519l-.456 4.6797.927.9271c.589-.4415 1.163-.6034 1.958-.6034 1.03 0 1.957.6328 1.957 1.8984 0 1.2067-.898 1.9572-2.178 1.9572-.942 0-1.737-.3973-2.149-1.0301l-1.148 1.1479c.766.9565 1.899 1.4716 3.326 1.4716zm6.371-4.5473c.633 0 1.074-.4709 1.074-1.089s-.441-1.089-1.074-1.089-1.074.4709-1.074 1.089.441 1.089 1.074 1.089zm0 4.5473c.633 0 1.074-.471 1.074-1.089 0-.6181-.441-1.089-1.074-1.089s-1.074.4709-1.074 1.089c0 .618.441 1.089 1.074 1.089zm6.85 0c2.325 0 4.194-2.0603 4.194-5.2978 0-3.2523-1.883-5.2978-4.223-5.2978s-4.209 2.0455-4.209 5.2831c0 3.2375 1.898 5.3125 4.238 5.3125zm-.029-1.5894c-1.501 0-2.502-1.2214-2.502-3.7231 0-2.487 1.001-3.6938 2.502-3.6938s2.516 1.2215 2.516 3.6938c0 2.5017-1 3.7231-2.516 3.7231zm5.243 1.4422h6.99v-1.5158h-4.356l2.458-2.5458c1.28-1.3392 1.692-2.0456 1.692-3.3553 0-1.7953-1.28-3.0315-3.194-3.0315-1.559 0-2.737.7211-3.531 2.1191l1.177.9713c.589-1.0301 1.31-1.5158 2.296-1.5158.927 0 1.589.5592 1.589 1.4716 0 .7505-.383 1.3686-1.324 2.3693l-3.797 4.0322zm8.447 2.9432h1.619v-3.7084c.5.5739 1.265.9124 2.163.9124 1.913 0 3.399-1.6041 3.399-3.6643 0-2.075-1.486-3.6938-3.399-3.6938-.898 0-1.663.3532-2.163.9271v-.7799h-1.619zm3.517-4.3265c-1.192 0-2.001-.883-2.001-2.1486 0-1.2655.809-2.1485 2.001-2.1485 1.177 0 2.002.883 2.002 2.1485 0 1.2656-.825 2.1486-2.002 2.1486zm5.019 1.3833h1.619v-4.2088c0-.9418.677-1.4863 1.545-1.4863.869 0 1.531.5445 1.531 1.4863v4.2088h1.619v-4.2088c0-.9418.677-1.4863 1.545-1.4863s1.53.5445 1.53 1.4863v4.2088h1.619v-4.562c0-1.6335-1.221-2.6489-2.737-2.6489-.986 0-1.825.4415-2.355 1.1773-.456-.7505-1.295-1.1773-2.266-1.1773-.824 0-1.545.3091-2.031.8683v-.7211h-1.619z" fill="#7d89b0"/><path d="m24.412 64.4526h2.0946l.9271-2.3177h5.1678l.91 2.3177h2.1289l-4.9103-12.0181h-1.3735zm3.7085-4.0346 1.9057-4.7901 1.8886 4.7901zm8.9818 4.0346h1.8885v-4.584c0-1.4078.7555-2.0603 1.8199-2.0603.4808 0 .8241.1374 1.1332.4464l1.2361-1.2705c-.5666-.6524-1.219-.9442-2.0431-.9442-.9614 0-1.6825.3777-2.1461 1.0301v-.8585h-1.8885zm10.5687.1717c1.2876 0 2.4723-.4807 3.2792-1.425l-1.2018-1.219c-.4979.5838-1.2533.8756-2.0946.8756-1.2361 0-2.1289-.6867-2.4036-1.8198h6.1464c.0687-.3434.103-.6181.103-.8928 0-2.3693-1.6482-4.1033-3.9316-4.1033-2.3865 0-4.2579 1.8714-4.2579 4.2921 0 2.4552 1.8886 4.2922 4.3609 4.2922zm-.1374-6.8503c1.1503 0 1.8714.6181 2.1118 1.7169h-4.3952c.2747-1.0645 1.116-1.7169 2.2834-1.7169zm11.3207 6.6786h1.0988l1.9228-4.9102 1.9229 4.9102h1.0988l3.3136-8.241h-1.9572l-1.9401 5.2022-1.8886-5.2022h-1.0988l-1.8885 5.2022-1.9401-5.2022h-1.9572zm14.1674.1717c1.2876 0 2.4723-.4807 3.2792-1.425l-1.2018-1.219c-.4979.5838-1.2533.8756-2.0946.8756-1.2361 0-2.1289-.6867-2.4036-1.8198h6.1464c.0687-.3434.103-.6181.103-.8928 0-2.3693-1.6482-4.1033-3.9316-4.1033-2.3865 0-4.2579 1.8714-4.2579 4.2921 0 2.4552 1.8886 4.2922 4.3609 4.2922zm-.1374-6.8503c1.1503 0 1.8714.6181 2.1118 1.7169h-4.3952c.2747-1.0645 1.1159-1.7169 2.2834-1.7169zm8.917 6.6786h1.8886v-4.584c0-1.4078.7554-2.0603 1.8199-2.0603.4807 0 .8241.1374 1.1331.4464l1.2362-1.2705c-.5666-.6524-1.219-.9442-2.0431-.9442-.9615 0-1.6826.3777-2.1461 1.0301v-.8585h-1.8886zm10.5687.1717c1.2877 0 2.4723-.4807 3.2792-1.425l-1.2018-1.219c-.4979.5838-1.2533.8756-2.0946.8756-1.2361 0-2.1289-.6867-2.4036-1.8198h6.1464c.0687-.3434.103-.6181.103-.8928 0-2.3693-1.6482-4.1033-3.9316-4.1033-2.3864 0-4.2578 1.8714-4.2578 4.2921 0 2.4552 1.8885 4.2922 4.3608 4.2922zm-.1373-6.8503c1.1503 0 1.8714.6181 2.1117 1.7169h-4.3952c.2747-1.0645 1.116-1.7169 2.2835-1.7169zm8.9303 6.8503c1.048 0 1.941-.3949 2.524-1.0644v.8927h1.889v-8.241h-1.889v.91c-.583-.6696-1.476-1.0816-2.524-1.0816-2.2314 0-3.9655 1.8885-3.9655 4.3093 0 2.4036 1.7341 4.275 3.9655 4.275zm.31-1.7855c-1.374 0-2.3354-1.0301-2.3354-2.5067 0-1.4765.9614-2.5066 2.3354-2.5066 1.39 0 2.334 1.0301 2.334 2.5066 0 1.4766-.944 2.5067-2.334 2.5067zm9.65 1.7855c1.047 0 1.94-.3949 2.523-1.0644v.8927h1.889v-12.3614h-1.889v5.0304c-.583-.6696-1.476-1.0816-2.523-1.0816-2.232 0-3.966 1.8885-3.966 4.3093 0 2.4036 1.734 4.275 3.966 4.275zm.309-1.7855c-1.374 0-2.335-1.0301-2.335-2.5067 0-1.4765.961-2.5066 2.335-2.5066 1.39 0 2.335 1.0301 2.335 2.5066 0 1.4766-.945 2.5067-2.335 2.5067zm6.405 5.0476h2.095l1.528-3.3479 3.828-8.3269h-2.094l-2.232 5.3739-2.112-5.3739h-2.077l3.124 7.4169zm13.371-3.4338h1.888v-6.5241h1.975v-1.7169h-1.975v-3.4337h-1.888v3.4337h-1.975v1.7169h1.975zm8.777.1717c2.438 0 4.327-1.8885 4.327-4.3093 0-2.4036-1.906-4.275-4.327-4.275s-4.309 1.8885-4.309 4.275c0 2.4036 1.906 4.3093 4.309 4.3093zm0-1.8199c-1.39 0-2.369-1.0301-2.369-2.4894 0-1.425.979-2.4552 2.369-2.4552 1.391 0 2.387 1.013 2.387 2.4552 0 1.4593-.979 2.4894-2.387 2.4894zm9.334 1.6482h1.889v-12.3614h-1.889zm7.442.1717c1.047 0 1.94-.3949 2.523-1.0644v.8927h1.889v-8.241h-1.889v.91c-.583-.6696-1.476-1.0816-2.523-1.0816-2.232 0-3.966 1.8885-3.966 4.3093 0 2.4036 1.734 4.275 3.966 4.275zm.309-1.7855c-1.374 0-2.335-1.0301-2.335-2.5067 0-1.4765.961-2.5066 2.335-2.5066 1.39 0 2.335 1.0301 2.335 2.5066 0 1.4766-.945 2.5067-2.335 2.5067zm9.581 1.7855c2.129 0 3.588-1.4593 3.588-3.6226v-4.7901h-1.888v4.7043c0 1.219-.601 1.8885-1.7 1.8885-1.081 0-1.7-.6867-1.7-1.8885v-4.7043h-1.888v4.7901c0 2.1289 1.476 3.6226 3.588 3.6226zm5.487-.1717h1.889v-4.7557c0-1.0988.79-1.8886 1.888-1.8886 1.099 0 1.872.7898 1.872 1.8886v4.7557h1.888v-5.1677c0-1.6139-1.339-3.2449-3.193-3.2449-1.013 0-1.889.412-2.455 1.1159v-.9443h-1.889zm13.251.1717c1.27 0 2.438-.515 3.21-1.425l-1.236-1.2533c-.48.5666-1.167.8584-1.974.8584-1.408 0-2.387-1.0129-2.387-2.4723 0-1.4593.979-2.4723 2.387-2.4723.807 0 1.494.2919 1.974.8585l1.236-1.2533c-.772-.91-1.94-1.425-3.21-1.425-2.455 0-4.327 1.8714-4.327 4.2921 0 2.4208 1.872 4.2922 4.327 4.2922zm4.572-.1717h1.888v-4.7557c0-1.0988.79-1.8886 1.889-1.8886s1.871.7898 1.871 1.8886v4.7557h1.889v-5.1677c0-1.9058-1.356-3.2449-3.193-3.2449-1.013 0-1.889.412-2.456 1.1159v-5.0647h-1.888zm15.52-3.9831h1.631l.12-1.8542c1.563-.5323 2.524-1.7169 2.524-3.3136 0-1.9916-1.511-3.3822-3.674-3.3822-1.683 0-3.022.8241-3.708 2.3006l1.373 1.1331c.464-1.0473 1.236-1.5967 2.232-1.5967 1.116 0 1.837.6696 1.837 1.6826 0 1.0301-.755 1.7168-1.871 1.7168h-.464zm.807 4.1548c.738 0 1.253-.5494 1.253-1.2705 0-.721-.515-1.2704-1.253-1.2704s-1.253.5494-1.253 1.2704c0 .7211.515 1.2705 1.253 1.2705z" fill="#121f3e"/><rect height="80.9527" rx="29.25" stroke="url(#b)" stroke-opacity=".2" stroke-width="1.5" width="269.5" x=".75" y=".75"/></svg>