<svg fill="none" height="167" viewBox="0 0 167 167" width="167" xmlns="http://www.w3.org/2000/svg" xmlns:xlink="http://www.w3.org/1999/xlink"><filter id="a" color-interpolation-filters="sRGB" filterUnits="userSpaceOnUse" height="36" width="36" x="12" y="121"><feFlood flood-opacity="0" result="BackgroundImageFix"/><feColorMatrix in="SourceAlpha" result="hardAlpha" type="matrix" values="0 0 0 0 0 0 0 0 0 0 0 0 0 0 0 0 0 0 127 0"/><feOffset dy="2"/><feGaussianBlur stdDeviation="2"/><feComposite in2="hardAlpha" operator="out"/><feColorMatrix type="matrix" values="0 0 0 0 0 0 0 0 0 0 0 0 0 0 0 0 0 0 0.17 0"/><feBlend in2="BackgroundImageFix" mode="normal" result="effect1_dropShadow_946_2426"/><feBlend in="SourceGraphic" in2="effect1_dropShadow_946_2426" mode="normal" result="shape"/><feColorMatrix in="SourceAlpha" result="hardAlpha" type="matrix" values="0 0 0 0 0 0 0 0 0 0 0 0 0 0 0 0 0 0 127 0"/><feOffset dy="-1"/><feGaussianBlur stdDeviation=".5"/><feComposite in2="hardAlpha" k2="-1" k3="1" operator="arithmetic"/><feColorMatrix type="matrix" values="0 0 0 0 0 0 0 0 0 0 0 0 0 0 0 0 0 0 0.25 0"/><feBlend in2="shape" mode="normal" result="effect2_innerShadow_946_2426"/></filter><linearGradient id="b" gradientUnits="userSpaceOnUse" x1="67.9999" x2="73" y1="-109" y2="162"><stop offset="0" stop-color="#518eea"/><stop offset="1" stop-color="#644eb4"/></linearGradient><linearGradient id="c" gradientUnits="userSpaceOnUse" x1="30" x2="30" y1="113" y2="161"><stop offset="0" stop-color="#fff"/><stop offset="1" stop-color="#d9e4fe"/></linearGradient><clipPath id="d"><rect height="167" rx="16" width="167"/></clipPath><g clip-path="url(#d)"><rect fill="#644eb4" height="167" rx="16" width="167"/><path d="m69.6348-45.4662s22.6193 15.4467 31.6392 49.10795c22.533 84.09435-45.9399 119.16625-78.1273 119.05925-74.5491-.241-85.7001-88.9956 2.3394-81.3097 51.773 4.5206 98.6699 48.4823 108.8249 86.3797 6.851 25.569-2.778 44.302-10.472 58.528-44.5965 82.505 52.535 98.455 37.356 41.804-8.901-33.218-46.934-79.361-79.538-57.091-49.6264 33.902-55.2051 128.973-55.2051 128.973 31.562-32.205 88.5371-14.207 78.0591 37.164-3.278 16.079-9.0675 25.101 3.313 71.307 23.506 87.724 114.774 51.957 94.62-23.258-23.874-89.1-164.5789-42.619-142.4654 39.91 13.3389 49.781 70.7184 59.91 109.3024 39.647 25.197-12.911 55.302-.121 63.448 30.282 18.927 70.635-88.607 46.675-123.159 44.875.706 26.964 35.825 79.504 7.853 99.581 27.823-11.112 144.23-36.473 160.671 24.885 5.2 19.406-2.544 36.051-11.39 51.043-49.851 91.101 51.347 101.228 36.565 46.061-30.963-115.557-170.467-69.989-147.527 15.626 7.594 28.339 33.713 84.436 174.491 81.89l68.506-1.058" stroke="url(#b)" stroke-linecap="round" stroke-linejoin="round" stroke-width="30"/><rect fill="url(#c)" fill-opacity=".36" height="48" rx="12" width="48" x="6" y="113"/><g filter="url(#a)"><path d="m38.2662 137.579-8.645 8.645c-2.2024 2.214-5.1635 2.006-7.0558.09-1.9062-1.892-2.112-4.832.0926-7.046l11.8319-11.822c1.2949-1.293 3.2184-1.523 4.4801-.269 1.2562 1.276 1.0244 3.185-.2609 4.48l-11.6046 11.611c-.5194.537-1.1487.38-1.507.024-.3542-.366-.5013-.976.0159-1.515l8.1012-8.08c.4064-.418.4277-1.018.033-1.41-.3925-.381-.9947-.362-1.4011.044l-8.1267 8.127c-1.2543 1.254-1.2011 3.184-.0895 4.293 1.2096 1.21 3.0368 1.184 4.3008-.08l11.6599-11.659c2.2631-2.264 2.182-5.246.1938-7.234-1.9413-1.939-4.9722-2.069-7.2354.192l-11.8968 11.913c-2.9642 2.964-2.7542 7.223-.0628 9.916 2.6955 2.682 6.9546 2.894 9.9187-.06l8.7077-8.708c.3926-.386.3884-1.106-.0159-1.476-.3863-.414-1.0277-.369-1.4341.024z" fill="#fff"/></g></g></svg>