<svg fill="none" height="133" viewBox="0 0 133 133" width="133" xmlns="http://www.w3.org/2000/svg" xmlns:xlink="http://www.w3.org/1999/xlink"><filter id="a" color-interpolation-filters="sRGB" filterUnits="userSpaceOnUse" height="28.6707" width="28.6701" x="9.55656" y="96.3653"><feFlood flood-opacity="0" result="BackgroundImageFix"/><feColorMatrix in="SourceAlpha" result="hardAlpha" type="matrix" values="0 0 0 0 0 0 0 0 0 0 0 0 0 0 0 0 0 0 127 0"/><feOffset dy="1.59281"/><feGaussianBlur stdDeviation="1.59281"/><feComposite in2="hardAlpha" operator="out"/><feColorMatrix type="matrix" values="0 0 0 0 0 0 0 0 0 0 0 0 0 0 0 0 0 0 0.17 0"/><feBlend in2="BackgroundImageFix" mode="normal" result="effect1_dropShadow_946_2495"/><feBlend in="SourceGraphic" in2="effect1_dropShadow_946_2495" mode="normal" result="shape"/><feColorMatrix in="SourceAlpha" result="hardAlpha" type="matrix" values="0 0 0 0 0 0 0 0 0 0 0 0 0 0 0 0 0 0 127 0"/><feOffset dy="-.796407"/><feGaussianBlur stdDeviation=".398204"/><feComposite in2="hardAlpha" k2="-1" k3="1" operator="arithmetic"/><feColorMatrix type="matrix" values="0 0 0 0 0 0 0 0 0 0 0 0 0 0 0 0 0 0 0.25 0"/><feBlend in2="shape" mode="normal" result="effect2_innerShadow_946_2495"/></filter><linearGradient id="b" gradientUnits="userSpaceOnUse" x1="68" x2="68.5" y1="-4" y2="237"><stop offset="0" stop-color="#518eea"/><stop offset=".642282" stop-color="#644eb4"/></linearGradient><linearGradient id="c" gradientUnits="userSpaceOnUse" x1="23.8931" x2="23.8931" y1="89.994" y2="128.222"><stop offset="0" stop-color="#fff"/><stop offset="1" stop-color="#d9e4fe"/></linearGradient><clipPath id="d"><rect height="133" rx="16" width="133"/></clipPath><g clip-path="url(#d)"><rect fill="#518eea" height="133" rx="16" width="133"/><path d="m389.967-468.98s4.039 21.436-9.838 45.472c-34.668 60.047-92.978 41.237-111.045 23.051-41.846-42.118 1.856-98.379 47.107-44.472 26.61 31.701 28.263 82.868 12.64 109.928-10.541 18.258-26.513 23.384-38.857 27.063-71.577 21.348-25.859 85.03-2.505 44.578 13.694-23.718 18.261-71.122-12.64-76.942-47.039-8.855-103.719 41.542-103.719 41.542 35.91-.362 57.859 41.859 23.029 64.888-10.901 7.209-19.241 9.029-38.29 42.022-36.164 62.638 35.375 93.8935 66.382 40.187 36.732-63.621-68.681-116.682-102.704-57.754-20.522 35.546 6.087 73.563 39.226 83.881 21.461 6.918 31.211 31.0744 18.678 52.7833-29.12 50.4363-76.184-23.6136-94.6277-44.0853-14.7871 15.582-24.5975 64.9469-51.6565 60.5009 21.9264 9.4106 101.7622 60.68295 76.4672 104.4949-7.9996 13.8564-21.7344 18.8696-35.1587 22.33-79.37644 23.2301-28.0898 85.9222-5.3473 46.5302 47.638-82.5113-56.5841-135.4112-91.8789-74.2788-11.6829 20.2353-28.5646 66.5348 52.1474 144.3798l39.1749 37.983" stroke="url(#b)" stroke-linecap="round" stroke-linejoin="round" stroke-width="24"/><rect fill="url(#c)" fill-opacity=".36" height="38.2275" rx="12" width="38.2275" x="4.7793" y="89.994"/><g filter="url(#a)"><path d="m30.3262 109.419-6.885 6.885c-1.754 1.763-4.1122 1.598-5.6193.072-1.5181-1.507-1.682-3.848.0737-5.612l9.4231-9.415c1.0313-1.03 2.5631-1.213 3.568-.214 1.0004 1.016.8158 2.537-.2078 3.568l-9.242 9.247c-.4136.427-.9148.303-1.2002.019-.282-.292-.3993-.777.0127-1.206l6.4518-6.435c.3237-.333.3407-.811.0263-1.124-.3126-.303-.7922-.288-1.1158.036l-6.4722 6.472c-.999.999-.9566 2.536-.0713 3.419.9634.964 2.4186.943 3.4252-.063l9.286-9.286c1.8024-1.803 1.7378-4.178.1544-5.761-1.5461-1.5444-3.9599-1.648-5.7623.153l-9.4748 9.487c-2.3606 2.361-2.1934 5.753-.05 7.898 2.1468 2.136 5.5387 2.304 7.8994-.048l6.9349-6.935c.3126-.308.3093-.882-.0127-1.176-.3077-.329-.8185-.294-1.1421.019z" fill="#fff"/></g></g></svg>