<svg height="129" viewBox="0 0 390 129" width="390" xmlns="http://www.w3.org/2000/svg"><g transform="translate(.86 .225)"><path d="m24.51 50.445c.0633333.38.475.665 1.235.855s1.6625.3166667 2.7075.38 2.1375.095 3.2775.095h2.85c2.0266667 0 3.6733333.0158333 4.94.0475s2.1533333.1108333 2.66.2375c.6333333.19.9975.2691667 1.0925.2375s.2058333-.2691667.3325-.7125c.2533333-1.2666667.57-2.9766667.95-5.13s.76-4.3066667 1.14-6.46.7125-4.0375.9975-5.6525.4591667-2.5491667.5225-2.8025c.1266667-.5066667.1266667-.7758333 0-.8075s-.4433333.1425-.95.5225c-.19.1266667-.7283333.5541667-1.615 1.2825s-2.0108333 1.6625-3.3725 2.8025-2.85 2.3908333-4.465 3.7525-3.1983333 2.7233333-4.75 4.085-2.9925 2.6758333-4.3225 3.9425-2.4066667 2.375-3.23 3.325zm-24.51 23.18c.06333333-1.14.49083333-2.1691667 1.2825-3.0875s1.8525-2.0108333 3.1825-3.2775c12.16-11.3366667 21.9766667-20.2825 29.45-26.8375s12.255-10.5608333 14.345-12.0175c.5066667-.3166667 1.2666667-.6016667 2.28-.855s1.71-.57 2.09-.95.5858333-.4275.6175-.1425-.0158333.5541667-.1425.8075c-.6333333.95-1.14 2.0425-1.52 3.2775s-.6333333 2.2641667-.76 3.0875c-.0633333.2533333-.2375 1.0925-.5225 2.5175s-.6175 3.1666667-.9975 5.225-.7758333 4.275-1.1875 6.65-.8075 4.655-1.1875 6.84-.6808333 4.1483333-.9025 5.89-.3641667 2.9608333-.4275 3.6575c0 1.0766667.1108333 1.9158333.3325 2.5175s.4908333 1.045.8075 1.33.6333333.4591667.95.5225.57.095.76.095c.3166667 0 .6966667-.0475 1.14-.1425s.9183333-.2058333 1.425-.3325.7758333-.095.8075.095-.2058333.3483333-.7125.475c-.2533333.0633333-.7125.19-1.3775.38s-1.425.4116667-2.28.665-1.71.4908333-2.565.7125-1.5991667.3958333-2.2325.5225c-.95 0-1.5833333-.6333333-1.9-1.9.0633333-.38.19-1.1875.38-2.4225s.3958333-2.5491667.6175-3.9425.4275-2.7075.6175-3.9425.285-2.0425.285-2.4225c0-.6966667-.3325-1.4091667-.9975-2.1375s-1.6308333-1.2508333-2.8975-1.5675c-.4433333-.1266667-1.2983333-.2216667-2.565-.285s-2.7866667-.095-4.56-.095c-1.8366667 0-3.6416667-.0158333-5.415-.0475s-3.1033333-.1108333-3.99-.2375c-4.8133333 4.37-8.8508333 8.36-12.1125 11.97-3.26166667 3.61-5.71583333 6.6183333-7.3625 9.025-.50666667.8233333-.87083333 1.5675-1.0925 2.2325s-.39583333 1.5358333-.5225 2.6125c-.12666667.38-.31666667.475-.57.285z"/><path d="m77.0585714 51.395c-.38.4433333-.7758333.9816667-1.1875 1.615-.4116666.6333333-.6808333 1.1083333-.8075 1.425-.0633333.19-.19.285-.38.285-.0633333 0-.1583333-.095-.285-.285-.1266666-.19-.3008333-.3958333-.5225-.6175-.2216666-.2216667-.5225-.4275-.9025-.6175s-.9183333-.285-1.615-.285c-.8233333 0-1.7416666.285-2.755.855-1.0133333.57-1.9 1.2033333-2.66 1.9-1.2033333 1.0133333-2.2641666 2.1216667-3.1825 3.325-.9183333 1.2033333-1.7891666 2.4541667-2.6125 3.7525-.8233333 1.2983333-1.615 2.6283333-2.375 3.99s-1.5833333 2.7391667-2.47 4.1325c-.0633333.19-.2533333.285-.57.285-.1266666 0-.3958333-.19-.8075-.57-.4116666-.38-.6175-.665-.6175-.855 0-.38.2216667-.95.665-1.71 1.0133334-1.7733333 2.0425-3.5625 3.0875-5.3675s2.0266667-3.4991667 2.945-5.0825c.9183334-1.5833333 1.7258334-2.9608333 2.4225-4.1325.6966667-1.1716667 1.1716667-2.0425 1.425-2.6125.3166667-.57.5383334-.855.665-.855.1266667 0 .4433334.1583333.95.475.5066667.3166667.76.76.76 1.33 0 .19-.1108333.5066667-.3325.95-.2216666.4433333-.475.9025-.76 1.3775s-.5541666.9341667-.8075 1.3775c-.2533333.4433333-.4433333.76-.57.95-.19.3166667-.2216666.475-.095.475.1266667 0 .285-.095.475-.285.6333334-.6333333 1.4091667-1.33 2.3275-2.09.9183334-.76 1.8841667-1.4725 2.8975-2.1375 1.0133334-.665 2.0108334-1.2191667 2.9925-1.6625.9816667-.4433333 1.8525-.665 2.6125-.665.57 0 1.0608334.1425 1.4725.4275.4116667.285.6175.5858333.6175.9025z"/><path d="m97.2121429 59.47c-1.0766667 1.33-2.3591667 2.7075-3.8475 4.1325-1.4883334 1.425-3.1033334 2.7233333-4.845 3.895-1.7416667 1.1716667-3.5466667 2.1216667-5.415 2.85-1.8683334.7283333-3.7208334 1.0925-5.5575 1.0925-2.9766667 0-4.465-1.33-4.465-3.99 0-1.7733333.4591666-3.6891667 1.3775-5.7475.9183333-2.0583333 2.1058333-3.9583333 3.5625-5.7 1.4566666-1.7416667 3.0558333-3.1983333 4.7975-4.37 1.7416666-1.1716667 3.4041666-1.7575 4.9875-1.7575.8866666 0 1.5041666.1583333 1.8525.475.3483333.3166667.5225.7283333.5225 1.235 0 .76-.2375 1.5833333-.7125 2.47s-1.1875 1.7258333-2.1375 2.5175-2.1533334 1.4566667-3.61 1.995c-1.4566667.5383333-3.1983334.8075-5.225.8075-.3166667.57-.665 1.4725-1.045 2.7075s-.57 2.4858333-.57 3.7525c0 2.5966667 1.1716666 3.895 3.515 3.895 1.4566666 0 2.9608333-.3483333 4.5125-1.045 1.5516666-.6966667 3.0558333-1.5675 4.5125-2.6125 1.4566666-1.045 2.8025-2.185 4.0375-3.42s2.2641666-2.3908333 3.0875-3.4675c.1266666-.1266667.2691666-.1583333.4275-.095.1583333.0633333.2375.19.2375.38zm-9.975-7.41c0-.8233333-.4116667-1.235-1.235-1.235-.6333334 0-1.2825.2375-1.9475.7125s-1.3141667 1.0925-1.9475 1.8525c-.6333334.76-1.235 1.5833333-1.805 2.47s-1.045 1.7416667-1.425 2.565c.1266666.0633333.3483333.1108333.665.1425.3166666.0316667.57.0475.76.0475 1.8366666 0 3.4516666-.6491667 4.845-1.9475 1.3933333-1.2983333 2.09-2.8341667 2.09-4.6075z"/><path d="m124.884286 53.39c-.19.3166667-.348334.3483333-.475.095-.38-.8233333-1.171667-1.235-2.375-1.235-.886667 0-1.773334.2533333-2.66.76-.886667.5066667-1.33 1.2666667-1.33 2.28 0 .5066667.158333 1.0133333.475 1.52.316666.5066667.76 1.1716667 1.33 1.995.506666.76.981666 1.52 1.425 2.28.443333.76.665 1.5516667.665 2.375 0 1.6466667-.38 2.9925-1.14 4.0375s-1.6625 1.8841667-2.7075 2.5175-2.105834 1.0608333-3.1825 1.2825c-1.076667.2216667-1.931667.3325-2.565.3325-3.863334 0-5.985-1.2983333-6.365-3.895.316666-.19.680833-.4275 1.0925-.7125.411666-.285.7125-.5541667.9025-.8075.126666 0 .221666.1266667.285.38.316666 1.14.918333 2.1216667 1.805 2.945.886666.8233333 1.931666 1.235 3.135 1.235.506666 0 1.108333-.0475 1.805-.1425.696666-.095 1.345833-.3166667 1.9475-.665.601666-.3483333 1.124166-.8391667 1.5675-1.4725.443333-.6333333.665-1.4883333.665-2.565 0-.8233333-.158334-1.5833333-.475-2.28-.316667-.6966667-.665-1.33-1.045-1.9-.38-.6333333-.76-1.2666667-1.14-1.9s-.57-1.33-.57-2.09.269166-1.5833333.8075-2.47c.538333-.8866667 1.219166-1.6941667 2.0425-2.4225.823333-.7283333 1.725833-1.3458333 2.7075-1.8525.981666-.5066667 1.9475-.76 2.8975-.76 1.013333 0 1.52.3166667 1.52.95-.19.3166667-.38.6808333-.57 1.0925s-.348334.7758333-.475 1.0925z"/><path d="m160.617857 57.76c-1.456667 1.7733333-3.055833 3.5625-4.7975 5.3675s-3.499167 3.4358333-5.2725 4.8925-3.530833 2.6283333-5.2725 3.515-3.340833 1.33-4.7975 1.33c-1.266667 0-2.153333-.3166667-2.66-.95s-.76-1.425-.76-2.375c0-.8866667.269167-2.0741667.8075-3.5625s1.345833-3.0875 2.4225-4.7975c-.823333 1.0766667-1.773333 2.2166667-2.85 3.42s-2.185 2.2958333-3.325 3.2775-2.28 1.805-3.42 2.47-2.153333.9975-3.04.9975c-1.33 0-1.995-.665-1.995-1.995 0-1.4566667.57-3.2933333 1.71-5.51s2.675833-4.3541667 4.6075-6.4125 4.1325-3.8316667 6.6025-5.32 5.035-2.2325 7.695-2.2325c.316667-.6333333.601667-1.0766667.855-1.33s.506667-.4433333.76-.57l2.66-.76.19.095c-.316667.3166667-.6175.7125-.9025 1.1875s-.585833.9658333-.9025 1.4725c.316667 0 .791667.0316667 1.425.095s1.108333.1266667 1.425.19c.316667.1266667.475.285.475.475s-.095.285-.285.285c-.38-.1266667-.95-.2216667-1.71-.285s-1.33-.095-1.71-.095c-2.913333 5.13-5.050833 9.1991667-6.4125 12.2075s-2.0425 5.2408333-2.0425 6.6975c0 .57.1425 1.045.4275 1.425s.870833.57 1.7575.57c1.013333 0 2.216667-.3641667 3.61-1.0925s2.881667-1.7416667 4.465-3.04 3.214167-2.8025 4.8925-4.5125 3.2775-3.515 4.7975-5.415c.126667-.19.253333-.2375.38-.1425s.19.2375.19.4275zm-14.82-7.22c-2.153333 0-4.211667.76-6.175 2.28s-3.705 3.3091667-5.225 5.3675-2.739167 4.1008333-3.6575 6.1275-1.3775 3.515-1.3775 4.465c0 .5066667.19.76.57.76s.965833-.2533333 1.7575-.76 1.694167-1.1875 2.7075-2.0425 2.0425-1.8525 3.0875-2.9925 2.010833-2.375 2.8975-3.705c1.013333-1.52 1.995-3.135 2.945-4.845s1.805-3.23 2.565-4.56z"/><path d="m214.116429 2.85c0 .25333333-.0475.69666667-.1425 1.33s-.19 1.33-.285 2.09-.19 1.52-.285 2.28-.1425 1.33-.1425 1.71c-.126667.1266667-.285.19-.475.19-.126667 0-.253334-.0633333-.38-.19.126666-.50666667.205833-.95.2375-1.33.031666-.38.0475-.76.0475-1.14 0-1.26666667-.5225-2.24833333-1.5675-2.945s-2.5175-1.045-4.4175-1.045c-1.33 0-2.7075.22166667-4.1325.665s-2.881667 1.235-4.37 2.375c-1.488334 1.14-3.04 2.66-4.655 4.56s-3.2775 4.3066667-4.9875 7.22c-.95 1.6466667-2.121667 3.7683333-3.515 6.365-1.393334 2.5966667-2.881667 5.3675-4.465 8.3125-1.583334 2.945-3.166667 5.9533333-4.75 9.025-1.583334 3.0716667-3.04 5.9375-4.37 8.5975.57 0 1.52-.0158333 2.85-.0475s2.691666-.0475 4.085-.0475h3.8 2.375c.316666.19.411666.5066667.285.95-.253334 0-.886667 0-1.9 0-1.013334 0-2.216667.0158333-3.61.0475-1.393334.0316667-2.834167.0633333-4.3225.095-1.488334.0316667-2.834167.0475-4.0375.0475-2.09 4.0533333-4.290834 8.1225-6.6025 12.2075-2.311667 4.085-4.623334 8.0275-6.935 11.8275-2.311667 3.8-4.591667 7.3308333-6.84 10.5925-2.248334 3.2616667-4.3225 6.1275-6.2225 8.5975-4.75 6.08-9.2625 11.225833-13.5375 15.4375s-8.344167 7.631667-12.2075 10.26c-3.863334 2.628333-7.489167 4.528333-10.8775 5.7-3.388334 1.171667-6.6025 1.7575-9.6425004 1.7575-.8866667 0-1.8525-.095-2.8975-.285s-2.0583334-.57-3.04-1.14c-.9816667-.57-1.8525-1.3775-2.6125-2.4225s-1.33-2.4225-1.71-4.1325c0-.506667.0633333-.728333.19-.665.1266666.063333.2533333.253333.38.57.0633333.443333.3166666 1.029167.76 1.7575.4433333.728333 1.0925 1.440833 1.9475 2.1375s1.9158333 1.2825 3.1825 1.7575c1.2666666.475 2.7866666.7125 4.56.7125 2.8500004-.063333 5.9375004-.585833 9.2625004-1.5675s6.824166-2.7075 10.4975-5.1775c3.673333-2.47 7.520833-5.779167 11.5425-9.9275 4.021666-4.148333 8.185833-9.389167 12.4925-15.7225 2.28-3.3566667 4.544166-6.9508333 6.7925-10.7825 2.248333-3.8316667 4.433333-7.6316667 6.555-11.4 2.121666-3.7683333 4.116666-7.3941667 5.985-10.8775 1.868333-3.4833333 3.5625-6.5233333 5.0825-9.12-2.723334.19-4.876667.38-6.46.57-1.583334.19-2.85.4908333-3.8.9025s-1.694167 1.0133333-2.2325 1.805c-.538334.7916667-1.155834 1.8841667-1.8525 3.2775l-.285-.095c.886666-2.09 1.773333-3.6575 2.66-4.7025.886666-1.045 1.71-1.6941667 2.47-1.9475.506666-.1266667 1.1875-.2533333 2.0425-.38s1.773333-.2216667 2.755-.285c.981666-.0633333 1.9475-.1266667 2.8975-.19s1.773333-.095 2.47-.095c3.166666-5.8266667 6.2225-11.2258333 9.1675-16.1975s6.000833-9.8325 9.1675-14.5825c1.71-2.5966667 3.546666-5.1141667 5.51-7.5525 1.963333-2.4383333 3.958333-4.59166667 5.985-6.46 2.026666-1.86833333 4.0375-3.35666667 6.0325-4.465s3.910833-1.6625 5.7475-1.6625c1.266666 0 2.375.285 3.325.855s1.425 1.235 1.425 1.995z"/><path d="m199.025 59.47c-1.076667 1.33-2.359167 2.7075-3.8475 4.1325s-3.103333 2.7233333-4.845 3.895-3.546667 2.1216667-5.415 2.85-3.720833 1.0925-5.5575 1.0925c-2.976667 0-4.465-1.33-4.465-3.99 0-1.7733333.459167-3.6891667 1.3775-5.7475s2.105833-3.9583333 3.5625-5.7 3.055833-3.1983333 4.7975-4.37 3.404167-1.7575 4.9875-1.7575c.886667 0 1.504167.1583333 1.8525.475s.5225.7283333.5225 1.235c0 .76-.2375 1.5833333-.7125 2.47s-1.1875 1.7258333-2.1375 2.5175-2.153333 1.4566667-3.61 1.995-3.198333.8075-5.225.8075c-.316667.57-.665 1.4725-1.045 2.7075s-.57 2.4858333-.57 3.7525c0 2.5966667 1.171667 3.895 3.515 3.895 1.456667 0 2.960833-.3483333 4.5125-1.045s3.055833-1.5675 4.5125-2.6125 2.8025-2.185 4.0375-3.42 2.264167-2.3908333 3.0875-3.4675c.126667-.1266667.269167-.1583333.4275-.095s.2375.19.2375.38zm-9.975-7.41c0-.8233333-.411667-1.235-1.235-1.235-.633333 0-1.2825.2375-1.9475.7125s-1.314167 1.0925-1.9475 1.8525-1.235 1.5833333-1.805 2.47-1.045 1.7416667-1.425 2.565c.126667.0633333.348333.1108333.665.1425s.57.0475.76.0475c1.836667 0 3.451667-.6491667 4.845-1.9475s2.09-2.8341667 2.09-4.6075z"/><path d="m215.378571 51.395c-.38.4433333-.775833.9816667-1.1875 1.615-.411666.6333333-.680833 1.1083333-.8075 1.425-.063333.19-.19.285-.38.285-.063333 0-.158333-.095-.285-.285-.126666-.19-.300833-.3958333-.5225-.6175-.221666-.2216667-.5225-.4275-.9025-.6175s-.918333-.285-1.615-.285c-.823333 0-1.741666.285-2.755.855-1.013333.57-1.9 1.2033333-2.66 1.9-1.203333 1.0133333-2.264166 2.1216667-3.1825 3.325-.918333 1.2033333-1.789166 2.4541667-2.6125 3.7525-.823333 1.2983333-1.615 2.6283333-2.375 3.99s-1.583333 2.7391667-2.47 4.1325c-.063333.19-.253333.285-.57.285-.126666 0-.395833-.19-.8075-.57-.411666-.38-.6175-.665-.6175-.855 0-.38.221667-.95.665-1.71 1.013334-1.7733333 2.0425-3.5625 3.0875-5.3675s2.026667-3.4991667 2.945-5.0825c.918334-1.5833333 1.725834-2.9608333 2.4225-4.1325.696667-1.1716667 1.171667-2.0425 1.425-2.6125.316667-.57.538334-.855.665-.855.126667 0 .443334.1583333.95.475.506667.3166667.76.76.76 1.33 0 .19-.110833.5066667-.3325.95-.221666.4433333-.475.9025-.76 1.3775s-.554166.9341667-.8075 1.3775c-.253333.4433333-.443333.76-.57.95-.19.3166667-.221666.475-.095.475.126667 0 .285-.095.475-.285.633334-.6333333 1.409167-1.33 2.3275-2.09.918334-.76 1.884167-1.4725 2.8975-2.1375 1.013334-.665 2.010834-1.2191667 2.9925-1.6625.981667-.4433333 1.8525-.665 2.6125-.665.57 0 1.060834.1425 1.4725.4275.411667.285.6175.5858333.6175.9025z"/><path d="m296.155714 10.45c0 1.9633333-.7125 4.2275-2.1375 6.7925s-3.515 5.2725-6.27 8.1225-6.1275 5.7791667-10.1175 8.7875-8.518333 5.9375-13.585 8.7875c-1.773333 3.23-3.340833 6.1591667-4.7025 8.7875-1.361666 2.6283333-2.675833 5.3991667-3.9425 8.3125-.126666.3166667-.158333.4908333-.095.5225.063334.0316667.19-.0475.38-.2375 1.583334-1.9 3.451667-3.8475 5.605-5.8425 2.153334-1.995 4.338334-3.4991667 6.555-4.5125.38-.1266667.665-.19.855-.19.506667 0 .9025.2216667 1.1875.665s.4275.7916667.4275 1.045-.158333.8233333-.475 1.71c-.316666.8866667-.728333 1.9-1.235 3.04-.506666 1.14-1.060833 2.3591667-1.6625 3.6575-.601666 1.2983333-1.1875 2.5175-1.7575 3.6575-.57 1.0766667-1.235 2.3275-1.995 3.7525s-1.551666 2.85-2.375 4.275c-.823333 1.425-1.630833 2.7866667-2.4225 4.085-.791666 1.2983333-1.535833 2.4225-2.2325 3.3725-2.723333 3.8-5.494166 6.8558333-8.3125 9.1675-2.818333 2.3116667-5.810833 4.0058333-8.9775 5.0825-2.913333 1.0133333-5.7 1.52-8.36 1.52-1.773333 0-3.499166-.2058333-5.1775-.6175-1.678333-.4116667-3.214166-1.0608333-4.6075-1.9475-.443333-.3166667-.7125-.6491667-.8075-.9975s-.174166-.7758333-.2375-1.2825c0-.2533333-.031666-.6175-.095-1.0925-.063333-.475-.126666-.95-.19-1.425-.063333-.475-.126666-.9341667-.19-1.3775-.063333-.4433333-.095-.76-.095-.95 0-.57.253334-.7916667.76-.665 0 .6966667.174167 1.5516667.5225 2.565.348334 1.0133333.981667 2.0266667 1.9 3.04.918334 1.0133333 2.153334 1.8683333 3.705 2.565 1.551667.6966667 3.499167 1.045 5.8425 1.045 1.963334 0 4.211667-.38 6.745-1.14 3.103334-.8866667 5.89-2.565 8.36-5.035s4.845-5.415 7.125-8.835c1.14-1.71 2.28-3.6258333 3.42-5.7475s2.185-4.1958333 3.135-6.2225 1.7575-3.8475 2.4225-5.4625 1.0925-2.7391667 1.2825-3.3725c.443334-1.2666667.728334-2.2325.855-2.8975.126667-.665.19-1.1558333.19-1.4725 0-.4433333-.158333-.665-.475-.665-.253333 0-.9975.4908333-2.2325 1.4725s-2.533333 2.185-3.895 3.61c-1.361666 1.425-2.580833 2.9766667-3.6575 4.655-1.076666 1.6783333-1.615 3.2458333-1.615 4.7025 0 .5066667.031667.95.095 1.33.063334.38.095.6333333.095.76 0 .3166667-.459166.6016667-1.3775.855-.918333.2533333-1.820833.6333333-2.7075 1.14-.253333 0-.38-.2533333-.38-.76 0-.76 0-1.3616667 0-1.805 0-.5066667.079167-1.0925.2375-1.7575.158334-.665.443334-1.4725.855-2.4225.411667-.95 1.060834-2.2641667 1.9475-3.9425.886667-1.6783333 2.026667-3.8316667 3.42-6.46 1.393334-2.6283333 3.135-5.8741667 5.225-9.7375-2.596666 1.33-5.415 2.565-8.455 3.705s-6.27 2.09-9.69 2.85c-.57.95-1.266666 2.1375-2.09 3.5625-.823333 1.425-1.599166 2.9133333-2.3275 4.465-.728333 1.5516667-1.345833 3.0875-1.8525 4.6075-.506666 1.52-.76 2.85-.76 3.99 0 1.0766667.126667 1.8683333.38 2.375.253334.5066667.791667.76 1.615.76.886667 0 1.789167-.19 2.7075-.57.918334-.38 2.105834-.9816667 3.5625-1.805.19-.1266667.348334-.1108333.475.0475.126667.1583333.126667.3325 0 .5225-4.18 2.5333333-7.536666 3.8-10.07 3.8-.76 0-1.425-.19-1.995-.57s-.855-1.425-.855-3.135c0-.76.269167-1.8208333.8075-3.1825.538334-1.3616667 1.203334-2.8658333 1.995-4.5125.791667-1.6466667 1.630834-3.3408333 2.5175-5.0825.886667-1.7416667 1.678334-3.3725 2.375-4.8925-1.33.3166667-2.976666.5541667-4.94.7125-1.963333.1583333-3.736666.2691667-5.32.3325-.253333 0-.38-.095-.38-.285 0-.38.38-.57 1.14-.57.696667 0 1.551667-.0158333 2.565-.0475 1.013334-.0316667 2.010834-.095 2.9925-.19.981667-.095 1.9-.2058333 2.755-.3325s1.409167-.2533333 1.6625-.38c.57-.8866667 1.203334-1.8683333 1.9-2.945.696667-1.0766667 1.393334-2.1375 2.09-3.1825.696667-1.045 1.345834-1.9791667 1.9475-2.8025.601667-.8233333 1.060834-1.3616667 1.3775-1.615.506667-.3166667 1.250834-.6175 2.2325-.9025.981667-.285 1.884167-.5541667 2.7075-.8075.316667 0 .443334.095.38.285-.063333.19-.19.3483333-.38.475-.443333.1266667-.934166.3641667-1.4725.7125-.538333.3483333-.965833.7441667-1.2825 1.1875-.76.95-1.630833 2.1691667-2.6125 3.6575-.981666 1.4883333-2.105833 3.3091667-3.3725 5.4625 2.66-.5066667 5.5575-1.33 8.6925-2.47s6.254167-2.5333333 9.3575-4.18c.886667-1.5833333 1.868334-3.3883333 2.945-5.415 1.076667-2.0266667 2.200834-4.085 3.3725-6.175 1.171667-2.09 2.311667-4.1166667 3.42-6.08 1.108334-1.9633333 2.1375-3.6416667 3.0875-5.035 1.33-2.0266667 2.755-3.9266667 4.275-5.7s3.0875-3.3091667 4.7025-4.6075c1.615-1.29833333 3.23-2.3275 4.845-3.0875s3.1825-1.14 4.7025-1.14c.823334 0 1.615.20583333 2.375.6175s1.14 1.5675 1.14 3.4675zm-2.565.95c0-.8233333-.126666-1.45666667-.38-1.9-.253333-.44333333-.585833-.77583333-.9975-.9975-.411666-.22166667-.855-.36416667-1.33-.4275s-.934166-.095-1.3775-.095c-.57 0-1.266666.15833333-2.09.475-.823333.31666667-1.805.96583333-2.945 1.9475-1.14.9816667-2.485833 2.3908333-4.0375 4.2275-1.551666 1.8366667-3.309166 4.275-5.2725 7.315-.57.95-1.266666 2.185-2.09 3.705-.823333 1.52-1.71 3.1825-2.66 4.9875s-1.931666 3.6891667-2.945 5.6525c-1.013333 1.9633333-1.995 3.8633333-2.945 5.7 2.85-1.52 5.953334-3.4358333 9.31-5.7475 3.356667-2.3116667 6.5075-4.8291667 9.4525-7.5525s5.399167-5.5733333 7.3625-8.55c1.963334-2.9766667 2.945-5.89 2.945-8.74z"/><path d="m297.214286 59.47c-1.076667 1.33-2.359167 2.7075-3.8475 4.1325-1.488334 1.425-3.103334 2.7233333-4.845 3.895-1.741667 1.1716667-3.546667 2.1216667-5.415 2.85-1.868334.7283333-3.720834 1.0925-5.5575 1.0925-2.976667 0-4.465-1.33-4.465-3.99 0-1.7733333.459166-3.6891667 1.3775-5.7475.918333-2.0583333 2.105833-3.9583333 3.5625-5.7 1.456666-1.7416667 3.055833-3.1983333 4.7975-4.37 1.741666-1.1716667 3.404166-1.7575 4.9875-1.7575.886666 0 1.504166.1583333 1.8525.475.348333.3166667.5225.7283333.5225 1.235 0 .76-.2375 1.5833333-.7125 2.47s-1.1875 1.7258333-2.1375 2.5175-2.153334 1.4566667-3.61 1.995c-1.456667.5383333-3.198334.8075-5.225.8075-.316667.57-.665 1.4725-1.045 2.7075s-.57 2.4858333-.57 3.7525c0 2.5966667 1.171666 3.895 3.515 3.895 1.456666 0 2.960833-.3483333 4.5125-1.045 1.551666-.6966667 3.055833-1.5675 4.5125-2.6125 1.456666-1.045 2.8025-2.185 4.0375-3.42s2.264166-2.3908333 3.0875-3.4675c.126666-.1266667.269166-.1583333.4275-.095.158333.0633333.2375.19.2375.38zm-9.975-7.41c0-.8233333-.411667-1.235-1.235-1.235-.633334 0-1.2825.2375-1.9475.7125s-1.314167 1.0925-1.9475 1.8525c-.633334.76-1.235 1.5833333-1.805 2.47s-1.045 1.7416667-1.425 2.565c.126666.0633333.348333.1108333.665.1425.316666.0316667.57.0475.76.0475 1.836666 0 3.451666-.6491667 4.845-1.9475 1.393333-1.2983333 2.09-2.8341667 2.09-4.6075z"/><path d="m313.567857 51.395c-.38.4433333-.775833.9816667-1.1875 1.615s-.680833 1.1083333-.8075 1.425c-.063333.19-.19.285-.38.285-.063333 0-.158333-.095-.285-.285s-.300833-.3958333-.5225-.6175-.5225-.4275-.9025-.6175-.918333-.285-1.615-.285c-.823333 0-1.741667.285-2.755.855s-1.9 1.2033333-2.66 1.9c-1.203333 1.0133333-2.264167 2.1216667-3.1825 3.325s-1.789167 2.4541667-2.6125 3.7525-1.615 2.6283333-2.375 3.99-1.583333 2.7391667-2.47 4.1325c-.063333.19-.253333.285-.57.285-.126667 0-.395833-.19-.8075-.57s-.6175-.665-.6175-.855c0-.38.221667-.95.665-1.71 1.013333-1.7733333 2.0425-3.5625 3.0875-5.3675s2.026667-3.4991667 2.945-5.0825 1.725833-2.9608333 2.4225-4.1325 1.171667-2.0425 1.425-2.6125c.316667-.57.538333-.855.665-.855s.443333.1583333.95.475.76.76.76 1.33c0 .19-.110833.5066667-.3325.95s-.475.9025-.76 1.3775-.554167.9341667-.8075 1.3775-.443333.76-.57.95c-.19.3166667-.221667.475-.095.475s.285-.095.475-.285c.633333-.6333333 1.409167-1.33 2.3275-2.09s1.884167-1.4725 2.8975-2.1375 2.010833-1.2191667 2.9925-1.6625 1.8525-.665 2.6125-.665c.57 0 1.060833.1425 1.4725.4275s.6175.5858333.6175.9025z"/><path d="m310.541429 66.975c0-2.0266667.4275-4.0533333 1.2825-6.08s1.9475-3.8475 3.2775-5.4625 2.786666-2.945 4.37-3.99c1.583333-1.045 3.135-1.5675 4.655-1.5675 1.14 0 1.9475.4275 2.4225 1.2825s.7125 1.6308333.7125 2.3275c0 .8866667-.126667 1.615-.38 2.185-.38.2533333-1.029167.6491667-1.9475 1.1875-.918334.5383333-1.931667 1.0925-3.04 1.6625-1.108334.57-2.2325 1.14-3.3725 1.71s-2.09 1.0133333-2.85 1.33c-.506667.19-.886667.5225-1.14.9975-.253334.475-.38 1.4725-.38 2.9925 0 2.5333333.490833 4.56 1.4725 6.08.981666 1.52 2.390833 2.6916667 4.2275 3.515 1.836666.8233333 4.085 1.3775 6.745 1.6625s5.668333.4275 9.025.4275c6.586666 0 12.935833-.76 19.0475-2.28 6.111666-1.52 11.526666-3.5783333 16.245-6.175 4.718333-2.5966667 8.5025-5.605 11.3525-9.025s4.275-7.03 4.275-10.83c0-1.0766667-.1425-2.0266667-.4275-2.85s-.649167-1.4883333-1.0925-1.995c-.316667-.3166667-.38-.5541667-.19-.7125s.38-.1108333.57.1425c.95.8866667 1.789166 1.995 2.5175 3.325.728333 1.33 1.0925 2.565 1.0925 3.705 0 2.9133333-.76 5.605-2.28 8.075s-3.578334 4.7183333-6.175 6.745c-2.596667 2.0266667-5.636667 3.8316667-9.12 5.415-3.483334 1.5833333-7.204167 2.8975-11.1625 3.9425-3.958334 1.045-8.043334 1.8366667-12.255 2.375-4.211667.5383333-8.344167.8075-12.3975.8075-3.42 0-6.634167-.0791667-9.6425-.2375-3.008334-.1583333-5.6525-.5858333-7.9325-1.2825s-4.085-1.7733333-5.415-3.23-2.026667-3.515-2.09-6.175zm35.53-7.41c0 .6966667-.395834 1.4408333-1.1875 2.2325-.791667.7916667-1.440834 1.1875-1.9475 1.1875-.506667 0-.965834-.2533333-1.3775-.76-.411667-.5066667-.6175-1.0133333-.6175-1.52 0-.19.110833-.475.3325-.855.221666-.38.490833-.7441667.8075-1.0925.316666-.3483333.680833-.6491667 1.0925-.9025.411666-.2533333.8075-.38 1.1875-.38s.76.2375 1.14.7125.57.9341667.57 1.3775zm-22.23-4.275c0-.2533333-.015834-.5858333-.0475-.9975-.031667-.4116667-.126667-.8233333-.285-1.235-.158334-.4116667-.395834-.76-.7125-1.045-.316667-.285-.76-.4275-1.33-.4275-.886667 0-1.71.3958333-2.47 1.1875s-1.425 1.6941667-1.995 2.7075-1.013334 1.9791667-1.33 2.8975c-.316667.9183333-.475 1.5358333-.475 1.8525 0 .38.158333.5066667.475.38.95-.38 1.9-.7916667 2.85-1.235s1.820833-.9025 2.6125-1.3775c.791666-.475 1.440833-.95 1.9475-1.425.506666-.475.76-.9025.76-1.2825z"/></g></svg>
