<svg height="722" viewBox="0 0 1200 722" width="1200" xmlns="http://www.w3.org/2000/svg" xmlns:xlink="http://www.w3.org/1999/xlink"><defs><path id="a" d="m279 0h1v720h-1z"/><filter id="b" height="100.3%" width="400%" x="-225%" y="-.2%"><feOffset dx="-1" dy="0" in="SourceAlpha" result="shadowOffsetOuter1"/><feGaussianBlur in="shadowOffsetOuter1" result="shadowBlurOuter1" stdDeviation=".25"/><feComposite in="shadowBlurOuter1" in2="SourceAlpha" operator="out" result="shadowBlurOuter1"/><feColorMatrix in="shadowBlurOuter1" type="matrix" values="0 0 0 0 0   0 0 0 0 0   0 0 0 0 0  0 0 0 0.05 0"/></filter><filter id="c" height="100.4%" width="100.2%" x="-.1%" y="-.2%"><feGaussianBlur in="SourceAlpha" result="shadowBlurInner1" stdDeviation="1.5"/><feOffset dx="0" dy="0" in="shadowBlurInner1" result="shadowOffsetInner1"/><feComposite in="shadowOffsetInner1" in2="SourceAlpha" k2="-1" k3="1" operator="arithmetic" result="shadowInnerInner1"/><feColorMatrix in="shadowInnerInner1" type="matrix" values="0 0 0 0 1   0 0 0 0 1   0 0 0 0 1  0 0 0 0.1 0"/></filter></defs><g fill="none" fill-rule="evenodd"><g transform="translate(0 1)"><path d="m12.819426 0h267.180574v720h-267.180574c-4.4575937 0-6.07402489-.464128-7.70365452-1.335664-1.62962963-.871535-2.9085725-2.150478-3.78010796-3.780107-.87153546-1.62963-1.33566352-3.246061-1.33566352-7.703655v-694.361148c0-4.4575937.46412806-6.07402489 1.33566352-7.70365452s2.15047833-2.9085725 3.78010796-3.78010796 3.24606082-1.33566352 7.70365452-1.33566352z" fill="#f6f6f6" fill-opacity=".84"/><path d="m280 0h907.18057c4.4576 0 6.07403.46412806 7.70366 1.33566352s2.90857 2.15047833 3.78011 3.78010796c.87153 1.62962963 1.33566 3.24606082 1.33566 7.70365452v694.361148c0 4.457594-.46413 6.074025-1.33566 7.703655-.87154 1.629629-2.15048 2.908572-3.78011 3.780107-1.62963.871536-3.24606 1.335664-7.70366 1.335664h-907.18057z" fill="#f6f6f6"/><g fill="#000"><use filter="url(#b)" xlink:href="#a"/><use fill-opacity=".1" fill-rule="evenodd" xlink:href="#a"/><path d="m12.819426 0h1174.361144c4.4576 0 6.07403.46412806 7.70366 1.33566352s2.90857 2.15047833 3.78011 3.78010796c.87153 1.62962963 1.33566 3.24606082 1.33566 7.70365452v694.361148c0 4.457594-.46413 6.074025-1.33566 7.703655-.87154 1.629629-2.15048 2.908572-3.78011 3.780107-1.62963.871536-3.24606 1.335664-7.70366 1.335664h-1174.361144c-4.4575937 0-6.07402489-.464128-7.70365452-1.335664-1.62962963-.871535-2.9085725-2.150478-3.78010796-3.780107-.87153546-1.62963-1.33566352-3.246061-1.33566352-7.703655v-694.361148c0-4.4575937.46412806-6.07402489 1.33566352-7.70365452s2.15047833-2.9085725 3.78010796-3.78010796 3.24606082-1.33566352 7.70365452-1.33566352z" filter="url(#c)"/></g></g><g transform="translate(998 54)"><path d="m1 0h201v667h-191c-5.5228475 0-10-4.477153-10-10z" fill="#fff" transform="matrix(-1 0 0 1 203 0)"/><path d="m.5.5v666" stroke="#e6e6e6" stroke-linecap="square"/></g><path d="m.5 660.5h279" stroke="#838383" stroke-linecap="square" stroke-opacity=".15"/><g stroke="#000" stroke-opacity=".2" stroke-width=".5"><circle cx="26" cy="26" fill="#ff5f57" r="5.75"/><circle cx="46" cy="26" fill="#febc2e" r="5.75"/><circle cx="66" cy="26" fill="#28c840" r="5.75"/></g><path d="m280 661h718v60h-718z" fill="#fff"/><path d="m280.5 660.5h717" stroke="#f6f6f6" stroke-linecap="square"/><path d="m280 54h718v606h-718z" fill="#fff"/><path d="m280.5 53.5h918" stroke="#e6e6e6" stroke-linecap="square"/></g></svg>