<svg height="15" viewBox="0 0 20 15" width="20" xmlns="http://www.w3.org/2000/svg"><path d="m314.256118 33.5-2.728753 1.0574818-.822396.2936558-2.471202.7309301c.008023.1444209.012837.2896441.012837.4356697 0 2.6902401-1.358358 5.9726059-3.618545 8.333085-2.260187-2.3596768-3.618546-5.6420425-3.618546-8.3322827 0-.1460255.004814-.2912487.012838-.4356696l-2.471202-.7317325-.822397-.2936558-2.728752-1.0574818c.117141 4.5749327 3.89455 9.3263797 8.422947 11.9500258-1.045447.8248037-2.228896 1.4522322-3.52066 1.7779815l-.00321.2719927c1.376813-.1171414 2.674194-.4806006 3.868875-1.0261906.28804-.1187461.575277-.2471202.860107-.38432.28483.1371998.571265.2647716.859304.3835176 1.194682.5455901 2.492865.9090493 3.868875 1.0261907l-.003209-.2719927c-1.291765-.324947-2.475214-.9531778-3.52066-1.7779815 4.529199-2.6228438 8.306607-7.3742908 8.423749-11.9492235z" transform="translate(-295 -33)"/></svg>