<svg height="17" viewBox="0 0 20 17" width="20" xmlns="http://www.w3.org/2000/svg"><path d="m1.36058807 13.6172104h6.64981842c.45860291 0 .80013276-.1171112 1.02458954-.3513336.22445679-.2342224.33668518-.5982209.33668518-1.0919953v-5.12969968c0-.49324035-.11222839-.8568573-.33668518-1.09085083-.22445678-.23399353-.56598663-.35099029-1.02458954-.35099029l-6.52267456.01327514c-.45768737 0-.82006454.11587143-1.0871315.34761429-.26706695.23174286-.40060043.59206009-.40060043 1.08095169v5.12969968c0 .4937744.1134491.8577729.34034729 1.0919953s.56697846.3513336 1.02024078.3513336zm-.23345947-7.52986909h1.22005463v-2.34111786c0-.56083679.10719299-1.03311539.32157898-1.41683579.21438598-.38372039.49915313-.67331314.85430145-.86877822.35514832-.19546509.74260712-.29319764 1.1623764-.29319764.4247284 0 .81354142.09773255 1.16643906.29319764.35289764.19546508.63653946.48505783.85092545.86877822.21438598.3837204.32157897.855999.32157897 1.41683579v2.34111786h1.21936799v-2.20241547c0-.6526947-.09773255-1.22291565-.29319764-1.71066284-.19546508-.48774719-.46218872-.89235306-.80017089-1.2138176-.33798218-.32146454-.71893692-.5619049-1.14286423-.7213211s-.86462021-.2391243-1.32207871-.2391243c-.45692444 0-.89746475.0797081-1.32162094.2391243s-.80413818.39985656-1.13994598.7213211-.60255051.72607041-.80022812 1.2138176-.29651642 1.05796814-.29651642 1.71066284z" transform="translate(5.338446 1.496635)"/></svg>