<svg height="17" viewBox="0 0 20 17" width="20" xmlns="http://www.w3.org/2000/svg"><path d="m2.76706696 14.6337891c.20698547 0 .4784584-.0507927.81441879-.1523781s.7002449-.2377129 1.09285354-.4083824c.39260865-.1706696.77964783-.3606987 1.16111756-.5700875.38146972-.2093887.72563171-.4219246 1.03248596-.6376075.06233215-.0414277.12042999-.0719071.17429352-.0914383.05386352-.0195313.10707855-.0292969.15964508-.0292969.04348755.004425.08737564.0077438.13166427.0099563.04428864.0022126.08649827.0033188.12662888.0033188.99754334-.0004577 1.92790985-.1055908 2.79109954-.3153991.8631897-.2098084 1.6416168-.5082131 2.3352814-.8952141.6936645-.3870011 1.2870979-.8452034 1.7803001-1.3746071.4932022-.52940369.8710098-1.1145401 1.1334229-1.75540924.262413-.64086914.3936195-1.31942749.3936195-2.03567505 0-.88539124-.2048874-1.71289444-.6146622-2.48250961-.4097747-.76961518-.9776687-1.44739151-1.7036819-2.03332901s-1.570282-1.04337693-2.5328064-1.37231827c-.9625244-.32894135-1.99436188-.49341202-3.09551239-.49341202-1.10153199 0-2.13247299.16447067-3.09282303.49341202-.96035004.32894134-1.8045044.78638077-2.53246307 1.37231827-.72795868.5859375-1.29693985 1.26371383-1.70694352 2.03332901-.41000366.76961517-.61500549 1.59711837-.61500549 2.48250961 0 .73913574.14455795 1.44443512.43367386 2.11589813.2891159.67146301.70293426 1.28637314 1.24145508 1.84473036.53852081.5583573 1.18089676 1.0386086 1.92712783 1.440754.05943299.0325775.09681702.0738716.1121521.1238822.01533509.0500107.00740052.1020241-.02380371.1560402-.13023376.2200318-.28324127.4432869-.45902252.6697655s-.3452301.4362679-.50834656.6293678c-.16311645.1931-.28930664.3489685-.37857055.4676056-.14175415.1856995-.17534256.3661537-.10076523.5413628.07457733.175209.24896622.2628136.52316666.2628136z" transform="translate(2.077352 1.183983)"/></svg>