<svg height="17" viewBox="0 0 20 17" width="20" xmlns="http://www.w3.org/2000/svg"><path d="m3.55659485 9.40132141c.67207336.67642209 1.38175964 1.28614429 2.12905884 1.82916639.74729919.5430222 1.49423599.9723091 2.24081039 1.2878609s1.45277023.4733276 2.11858752.4733276c.4524994 0 .8745002-.0811577 1.2660026-.243473.3915024-.1623154.744915-.4184532 1.0602379-.7684136.1824951-.2069854.3282166-.4277801.4371643-.662384.1089478-.2346039.1634217-.46978.1634217-.7055283 0-.1770782-.0368119-.3488922-.1104355-.5154419-.0736237-.16654964-.1960373-.3080749-.3672409-.42457576l-2.1335221-1.51165008c-.1639557-.11909485-.3152275-.20584107-.45381543-.26023865-.13858796-.05439758-.2718544-.08159638-.39979935-.08159638-.15861511 0-.31175613.04318238-.45942307.12954712-.14766693.08636475-.30031204.20839691-.45793533.3660965l-.50159454.4883194c-.0692749.07369995-.15789032.11054992-.26584626.11054992-.0541687 0-.10601043-.00865936-.1555252-.02597809-.04951477-.01731872-.09159088-.03376007-.12622834-.04932403-.21675109-.11909485-.49499511-.32176972-.83473205-.6080246s-.68145752-.60123443-1.02516174-.94493866c-.34416199-.34416198-.66047669-.68611145-.9489441-1.02584839-.2884674-.33973693-.4875946-.61775207-.59738159-.83404541-.02044677-.0390625-.03921509-.08235931-.05630493-.12989044s-.02563476-.09841919-.02563476-.15266418c0-.10299683.03662109-.18913269.10986328-.2584076l.48831939-.50159454c.15762329-.16204834.27975083-.31703949.3663826-.46497345.08663178-.14793396.12994766-.30338287.12994766-.46634674 0-.12306213-.02830505-.25510788-.08491516-.39613724-.0566101-.14102936-.14225006-.293293-.25691986-.45679092l-1.49837494-2.10113525c-.1209259-.17112732-.26687622-.29670716-.43785095-.37673951s-.35381317-.12004852-.54851532-.12004852c-.47782898 0-.92498779.19996643-1.34147644.59989929-.34118652.32463074-.58961868.68489075-.74529648 1.08078003-.15567779.39588928-.23351669.81569672-.23351669 1.2594223 0 .67016602.15558243 1.3763237.46674728 2.11847306.31116486.74214935.73482514 1.48345947 1.27098084 2.22393036.5361557.74047088 1.14244461 1.44674301 1.81886673 2.11881637z" transform="translate(3.541664 2.252975)"/></svg>