<svg height="17" viewBox="0 0 20 17" width="20" xmlns="http://www.w3.org/2000/svg"><path d="m8.7121582 14.5972824c.25802613 0 .47971726-.0993538.6650734-.2980614.18535614-.1987075.34173965-.4665184.46915054-.8034324l4.55806736-11.90082553c.0620269-.15830993.1096534-.30731201.1428794-.44700622.0332261-.13969422.0498391-.26767731.0498391-.38394928 0-.23590088-.0694466-.42221069-.2083397-.55892944s-.3262902-.20507813-.562191-.20507813c-.1167298 0-.2438546.01663208-.3813744.04989624s-.2852058.07869721-.443058.13629913l-11.96033478 4.58450318c-.29716492.11413574-.54510117.26279449-.74380875.44597625-.19870758.18318177-.29806137.40596009-.29806137.66833497 0 .32402038.10971069.56013107.32913208.70833206s.49724579.27208328.83347321.37164688l3.66279602 1.12060547c.2305603.07217407.42268753.09958267.57638168.0822258.15369415-.01735688.31167984-.09908676.47395706-.24518967l7.65380855-7.12921143c.0458527-.04051208.0943757-.05966186.1455689-.05744934.0511932.00221253.0943375.0189209.1294327.05012513.0395202.03555297.0594139.07892608.0596809.13011932s-.0198555.09944916-.0603676.14476776l-7.10941312 7.67761231c-.13938904.154953-.2195549.30971527-.24049759.4642868s.00417709.35015106.07535934.58673859l1.08169556 3.58406065c.10887146.3539276.23752213.6463432.385952.8772469.14842987.2309036.38682937.3463554.71519851.3463554z" transform="translate(2.373752 1.541496)"/></svg>