<svg height="17" viewBox="0 0 20 17" width="20" xmlns="http://www.w3.org/2000/svg"><path d="m8.57643127 7.8319931 4.02912143 2.2881317c.0328064.0190735.0492096.0430298.0492096.0718689 0 .0244141-.0164032.0461197-.0492096.0651169l-5.18074038 2.9581833c-.11299134.0611114-.21129608.0916672-.29491425.0916672-.08758545 0-.1858902-.0305558-.29491424-.0916672l-5.18005372-2.9581833c-.03326416-.0189972-.04989624-.0407028-.04989624-.0651169 0-.0288391.01663208-.0527954.04989624-.0718689l4.20021058-2.39753721-1.27532959-.73150635-3.76876831 2.18193054c-.28587342.16586304-.49251557.32566071-.61992646.47939301-.12741089.15373229-.19111633.33359527-.19111633.53958891 0 .2020264.06370544.3798866.19111633.5335808.12741089.1536941.33405304.3132439.61992646.4786491l5.40149688 3.1365967c.17799378.1019287.3390503.1776123.48316956.2270508s.28884888.0741577.43418884.0741577c.14144898 0 .28520584-.0247192.4312706-.0741577s.3058815-.1251221.47945023-.2270508l5.4014969-3.1365967c.2858734-.1654052.4925155-.324955.6199264-.4786491.1274109-.1536942.1911164-.3315544.1911164-.5335808 0-.20599364-.0637055-.38585662-.1911164-.53958891-.1274109-.1537323-.334053-.31352997-.6199264-.47939301l-3.60649111-2.09312439zm-1.4465332 1.08078003c.14144898 0 .28520584-.02471924.4312706-.07415771.14606476-.04943848.3058815-.12512207.47945023-.22705078l5.4014969-3.13671112c.2858734-.16975403.4925155-.33039093.6199264-.48191071s.1911164-.33027649.1911164-.53627014c0-.20645142-.0637055-.38541794-.1911164-.53689957s-.334053-.3121376-.6199264-.48196792l-5.4014969-3.13659668c-.17356873-.10192871-.33338547-.17761231-.47945023-.22705079-.14606476-.04943847-.28982162-.07415771-.4312706-.07415771-.14533996 0-.29006958.02471924-.43418884.07415771-.14411926.04943848-.30517578.12512208-.48316956.22705079l-5.40149688 3.13659668c-.28587342.16983032-.49251557.33048629-.61992646.48196792s-.19111633.33044815-.19111633.53689957c0 .20599365.06370544.38475036.19111633.53627014s.33405304.31215668.61992646.48191071l5.40149688 3.13671112c.17799378.10192871.3390503.1776123.48316956.22705078.14411926.04943847.28884888.07415771.43418884.07415771z" transform="translate(2.894378 1.318451)"/></svg>