<svg height="556" viewBox="0 0 600 556" width="600" xmlns="http://www.w3.org/2000/svg"><g fill="none" fill-rule="evenodd"><path d="m0 0h600v556h-600z" fill="#f6f6f6"/><path d="m0 80h600v476h-600z" fill="#ececec"/><path d="m0 0h600v80h-600z" fill="#ecedef"/><path d="m.5 79.5h599" stroke="#d2d2d2" stroke-linecap="square"/><g stroke="#000"><circle cx="16" cy="16" fill="#ff5f57" r="5.75" stroke-opacity=".2" stroke-width=".5"/><circle cx="36" cy="16" fill="#febc2e" r="5.75" stroke-opacity=".2" stroke-width=".5"/><circle cx="56" cy="16" fill="#28c840" r="5.75" stroke-opacity=".2" stroke-width=".5"/><path d="m576.308344 108c2.532958 0 3.458497.24606 4.386394.742305.889354.475632 1.587325 1.173603 2.062957 2.062957.496245.927897.742305 1.853436.742305 4.386394v384.616688c0 2.532958-.24606 3.458497-.742305 4.386394-.475632.889354-1.173603 1.587325-2.062957 2.062957-.927897.496245-1.853436.742305-4.386394.742305h-399.616688c-2.532958 0-3.458497-.24606-4.386394-.742305-.889354-.475632-1.587325-1.173603-2.062957-2.062957-.496245-.927897-.742305-1.853436-.742305-4.386394v-384.616688c0-2.532958.24606-3.458497.742305-4.386394.475632-.889354 1.173603-1.587325 2.062957-2.062957.927897-.496245 1.853436-.742305 4.386394-.742305z" fill="#000" fill-opacity=".05" opacity=".5" stroke-opacity=".05"/></g><path d="m16.5 100h142v407h-142z" fill="#fff" stroke="#d3d3d3"/></g></svg>