<svg height="30" viewBox="0 0 30 30" width="30" xmlns="http://www.w3.org/2000/svg"><path d="m15 .75c3.9350288 0 7.4975288 1.59498558 10.0762716 4.17372837s4.1737284 6.14124283 4.1737284 10.07627163-1.5949856 7.4975288-4.1737284 10.0762716-6.1412428 4.1737284-10.0762716 4.1737284-7.49752884-1.5949856-10.07627163-4.1737284-4.17372837-6.1412428-4.17372837-10.0762716 1.59498558-7.49752884 4.17372837-10.07627163 6.14124283-4.17372837 10.07627163-4.17372837zm1.467308 7.86606598c-.6372409 0-1.2170269.10533702-1.7406787.30941267-.5208175.2029711-.9832007.47567343-1.3883108.81616863-.2641407.2220103-.5024245.46167262-.7150902.71877262-.32073-.0358713-.6389004-.0205445-.9544837.0449379-.4765569.0988838-.9100615.2931428-1.3005494.582697-.38893236.2884007-.70392924.6507773-.94333263 1.0885837-.15373096.2811338-.2631209.5842404-.32612278.9098975-.36130559.1260479-.68534984.311289-.97317987.5535871-.41702122.3510525-.74147133.7882403-.96996316 1.3141189-.21992851.50617-.33284285 1.0611428-.33284285 1.6662033 0 .5599888.11620444 1.088324.34704854 1.5853551.2257397.4860409.53890139.9158045.94053853 1.2885283.39688045.3683095.8624233.6576576 1.39840825.8652335.52722037.2041816 1.09826727.3084905 1.71400617.3084905l8.2851544.0057524.2764336-.0080904c.4553766-.026938.8840721-.1209948 1.2868344-.2799061.4877949-.1924611.9144954-.4599038 1.2814459-.8002127.3730147-.3459327.6639531-.7472081.8734666-1.2033559.2128374-.4633843.320922-.9619299.320922-1.4963834 0-.5234955-.0971682-1.0172859-.289126-1.4818531-.1920992-.4649098-.4648668-.8769878-.8183934-1.236174-.2416931-.2455625-.5152806-.4559475-.8213894-.6302399-.0408489-.5960973-.1650829-1.151248-.3697155-1.6660551-.2616092-.6581467-.6277713-1.2296769-1.0961411-1.7161173-.4724834-.49071261-1.0241739-.8701638-1.6553042-1.13801615-.6273771-.26625951-1.3036495-.40133507-2.0296347-.40133507z" fill="none" stroke="#000" stroke-width="1.5"/></svg>