<svg height="30" viewBox="0 0 30 30" width="30" xmlns="http://www.w3.org/2000/svg"><path d="m15 .75c3.9350288 0 7.4975288 1.59498558 10.0762716 4.17372837s4.1737284 6.14124283 4.1737284 10.07627163-1.5949856 7.4975288-4.1737284 10.0762716-6.1412428 4.1737284-10.0762716 4.1737284-7.49752884-1.5949856-10.07627163-4.1737284-4.17372837-6.1412428-4.17372837-10.0762716 1.59498558-7.49752884 4.17372837-10.07627163 6.14124283-4.17372837 10.07627163-4.17372837zm-.0244541 5.5c-.4692926 0-.8434279.16042878-1.1357954.45096896-.2925811.29075253-.455759.66636324-.455759 1.14198088v10.37687166l-1.0573231-.9620016-2.71121908-2.2897947-.17527995-.0174945c-.51425406-.0311272-.92469546.1289051-1.24372953.4518109-.29125997.2947947-.44643984.6630308-.44643984 1.1129029 0 .4159554.14863104.7992908.47323275 1.1398524l5.58004215 5.5814929.0678087.0572334c.2526083.1831743.9151494.4561768 1.1044623.4561768.2199984 0 1.0166728-.3397679 1.1669084-.4997286l5.5795716-5.588502.1180834-.1322154c.2552637-.3123458.369913-.651451.369913-1.0143095 0-.4071865.0246038-.8173859-1.3790714-1.4814857-.2409577.0014491-.6026975.0581646-1.18167.2377533l-2.0378656 2.0055068-1.0362217.9428026v-10.37687166l-.007698-.17432639c-.0357766-.39595681-.195224-.71674653-.4566788-.97215836-.2953086-.28848322-.6697559-.44646509-1.1352709-.44646509z" fill="none" stroke="#000" stroke-width="1.5"/></svg>