<svg height="30" viewBox="0 0 30 30" width="30" xmlns="http://www.w3.org/2000/svg"><path d="m15 .75c3.9350288 0 7.4975288 1.59498558 10.0762716 4.17372837s4.1737284 6.14124283 4.1737284 10.07627163-1.5949856 7.4975288-4.1737284 10.0762716-6.1412428 4.1737284-10.0762716 4.1737284-7.49752884-1.5949856-10.07627163-4.1737284-4.17372837-6.1412428-4.17372837-10.0762716 1.59498558-7.49752884 4.17372837-10.07627163 6.14124283-4.17372837 10.07627163-4.17372837zm.1149902 5.69641113c-.5786361 0-1.1364744.10114247-1.6735904.30301384-.5470229.2055948-1.0375517.51502585-1.4707145.92968708-.4305855.41219403-.7763133.92879692-1.0300262 1.55480478-.2434092.6005848-.3712011 1.30184367-.3712011 2.10641517v1.2308613l-.0938305.0572279c-.1260834.0848619-.2591394.2050593-.4359866.3738307-.4169341.3687269-.6724534.9208465-.6724534 1.7079532v5.4716797l.00661957.2267628c.03942541.6595956.25232289 1.1342825.56773189 1.4598728.36182664.3735064.88970874.6029151 1.62694244.6029151h7.0931397l.217657-.0068755c.6336336-.0409806 1.094495-.2626969 1.416737-.598959.3460835-.3611408.5676324-.9061543.5676324-1.6837162v-5.4716797l-.0065521-.2262098c-.0390213-.6580032-.249709-1.131685-.5613338-1.4565502-.2098797-.2187971-.3574242-.3762503-.6352391-.4746514v-1.2124617l-.0058918-.2964886c-.0274404-.6805491-.1503474-1.2823775-.3606753-1.80721196-.2515775-.62776555-.5982211-1.14584005-1.0328083-1.55918841-.4352097-.41394042-.9261883-.72273834-1.4719533-.92797114-.5368369-.2018754-1.0948746-.30306076-1.6742036-.30306076zm0 2.74523926c.3202671 0 .6143251.07122608.8808068.21882656.2574821.14261575.4603921.35735388.6163077.63642055.148566.2659121.2244742.5861904.2431302.9562993l.0046284.189186v1.2440186l-3.4898633-.0004014.0008496-1.2436172c0-.3865931.0546844-.7241116.1794591-1.0080197l.0682995-.1374656c.1557268-.27872881.3593682-.4930222.6181426-.63544537.2683341-.14768465.5613817-.21980174.8782394-.21980174z" fill="none" stroke="#000" stroke-width="1.5"/></svg>