<svg fill="none" height="174" viewBox="0 0 379 174" width="379" xmlns="http://www.w3.org/2000/svg" xmlns:xlink="http://www.w3.org/1999/xlink"><filter id="a" color-interpolation-filters="sRGB" filterUnits="userSpaceOnUse" height="75.4717" width="75.472" x="68.8138" y="18.8679"><feFlood flood-opacity="0" result="BackgroundImageFix"/><feColorMatrix in="SourceAlpha" result="hardAlpha" type="matrix" values="0 0 0 0 0 0 0 0 0 0 0 0 0 0 0 0 0 0 127 0"/><feOffset dy="1.50943"/><feGaussianBlur stdDeviation="3.01887"/><feComposite in2="hardAlpha" operator="out"/><feColorMatrix type="matrix" values="0 0 0 0 0.506944 0 0 0 0 0.535333 0 0 0 0 0.608333 0 0 0 0.16 0"/><feBlend in2="BackgroundImageFix" mode="normal" result="effect1_dropShadow_40_658"/><feBlend in="SourceGraphic" in2="effect1_dropShadow_40_658" mode="normal" result="shape"/></filter><filter id="b" color-interpolation-filters="sRGB" filterUnits="userSpaceOnUse" height="75.4717" width="75.472" x="151.835" y="50.5661"><feFlood flood-opacity="0" result="BackgroundImageFix"/><feColorMatrix in="SourceAlpha" result="hardAlpha" type="matrix" values="0 0 0 0 0 0 0 0 0 0 0 0 0 0 0 0 0 0 127 0"/><feOffset dy="1.50943"/><feGaussianBlur stdDeviation="3.01887"/><feComposite in2="hardAlpha" operator="out"/><feColorMatrix type="matrix" values="0 0 0 0 0.506944 0 0 0 0 0.535333 0 0 0 0 0.608333 0 0 0 0.16 0"/><feBlend in2="BackgroundImageFix" mode="normal" result="effect1_dropShadow_40_658"/><feBlend in="SourceGraphic" in2="effect1_dropShadow_40_658" mode="normal" result="shape"/></filter><filter id="c" color-interpolation-filters="sRGB" filterUnits="userSpaceOnUse" height="75.4717" width="75.472" x="234.853" y="93.585"><feFlood flood-opacity="0" result="BackgroundImageFix"/><feColorMatrix in="SourceAlpha" result="hardAlpha" type="matrix" values="0 0 0 0 0 0 0 0 0 0 0 0 0 0 0 0 0 0 127 0"/><feOffset dy="1.50943"/><feGaussianBlur stdDeviation="3.01887"/><feComposite in2="hardAlpha" operator="out"/><feColorMatrix type="matrix" values="0 0 0 0 0.506944 0 0 0 0 0.535333 0 0 0 0 0.608333 0 0 0 0.16 0"/><feBlend in2="BackgroundImageFix" mode="normal" result="effect1_dropShadow_40_658"/><feBlend in="SourceGraphic" in2="effect1_dropShadow_40_658" mode="normal" result="shape"/></filter><radialGradient id="d" cx="0" cy="0" gradientTransform="matrix(0 96.9811 -209.142 0 189.57 86.7924)" gradientUnits="userSpaceOnUse" r="1"><stop offset=".583227" stop-color="#f6f7fb"/><stop offset="1" stop-color="#f6f7fb" stop-opacity="0"/></radialGradient><clipPath id="e"><path d="m88.4375 36.9811h36.2264v36.2264h-36.2264z"/></clipPath><clipPath id="f"><path d="m257.496 114.717h30.1887v30.1887h-30.1887z"/></clipPath><mask id="g" height="174" maskUnits="userSpaceOnUse" width="375" x="2" y="0"><path d="m2.40039 36.2264c0-20.0073 16.21911-36.2264 36.22641-36.2264h301.8872c20.007 0 36.226 16.2191 36.226 36.2264v137.3586h-374.33961z" fill="url(#d)"/></mask><g mask="url(#g)"><g filter="url(#a)"><circle cx="106.55" cy="55.0944" fill="#fff" r="31.6981"/><circle cx="106.55" cy="55.0944" r="31.0189" stroke="#81899b" stroke-opacity=".2" stroke-width="1.35849"/></g><g clip-path="url(#e)" fill="#161614"><path d="m106.481 36.9812c-9.964 0-18.0435 8.3039-18.0435 18.5477 0 8.1949 5.1699 15.1473 12.3395 17.5999.901.1717 1.232-.4024 1.232-.8923 0-.4422-.016-1.9034-.024-3.4532-5.0199 1.122-6.0791-2.1884-6.0791-2.1884-.8207-2.1439-2.0033-2.7138-2.0033-2.7138-1.637-1.1512.1234-1.1277.1234-1.1277 1.8119.131 2.7659 1.9115 2.7659 1.9115 1.6093 2.8355 4.2211 2.0157 5.2511 1.5419.161-1.1989.629-2.017 1.145-2.4802-4.0075-.4691-8.2205-2.0595-8.2205-9.1664 0-2.0249.7048-3.6796 1.8591-4.9784-.1874-.4673-.8049-2.3537.1748-4.9085 0 0 1.5151-.4985 4.9636 1.9012 1.439-.411 2.982-.617 4.516-.624 1.533.007 3.078.213 4.52.624 3.444-2.3997 4.957-1.9012 4.957-1.9012.982 2.5548.364 4.4412.177 4.9085 1.156 1.2988 1.856 2.9534 1.856 4.9784 0 7.1238-4.22 8.6925-8.238 9.1516.647.5756 1.224 1.7044 1.224 3.4347 0 2.4817-.021 4.4791-.021 5.09 0 .4936.324 1.072 1.239.8898 7.165-2.4553 12.329-9.4052 12.329-17.5974 0-10.2438-8.079-18.5477-18.043-18.5477z"/><path d="m95.1962 63.4028c-.0397.0921-.1809.1197-.3092.0566-.1309-.0606-.2045-.1862-.1621-.2788.0389-.0948.1802-.1213.3108-.0576.1312.0604.2059.1873.1605.2798m.8875.814c-.086.082-.2543.0439-.3685-.0857-.118-.1293-.1401-.3021-.0528-.3855.0888-.0819.2519-.0436.3702.0859.118.1307.141.3025.051.3855m.609 1.0413c-.1106.079-.2915.005-.4031-.16-.1106-.1648-.1106-.3626.0024-.4419.112-.0793.2901-.008.4033.1557.1103.1677.1103.3655-.0027.4464m1.0297 1.2062c-.0989.112-.3094.082-.4637-.071-.1576-.1495-.2016-.3618-.1024-.4739.1-.1123.3118-.0808.4672.071.1567.1492.2045.363.0991.4739m1.3306.4073c-.0435.1452-.2464.2112-.4507.1495-.2041-.0635-.3377-.2337-.2965-.3805.0425-.1462.2462-.215.4521-.149.2038.0633.3377.2322.2952.38m1.5149.1727c.005.153-.169.2798-.383.2826-.2159.0048-.3904-.119-.3926-.2694 0-.1545.1694-.2802.3846-.2838.215-.0044.391.1186.391.2706m1.488-.0587c.025.1493-.124.3026-.337.3433-.209.0393-.403-.0528-.43-.2007-.026-.153.126-.3062.335-.3459.213-.0381.404.0516.432.2033"/></g><rect fill="#f0f2f6" height="63.3962" rx="31.6981" transform="matrix(0 -1 1 0 -140.99602 124.66398)" width="224.906" x="-8.16602" y="132.83"/><rect height="62.0377" rx="31.0189" stroke="#81899b" stroke-opacity=".2" stroke-width="1.35849" transform="matrix(0 -1 1 0 -139.63777 124.66423)" width="223.547" x="-7.48677" y="132.151"/><rect fill="#81899b" fill-opacity=".05" height="63.3962" rx="31.6981" transform="matrix(0 -1 1 0 -217.97702 201.64498)" width="63.3962" x="-8.16602" y="209.811"/><rect height="62.0377" rx="31.0189" stroke="#81899b" stroke-opacity=".2" stroke-width="1.35849" transform="matrix(0 -1 1 0 -216.61877 201.64523)" width="62.0377" x="-7.48677" y="209.132"/><rect fill="#f0f2f6" height="63.3962" rx="31.6981" transform="matrix(0 1 -1 0 239.3815 -369.1925)" width="149.434" x="304.287" y="-64.9055"/><rect height="62.0377" rx="31.0189" stroke="#81899b" stroke-opacity=".2" stroke-width="1.35849" transform="matrix(0 1 -1 0 239.3817 -367.8343)" width="148.075" x="303.608" y="-64.2263"/><rect height="62.0377" rx="31.0189" stroke="#81899b" stroke-opacity=".2" stroke-width="1.35849" transform="matrix(0 1 -1 0 469.5706 -303.6834)" width="148.075" x="386.627" y="82.9436"/><rect fill="#f0f2f6" height="63.3962" rx="31.6981" transform="matrix(0 1 -1 0 353.343 -89.193)" width="262.642" x="221.268" y="132.075"/><rect height="62.0377" rx="31.0189" stroke="#81899b" stroke-opacity=".2" stroke-width="1.35849" transform="matrix(0 1 -1 0 353.343 -87.833)" width="261.283" x="220.588" y="132.755"/><g filter="url(#b)"><circle cx="189.571" cy="86.7925" fill="#fff" r="31.6981"/><circle cx="189.571" cy="86.7925" r="31.0189" stroke="#81899b" stroke-opacity=".2" stroke-width="1.35849"/></g><path d="m194.1 86.8005c.001 1.3062-.235 2.6017-.695 3.8241-1.223.4604-2.519.6964-3.825.6967h-.016c-1.345-.0017-2.634-.2477-3.824-.6961-.461-1.2225-.697-2.5183-.696-3.8247v-.0159c-.001-1.306.235-2.6013.695-3.8236 1.222-.4613 2.519-.6974 3.825-.6968h.016c1.306-.0006 2.602.2354 3.825.6967.461 1.2221.696 2.5175.695 3.8236v.0158zm13.334-3.0268h-10.573l7.476-7.4764c-.587-.8242-1.242-1.5981-1.957-2.3135v-.0006c-.716-.7146-1.489-1.3686-2.313-1.9551l-7.477 7.4764v-10.573c-.994-.1673-2-.2516-3.009-.2522h-.018c-1.026.0006-2.031.0878-3.01.2522v10.573l-7.476-7.4764c-.824.5864-1.597 1.2408-2.312 1.9564l-.004.0028c-.714.7146-1.368 1.4872-1.954 2.31l7.477 7.4764h-10.573s-.252 1.9858-.252 3.0126v.0125c0 1.0267.087 2.033.252 3.0125h10.573l-7.477 7.4764c1.176 1.6506 2.619 3.0933 4.27 4.2693l7.476-7.4765v10.5735c.994.167 1.999.251 3.006.252h.026c1.007-.001 2.012-.085 3.005-.252v-10.5735l7.477 7.4765c.824-.586 1.597-1.24 2.313-1.9552l.001-.0017c.715-.7154 1.369-1.4889 1.956-2.3124l-7.477-7.4764h10.574c.164-.9778.25-1.9811.251-3.0056v-.0263c-.001-1.0246-.087-2.0279-.251-3.0057z" fill="#ff4a00"/><g stroke="#81899b" stroke-opacity=".2" stroke-width="1.35849"><rect height="62.0377" rx="31.0189" transform="matrix(0 -1 1 0 -10.5804 161.646)" width="129.962" x="75.5328" y="86.1132"/><rect height="62.0377" rx="31.0189" transform="matrix(0 -1 1 0 -155.4862 306.5518)" width="129.962" x="75.5328" y="231.019"/><rect height="62.0377" rx="31.0189" transform="matrix(0 -1 1 0 117.7217 199.3823)" width="129.962" x="158.552" y="40.8303"/></g><g filter="url(#c)"><circle cx="272.589" cy="129.811" fill="#fff" r="31.6981"/><circle cx="272.589" cy="129.811" r="31.0189" stroke="#81899b" stroke-opacity=".2" stroke-width="1.35849"/><g clip-path="url(#f)"><path d="m280.535 121.867h-15.889v15.889h15.889z" fill="#fff"/><path d="m280.535 144.906 7.15-7.15h-7.15z" fill="#ea4335"/><path d="m287.685 121.867h-7.15v15.889h7.15z" fill="#fbbc04"/><path d="m280.535 137.756h-15.889v7.15h15.889z" fill="#34a853"/><path d="m257.496 137.756v4.766c0 1.317 1.067 2.384 2.383 2.384h4.767v-7.15z" fill="#188038"/><path d="m287.685 121.867v-4.767c0-1.316-1.066-2.383-2.383-2.383h-4.767v7.15z" fill="#1967d2"/><g fill="#4285f4"><path d="m280.535 114.717h-20.656c-1.316 0-2.383 1.067-2.383 2.383v20.656h7.15v-15.889h15.889z"/><path d="m267.905 134.193c-.594-.401-1.005-.987-1.229-1.762l1.378-.568c.125.477.344.846.656 1.108.309.263.687.392 1.128.392.45 0 .838-.137 1.162-.412.323-.274.486-.623.486-1.046 0-.433-.171-.787-.512-1.061-.342-.274-.771-.411-1.283-.411h-.797v-1.364h.715c.441 0 .813-.12 1.114-.358.302-.238.453-.564.453-.979 0-.369-.135-.663-.405-.884-.27-.22-.612-.331-1.027-.331-.405 0-.727.107-.965.323-.238.217-.417.491-.52.797l-1.365-.568c.181-.513.513-.966.999-1.357.487-.391 1.109-.588 1.863-.588.558 0 1.061.108 1.506.324s.794.516 1.046.898c.253.383.378.812.378 1.289 0 .486-.117.897-.352 1.235-.234.338-.522.596-.864.777v.081c.441.182.824.481 1.108.864.288.387.433.85.433 1.39s-.137 1.023-.411 1.446-.653.757-1.134.999c-.482.242-1.025.366-1.626.366-.697.002-1.341-.199-1.935-.6zm8.467-6.84-1.513 1.094-.757-1.148 2.715-1.958h1.041v9.237h-1.486z"/></g></g></g><circle cx="355.606" cy="36.9811" fill="#fff" r="31.6981"/><circle cx="355.606" cy="36.9811" r="31.0189" stroke="#81899b" stroke-opacity=".2" stroke-width="1.35849"/></g></svg>