<svg xmlns="http://www.w3.org/2000/svg" viewBox="0 0 1656.48 638.01"><defs><style>.cls-1{fill:#ff97af;}</style></defs><g id="Layer_2" data-name="Layer 2"><g id="Layer_1-2" data-name="Layer 1"><path class="cls-1" d="M1646.2,232.3c15.16,8.66-6.61-7.14,10.28,5.06C1653.84,237.1,1650.52,236.09,1646.2,232.3Z"/><path class="cls-1" d="M569.38,114.08c27-8.86,59.29-14.18,92.35-18.42s66.9-7.53,97.43-12.87c7.17-1-1.48,4.31,14.69,1.81,29.52-5.6,68-9,108.23-9.68l7.56-.13,7.58,0c5.07,0,10.14,0,15.21.06,10.15.17,20.28.37,30.3.83s19.9,1,29.55,1.6c4.82.3,9.59.72,14.28,1.09s9.32.73,13.85,1.21l-4.44,1c6.91.67,14.62.19,22.44-.32s15.76-.87,23.08-.19c.08.78-4.75.85-1.41,2.1,1.91-1.06,8.54-.9,15.49-.64s14.2.75,17.39.11c5.71,1.41,5,3.18,12.35,4.87l8.61-1.85a79.71,79.71,0,0,1,19.41-.67c6.91.52,14.23,1.42,21.76,2.74l23.21,4c3.94.65,7.91,1.23,11.9,1.7s8,1,12,1.23c-1.62.35-4.81.29-2.42,1.32,25.57,2.4,54.07,7.44,82.88,14.52a842.83,842.83,0,0,1,85,25.94c-2.48.05-5.07.89-2.33,3.12,1.82-.8,6.93.26,13.4,2.18l2.49.76,2.56.9,5.35,2c3.64,1.36,7.37,2.82,11,4.22,2.57,2.76,8.78,5,16.4,7.69,3.83,1.28,7.87,3,12,4.78a85.57,85.57,0,0,1,12.06,6.42l-1.65-.19c6.57,2,10.71,4.8,14.58,7.41s7.41,5.13,13,6.42l6,6.41a7.49,7.49,0,0,1,2.76.42,14.27,14.27,0,0,1,2.8,1.47,51.45,51.45,0,0,1,5.93,4.84c2.06,1.86,4.21,3.86,6.5,5.67,1.16.89,2.28,1.82,3.46,2.64a26.78,26.78,0,0,0,3.67,2.17l.21-.9a70.31,70.31,0,0,1,10.5,7.82,86.94,86.94,0,0,0,9.58,8.06l.41,1c2.3,1.68,4.44,3.3,6.44,4.85s3.72,3.21,5.38,4.67l8.33,7.52c2.29,2,3.91,3.63,5.19,4.48s2.1,1.05,2.55.37c2,3.71-2.18.07-6-3-4-2.95-7.63-5.39-4.23.1,14.11,12,27.83,24.91,40.12,39.21,3.11,3.54,6.3,7,9.18,10.8l2.21,2.78,1.1,1.4,1,1.45,4.14,5.82a154.16,154.16,0,0,1,13.76,25.14,104.39,104.39,0,0,1,7.55,27.84,89.88,89.88,0,0,1-1.06,28.9,98.75,98.75,0,0,1-9.85,27.06A136,136,0,0,1,1568,433.51c-6.59,5.68-10.81,9.1-13,9.63-1.22,1.41-3.13,3.3-5.31,5.49-1.07,1.11-2.3,2.21-3.55,3.35l-3.82,3.5c-2.59,2.32-5.24,4.54-7.46,6.61a58.41,58.41,0,0,0-5.32,5.09c1-.77-.22-.38-2.09.46a57.77,57.77,0,0,0-6.14,3.1c-1.49.83-2.77,1.63-3.89,2.4a36.12,36.12,0,0,0-3,2.18,55.92,55.92,0,0,0-4.56,4.21,43.48,43.48,0,0,1-4.91,4.19,39.64,39.64,0,0,1-7.91,4.47,19.4,19.4,0,0,0,4.48-4.19c.59-1,.32-1.44-.83-1.45a111.11,111.11,0,0,1-17.86,12.21c-6.72,3.86-13.9,7.49-20.57,11,1.89-1.49,5-3.33,4.1-4-6.82,4.83-13.77,7.76-20.54,10.4-3.4,1.29-6.75,2.52-10,3.88a83.93,83.93,0,0,0-9.75,4.51l4.33-3.74c-2.79.83-5,1.54-6.66,2.17a32.25,32.25,0,0,0-3.86,1.6,5.78,5.78,0,0,0-2.77,2.44,5.48,5.48,0,0,1-2.17,2.4c-1.41.93-4,2-8.8,3.42,4.35-2.2,2.49-2.3,3.05-3.3a126.82,126.82,0,0,1-14.32,7c-2.67,1.13-5.43,2.25-8.25,3.35s-5.72,2.12-8.62,3.15c-5.77,2.1-11.63,3.94-17.1,5.81s-10.64,3.48-15,5.11c1-.57.58-1,.58-1-19.47,6.2-40.31,10.69-61.76,17.42-8.13,1.08,1.54-5-19.27.62.8,1.7-8,4.19-15.42,6.23s-13.33,3.88-6.66,4.57c-9.09,1.64-20.86,3.58-31.84,5.46s-21.17,3.77-27.1,5.46c7.89-2.87-9.64-2.85,5.35-5.9l-11.77-.14c1.41-1.81,11.78-1.62,7.84-2.85-7.51,1.55-29.22,6.87-36.09,7.32-3.4,1.14-6.71,2.39-10.13,3.68s-6.94,2.59-10.74,3.89-7.89,2.59-12.45,3.77-9.59,2.3-15.27,3.21c10.5-2.95-6.68-3.19.52-4.85-10.25,3.87-20.54,7.64-30.86,11.4-7.59,1.13-2-2.7-12.91-.35.7.9-4,2.12-7.28,3.3-1.45,0-9.34,1.15-17.33,1.89s-16.1,1.07-18-.59c-3.5-1.05,12.32-2.13,3.75-2.49-14.06,1.53-14.54,2.89-28.63,4.32l-.31-.46c-9.34.42-27.28,4.12-17,5.21,6.5-.48-2.66-2,7-1.78-3.17,1.36-8.85,2.56-15.49,3.59s-14.27,1.81-21.33,2.42c4.77-1,4.1-1.92,6-3.11-18.73,4.44-38.81,6.85-60,9.38-.21,1.76,7.72-3.67,10.9-3-27.33-.58-56,6.71-78.87,4.07,3.7-.46,2.11,2.38,1.84,1.9-13.14.33-12.64-2.26-21.16-1-.44-.73-3.12-.52-6.79,0s-8.33,1.19-12.73,1.54c-4.51,1.19-2.31-.66,5.36-1-6.11.81-21.44,2.11-38.8,2.81s-36.75.84-50.92-.27c.55,1-17.47,3.53-24,3.31l2.57-2.26c-3-.72-8.43-.72-13.29-.81s-9.11-.29-9.63-1.28c-7,1.24,6.43,1,19.24.42s25-1.26,15.55-.21c-4.84-1.89-26.28,3.37-22.18.32-6.55-.06-13,.48-19.4.75a81.42,81.42,0,0,1-18.93-1c3.64.46,10.71-2.9.14-3-18.61-.18-5.33.94-20.44,1.2l-9.5.57c-.36,1.1-4.52.87-7.74.7s-5.49-.3-2.08,1.1c-1.1-1-7.88-1-14.13-1.23s-12-.76-10.89-2.55l2.73-2.77c-8-.19-13.32,2.37-19.73,3.26-1-.34-3.12-1-2.68-1.49-1.57,4.38-19.18-1.58-29,1.12-4.2-.7-9-1.25-13.9-1.77l-14.78-1.51c-9.58-1.06-18-2.15-21.86-4-13.06.06-25.06.45-39.71-2.26,3-.06,7,.28,8-.58-9.1-2.4-11.52-1.45-20.05-1.8,1-.21-3.56-1.44-9.6-3s-13.56-3.49-18.57-5c-13-.55-8.94,2.46-10.43,3.73-5.54-3-14.66-3.72-24.17-4.48-4.75-.41-9.61-.82-14.14-1.54a47.79,47.79,0,0,1-12.21-3.44c4.53.19,18.95,1.2,8.56-1.79-5.43-3.19-11.42-3.42-18.36-3.66s-14.85-.38-24-3.35l3.86,4.53c-3.95-1.93-10.93-3-16.62-3.81s-10-1.77-8.65-3.36a33.92,33.92,0,0,1-6.13-1c-2.32-.55-4.79-1.24-7-1.79-4.44-1.11-7.91-1.69-7.31.29-14.92-5.3-33.51-9.94-50.4-15.26s-32-11.26-39.93-17.74c-2.21-.56-5.89-2-8.83-3s-5.11-1.66-4.4-.35a16.17,16.17,0,0,0,7.75,3.38c2.06.35,3.59.41,4.65,1.56-3.82-1.4-5-.83-5.59-.53a75.92,75.92,0,0,1-10-5.47c-1.65-1.28-1-1.85,3.89-1.4a70.44,70.44,0,0,0-6.57-3.2c-2-.82-3.79-1.54-5.51-2.06-3.44-1.1-6.53-1.57-9.75-2.28-1.62-.34-3.29-.69-5.08-1.14a51.71,51.71,0,0,1-5.75-1.77c-2.07-.77-4.32-1.72-6.82-2.92a89.15,89.15,0,0,1-8.2-4.65c.92-.33,1-.88-.1-1.82a52.33,52.33,0,0,0-6.9-4.38l-3.7-1.49c-1.23-.51-2.44-1.07-3.66-1.61-2.44-1.09-4.91-2.14-7.34-3.3a59.66,59.66,0,0,1-7.3-6.14c-1.26-1.45-1.57-2.29-1.4-2.83.36-1.08,2.64-1,3.21-2.13-2-1.4-4.1-2.91-6.19-4.41s-4-3.16-6-4.59-3.67-2.84-5.26-3.93a19.8,19.8,0,0,0-4.15-2.37c-1.09-1.79-2.12-3.61-3.15-5.4l-1.54-2.68c-.5-.9-1-1.84-1.43-2.76,4.19,8.06-6.66-5-9.85-8.52l3.4,3.32a8.49,8.49,0,0,0-1.44-2.63c-.41-.59-.89-1.23-1.42-1.92l-.82-1.05-.82-1.14c-1.13-1.54-2.35-3.16-3.53-4.68s-2.16-3-3-4.22c-.7,2,5.38,12.23,9.31,17.54a40.45,40.45,0,0,1-3.19-3.07l-1.7-1.83c-.56-.64-1.08-1.33-1.64-2-1.11-1.38-2.26-2.79-3.44-4.18s-2.28-2.84-3.49-4.13c.83.17.78-.7.18-2.18s-1.65-3.64-2.89-6.07c-.61-1.22-1.33-2.47-2-3.8s-1.26-2.67-1.88-4a76.07,76.07,0,0,1-3-7c-.38-1.11-.75-2.08-1.13-2.93s-.65-1.64-1-2.31a18.48,18.48,0,0,0-1.86-3.07C6,433.19,5.08,432.4,4.75,431c.29-.14.19-1.16-.06-2.49s-.69-3-.9-4.42c-.49-2.9-.71-4.83.91-1.41a12.42,12.42,0,0,1,.53,2.53c.14.91.29,1.89.46,2.93a17.88,17.88,0,0,0,2.21,6.76c-.14-.77-.22-1.44-.27-2.05s0-1.17,0-1.7c0-1.05.11-2,0-3.1A25.23,25.23,0,0,0,7,423.94c-.35-1.77-1-4-2-7.07-1.29-4.65-2.39-3.9-3.32-4.24-.45-.18-.88-.64-1.23-2.24A29.72,29.72,0,0,1,.1,407c0-.74-.06-1.57-.08-2.51L0,403c0-.52.05-1.08.08-1.66.1.61.18,1.16.29,1.65s.26.94.39,1.35a22.47,22.47,0,0,0,.79,2.12c.54,1.26,1.07,2.38,1.7,4.17-.06-2.87-.11-5.73-.06-8.58l.22-4.26c.08-1.42.14-2.84.33-4.24l-2.2-.78c.65-2.31.78-.7,1.13-1.76a16.71,16.71,0,0,1-.73-6.36c0-1.39.09-2.89.18-4.45s.35-3.15.54-4.75c.31-3.2.94-6.29,1.22-8.9.13-1.31.23-2.49.29-3.46A6.75,6.75,0,0,0,4,360.78a64.81,64.81,0,0,1,4.65-12.59l3-6c1-1.93,2-3.79,2.87-5.63L14,338.1c.65-1.07,1.28-2.2,1.89-3.37s1.32-2.33,1.95-3.55,1.26-2.45,1.86-3.71S21,325,21.57,323.76l3.4-7.27c1.08-2.3,1.94-4.55,2.77-6.45l.17.63c1.55-2.18,3.87-6,6.4-9.94s5-8,6.51-11.09c4.84-4.77,7.2-4.28,9.19-4.31s3.68-.47,7.34-6.91a61.27,61.27,0,0,0,5.41-7,32.36,32.36,0,0,0,3-5.41c1.15-2.92.58-4.27-1.82-2.8,8.95-8.22,18-17.42,27.35-25.91s19.12-16.21,29-21.46c2.22-2.76.11-2,5.55-6.57,14.51-10,29.61-20.69,44.55-30s29.64-17.27,42.93-21.82c-8.5,5.54.45,2.27,1.23,3.3,6.41-5.66,9.78-2.8,10.88-7.19-.83-.7-1.17-1.37-2.45-1.39s-3.48.58-8,2.53c4.46-2.71,9.64-5.5,15-8.38,2.68-1.42,5.44-2.8,8.19-4.18s5.5-2.73,8.21-4,5.37-2.47,7.92-3.59,5-2.12,7.28-3a98.61,98.61,0,0,1,11.31-3.93c-5.65,1.47-1.83-.88,2.09-3.28,0,1.78,3.48,1.2,8.3-.46a122.46,122.46,0,0,0,16.06-7.16l.77-2.43,7.72-1c3.89-2.22,3-5.64,14.43-8.1a5.33,5.33,0,0,0,3.89.73C336.72,100,351.7,91.76,364.53,89l11-.74c5.12-2.09,13.47-6.59,3.93-4.34,21.56-5.38,35.31-9.19,42.72-8.89,17.36-8.32,39.49-16.13,62.75-22.71s47.64-12,69.42-16.13l-1,1.69c11.94-1,5.56-3.74,13.92-4.34-3.52,2.08,9.48,1.3.62,4.72,17-1.67,21.07-6.49,31.87-9.08,1.33-2.18-8.55,2.77-6.86,0,1.75-1.07,23.47-2.48,25.63-5.75,4.4.47,1.45,3.1-.63,4.61l10.05-3c6.54.71-.39,3.32-7.2,6s-13.46,5.6-6.59,6.57c3.12-.69,6.23-1.34,9.35-2,4.73.82-1.37,2.61-5.65,3.92s-6.78,2.08,5.07.7c10-3,18.17-8.54,8.83-8.39,10.62-2,12.87-4,15.32-6A16.12,16.12,0,0,1,652,23a54.51,54.51,0,0,1,11.8-2.42c6.55.84-18.47,2.88-13.69,4.68,11.2.82,21.68-4.25,31.48-4.59-10.9.23-2.16-3.81,4.77-5.19,12,0-7.33,3.59,9.41,2,2.56-2,17.83-4.94,4.39-4.63,2.82-2.24,7.22-2.43,12-2.54s10-.18,14.4-2c2.86,1.08-1.32,3-3.89,4.64s-3.51,2.91,5.74,2.76c-1.57-1.16,4-2.55,8.76-4s8.64-2.94,3.59-4.48c7.32.17,8.22,2.13,3.09,4.13,5.23.39,11.39-1.31,16.74-2.44s9.87-1.71,11.73.73l3.38-2.88c3.29.65,8,1,13.34,2.15,4.55-.27,11.85-1.5,17.93-2.18s10.94-.78,10.6,1.23c1.46-.26,7.39-.53,11.94-1.05s7.73-1.21,3.67-2.5c-13-1.22-14.81,2.52-22.17-.89a30.86,30.86,0,0,0,13.74.29c4.44-.77,8.67-2,12.42-2.62l1.26,1.51C842.92,2,853.21,2,856,.37c-3.41.93-1.61,1.95,2,2.28L862.58.24c9.08-.73,10.16.35,11.17,1.43s2,2.23,10.79,1.87L871.14,5.4c2.93-.4,8.94,1.77,17.37,1C891.79,4.3,898,1.8,900.82.16c10-.85,4.43,2.44,14.26.42-4.29.78-8.58,1.54-12.87,2.38-1,.35,1.19,1.24,5.24,2.07a89.32,89.32,0,0,0,16.61,1.79c8.48-.52,21.77-3.17,8.4-4.76,6.69.17,16,1.77,10.62,3.16,15.12-.13-1.89-2.39,11.19-3.17,5.29,1.6,21.76,4.48,31.61,7.17-4.59.88-9.18,1.87-13.76,2.8l9,.52c-11.82,2.23,5.75,2.51-1,5.17,6.08.83,13.56.32,19.52-.08-8.79-3-3.66-4.34,3.09-5.48s15.1-2,12.66-4.39a39.19,39.19,0,0,1,13.13,2.18,36,36,0,0,1,6.67,3.61c3.8,2.3,7.75,4,20.93,1.84-4.09-1.57,8.38-3.68-7.26-4,15.25,2,10.89-3.34,28.76.53-13.59.27,13.79,6.1-5.8,6.5,1.47-1.31-10.62-2.35-13.63-2.25,6.12,2.37-1.76,4.26,13.82,6,4.77.31,10.41.89,14.66,1.08s7.12-.07,6.33-1.33c-.08-2.56-14.57-1.57-8.15-3.34a117.76,117.76,0,0,1,19.07,3.1c4.1.86,6.87,1.09,11.12-.58-12-1.33-14.68-4.33-14.24-6L1115,16l-3,1.28a84.68,84.68,0,0,0,10.79,1.61,8.6,8.6,0,0,0,3.75-.5c1.69-.6,3.32-1.36,14.13.58l9.59,4.95c-2.81,1-10.59-.68-17.32-1.77s-12.36-1.84-10.78.75a146.59,146.59,0,0,0,16.39,1.64,79.83,79.83,0,0,1,15.66,2.48c-3-.09-7-.64-10-.71,2.5.49,4.74,2.46,8.92,4.28s10.27,3.58,20.54,3.56c10.52.55,3-1.12,3.59-2.79,11.25,1.89,18.64,2.68,25,3.47s11.77,1.29,19,2.77c-1.84,1.34,4.49,2.8,9.2,3.93,2.35.55,4.3,1,4.62,1.38s-1,.49-5.12.49a54.39,54.39,0,0,0-9.14-3.1c-2.07-.56-4.34-1.13-6.71-1.67s-4.88-1-7.39-1.48c-5-.91-10.07-1.72-14.42-2.09a41.93,41.93,0,0,0-10.11,0c3.69,2.76-.67,1.78-6.65.5s-13.61-2.7-16.36-1.12c9,1.64,13,3.4,15.19,5.13s2.34,3.48,3.53,5c4.91,1.12,9.92,1,12.95,1.13,2.56-2-3.92-3.2-3.82-5.75,2.48.56,5,1.08,7.41,1.59s4.87,1,7.26,1.46c4.78.92,9.43,1.64,13.8,2.32a180.93,180.93,0,0,0,22.21,2.18c6.36,2.72,3.7,4.61-4.17,3a656.75,656.75,0,0,1,70.62,18.23c-6.62-3.88-.38-2.43,6.4-.68s14.08,3.87,9.67.86c-11.56-4.37-21.09-9.82-14-9.77,7.39,2.31-.71,1.62,2.17,3.3,5,.26,8.47,2.22,11.92,4s6.91,3.31,12,3.07c-21.63-5-5.51,3.45-10.3,5.3,7.89,1.37,7.56,1.9,7.15,2.57s-.9,1.58,6.61,3.88a508.47,508.47,0,0,1,51.53,12.8,171.87,171.87,0,0,0,16.94,7.33c6.14,2.43,12.68,4.74,19.18,7s12.9,4.49,18.88,6.55,11.43,4.14,16,6c9,5.4,1.14,6,11.23,10.91,12.13,5-7.5-7.32,9.81,1.76l-2-.09c2.87.78,10.79,4.94,18.91,8.59s16.35,7,20,5.94l-7.08,1c3.15,1.82,6.59,2.42,9.46,3.36-.4,1.19,2.93,4-2.75,2.23,4.85,3.78,10.57,6.38,16.55,8.75s12.17,4.65,18,7.5l-6.51-5.75c2.61,1,5.08,2.09,7.45,3.15s4.61,2.17,6.8,3.26c4.37,2.2,8.45,4.41,12.5,6.64s8,4.59,12.19,6.92c2.09,1.17,4.24,2.32,6.46,3.52s4.51,2.43,6.92,3.66l-1.64,1.63,11.87,5.09c-3.76.3,5.72,7.4,12.5,9.24l-15.8-6-15.85-5.72c-7.45-5.65,10.11,2.56,6.1-2.17-3.33-4.16-21.3-13-25.13-12.66,6.63,3.81,7.18,3.57,12.78,5.66.75,3.92-9.39-1.69-15.41-2.54,3.6,1.74,8.14,5.28,9.35,4.81-7.57-2.41-14.71-5.8-26.33-11.71,8.4,3-3.42-3.9,0-3.16-1.08,1-4.51.28-9.42-1.65-2.45-1-5.28-2.24-8.37-3.76s-6.5-3.2-10-5.12a37,37,0,0,0-8.48-5.17c-3.34-1.53-7.12-2.89-11.13-4.3-8-2.86-17-5.59-25.37-9.75a109.49,109.49,0,0,1,28.62,6.14c-10.1-6.19-11.94-5.34-22.18-11.37-6-.44-11,.9-25.58-3.9l0-2.19a88.52,88.52,0,0,0-14.18-3.22,56.37,56.37,0,0,1-6.63-1.61,91.12,91.12,0,0,1-9.76-3.61c-27.78-11.84-57.21-22-79.11-29.12l-.23-2.2a57.68,57.68,0,0,1-12.44-1.65c-4.78-1-10-2.59-15.46-4.08s-10.92-3.18-16.18-4.56-10.22-2.54-14.51-3.22c-7-2.4-14.35-4.41-21.7-6.3s-14.73-3.44-21.65-4.92-13.4-2.91-19-4.3A77.06,77.06,0,0,1,1212,60.31c-25.53-4.64-49.55-8.31-73.82-11.75s-48.8-6.64-75.42-10l9.3-1.91c-9.81,1.07-6-2.41-15.46-3,10.53,3.5-13.36,1.67-20.15,2.86-5.9-1.1-12.24-2-18.79-2.58s-13.27-1-19.93-1.12-13.24-.18-19.48,0-12.15.35-17.45.62l-.72-2.06c-21.54,2.78-46.91-1.29-73.6-1.95-3.06-.83-7.91-2.72-15.86-2.47a144.11,144.11,0,0,1-19.07,3.26c-3.16.38-6.54.73-10.45,1.15s-8.34.87-13.61,1.6c-15.47.43-40.58,1-56.37.78C742.23,38,713,41.09,683.57,44.89l-11.06,1.43-11.06,1.54c-7.39,1-14.77,2.2-22.17,3.34-14.77,2.45-29.58,5.13-44.31,8.51l-4.72-1.59C576.06,62,561,65.58,545.63,69.2l-23.17,5.34C514.72,76.38,507,78.12,499.29,80c-30.7,7.24-60.18,15.14-83.63,23.75l3.41-5.3a104.45,104.45,0,0,0-11.67,3.31A100.06,100.06,0,0,0,397,105.83c-5.91,2.78-9.31,5.26-7,6a123,123,0,0,0-12.29,3.88c-4.29,1.52-8.66,3.28-12.89,4.91-2.11.81-4.19,1.59-6.2,2.31s-3.93,1.42-5.76,2a39,39,0,0,1-9.56,2,80.38,80.38,0,0,0-16,7c-4,2.28-7.65,4.52-13.67,7.33-15.1,5.33-25.25,9.52-35.05,13.89-4.87,2.25-9.71,4.45-14.92,7.09l-8.26,4.16-9.31,4.86,6.8-3c2.57-2.27,2.08-4-4.77-.87-2.4,1.48-5.95,3.3-9.7,5.27s-7.75,3.94-11,5.8c-6.58,3.68-10.41,6.5-4.34,6-14.78,6.32-30.78,16.06-46.16,26.32s-30.24,20.89-43.68,28.7c1.47-.25.65.83-.74,2.33s-3.39,3.44-4.4,4.79c-10.87,8.55-22.05,17.23-32,26.18s-18.72,18.12-24.77,27.12c-1.66,1.42-1-.24-.78-1.23.09-.49.06-.82-.45-.5a18.15,18.15,0,0,0-3.25,3.42c-1.86,2.71-1.54,3-1.32,3.47s.29,1.06-1.78,4.47c-12.14,18-23.29,36.35-30,55.57a111.7,111.7,0,0,0-5.92,29,81.29,81.29,0,0,0,3,27.89,114.94,114.94,0,0,0,9.89,22.56c2,3.63,4.35,7.15,6.74,10.62,1.26,1.71,2.49,3.45,3.76,5.13l4,4.87a168.49,168.49,0,0,0,18.29,18l5.05,4.17,5.25,4c1.72,1.36,3.58,2.58,5.39,3.86s3.59,2.58,5.49,3.76l5.6,3.63c1.89,1.18,3.83,2.31,5.73,3.47l2.87,1.73,2.93,1.65,5.86,3.29c8,4.19,15.94,8.27,24.14,11.93A506.1,506.1,0,0,0,191.41,544l-1.07.67c11.72,2,24.56,7,37.12,11.36,6.3,2.09,12.45,4.17,18.32,5.51,2.93.68,5.77,1.23,8.49,1.59a47.4,47.4,0,0,0,7.8.31c5.19,2.31,20.73,5.28,16.24,6.2a131.5,131.5,0,0,1,16.46,2.81c3.06.68,6.27,1.4,9.58,2.19s6.72,1.63,10.21,2.41c13.94,3.29,29.06,6.31,42.84,6.88a34.35,34.35,0,0,0-6.86-.6c6.73,1.71,13.35,2.9,19.91,4s13.08,1.9,19.65,2.7,13.2,1.59,20,2.46c3.39.44,6.82.94,10.31,1.48s7,1.11,10.64,1.78c-3,.07-8.4-.26-9.38.61,11,3.22,27.11-1.06,32.8,4.26,6.47.6,4.84-1.89.86-2.15,15.92,2.11,32.18,3.71,48.64,5s33.14,2.17,49.9,2.79c33.53,1.26,67.42,1.52,100.86,1.57,12,.94,18.13,1.81,21.24,2.68s3.15,1.64,2.88,2.24c-.55,1.16-2.35,1.62,16.61-.06,3.09.92,2.24-1.79,2.77-.81,14.63-1.3,22.83,5.24,33,2.68-4.22-2.86,6.75-1.68,7-3.44,7.34.37,13.21.8,18.26,1.2s9.28.71,13.3.93a137.15,137.15,0,0,0,26.89-1.09l-1.7,1.58c27-5.12,58.55-4.29,81.14-10.6,74.62-4.85,147.46-12.82,219.23-23.84s142.49-25.07,212.22-43.84a965.72,965.72,0,0,0,101.17-31.86c16.38-6.25,32.46-13,48.08-20.5,3.94-1.82,7.74-3.82,11.62-5.73s7.6-4,11.41-6c7.46-4.18,14.9-8.41,22-13A240.46,240.46,0,0,0,1541,428a139.21,139.21,0,0,0,15.36-17.72A93.25,93.25,0,0,0,1567.27,391a69.58,69.58,0,0,0,3.76-41.31l-.54-2.67c-.17-.89-.5-1.77-.73-2.66l-.76-2.68-.38-1.34-.49-1.33c-.67-1.77-1.26-3.56-2-5.34l-2.34-5.32c-.35-.9-.85-1.77-1.29-2.64l-1.36-2.64c-.46-.88-.88-1.77-1.37-2.64l-1.54-2.6-1.53-2.61c-.51-.88-1-1.75-1.6-2.6l-3.41-5.14c-.42-.87-.9-1.7-1.38-2.5l-1.37-2.34c-.89-1.53-1.74-3-2.54-4.33-1.83-2.75-3.5-5.2-5.06-7.45s-3-4.29-4.44-6.23c-.72-1-1.42-1.92-2.14-2.83l-2.29-2.64c-3.08-3.49-6.37-6.94-10.5-11.11-2.11-2-4.55-4.15-7.23-6.57s-5.67-5.13-9.14-8.06c1.56.46,3.26,2,1.93-.15-1.79.58-6.65-3.59-11.63-7.93l-3.72-3.2a42.23,42.23,0,0,0-3.61-2.7c-2.28-1.56-4.19-2.59-5.36-2.53a432.47,432.47,0,0,0-63.16-43.16A609.74,609.74,0,0,0,1349.6,160c4.08,1.37,7.29,2.05,8.37,1.74s0-1.46-4.79-3.35l-10.76-2-1.28-1.49c-6.66-2.21-14.43-3.21-8,.22-32.19-11.3-64.93-20.86-98-28.91l-3.1-.78-3.12-.71-6.23-1.41-12.46-2.84-12.52-2.6c-4.17-.88-8.34-1.77-12.53-2.53-8.38-1.56-16.74-3.23-25.16-4.59l-12.61-2.15-12.64-1.92q-50.6-7.62-101.71-11T930.77,93c-16.2-.46-35.84-.16-55.81.94s-40.25,2.62-57.79,4.22c-52.24,1.46-102,4.79-151.63,10.64-24.83,3-49.64,6.49-74.7,10.91Q572,123,553,126.94q-9.49,2-19.06,4.2l-9.55,2.26c-3.17.78-6.43,1.59-9.46,2.39a18.17,18.17,0,0,1,2.37-1.93,66.59,66.59,0,0,1,8.62-5.1C534.2,124.59,547.87,119.05,569.38,114.08Z"/><path class="cls-1" d="M1628.13,221.65c-2.35-3.34-12.4-10.38-2.91-7.27C1625.47,216.33,1630,221.05,1628.13,221.65Z"/><path class="cls-1" d="M1335.68,74.38c-.55.34-4.3-2-5.22-2.58,3.92,1.08,8,.87,10.82,2.64C1337.3,73.35,1337.68,74.27,1335.68,74.38Z"/><path class="cls-1" d="M1254.58,51.28c1.57-1.11,19.41,2,29.78,4.64-5-.8-9.91-1.66-14.88-2.4Z"/><path class="cls-1" d="M1178.84,28.94c-6.48-2.46-4.5-2.81,4.52-1C1183.88,28.79,1180.82,28.6,1178.84,28.94Z"/><path class="cls-1" d="M1172.74,31.19a43.16,43.16,0,0,1-12.5-3.91C1160.28,28.56,1175.32,29.17,1172.74,31.19Z"/><path class="cls-1" d="M1003.66,5.46c-4.12-.19-13.08.45-16.81-1.42C991.06,5.45,1007,3.51,1003.66,5.46Z"/><path class="cls-1" d="M924.14,3.81a29.41,29.41,0,0,0-6.61-.09c-4.69-.76.29-1.73,4.29-1.79Z"/><path class="cls-1" d="M307.44,602.71c-2.86-.29-5.7-.66-8.55-1l1.52-1.16C302.75,601.28,305.09,602,307.44,602.71Z"/><path class="cls-1" d="M935.53,626.93c8.43-1.59,6,.9,7.46,1C935.33,628.68,945.67,625.92,935.53,626.93Z"/><polygon class="cls-1" points="1269.85 570.36 1267.35 570.97 1267.53 567.87 1269.85 570.36"/></g></g></svg>