<svg xmlns="http://www.w3.org/2000/svg" viewBox="0 0 1576.75 748.26"><defs><style>.cls-1{fill:#ff97af;}</style></defs><g id="Layer_2" data-name="Layer 2"><g id="Layer_1-2" data-name="Layer 1"><path class="cls-1" d="M16.08,180.61c-6.26,4.89-8.32,7-8.55,7.45s1.46-.52,3-1.46c3-1.85,5.19-3.53-10,7.73A42.18,42.18,0,0,1,6,188.2c1.24-1.15,2.66-2.37,4.32-3.65S13.88,182,16.08,180.61Z" transform="translate(-0.46)"/><path class="cls-1" d="M1421.1,230.61a488,488,0,0,0-59.34-56,515.89,515.89,0,0,0-73.4-48.71,573.73,573.73,0,0,0-165.67-59.55c-6.36-1.31-5.31-2.11-6.27-3.32s-3.93-2.87-18.46-5.37c-13.36-2-27.67-4-42.75-5.94s-31-3.73-47.41-5.35-33.5-3.06-50.94-4.22-35.3-2-53.34-2.6c-36.08-1.16-73-1.07-109,.21s-71.23,3.8-104,7.06c2.57-.77,5.16-1.47,7.75-2.21-25,2.31-54.65,11-80.76,15.4-.38-.75,8.14-2.65,1.88-2.59-3.06,1.8-14.79,4.29-27,7-6.12,1.41-12.38,2.82-17.77,4.2a117.43,117.43,0,0,0-12.54,3.73c-10.4,1.55-9.84-.59-23.27,1.72-4.71,2.07-9.39,4.26-14.07,6.4C505.15,89,480.61,96,454.31,104.1c-13.13,4.1-26.69,8.47-40.22,13.4a423.65,423.65,0,0,0-39.92,16.86c2.29-1.69,7.38-4.26,2.92-3.1-41.89,19.59-88.29,43.24-132.5,72.91a556.53,556.53,0,0,0-63.34,49.09c-19.75,17.92-37.78,37.44-52.77,58.22.81-1.93,1.46-3.92,1.36-4.88s-1-1-3.27,1.13c-.19,1.45-1.47,4.18-3.53,7.78-1,1.82-2.14,3.9-3.46,6.14-.64,1.13-1.36,2.28-2,3.51s-1.41,2.5-2.15,3.8A342.55,342.55,0,0,0,97.17,365c-3.82,5-8,16.2-11.13,30.06q-.57,2.59-1.15,5.31c-.2.9-.4,1.8-.6,2.72s-.29,1.82-.43,2.73c-.27,1.84-.68,3.67-.77,5.57-.08.93-.17,1.88-.25,2.83a22.6,22.6,0,0,0-.18,2.85,100.47,100.47,0,0,0,1.7,23.11l-1.15-2.45c1.79,5.52,3.74,10.11,5.38,14.35.86,2.11,1.79,4.07,2.57,6s1.79,3.74,2.64,5.57c3.66,7.13,7.87,13.63,15.37,19.62l2,3.14,1,1.59c.35.52.72,1,1.08,1.53,1.46,2,2.87,4.13,4.41,6.13,5.18,2.12,11,8.26,18.13,14.86s15.53,13.74,24.38,18.17l-.08-1c8.1,4.5,14,8.31,19.86,11.93a160.8,160.8,0,0,0,19.46,10.66l1.25,1.16c18.3,8.51,32.9,15,42.88,19.11,2.5,1,4.7,1.92,6.61,2.65s3.52,1.25,4.83,1.62c2.6.74,4,.78,4-.05,6.14,3.74-3.09.52-11.42-2.34s-15.73-5.34-6.13.62c62.43,23.73,128,41,194.29,55a1962.69,1962.69,0,0,0,200.23,31c15,2.85,24.68,4.07,28,5.61,6.69.27,19.29,1.22,31.76,1.87s24.8,1.08,30.94.61c-4.49-.22,8.54,2.2,15.62,2.7,24.38,2.44,26.8-2.18,53.53.11-10.68.56-14.33,1.42-10.81,2.75,23-1.68,53.52-.78,80.56-1.75-4.2.56-10.73.91-9.71,1.9,29.55-2.86,54,0,79.84-2.79l-9.64,2.23c20.91.33,24-.86,26.26-2s3.93-2.4,22-2.81c-8.61,1.08-5.53,1.63-7,2.47,16.71-2.62,38.62-4.69,60.5-7s43.73-4.81,60.29-7.58c-2,.51-1.38.94-1.38.94,18.1-2.57,36.6-5.13,55.47-8.32s38.08-7,57.52-12.08c7.23-1.14,6.3.17,8.28.69,1,.25,2.7.29,6.51-.33,1.91-.32,4.35-.76,7.47-1.5s6.93-1.7,11.62-2.95c-.57-.8,3.09-2.32,8.54-4.17s12.65-4,19.19-6.12c13.07-4.26,23.44-8,12-6.71,15.83-4.47,36.15-10.7,54.78-17.62s35.55-14.42,45.13-19.73c-6.35,3.83-2.27,3.13.37,3,1.31-.08,2.27,0,1.35.82s-3.68,2.52-9.94,5.39l5-1.63,4.93-1.74c3.29-1.18,6.61-2.29,9.88-3.54-2.08,2.8-19.61,8.83-12.8,7.74,3.12-1.55,7.72-3.83,13-6.6l8.27-4.48c2.89-1.53,5.77-3.27,8.68-4.91l4.35-2.48,4.2-2.52c2.76-1.66,5.44-3.21,7.89-4.72s4.69-2.91,6.68-4.1l5-3c2.54-2,5-4,7.51-6s4.84-4.19,7.29-6.32,4.84-4.39,7.31-6.67l3.75-3.47,3.78-3.67c10.24-9.91,21.62-21.28,35.27-36.4-6,7.47-3.45,6.22-.36,4.27s6.67-4.55,2.36.5L1499,494l2-3,4-6c1.29-2,2.53-4.11,3.79-6.16l1.87-3.07c.63-1,1.18-2.09,1.77-3.13l3.46-6.28c1.12-2.11,2.14-4.27,3.2-6.39l1.58-3.19c.54-1.05,1-2.16,1.46-3.24l2.84-6.48c3.14-5.9,4.09-6.22,5.36-7.23s2.78-2.77,6.47-11.81c-.65.27-.29-1.61.41-4.27s1.81-6.07,2.37-9c1.09-2.26,5.59-15.39,8.62-29,.37-1.71.74-3.42,1.11-5.11s.78-3.35,1-5c.6-3.28,1.22-6.4,1.82-9.16.44-2.73,1-5.12,1.4-7a12.37,12.37,0,0,1,1.31-4c.42-1.45.62-.83.72.71a47.46,47.46,0,0,1,0,6.18c-.24,4.34-.39,7.62,1,.23.07-.78.14-1.54.21-2.27s.05-1.45.07-2.15c0-1.38.08-2.69.11-3.92,0-2.47-.14-4.66-.21-6.66,0-1-.14-1.95-.24-2.86s-.21-1.8-.31-2.65-.21-1.68-.3-2.5-.3-1.61-.44-2.41c-.31-1.6-.55-3.2-.92-4.88l-1.22-5.37c-.46-1.94-1.09-4-1.69-6.4-.28-1.19-.74-2.41-1.13-3.73s-.81-2.71-1.31-4.18l.3-.59c-.64-1.95-1.35-4.15-2.24-6.39s-1.91-4.57-3-6.82l-1.73-3.34c-.58-1.09-1.14-2.17-1.78-3.18-1.24-2-2.39-3.92-3.51-5.53-2.31-3.18-4.08-5.41-4.91-5.76-.4-.18-.53.08-.3.88a27.84,27.84,0,0,0,1.61,4.19c.7,1.22,1.23,2.06,1.61,2.63a4.34,4.34,0,0,0,.79,1c.34.25.38-.19.48-.47s.24-.39.8.52c.28.45.66,1.17,1.19,2.24a48.67,48.67,0,0,1,2,4.46c-3.44-4.68-8.71-13.1-15.77-22.29a273.8,273.8,0,0,0-24.44-28c3.17,2.78,4.68,3.89,5.86,4.46a25.48,25.48,0,0,1,3.48,1.59c-6.19-5.66-12.57-11.23-19.28-16.61s-13.64-10.66-20.87-15.75-14.66-10.11-22.41-14.88c-1.91-1.22-3.86-2.41-5.83-3.58s-3.92-2.37-5.92-3.53c-4-2.29-8-4.64-12.13-6.84-.7.62,2.74,1.64,6.81,3.12,2,.73,4.26,1.55,6.23,2.41a18.92,18.92,0,0,1,4.71,2.76,279.33,279.33,0,0,0-31.07-19.09c-10.79-5.76-21.88-10.9-32.82-15.73s-21.76-9.28-32.13-13.6c-5.17-2.2-10.26-4.28-15.15-6.46s-9.66-4.3-14.23-6.46c6.29,2,2.46,3.57,2.22,2.93-5.44-2.07-9.39-3.78-12.52-5.18s-5.41-2.52-7.47-3.54a68.64,68.64,0,0,0-14.68-5.56c-.48-.94-5.06-2.32-11.39-4l-10.57-2.66c-3.76-1-7.69-1.89-11.47-2.93-8-1.27-3.7-1.88,9.41,1.93-2.65-.64-6.29-1.56-10.72-2.71l-15.52-3.93c-11.68-2.94-25.82-6.34-40.86-9.79s-31-6.94-46.28-10.15-29.9-6.22-42.24-8.92c.4.54-7.41.13-16.72-.64-4.66-.35-9.7-.81-14.29-1.27s-8.73-.9-11.59-1.35l4.82-1.6c-5.14-1.48-14.78-2.77-23.34-3.93C1038,74.05,1034,73.5,1031,73s-5.14-1-5.56-1.58c-12.49-.06,11.31,2,34,4.58s44.17,5.57,27.44,3.84c-2.07-.81-6-1.45-10.67-2s-10-.86-14.85-1.21c-9.71-.6-17.41-1-13.63-2.09-23.17-3.06-45.88-3-67.86-7.1,6.41,1,19.17-1.41.37-3-8.28-.67-13-.89-15.88-1a27.92,27.92,0,0,0-4.66.07c-1.59.18-2.41.5-15.86-.08l-16.9-.09c-.63,1.08-8,.61-13.74.28s-9.75-.47-3.65,1c-1-.5-4.51-.81-9.16-1s-10.44-.31-16-.48-10.86-.27-14.57-.63-5.82-.86-5-1.78l4.65-2.83c-14.37,0-23.54,2.76-34.8,4.08-1.87-.26-5.65-.82-4.93-1.3-.57,1.12-3,1.66-6.56,1.91s-8.31.28-13.51.25-10.85,0-16.26.25a85.79,85.79,0,0,0-14.79,1.83c-15-.17-34.08.85-51.13,2-8.53.52-16.56,1.11-23.35,1.42a123.27,123.27,0,0,1-16,.13c-22.83,3.74-43.49,8-69.61,11,5.12-1.22,12.21-2.44,13.54-3.57a131.68,131.68,0,0,0-18.25,2.3c-4.87,1-9.53,2.27-16.89,3.91,1.6-.6-6.65.13-17.59,1.43-5.46.65-11.61,1.41-17.52,2.22l-16.19,2.18a94.08,94.08,0,0,0-11.53,3.79c-2.37,1-3.47,1.73-3.94,2.32-.94,1.19.64,1.82-.31,2.8-10.69.26-26.26,4.79-42.23,10.06S455.27,118,442.22,120.21c3.67-1.49,11.43-4.59,16-6.62s5.94-3.14-3.34-.88a70.13,70.13,0,0,0-15.65,3.61c-5.17,1.83-10.44,4-16,6.62l-8.63,3.94c-3,1.38-6.06,2.79-9.32,4.19s-6.64,2.83-10.23,4.22-7.38,2.75-11.38,4.12c3,.08,6,.16,9,.3a86.39,86.39,0,0,0-13.22,4.62c-4.89,2-9.93,4.49-14.5,6.61-9.06,4.39-16,7.75-15.26,5.37a106.43,106.43,0,0,1-9.67,5l-11.43,5.48c-7.2,3.56-12.51,6.68-10.05,7.38A405.5,405.5,0,0,0,279.13,195c-13.44,8-26.81,16.91-39.35,25.8-25.14,17.72-46.6,35.68-61.12,44.92-5.46,5.71-19.81,19.21-15.63,17.66a52.78,52.78,0,0,0,10.55-10.14c2.28-2.73,3.77-4.83,6-6-5.07,4.91-5.53,6.66-5.72,7.52-3.17,2.85-6.18,5.54-8.72,7.81s-4.57,4.16-6,5.22c-2.8,2.13-2.92,1.1,1.65-5.76-3.5,3.25-6.53,6.16-9.1,8.94s-4.72,5.37-6.66,7.81-3.51,4.84-5.06,7.15-3,4.57-4.36,7-2.83,4.85-4.43,7.46-3.17,5.52-5.13,8.62c-1,1.54-2,3.22-3,5s-2.2,3.58-3.44,5.51l-3.77,6.25-2.12,3.39c-.68,1.18-1.37,2.41-2.1,3.67-.14-1.28-.75-1.22-2.12.69a39.88,39.88,0,0,0-2.63,4.34c-1,2-2.19,4.5-3.61,7.61-.69,2-1.27,4.13-1.91,6.18l-.93,3.08c-.3,1-.52,2.08-.78,3.11L98.18,384l-1.11,6.23c-2,7-3.1,11.57-3.87,14.41s-1.51,4-2,4.18c-1.17.47-2-2.7-3.31-2.52-.32,2-.34,4.08-.52,6.17S87,416.69,87,418.8,87,423,87,425.08s.28,4.08.42,6a55.07,55.07,0,0,0,.72,5.58c.15.88.29,1.73.42,2.56a23.59,23.59,0,0,0,.5,2.37,42.86,42.86,0,0,0,2.35,7.15A132.15,132.15,0,0,0,94,468.36a27,27,0,0,1-.58-3.55c0-.63.14-.75.36-.46a34.27,34.27,0,0,1,2.58,5.52l.89,2.2c.35.75.71,1.53,1.08,2.31.72,1.58,1.47,3.2,2.19,4.75,1.56,3.06,3.11,5.82,4.1,7.44l-4-6.49a21,21,0,0,0,1.76,4.51c.51,1.05,1,2.25,1.75,3.49l2.29,3.88,1.24,2.05c.41.69.84,1.38,1.32,2l2.75,4c1.75,2.63,3.68,4.92,5.13,6.82a13.71,13.71,0,0,0-1.82-4.19c-1.12-2-2.45-4.63-4-7.38-.82-1.36-1.53-2.85-2.3-4.32l-2.3-4.4c-1.38-3-2.7-5.78-3.76-8.12,1.16,1.71,2.41,3.67,3.68,5.83.32.53.64,1.08,1,1.64l1.08,1.65L110.5,491l1.13,1.75c.39.58.82,1.15,1.24,1.73l2.52,3.43a72.81,72.81,0,0,0,5.42,6.42c-1-.37-.66.83.58,3,.65,1.07,1.57,2.36,2.63,3.82s2.25,3.12,3.66,4.78a256.68,256.68,0,0,0,17.77,19c1.28,1.37,2.54,2.47,3.65,3.46s2.15,1.83,3.08,2.56,1.77,1.33,2.55,1.84,1.5.9,2.15,1.26c2.61,1.41,4.22,1.91,5.86,3.36-.31.65,4.5,4.46,8,7.43s6,4.87.77,2.08c-4.31-2.85-8.49-8.16-15.61-12.83a55.84,55.84,0,0,1,3.93,4.46,42.36,42.36,0,0,0,3.17,3.72,51.52,51.52,0,0,0,5.12,4.55c2.32,1.84,5.53,3.93,9.91,6.72,6.73,4,6.61,2.43,7.71,2.16.56-.14,1.41,0,3.58,1.39,1.09.68,2.55,1.59,4.45,2.91s4.25,3.06,7.29,5.17a77.74,77.74,0,0,0-7.55-3.56c-2-.81-3.81-1.4-6.51-2.77,1.82,1.44,3.73,2.75,5.59,4.13s3.74,2.75,5.64,4.09l5.74,4c1.91,1.32,3.83,2.65,5.79,3.9l2.16-1.3c2.94,2.39.62,1.24,2,2.38a27.15,27.15,0,0,1,4,1.54c1.59.72,3.46,1.58,5.46,2.58s4.16,2.12,6.39,3.3l6.91,3.48c9.28,4.69,18.53,8.92,22,9.08,12.76,5.91,26.26,13.88,38.69,19.22l-2.47-.82c1.84.94,3.78,1.89,5.78,2.83s4.09,1.81,6.22,2.7,4.28,1.76,6.46,2.61,4.4,1.62,6.59,2.39c4.39,1.54,8.73,3,12.85,4.14s7.95,2.27,11.37,3l-.87.22c4.24,1.53,11.41,4,19,6.24s15.49,4.28,21.06,5.36c21.41,8.16,5,10.39,30.12,14.64,5.62,1.51,10.7,2.63,15,3.36A80.62,80.62,0,0,0,438.9,673c5.17.11,6.42-1,2.07-2.83,20,5.89,41.87,10.39,63.36,14.54s42.66,8,61.49,12.86c6.07.08,2.42-1,14.73.37,30.22,5.24,62.45,8.69,93.11,11.64s59.8,5.31,84.07,8.88c-17.84-.11-1.33,2.15-1,3.44,14.79-1.15,17.57,3,23-.17-1.38-2.08.13-3-17.09-4.65L825,718.68c21,.53,40,1,50.16,1.82-10.17-.84-2.32-1.53,5.68-2.2-2.65,3.26,24.42,3.42,44.77,1.49l2.82-2.07c4.44.48,8.89,1,13.34,1.46,3.91-.51,6-1.65,9.69-2.54s8.9-1.6,19.06-1.28c1.08.68,2.31,1.41,6,1.69l17.08-2.58c6.05-1,12.4-1.88,18.8-2.83s12.86-1.75,19.14-2.49,12.41-1.21,18.13-1.5l9.47.32,9.47.22c2.41-.4,5.23-.93,7.82-1.49s5-1.19,6.5-1.7c3.07-1,2.79-1.62-5.76-.82,38.84-3.66,63.58-8.25,76.19-8.28,32.37-9.51,71.95-20.51,111.81-34.33,19.92-6.89,39.92-14.45,59.12-22.63s37.62-17,54.44-26.06l-1.29,2.35c2.37-1,4.23-2,5.74-2.84s2.68-1.54,3.59-2.15a14.48,14.48,0,0,0,3.3-2.83c1.32-1.51,1.86-2.76,8.25-6-2.48,2.32,1.25,1,4,.21,1.38-.36,2.48-.62,2.47-.11s-1.17,1.75-4.44,4.21c1.63-.88,3.2-1.71,4.66-2.57s2.83-1.71,4.14-2.54c2.62-1.66,5-3.18,7.13-4.73s4-3,5.82-4.47,3.43-2.79,4.93-4.2c3-2.81,5.81-5.39,8.65-8.15,1.41-1.38,2.86-2.78,4.41-4.21s3.24-2.86,5-4.47c.49-1.66-2.2,1-5,3.48s-5.52,4.83-4.82,2.74a63.71,63.71,0,0,1,6-4.83c1.62-1.18,3.34-2.64,5.22-4.13s3.86-3.08,5.81-4.71,3.82-3.38,5.62-5l2.6-2.41c.82-.79,1.56-1.59,2.27-2.34,2.83-3,4.8-5.48,5.1-6.77,2.92-2.15,3.77-1.89,3.68-.59a9.3,9.3,0,0,1-.75,2.51,30.53,30.53,0,0,1-1.46,2.85c2-2.19,3.85-4.53,5.75-6.81s3.79-4.55,5.54-6.93c4.23-3.45,4.6-2.65,3,.32-.39.74-.91,1.62-1.53,2.6s-1.3,2.07-2.12,3.17c-1.62,2.24-3.48,4.74-5.35,7.25s-3.88,4.89-5.54,7.1c-.83,1.09-1.6,2.13-2.27,3.07s-1.27,1.74-1.72,2.44c-1.78,2.79-1.3,3.64,3.78.5l5.93-6c1-1,2-2,2.95-3l2.85-3.11c3.33-2.36,3.23-1.39,1.65.94-.8,1.16-2,2.67-3.24,4.27s-2.8,3.18-4.12,4.67c-2.65,3-4.76,5.32-4.24,5.12a18.45,18.45,0,0,0,3-2.42l3.5-3.11c1.41-1.28,3.12-2.77,5-4.68,6.06-7.1,10.65-14.53,12.35-18.55.8-2.07.91-3.28.11-3.25s-2.46,1.34-5.43,4.11l2.18-2.57c.67-.84,1.28-1.66,1.86-2.43q1.74-2.33,3.09-4.24c.89-1.29,1.71-2.43,2.35-3.52s1.19-2.08,1.66-3a39.57,39.57,0,0,0,3.29-8.26c1.25-4.82,3.42-9.38,13.29-26.4,1.71-2.13,1.62-1.48.59.63-.52,1-1.26,2.47-2.12,4.08l-1.37,2.54c-.49.88-1.05,1.75-1.58,2.65-4.16,7.21-9.08,14.48-5.89,12a77.78,77.78,0,0,0,8.39-11.38c1.3-2,2.32-4.07,3.43-6.11s2.15-4.1,3.12-6.19,1.86-4.2,2.78-6.27l1.38-3.08,1.26-3.09q1.26-3.06,2.59-6c.88-2,1.66-3.91,2.57-5.79-1,2.08-1.85,3.66-2.52,4.8a10.81,10.81,0,0,1-1.67,2.15c-.8.67-1-.07-.77-1.65a64.92,64.92,0,0,1,1.47-6.78c.37-1.36.79-2.8,1.25-4.24s.81-2.92,1.25-4.31c2-4.51,2.91-6,3.23-6s.27,1.33.13,2.45-.17,2,.42.93,1.73-4.09,3.9-10.8a45.48,45.48,0,0,1,.48-6.46c.15-1.36.37-2.76.48-4.1s.19-2.61.24-3.67c.1-2.12.05-3.41-.39-2.85a10.5,10.5,0,0,0-1,2.36c-.21.66-.46,1.47-.73,2.45l-.45,1.59-.58,1.82a19,19,0,0,1-.11-2c0-.71,0-1.44,0-2.18a39.43,39.43,0,0,1,.54-4.73c.33-1.65.58-3.38.91-5.17s.71-3.63,1.1-5.51.58-3.83.87-5.78c.14-1,.29-1.95.4-2.94l.18-2.95c.09-2,.16-3.93.07-5.86a50.88,50.88,0,0,0-.77-5.63c.68-2.19,1.4-1.59,2.12.15a66.74,66.74,0,0,1,2.09,6.83c.57,2.24,1.13,3.84,1.74,3a10.46,10.46,0,0,0,1-3.41c.27-1.91.44-4.68.63-8.54-.65,1.23-1.14-.53-1.85-3.55-.33-1.51-.67-3.34-1-5.28s-.9-4-1.35-5.91c-.23-1-.47-1.92-.68-2.82s-.55-1.73-.82-2.5a20.16,20.16,0,0,0-1.48-3.5c-.9-1.48-1.61-1-2,3-.26-2.88-.3-5.15-.37-6.79a6,6,0,0,1,.46-3.11c.63-.85,1.91.74,3.54,4.84a61.1,61.1,0,0,0-3-13.35L1538,343c-.43-1.11-.9-2.21-1.34-3.3l-1.34-3.22-.65-1.58c-.25-.52-.48-1-.72-1.53-1-2-1.83-4-2.6-5.78s-1.6-3.49-2.17-5.05a25.29,25.29,0,0,1-1.19-4.25,6.83,6.83,0,0,1,0-3.25c-1.65-1.4-3.26-2.78-4.92-4.12-.91-2.53-2-5.61-3.49-9s-3.09-7.28-5-11.35q-.78-1.22-1.71-2.58c-.61-.9-1.26-1.85-2-2.8l-4.71-6.06-5.29-6.23c-.87-1-1.78-2.07-2.69-3l-2.65-3-2.49-2.81-2.36-2.57c-1.48-1.65-2.76-3.15-3.76-4.45-2-2.55-3-4.26-2-4.69-.46-.42-1.25-1.2-2.26-2.2s-2.22-2.27-3.63-3.57c-2.8-2.63-6-5.78-9-8.28-5.92-5.15-10.54-8.19-6.29-2.63,7.54,8.1,12.31,12.21,16,15.69a52.61,52.61,0,0,1,4.9,5.2,32.93,32.93,0,0,1,4,6.94c-1-1.69-2.06-3.32-3.19-4.9s-2.44-3-3.73-4.49-2.63-2.84-4-4.16-2.86-2.57-4.31-3.8c-2.86-2.48-5.9-4.66-8.76-6.77s-5.7-4-8.24-6l-.54-2.52-5.7-4.41c-2.19-1.72-4.54-3.65-7-5.39s-4.73-3.44-6.77-4.77a25.66,25.66,0,0,0-5-2.64c5.19,2.79,3.42.15-1.25-3.82-2.58-1-5.25-1.88-7.87-2.8-6.44-4.31-10-6.74-12-8.5a9.42,9.42,0,0,1-2.85-3.6,9.05,9.05,0,0,0-2.75-3.55c-1.91-1.69-5.32-4.2-11.94-8,3.45,1.78,6.93,3.52,10.32,5.4s6.86,3.66,10.2,5.61c-2.19-1.29-5.2-3.76-9.25-6.86l-3.23-2.44q-1.74-1.23-3.69-2.52c-2.63-1.71-5.49-3.56-8.76-5.26-3-.53-7.14-1.61-11.15-2.66s-7.94-2-10.47-2.45c-7.75-3.73-9.19-5.14-10.64-6.44s-3-2.42-11-5.33c3.48,1.33,7,2.62,10.47,4l10.4,4.15c3.27,1.05-11.41-10.51-32.37-20.64-3.43-1.44-7.4-2.94-11.08-4.23a87.17,87.17,0,0,0-9.46-2.8c-4.68-1-5,0,5.37,5.36-5.31-2.37-11.49-5.61-15.31-7.79s-5.14-3.59-.58-2.45c-12.25-5-11.72-4-10.75-2.91s2.3,2.45-8.43-1.32c-2-1.24-5.15-2.94-9-4.92l-6.21-3.19c-2.21-1.12-4.55-2.25-6.94-3.42l-7.3-3.58-7.37-3.51-13.46-6.48c7.93,1.49,15.81,3.16,23.72,4.82l-15-5.55c10.18,2.21,7.93.81,4.61-1s-7.75-4-1.74-3.47a173.57,173.57,0,0,0-16.57-5.63c-5.79-1.62-11.54-3.17-16.69-4.4,7.22,3.62,8.52,5.22,6.62,5.52s-7.07-.55-12.9-1.59-12.34-2.25-16.91-2.77-7.22-.34-5.34,1.38a139.4,139.4,0,0,1-22-7.58,108.15,108.15,0,0,1-11-6.21c-6.27-3.73-13-7-35.94-9.15,7,2.93-14.64,1,12.25,6.43a109.69,109.69,0,0,0-14.45-3.17,85.51,85.51,0,0,0-8.61-.72c-5.29-.27-11.09-.93-26.45-5.3,11.73,1.72,5.81-.76,1.16-3.07-2.32-1.16-4.33-2.23-3.63-2.74s4.11-.43,12.62.82c-2.56.87,18.36,5.38,23.57,6.27-5.23-2.17-4.43-3.07-5.67-4.31-.63-.61-1.77-1.29-4.45-2.22a131.25,131.25,0,0,0-13.71-3.64c-8.32-1.71-18.2-3.67-25.64-4.9s-12.46-1.57-11-.11c.1,1.32,6.47,2.53,11.41,3.5s8.45,1.69,2.86,1.8c-8.3-1.57-14.85-2.91-20.2-4.19s-9.55-2.28-13.14-3.13c-7.2-1.69-12.08-2.36-19.36-1.43,10.53,1.74,17,3.49,20.71,5.08s4.72,2.85,4.37,3.67l-12.25-1.82L1012,56.11l5-.79A191,191,0,0,0,998.18,52a22.22,22.22,0,0,0-6.45,0,24.84,24.84,0,0,1-6.26.19c-3.42-.22-8.83-1-18.32-2.49l-8.66-3-8.69-2.92c4.74-.79,18.56,1.55,30.4,3.54,5.91,1,11.35,1.86,14.92,2.16s5.3,0,3.81-1.47c-6.16-1.14-11.34-1.81-16-2.4s-8.75-1-12.82-1.38c-8.13-.85-16.07-1.69-27.69-3.93,5.27.34,12.38,1.24,17.6,1.56-8.86-1.35-16.89-9-52.92-9.69-18.53-.68-5,1.1-5.69,2.77-10-1-18.29-1.63-25.46-2.13s-13.27-.73-18.9-1l-16.22-.61c-5.4-.22-11-.46-17.47-.88,2.78-1.53-8.64-2.37-17.15-3s-14.14-1,.25-1.92c3.27.72,9.34,1.46,16.84,2.18s16.43,1.47,25.4,2.16,18,1.25,25.66,1.51,14,.38,17.67-.06c-7.09-2.76.77-1.83,11.53-.45,5.38.65,11.47,1.49,16.8,1.93s9.87.55,12.16-.17c-16.06-2.12-23.6-4-27.75-5.81s-4.86-3.54-7.32-5.13c-9-1.18-17.77-.95-23.15-1.09-4,2.06,7.69,3.19,8.1,5.78-35.89-4.41-70.79-5.31-90.76-4-6-.95-8-1.92-6.74-2.67s5.83-1.16,13-.87c-43-1.75-89-3.05-129.81-3.15,6.61.92,7.06,1.47,4.31,1.83s-8.7.5-14.91.73c-12.42.36-25.88.93-16.85,2.29,21.88.25,40.65,3,28.66,4.92-13.62-.09.41-1.75-5.29-2.54-17.29,2.54-27.1-2.92-44,1.23,9.75-.76,15.11-1.34,17.75-2s2.58-1.31,1.51-2c-2.13-1.38-8.28-2.87-4.72-4.54-7.07.64-10.53.9-12.19.83s-1.51-.39-1.36-.79c.32-.78.66-1.83-13.35-1.19l-22.19,2.45L561.82,19.4c-16,1.88-32.44,3.81-48,5.83-19.74.56-44.55,3.59-68.65,7.62s-47.47,9-64.69,12.52c-9.17,1-10.89.08-12.77-.69s-3.94-1.4-13.81.4c-22.88,5.28,17.82-.15-16.44,6l3.1-1.43c-5,1.56-20.66,4.71-36.07,8.69-7.68,2.06-15.34,4.19-21.56,6.47-3.11,1.12-5.87,2.22-8.12,3.28a20.94,20.94,0,0,0-5,3.12l4.58-3.39L279,64.49c-6.34,1.42-11.84,4.08-16.85,6-.61-1.12-8.21,0,1.69-3.86C242.43,70.4,220.89,80.9,199.14,89.3c5-1,9.91-2.12,14.87-3.12-18.46,7.67-33.93,13.8-49.16,20.09a491.48,491.48,0,0,0-47.19,22v-2.5c-1.65,1-3.32,1.92-5,2.91l-4.91,3c-3.27,2-6.58,3.94-9.79,6,1.92-2.3-1.88-1.19-7.4,1.44-1.38.67-2.87,1.41-4.39,2.24s-3.06,1.77-4.6,2.72A80.15,80.15,0,0,0,73.18,150c16.13-11.87,32.87-23,50.08-33.58,3.9-1.56,4.91-1.65,4.37-1a44.89,44.89,0,0,1-4.82,3.59c-4.42,3.11-9.45,6.65-4.29,5.27a83,83,0,0,0,10.09-4c4.32-1.85,9.24-4.26,14.11-6.59s9.57-4.77,13.39-6.78a44.06,44.06,0,0,0,7.82-4.83c-12.7,5.23-13.09,6-22.42,11.19-5.44-.9,13.55-9.57,22.29-15.48-3.28,1.5-7.38,3.06-10.78,4.44s-6.07,2.67-6.57,3.42c12.28-7.21,25.36-13.26,47.43-21.88-7.25,3.5-5,3.14-1.7,2.3s7.85-2.1,5.17-.63c.4-1.59,5.8-4.62,14.61-8.32A350.3,350.3,0,0,1,247.07,65q3.92-.65,8.27-1.79c2.91-.73,6-1.59,9.14-2.57,6.35-2,13.25-4.28,20.52-6.78,14.56-4.88,30.73-10.27,47.34-13.74C319.61,46,303.17,52.42,283.73,59.08c20.75-4.34,22.7-6.38,43.62-10.12,4.73-2.2,8.7-4.53,14.85-7.13,3.07-1.31,6.68-2.75,11.21-4.25s10-3.12,16.69-4.82L372,34.45c6.11-1.48,10.65-2.81,14.53-4s7.1-2.23,10.54-3.28,7.1-2.08,11.88-3.13c2.4-.53,5.07-1.08,8.13-1.64s6.53-1.09,10.49-1.67c27.14-3.9,54.73-7.32,80.77-9.93s50.49-4.54,71.35-5.75L581.37,7c11.44-2.94,30.78-4.34,51.15-5.14,5.09-.18,10.25-.37,15.36-.5L663,1c9.85-.2,19.1-.52,26.92-1,26.65.91,55.56,1,81.24,1.81s48.09,2.18,61.58,5c46.89,2.75,90.79,6.93,134.87,13a1348.47,1348.47,0,0,1,135.77,25.68c-5.54-.32-11.08-.57-16.62-.8a64.2,64.2,0,0,1,9.31,1.43,21.92,21.92,0,0,1,4.67,1.76c2.57,1.28,5,2.71,13.4,4.52-9.26-3.45-3.32-2.85,6.46-1.11l7.88,1.43,8.23,1.6c2.69.52,5.27,1,7.56,1.39s4.26.75,5.78.93c20.68,6.78,44.47,13.75,67.67,20.76s45.77,14.09,64.14,20.28l.64,2.44c18.85,5.47,38.7,13.87,59,24.08,5.08,2.54,10.16,5.26,15.3,8s10.27,5.61,15.4,8.62c10.33,5.86,20.64,12.21,31,18.62,2.17,1.84,4.89,4.33,8.62,7.28,1.84,1.5,3.93,3.15,6.32,4.89q1.8,1.31,3.84,2.69c1.35.93,2.77,1.92,4.29,2.91a239,239,0,0,1,30.18,18.15l7.46,5.35,8.13,6.2c2.88,2.23,5.87,4.71,9.17,7.33,1.64,1.32,3.29,2.77,5,4.24s3.58,3,5.43,4.63a298.7,298.7,0,0,1,34.41,39.8c11.14,15.65,20.43,32.77,25.79,46.7a187.7,187.7,0,0,1,14.31,39.19,182,182,0,0,1,5.09,42,195.06,195.06,0,0,1-4.53,42.27,233.32,233.32,0,0,1-12.86,40.4,285.32,285.32,0,0,1-43.86,72.23,363,363,0,0,1-28.92,31.07c-10.28,9.73-21.06,18.92-32.21,27.66l-8,2.89a403.92,403.92,0,0,1-34.39,24c-12.15,7.51-24.85,14.58-37.91,21.19s-26.55,12.58-40.15,18.21-27.44,10.66-41.22,15.38c-27.6,9.29-55.12,17-81.37,23.42s-51.15,11.69-73.62,16.33l8-5.6c-14.19,2.05-30.25,4.85-41.84,7.43s-18.71,4.78-14.9,5.71c-14.34,1.34-32.09,4.09-48.62,6l-6.13.72-6,.59c-3.9.38-7.64.69-11.16.93a120.39,120.39,0,0,1-17.78,0c-7.34.35-13.24.8-18.34,1.31s-9.43,1-13.58,1.57-8.17,1.11-12.65,1.66-9.47,1.07-15.56,1.43c-29.43.4-49.59.33-69.33.4s-39,.1-66.74-.44l13.71.67c6.12-.72,6.68-2.44-7.08-3.1-10.33.3-29.29-.8-43.12-1.34s-22.55-.46-12.42,2.57c-7.37-.76-15-1.58-23-2.24s-16-1.37-24.31-2.12c-16.55-1.37-33.7-2.87-50.78-4.57s-34.08-3.75-50.33-6.12-31.75-5.28-45.79-8.63c2.31,1.06-.13,1.07-3.93.76s-8.93-1-12-1c-25.61-4.56-51.64-10.6-76.28-16.76s-47.9-12.38-68.23-17.09c-7.81-2.94,13.31,1.51-7-4.55-12.18-3.15-.8,1.63-15.81-2.21a689.63,689.63,0,0,1-119-45.69c-37.86-18.82-73.39-40.62-104.41-65.25a284.1,284.1,0,0,1-39.21-36.5c-.76-.85-1.52-1.69-2.26-2.55l-2.18-2.65-4.34-5.32-4.12-5.54c-.68-.93-1.39-1.84-2-2.79l-1.93-2.89a179.12,179.12,0,0,1-14-24.32l-2.93-6.47c-.91-2.19-1.73-4.43-2.59-6.65-.42-1.12-.88-2.21-1.25-3.35L70,468.43,68.88,465l-.53-1.72c-.17-.57-.3-1.16-.45-1.74l-1.72-7c-.53-2.34-.89-4.73-1.33-7.1-.2-1.18-.44-2.36-.61-3.56l-.4-3.59-.4-3.6c-.14-1.19-.27-2.39-.3-3.6l-.32-7.22c-.08-2.41.06-4.82.08-7.22l.09-3.61.31-3.59c.23-2.38.37-4.79.69-7.16.72-4.72,1.35-9.46,2.47-14.07l.76-3.48c.14-.58.25-1.16.4-1.74l.48-1.7L70,376.5c.3-1.14.69-2.25,1.07-3.35l1.16-3.32c.79-2.2,1.47-4.46,2.41-6.58,1.77-4.29,3.47-8.63,5.54-12.74,1-2.08,2-4.18,3-6.22l3.27-6,1.63-3c.54-1,1.16-1.95,1.74-2.93l3.52-5.81A312.3,312.3,0,0,1,125.58,284a577.38,577.38,0,0,1,74.36-69.39l-.59,1.7q3.08-2.82,6.37-5.66c2.19-1.89,4.51-3.69,6.85-5.54,4.67-3.73,9.68-7.24,14.77-10.79,10.27-7,21.12-13.67,31.93-19.82,21.54-12.48,42.62-23.12,57.17-33.49,2.45-.94,5.93-2.49,9.67-4.2l11.34-5c7.09-3,12.19-4.86,9-2.43C362,121,384.93,112.07,410,103.69c12.54-4.25,25.63-8.31,38.55-12.44l9.66-3q4.8-1.56,9.55-3c3.15-1,6.28-2,9.36-3.07s6.13-2,9.13-3a98.24,98.24,0,0,0-12.07,3.89C499.06,77,522.3,71.13,546,65.77a700.38,700.38,0,0,1,74.68-13.13L611,54.79c-3.27.77-6,1.58-6.75,2.19,10.35-.79,22.31-3.63,33.22-5.84s20.76-3.75,26.68-2.06c5.88-.74,7.91-1.56,7.57-2.08s-3.07-.78-6.69-.27c58.46-6,119-9.65,180.29-10.07a1563.63,1563.63,0,0,1,183.91,9.14c5.42.8,10.17,1.63,14.34,2.35s7.75,1.41,10.83,2c6.15,1.26,10.29,2.26,13,3.09,5.51,1.65,5.47,2.45,4.91,3s-1.68.76,1.64,1.28c1.67.26,4.44.6,8.94,1.13l8.12.91,11.18,1.31c5.4,1.82,4.32-1.09,5.11,0,13.27,1.68,23.26,4.88,32.21,7.87,4.48,1.48,8.71,2.88,13,4a76,76,0,0,0,13.24,2.4c-6.85-4.46,12.39,1,13.31-.47,25.88,6.93,41.12,12.2,55.08,16.69s26.62,8.3,47.07,13.78l-3.49.46c12.1,2.8,24.52,6.34,36.93,10.36s24.78,8.6,36.86,13.3,23.84,9.61,35,14.34,21.9,9.25,31.83,13.25c7.68,4.08,15.23,8.41,22.73,12.82s14.86,9.09,22.1,14,14.37,10,21.38,15.24,13.79,10.89,20.41,16.75a272.16,272.16,0,0,1,36.6,39.05,210.91,210.91,0,0,1,15,22.85,167.23,167.23,0,0,1,11.64,25.29,151,151,0,0,1,7.14,27.34,139.08,139.08,0,0,1,1.63,28.39c-.06,1.19,0,2.38-.16,3.56l-.32,3.53-.33,3.54c-.13,1.15-.3,2.22-.45,3.34-.66,4.42-1.18,8.86-2.12,13.24l-1.28,6.58c-.45,2.19-1,4.36-1.55,6.53s-1,4.36-1.64,6.52l-1.93,6.43A235.85,235.85,0,0,1,1546,461a272.74,272.74,0,0,1-30.88,43.14,321.58,321.58,0,0,1-37.57,36.47,411.82,411.82,0,0,1-41.9,30.29c-29,18.39-59.61,33.34-90.9,46q-23.49,9.51-47.46,17.4c-16,5.29-32.07,10-48.26,14.43-8.09,2.22-16.23,4.24-24.36,6.28s-16.3,3.89-24.49,5.65c-16.36,3.58-32.79,6.89-49.28,9.76-65.29,11.14-130.71,17.63-196.05,21s-130.68,3.31-196,.41S628.3,683.09,563,673.91s-130.5-21.7-195.34-39.2c-15-4.9-26.4-8.94-36.22-12.32-4.9-1.73-9.4-3.27-13.72-4.75s-8.46-2.91-12.66-4.3-8.44-2.84-13-4.3L277.5,604.2c-10.6-3.54-23.21-7.79-39.51-14,2.83.46,6.94,2,2.86-.34-1.12.43-4.52-.5-9.12-2.13-2.3-.81-4.87-1.88-7.62-3s-5.65-2.34-8.55-3.65c-11.66-5-23.46-10.92-27.18-11-22.54-11.62-44.25-24.35-64.45-40A239.05,239.05,0,0,1,95.16,504.2a154.63,154.63,0,0,1-23.69-33c-.41-.77-.85-1.52-1.22-2.32l-1.11-2.42c-.74-1.62-1.49-3.23-2.2-4.86l-1.89-5.05L64.13,454l-.77-2.62c-.51-1.76-1-3.5-1.49-5.27l-1.12-5.41c-.17-.9-.38-1.8-.52-2.71l-.35-2.76c-.21-1.85-.47-3.69-.61-5.54a101.54,101.54,0,0,1-.13-11.17c.11-1.85.11-3.73.34-5.57l.71-5.53a55,55,0,0,1,1-5.45l.58-2.71c.2-.88.38-1.86.61-2.6q1.3-4.71,2.62-9.44a277.85,277.85,0,0,1,33.62-71.63c-4.51,7.19-7,13.17-7.29,15-.14.91.29.82,1.39-.58.54-.7,1.26-1.73,2.15-3.13s1.91-3.18,3.26-5.28l2.38-4.69c.8-1.57,1.59-3.15,2.45-4.67,1.71-3.06,3.34-6.2,5.13-9.21l2.75-2.2c7.64-11.3,16.11-23.7,6.3-13.44a387,387,0,0,1,33.32-37.28,478.84,478.84,0,0,1,37-32.85,621.74,621.74,0,0,1,80.85-54.57c56.17-32,115.55-56.5,175.93-76.11q22.67-7.32,45.53-13.75t45.91-12q23-5.59,46.2-10.32c15.45-3.16,30.92-6.12,46.44-8.76A1536.87,1536.87,0,0,1,815.57,21.42c29.81-.69,65.93-1.14,102.72-.13,18.39.5,37,1.36,55,2.58s35.44,2.85,51.6,4.72a958.19,958.19,0,0,1,138.39,30.73c44.52,13.68,87.62,30.78,128.35,53l3.82,2.07,3.78,2.16,7.56,4.33c5,3,10,5.94,14.88,9.11s9.77,6.35,14.62,9.59c2.41,1.64,4.78,3.36,7.17,5l3.59,2.53,3.52,2.62c9.45,6.92,18.59,14.33,27.5,22.08s17.51,15.94,25.78,24.53l3.09,3.23c1,1.08,2.06,2.16,3,3.29l6,6.68c3.87,4.58,7.81,9.11,11.49,13.9,1.87,2.36,3.77,4.71,5.53,7.17s3.63,4.85,5.38,7.33l5.18,7.5c1.72,2.51,3.31,5.11,5,7.67.82,1.29,1.67,2.56,2.46,3.87l2.35,3.95c1.55,2.64,3.18,5.24,4.62,8l4.44,8.1q2.1,4.13,4.19,8.27a369.72,369.72,0,0,1,14.69,34.39s-1.07-1.37-3.13-4.6c-1-1.61-2.29-3.7-3.85-6.28s-3.49-5.63-5.61-9.26c-4.5-7.16-10-16.6-17.65-28.12A489.44,489.44,0,0,0,1421.1,230.61Z" transform="translate(-0.46)"/><path class="cls-1" d="M47.07,158.21c3.31-1.16,9.7-4.62,13.62-6.23s5.25-1.56-1.6,4.06C56.45,155.91,45.92,160.7,47.07,158.21Z" transform="translate(-0.46)"/><path class="cls-1" d="M611.67,20.66c.73-.52,8.34.32,10.21.52-3.6.2-7.06.72-10.35,1.11a42.34,42.34,0,0,1-9.28.43C609.53,22.22,608.38,21.5,611.67,20.66Z" transform="translate(-0.46)"/><path class="cls-1" d="M761.06,21.05c-1.14.69-9.71,1-20.34,1.24l-16.84.25L708,22.65c8.84-.43,17.68-.7,26.53-1S752.2,21.15,761.06,21.05Z" transform="translate(-0.46)"/><path class="cls-1" d="M899.21,37.36c11.78,2.57,8.39,2.87-7.63,1C890.49,37.48,895.84,37.69,899.21,37.36Z" transform="translate(-0.46)"/><path class="cls-1" d="M909.39,35.17a122.9,122.9,0,0,1,22.52,4.49C931.63,38.29,905.28,37.14,909.39,35.17Z" transform="translate(-0.46)"/><path class="cls-1" d="M1202.42,101.52c6.9,2.08,22.08,5.89,27.86,9.69-3.34-1.83-11.8-4.17-18.65-6.14S1199.47,101.69,1202.42,101.52Z" transform="translate(-0.46)"/><path class="cls-1" d="M1332.28,150.6a86.67,86.67,0,0,0,10.33,5.06c3.51,2.14,3.19,2.5,1.25,1.9a74.12,74.12,0,0,1-8.71-3.5Z" transform="translate(-0.46)"/><polygon class="cls-1" points="415.03 129.96 401.14 135.9 402.71 133.76 415.03 129.96"/><path class="cls-1" d="M1488.18,238.57a59.3,59.3,0,0,1,5.85,5.23,8.79,8.79,0,0,1,1.83,2.55c.39,1.06-.41,1.15.37,2.08-4.74-4.57-3.56-4-2.77-3.88S1494.73,244.45,1488.18,238.57Z" transform="translate(-0.46)"/><polygon class="cls-1" points="1225.74 629.38 1230.2 628.23 1229.41 631.5 1225.74 629.38"/></g></g></svg>