<svg xmlns="http://www.w3.org/2000/svg" viewBox="0 0 1609.9 679.9"><defs><style>.cls-1{fill:#ff97af;}</style></defs><g id="Layer_2" data-name="Layer 2"><g id="Layer_1-2" data-name="Layer 1"><path class="cls-1" d="M45.56,313c-15.08,20.43,10.4-9.2-9.29,13.78C37.45,323.34,39.74,318.9,45.56,313Z"/><path class="cls-1" d="M362.61,550.51c40.29,6.27,86,17.15,132.83,27.68s94.77,20.67,139,26c10.31,1.44-3.39,3.66,20,6.65,10.74,1.15,22.25,2.3,34.33,3.81l18.56,2.27q9.5,1.17,19.34,2.5l20,2.57,10.22,1.37,10.36,1.33,21,2.78,21.38,2.73c57.34,7.4,117.19,14.22,169.64,18.66l-6.42.89c20,1.87,44.6-1.47,65.78-.59.17.79-6.8,1-1.89,2.15,2.69-1.1,12.28-1.38,22.33-1.53,5,0,10.16-.21,14.61-.42a80.72,80.72,0,0,0,10.43-1,38.28,38.28,0,0,1,8.32,1.73,41.36,41.36,0,0,0,10.18,1.69l12.09-3c16.75-3.87,37.17-4.6,59.17-5.88s45.58-2.6,68.17-7.41c-2.11.9-6.56,2-2.85,2.1l6.88-1.25c2.31-.41,4.63-.9,7-1.35l14.22-2.72c9.57-2,19.39-3.87,29.31-6.15,19.86-4.37,40.34-9.28,60.77-15.3a606.12,606.12,0,0,0,60.64-21,404.59,404.59,0,0,0,56.34-28.17c-2.35,2.43-4.16,5.46.59,4,1.11-2.17,7-6.8,14.71-12.48,1.9-1.49,3.92-3,6-4.61l3.21-2.4c1.08-.82,2.13-1.71,3.21-2.57l6.53-5.23c2.18-1.75,4.23-3.65,6.31-5.43a22.58,22.58,0,0,0,3.94-2.32,43.22,43.22,0,0,0,4.51-3.89c1.59-1.52,3.28-3.23,5.06-5.07s3.47-4,5.32-6.16c7.32-8.74,15.19-19.36,22.8-29.56l-.7,2.14c2.17-4.24,3.91-8,5.85-11.14.48-.8,1-1.57,1.44-2.32s.87-1.53,1.31-2.27L1567,468c.82-1.41,1.72-2.75,2.41-4.21s1.38-2.91,2-4.43,1.2-3.11,1.71-4.78a47,47,0,0,0,1-5.45l3.15-5.17,2.82-5.37c-.41-2.29.13-5,.74-8.07.35-1.55.81-3.18,1.34-4.89.28-.86.56-1.73.84-2.62s.5-1.82.76-2.75c.51-1.87,1-3.8,1.57-5.76.25-1,.54-2,.75-3s.36-2,.52-3a48.07,48.07,0,0,0,.74-12.15l-.87.45c0-1.85,0-3.59,0-5.24s.14-3.21.15-4.71c.07-3,.24-5.78.42-8.52.12-1.37.13-2.73.16-4.11s0-2.78,0-4.22,0-2.93-.09-4.48-.29-3.16-.5-4.86l.38-1.33a370.11,370.11,0,0,0-5.69-36.88c-2-8.34-3.38-12.61-4.85-11.78-.2-2.85.33-2.45,1.22-.51s1.91,5.48,3,8.8l.8,2.43c.23.79.45,1.54.67,2.22a17.24,17.24,0,0,0,1.18,3.06c.69,1.2,1.16.44,1.16-4.14A256.94,256.94,0,0,0,1552.7,249a295.72,295.72,0,0,0-52.24-61.29A405.79,405.79,0,0,0,1435.19,140c-11.61-6.87-23.43-13.36-35.51-19.29s-24.3-11.48-36.67-16.6c-5.39-2.91-9.88-5.12-13.26-6.92s-5.73-3-6.8-4.08c-2.56-.81-6.22-2.07-10.46-3.44s-9-3-13.78-4.42l-7.08-2.14c-2.31-.67-4.56-1.26-6.66-1.81a88,88,0,0,0-10.25-2.21c3.46,1-6.16-3.56-11.57-5.31a84.06,84.06,0,0,0-11.49-3.21c-3.2-.64-6-.88-8.76-1.19s-5.65-.65-9.09-1.27a97.48,97.48,0,0,1-12.57-3.23c8.48,1.22,11.54.92,9.06-.92-18.39-2-42.17-7.66-63.61-10.78,3.4.09,8.61.74,8-.39C1182.78,52,1172.2,49.93,1162,48s-20.14-3.86-30.54-4.4c2.65-.26,5.3-.53,8-.75-16.41-3.43-19-2.77-21-1.93s-3.49,1.82-17.75-.52c7,.19,4.62-.78,6-1.38-13.58.1-31.14-1.23-48.71-2.41s-35.14-2.31-48.58-2.45c1.61-.16,1.22-.69,1.22-.69-14.62-.55-29.56-1.34-44.88-1.72s-31-.5-47.09.26c-5.85-.39-4.9-1.53-6.35-2.46-.73-.47-2.06-.89-5.15-1.14s-7.93-.26-15.69,0c.3.91-2.83,1.53-7.42,2s-10.61.8-16.1,1.23c-11,.77-19.81,1.65-10.61,3.39-13.21.21-30.28.45-46.22,1.22-8,.31-15.66.85-22.45,1.33s-12.67,1.19-17,1.85c11.74-2.35-13.24-3.51,8.66-5.56-5.59-.31-11.18-.62-16.77-.86,2.33-1.77,17.13-.91,11.71-2.39-2.77.24-6.83.7-11.53,1.28s-10,1.18-15.33,1.88c-10.6,1.31-21,2.66-26,2.89-10,2.26-19.59,5-30.7,7.83s-23.78,5.73-40.08,8.36c15.16-3.68-9.36-2.76,1-4.93-14.88,4.65-29.69,9.36-44.38,14.37-10.78,2-2.87-2.5-18.32,1.3,1,.81-5.7,2.65-10.3,4.37-1,.09-4.33.73-8.79,1.6S560.67,71.67,555,72.72c-11.27,2.17-22.69,4.07-25.42,2.83-2.52-.17,1.81-1.34,5.25-2.29s6-1.63-.1-1c-9.91,2.24-15,3.68-20.1,5.23s-10.18,3-20,5.48l-.49-.38A162.14,162.14,0,0,0,472.09,89c-6,2.33-8.48,4.07-1.2,3.17,9-2.24-4-1.26,9.63-3.66-8.62,4.33-31.18,11-50.56,16.74,6.46-2.49,5.39-3.19,7.78-5-6.34,2.58-12.81,5.07-19.35,7.62l-19.94,7.56c-13.45,5.14-27.3,10.28-41.32,16,.15,1.82,9.56-6.81,14.12-7.34-18.78,5.2-37.34,13-54.9,20.82s-34.18,15.68-49.56,20.86c4.66-2.52,3.62,1,3.09.74a128,128,0,0,1-16.33,6.24A44.92,44.92,0,0,0,242.08,178c-.86-.4-4.22,1.44-8.73,4.13-2.26,1.33-4.76,3-7.4,4.6s-5.4,3.3-8.07,4.93c-2.56,2-3.36,2.25-2.34,1.31a47.3,47.3,0,0,1,8.66-5.7c-7.41,4.63-26.15,15.76-46.64,29.25-10.22,6.78-21,14-31,21.25S127,251.91,119,257.9c.61.14-3.59,4.68-8.57,10.11l-7.71,8.23-3.54,3.65c-1.06,1.12-2,2.1-2.85,2.88l1-4.13A66.85,66.85,0,0,0,90.94,284c-1.22,1.1-2.43,2.32-3.64,3.56l-3.63,3.7c-2.41,2.4-4.52,4.77-6.28,6.44s-3.08,2.74-3.7,2.69c-5.32,8.28,6.27-6.4,18.76-19.33l4.6-4.79,4.42-4.38c1.4-1.38,2.7-2.68,3.89-3.82l3.18-2.95c3.6-3.31,4.38-3.89-.27.87a15.84,15.84,0,0,0-2.93,2c-1.13.94-2.34,2.15-3.64,3.47-2.59,2.64-5.42,5.78-7.86,8.75-5,5.8-8.68,10.63-7.84,7.49q-2.39,2.49-4.68,5c-1.5,1.71-2.95,3.46-4.39,5.19-2.94,3.44-5.59,7-8.35,10.52-1.4,1.72-2.68,3.53-4,5.26s-2.73,3.45-4.09,5.16-2.7,3.43-4.12,5.09L52,328.9c1.55-2,3.15-5.39,3.24-6.87,0-.73-.3-1-1.19-.29a23.9,23.9,0,0,0-4.46,5.36c-1.82,2.71-3.26,4.83-4.33,6.54s-1.75,3-2.29,4a17.65,17.65,0,0,0-1.54,3.26c-.38,1.19-.45,1.9-5,11.1l-2.34,6c-.19.5-.4,1-.57,1.49l-.48,1.51-1,3c.44.4.12,1.87-.49,3.73s-1.25,4.18-1.92,6.18l-.48,1.43-.3,1.28a11.85,11.85,0,0,0-.3,1.74c0,.72.38.41,1.5-1.6-.61.6-1.38,3-2.21,6.33a93.66,93.66,0,0,0-1.44,11.4c-.09,1-.17,2-.25,2.93s0,1.88,0,2.77c0,1.77-.15,3.39-.23,4.72-.05,2.66-.44,4.23-1.4,3.69Q23,407,21.42,405.37q.21,2,.51,3.84l.32,1.79a10.8,10.8,0,0,0,.41,1.7c.69,2.21,1.44,4.22,2.2,6.13.91,1.88,1.87,3.65,2.76,5.42l.67,1.32c.26.43.51.87.77,1.31q.77,1.31,1.47,2.67c.08.69.2,1.73.22,2.56s.05,1.43-.27,1.27c1.2,0,2.38,1.42,3.58,3.71.55,1.17,1.3,2.49,2,4,.36.75.74,1.53,1.14,2.33a27.45,27.45,0,0,0,1.24,2.49c3.43,6.77,8.68,14.39,14,18.24,1.71,2.23,3.52,4.62,5.54,7l3.22,3.57c1.11,1.2,2.19,2.44,3.41,3.59,4.72,4.73,9.86,9.38,14.95,13.57s10,8,14.15,11.32a95.65,95.65,0,0,1,9.52,8.11l6,3.18c2,1.06,4,2,6,3s3.94,2,6,3l6,2.94c4,2,8.19,4,12.4,6.16,2.09,1.12,4.28,2.16,6.48,3.31s4.43,2.35,6.71,3.59c-3.9-1.45-9.05-3.87-10.53-3.52a75.5,75.5,0,0,0,12.88,6.8c3.68,1.45,7.28,2.71,12.93,4.75-.68-.11.41.64,2.64,2,1.11.65,2.51,1.44,4.1,2.34l5.38,2.84,6.12,3.2,6.43,3.21,6.19,3.12,5.5,2.71c8.81,2.63,12,2.71,13.19,2.14s.5-1.86,1.61-2.25a58,58,0,0,0,14.1,6.47c2.83.94,5.82,1.89,8.94,2.75s6.35,1.7,9.61,2.54,6.56,1.65,9.82,2.49,6.48,1.72,9.6,2.61A102.57,102.57,0,0,1,288,586.73c-6.28-1.08-26.32-5.36-12,0a44.08,44.08,0,0,0,12,4.83,126.78,126.78,0,0,0,13.64,2.59c9.73,1.44,20.75,2.86,33.69,7l-5.62-5.09C340.92,601.16,369,603,365.51,606c4.59.28,12.31,2.31,18.66,3.59s11.26,2.05,10.14,0c21.51,5.83,48.26,10.18,72.89,14s47.15,7.29,60.35,12.17c3.21.1,8.75.84,13.12,1.2s7.55.44,6-.66c-10.31-3.19-14.9-.41-18.65-2.24,5.7.62,7.07-.19,7.72-.6,13.65,2.5,24.47,4,11.1,5.4,3.8.73,7.16,1.24,10.2,1.59s5.77.49,8.3.55a135.21,135.21,0,0,0,13.93-.53c4.57-.34,9.39-.68,15.5-.6a196.16,196.16,0,0,1,23.25,1.71c-1.9,1.31,1,2.13,12.49,2.89l21.92-.78c25.26,2.39,14.14,4.36,14.58,6.9,6.8.27,14.35.63,21,.81s12.35,0,15.47-.74c5.43,1.37,10.87,2.67,16.31,4-11.89-2.86,11.24-.92,17.65-1.32l-6.41.35c2.47,1.14,18.18,1.18,26.12,1.1-.9-.81-5.35-1.49-10.66-2.1s-11.5-1.14-15.86-1.55c7-.82,17.75-.07,27-1.09-1.56,1.17,4,1.8,11.2,2.19s16.23.5,21.62.72c12.37.76,14-1.92,17.6-1.79.29,1.28,20.19.45,10.52,2.11-4.23.34-9.63-1.31-16.62-.34,8.15,1.1,7.18,3.25,24.11,1.85,12.77-1.17-3.23-4.83,20.93-3.21-6.36.6-7.53,1.56-12.44,2.42l11.33.67,11.33.6.95-2.23c3.05.55,1,.75,2.37,1,3.36-1.16,12-1.46,20.43-1.77s16.67-.77,19.2-2.13c11.42-.48,24.07.94,35,.78l-2.08.27c13.37.88,31.05-.82,42.14-2.91l-.58.51c3.64-.08,9.75-.48,16.07-1.09a162,162,0,0,0,17.35-2.41c9.23.22,10.93,2.2,12.82,3.59s4,2.23,14.05,0c9.31-.8,16.52-2.46,20.44-4s4.55-3,.75-3.35c16.75-.78,34.48-3.13,51.88-5.46s34.48-4.62,50.07-5.2c4.62-1.59,1.55-1.67,11.25-3.71,24.33-3.3,49.71-8.48,73.74-13.7s46.7-10.45,66-13.41c-13.49,4.5-.35,2.39.28,3.54,10.76-5.07,14.18-1.74,17.27-6.23-1.69-1.61-.82-2.82-14.28.06,13.91-4.3,31.36-9.84,47.17-15.05s30-10,37.81-12.21c-7.8,2.11-2.25-.77,3.38-3.67-.75,3.83,19.28-3.86,33.22-11.94l1.19-2.76c1.7-.46,3.42-.9,5.12-1.38l5.08-1.5c5.19-3.42,4.16-6.63,18.72-12.85,1.08.24,2.26.43,5-.57l2.56-1.89,2.6-2.06,5.47-4.3c1.87-1.47,3.7-3.07,5.62-4.62s3.86-3.09,5.72-4.74,3.79-3.21,5.72-4.77,3.71-3.21,5.59-4.74l2.79-2.25,2.68-2.24c1.79-1.46,3.57-2.84,5.34-4.12,4-2.6,8.22-5.1,12.09-8,1.2-1.41,2.63-3.07,3.77-4.72a45.39,45.39,0,0,0,2.68-4.33c1.12-2.18.52-2.46-3.94,2.13a158.12,158.12,0,0,0,22.13-28.06c1.2-2,2.33-3.89,3.42-5.63s1.87-3.45,2.75-5,1.75-2.88,2.41-4.17,1.41-2.4,2.09-3.39q.27-1.14.54-2.31c.19-.76.27-1.57.42-2.36.26-1.58.54-3.18.82-4.8s.45-3.26.65-4.92.39-3.32.59-5,.18-3.41.27-5.14.27-3.44.2-5.2,0-3.52,0-5.3v-1.33L1564,401c0-.92-.09-1.85-.14-2.78a206.11,206.11,0,0,0-7.29-45.59,237.67,237.67,0,0,0-7.68-22.65c-1.61-3.67-3-7.41-4.83-11-.87-1.81-1.66-3.64-2.58-5.42l-2.74-5.33A283.43,283.43,0,0,0,1513.41,269l2.22.51c-9-13.52-7.17-5-13.68-14.19,2.22,1.54.84-1.33,0-3.45s-1-3.65,3.87.61c-1.76-2.35-3.53-4.36-5.15-6.22-.81-.92-1.6-1.79-2.38-2.62s-1.57-1.57-2.33-2.29c-1.51-1.45-3-2.74-4.33-3.92s-2.78-2.21-4.09-3.2c-2.66-2-5.15-3.73-7.78-5.52s-5.23-3.82-8.22-6.2c-1.51,0,1,1.73,3.36,3.58s4.58,3.7,2.67,3.59a42.67,42.67,0,0,1-4.6-4.15c-2.37-2.17-5.31-5-8.39-7.71s-6.26-5.4-9-7.32-5-3.21-6.15-3.21c-3.89-4.54,1-3.42,4.24-2.32l-3-2-3.08-1.92-6.14-3.84c-3-3.3-2.33-3.76.3-2.82a113,113,0,0,1,11.53,5.84,112.85,112.85,0,0,0,11.36,6c2.54,1,3.28.36.35-3.49-3.63-2.71-7.2-5.48-10.88-8.12-4.21-5.13,3.48-.41,8.78,3.17,2.67,1.75,4.78,3.16,4.6,2.73s-2.63-2.73-9.15-8.29a104.57,104.57,0,0,0-9.15-5.14,40.13,40.13,0,0,0-7.09-2.71c-3.53-.87-4.22.33.68,4.73a75.46,75.46,0,0,0-13.5-8,29.05,29.05,0,0,0-7.09-2.06,28.55,28.55,0,0,1-7.33-2.38c-1.61-.75-3.56-1.71-5.94-3.07s-5.17-3.12-8.64-5.26c-1.67-1.54-1.11-1.47.62-.59.86.45,2,1.09,3.33,1.84l4.21,2.55c5.9,3.51,12,7.35,10.05,4.59a65.56,65.56,0,0,0-9.24-7c-3.21-2.11-6.59-3.92-9.93-5.68s-6.68-3.41-9.9-5.08c-1.61-.85-3.18-1.7-4.71-2.59s-3-1.75-4.48-2.69c12.66,8.55,0,4.62-8.75.28-13.93-9.15,10.81,2.75-9.73-8.77-2.12-.16-8.12-2.48-11.57-3.53-1.75-.5-2.85-.7-2.51-.18s2.14,1.74,6.13,4.18c-4.62-.32-10-3.26-15.71-6.58s-12.07-6.82-18.51-8.13c-2.91-2.83,3.22-1.69,7.26-1.34,2,.17,3.48.19,3-.66s-2.84-2.48-8.61-5.53c.67,1-.91.89-3.48.26s-6.16-1.68-9.47-2.6c-1.66-.45-3.25-.87-4.62-1.17a15.57,15.57,0,0,0-3.3-.41c-1.55.07-1.56.9,1.19,3.12-9-4.67-9.22-7-1.77-5.5-6.36-3.63-15-5.9-22.3-8.06s-13.36-4.16-14.7-7.37l-5.6.7c-3.94-2.44-9.87-5.22-16.39-9.11-3-1.06-7.07-2.24-11.37-3.45s-8.91-2.35-13-3.52c-8.29-2.27-14.78-4.4-13.62-6.13-2-.43-10.06-2.82-16.32-4.33s-10.78-2.1-5.74.81c17,6.74,20.66,4.1,29.18,10.72a47.83,47.83,0,0,0-8.85-4.09,77.61,77.61,0,0,0-9.27-2.42c-6.16-1.28-12.23-1.81-17.41-2.81l-1.22-2c-3.09-.55-8.09-1.87-12.84-3s-9.28-1.91-11.37-1.61c4.85.37,2.72-1.28-2-2.92-2.31.18-4.64.43-6.95.65-12.46-2.56-13.68-3.84-14.8-5.24a6.55,6.55,0,0,0-3-2.25c-1.91-.85-5.2-1.87-11.3-3,6.28.76,12.52,1.68,18.79,2.54-4.11-.57-11.83-4.72-23.62-6.6-5,1-14,1.8-18.21,2.58-13.85-1.85-5.64-3.65-19.54-4.13,6.06.25,12.09.66,18.16,1,2.81-.11-11.2-6-29.65-9.31-11.91-1.43-30.71-1.4-12.32,2.88-9.25-1.55-22-4.95-14.4-5.28-21.1-2.57,2.38,2.68-15.91,1.19-3.59-1.27-11.09-3.22-19.42-5.32l-12.73-3.15c-4.2-1-8.21-2-11.66-3,6.49-.42,13-.86,19.5-1.18-4.22-.57-8.45-1.14-12.69-1.64,16.82-.87-8.06-3.17,1.57-5.06-8.63-1.55-19.31-1.68-27.79-1.78,6.24,1.87,7.52,3.05,6.06,3.81s-5.66,1.11-10.42,1.47c-9.53.64-21.26,1.22-17.77,3.74-8.69-.47-14.34-1.4-18.51-2.55a70.05,70.05,0,0,1-9.6-3.68c-5.49-2.31-11.29-4-29.65-1.43,2.95.7.1,1.71-.73,2.5s.34,1.33,11.32,1.28c-10.8-.83-14.53.18-18.72.94a43.47,43.47,0,0,1-7.59.8,105.06,105.06,0,0,1-14-.7c9.47-.63,4.44-1.9.44-3.23-2-.68-3.73-1.32-3.26-2s3.17-1.25,10-1.7c-.94.71,2.87,1.1,7.44,1.27s9.91.24,12,.12c-4.44-1-3.94-2.12-5.1-3.07s-4-1.8-15.15-2.09c-6.8,0-14.86,0-20.89.25s-10,.89-8.69,2c.28,1.28,5.47,1.19,9.49,1.22s6.89,0,2.52,1.2c-6.75.07-12.1,0-16.49-.19L802.85,22c-5.91-.25-9.84-.11-15.4,2.25,17-.56,21.31,2.1,21,3.81-6.59.41-13.18.74-19.76,1.21l3.81-1.74a142.76,142.76,0,0,0-15.3.22,15.12,15.12,0,0,0-5.06,1.2,16.4,16.4,0,0,1-4.87,1.34,143.11,143.11,0,0,1-14.72.91c-4.83-.92-9.67-1.82-14.52-2.65,3.58-1.65,14.77-1.82,24.35-2.07s17.56-.54,14.77-2.79A229.45,229.45,0,0,0,754,25.29c-3.25.34-6.47.65-10,.85s-7.53.37-12.25.32c4.18-.61,9.88-1.05,14-1.65-3.59.07-7.24-1.29-13.56-2.07a64.79,64.79,0,0,0-11.78-.35c-2.41.12-5,.34-8,.71s-6.14.95-9.67,1.68c-14.6,2.54-3.75,2-4,3.71-8,.8-14.56,1.62-20.24,2.4s-10.48,1.59-14.92,2.34-8.51,1.52-12.76,2.22-8.65,1.47-13.76,2.18c3.75-4.06-36.19,4.73-14.09-1.91,5.35.23,19.5-1.28,33.73-3.08s28.53-4,34.07-6.15c-6-1.46.29-2,8.94-2.5,4.32-.26,9.22-.6,13.46-1.1s7.82-1.2,9.49-2.33c-12.93.76-19.14.31-22.69-.77s-4.42-2.65-6.61-3.75a128.66,128.66,0,0,0-18.31,3c-2.78,2.75,6.57,1.75,7.35,4.24-28.84,2-56.28,7.14-71.58,11.89-9.69.28-7.09-2.6,4.18-4.58C581.14,36.39,545,43,513.15,49.92c10.7-.52,1.91,1.83-7.69,4.3s-20,5.32-12.59,5.15c4.27-.86,8.43-1.57,12.11-2.08a90.22,90.22,0,0,1,9.34-.78c4.83-.08,6.39.74,1.95,2.73-10.6,2.28-.07-1.78-4.68-1.55-12.88,5.38-21.74,1.84-33.94,8.75,14.85-4.74,16-6.23,14.06-7.22s-7.11-1.33-4.73-3.61c-10.7,3.82-10.61,3.22-10.55,2.4,0-.41.05-.87-1.29-.87s-4,.5-9.41,2c-21.29,7.91-47.25,17.62-70.47,27-15.28,4-33.84,11.38-51.55,19.53s-34.55,17.13-47,23.52c-6.86,2.69-8.5,2.1-10.24,1.7a6.92,6.92,0,0,0-3.33,0,31.85,31.85,0,0,0-7.43,2.94c-8.23,4.53-4.7,3.69-2.28,3.22,1.21-.24,2.15-.38,1.21.27a32.29,32.29,0,0,1-3,1.67l-7,3.46,2-1.93c-1.72,1.22-5.42,3.27-10.07,5.8s-10.18,5.71-15.67,8.91-10.78,6.74-15,9.94-7.3,6.15-8.32,8.32l5.09-7.88a46.51,46.51,0,0,0-6.17,4.24c-.94.74-1.84,1.49-2.72,2.23s-1.71,1.47-2.54,2.16c-.85-.92-6.51,1.55.05-3.89-15.84,7.37-29.53,21-44.17,32.51,3.65-1.84,7.22-3.77,10.91-5.51-12.19,10.36-22.67,18.54-32.84,26.93A387.64,387.64,0,0,0,114,252l-.88-2.24L107,256.62l-3.06,3.44-3,3.5c1.65-4.7-11.32,6.3-16.59,14.73,9.5-13,19.65-25.51,30.15-37.84,5.36-4.08,3.13-1.09.53,2.38s-5.48,7.53-1.73,5.4a53.52,53.52,0,0,0,7-5.18c2.88-2.42,6.09-5.41,9.29-8.3s6.2-5.91,8.59-8.43a28.31,28.31,0,0,0,4.71-5.69c-8.58,6.89-8.58,7.74-14.44,13.94-4.76.14,7.73-10.95,12.83-17.8-2.17,1.92-5,4-7.28,5.86s-4,3.45-4.17,4.23c7.51-8.65,16.15-16.31,31-28.13-9.42,8.82,6.69-2.78,3.39.91-.48-3,13.26-15,33-27.72a79.73,79.73,0,0,0,12.47-7.21c4.46-2.92,9.13-6.42,14.13-10s10.24-7.47,15.82-11.09c2.78-1.84,5.61-3.67,8.49-5.44s5.88-3.4,8.89-5q-3.09,3-6.7,6.07c-2.4,2.08-4.93,4.29-7.66,6.5-5.46,4.39-11.46,9.18-18.14,14,15.1-7.79,16-10.07,31.35-17.4,6.11-5.82,9.59-11.63,28.74-23l2,1.25c17.48-10,16.14-12.86,39.73-23.12,20.25-8.65,41-16.87,60.74-24S425.56,60,441.6,55.15l1.81,1.56A98,98,0,0,1,460,49.56c3.36-1.16,6.94-2.35,10.68-3.48s7.63-2.2,11.57-3.3c15.79-4.27,32.49-8.18,44.55-11.78,21.07-3.72,43.75-8.6,64-12.25s38.13-6.22,49.21-5.82c18.63-2.74,36.75-5,54.65-6.87s35.61-3.24,53.42-4.26S783.85.17,802.19,0s37.13.17,56.64,1l-13.2,2.56c14-1.77,9,1.92,22.7,2.05-7.8-1.5-3-2.07,4.92-2.45s19.09-.35,24-.9c17.29,2.22,37.06,3.76,56.4,5.15l53.65,3.78.9,2.18c15.72.3,32.69,2.86,50.41,6.53s36.21,8.36,55.09,12.93c2.09.91,4.74,2.21,8.28,3.58a85.3,85.3,0,0,0,13.6,4.13c5.31.47,10,1,14.42,1.66s8.72,1.46,13.28,2.34c9.11,1.82,19.35,4.18,34.5,7.63,10.85,3.25,25,7.93,39,13.06s27.84,10.82,38.36,15.53a644.73,644.73,0,0,1,118.35,52.53q3.58,2,7.12,4.1l7.1,4.18,7,4.32,3.52,2.16,3.49,2.23c9.34,5.86,18.49,12.13,27.59,18.51s18,13.17,26.78,20.12,17.37,14.3,25.82,21.87l3,6.29a282.66,282.66,0,0,1,46,51.64,236.38,236.38,0,0,1,31.95,65.58,212,212,0,0,1,9,70.7,150,150,0,0,1-5.27,33.76c-.36,1.33-.71,2.66-1.07,4s-.84,2.58-1.25,3.86l-1.29,3.82c-.45,1.25-.8,2.54-1.33,3.75-1,2.43-2,4.85-2.94,7.23-.46,1.2-1,2.34-1.57,3.48l-1.62,3.41-.07-4.33c0-1.43,0-2.84-.19-4.29-.65,1.38-1.46,2.71-2.21,4.08l-2.27,4.16c-.38.69-.73,1.41-1.13,2.09l-1.22,2-2.38,4.06c-1.5,2.74-3.23,5.23-4.73,7.71l-2.2,3.6-2.16,3.26c-1.37,2.1-2.54,4.06-3.56,5.73a46,46,0,0,0-2.45,4.17c-1.11,2.23-1.12,3.29.44,2.58-1.07,1.1-2.1,2.31-3.25,3.44l-3.46,3.53-3.55,3.7-3.75,3.66-3.79,3.74c-1.29,1.24-2.62,2.41-3.93,3.62l-3.94,3.6c-1.3,1.22-2.68,2.29-4,3.42l-4,3.3-2,1.59-2,1.49c-2.61,2-5.14,3.8-7.56,5.46s-4.79,3-7,4.21c-1.09.6-2.13,1.15-3.12,1.64s-2,.85-2.87,1.19c-2.6,1.55-4.92,3-7,4.33s-4,2.49-5.82,3.65-3.39,2.23-4.91,3.28l-4.41,3c-2.86,1.92-5.55,3.91-8.68,5.88s-6.63,4.13-11,6.48c-5.5,2.44-10.53,4.79-15.31,6.75l-6.9,2.93c-2.22.95-4.4,1.79-6.51,2.65-4.22,1.71-8.19,3.36-12.08,4.83s-7.61,3.05-11.37,4.42L1388,603.26l-11.8,4.33c-4.09,1.49-8.4,2.95-13,4.58s-9.51,3.19-14.81,5l10.66-3.07c2.21-1.16,3.27-2.24,2.46-2.57s-3.52,0-8.86,1.55c-2,.76-4.32,1.59-7,2.48s-5.56,1.73-8.55,2.63c-6,1.84-12.37,3.56-17.71,5.14s-9.69,2.9-11.6,3.93-1.41,1.68,2.91,1.81c-23.42,4.72-50.3,11.52-77.28,17.22s-54,10.43-77,11.82c4.08.74-7.41,2.71-12.16,4.21-41.27,5.75-85,7.2-117.87,11.91-6.65-.16,10.31-3.05-6.54-1.91-9.94,1.19-.12,1.75-12.34,3.33-33.5,3.52-67.59,4.31-100.87,4.28s-65.78-1.08-96.32-1.16c-54.31.56-109.81-1.57-164.6-5.74s-108.85-10.34-160.47-17.69l1.32-.8c-17.54-.68-37.66-4.78-56.83-8.91s-37.47-8.11-51.71-8.2c-4-1.25-11.66-3-17.57-4.54s-10-2.83-6.82-3.05c-13.9-1.71-32.78-6.79-53.05-12.65S258.67,604.6,238.89,600a65,65,0,0,0,9.84,2.57c-19.19-7.1-37.45-13.15-55.84-19.92S156,568.33,136.81,557.81c4.13,1.66,11.56,4.69,13.12,4.37a106.15,106.15,0,0,0-12-6c-2.14-.93-4.32-1.83-6.49-2.71s-4.3-1.82-6.39-2.71-4.1-1.79-6-2.7-3.66-1.9-5.27-2.87c-3.21-2-5.76-3.91-7.15-6.15-8.34-4.93-7.17-1.53-1.94,1.43-10.3-6.23-20.43-13.09-30.37-20.45a274,274,0,0,1-28.74-24.36,184.94,184.94,0,0,1-25-30.08A128.18,128.18,0,0,1,3.8,428.43,113.92,113.92,0,0,1,.69,386.78a138.32,138.32,0,0,1,11-39.59l2.1-4.58c.72-1.53,1.39-3.08,2.2-4.53,1.59-2.93,3.12-5.9,4.77-8.78l5.17-8.45c1.77-2.72,3.58-5.33,5.38-8a351.7,351.7,0,0,1,23.52-30.12c12.67-13,20.13-18.64,24-21.33a10.37,10.37,0,0,1,3.76-1.93c.66-.1.84.21.89.56.12.7-.25,1.58,1.79-.26,1-.91,2.65-2.51,5.24-5.14,1.28-1.34,2.88-2.84,4.74-4.68s4-4,6.58-6.39c4.11-2.23,1.4-3.5,2.63-3.26,2-1.84,3.93-3.55,5.88-5s3.85-2.79,5.71-4c3.7-2.46,7.31-4.33,10.69-6.14l5-2.66c1.61-.86,3.18-1.74,4.71-2.68a52.24,52.24,0,0,0,8.65-6.59c-6.75,1.11,7.3-7,6.73-8.65,18.61-11.15,30.36-16.72,40.89-22.06s19.9-10.35,34.49-19.09l-1.59,2.51c16.69-11,35.93-20.63,54.66-29.38s37-16.72,51.84-24.94Q370.58,97.05,409.45,85t78-22q39.1-9.94,78.37-18t78.68-14.33C749.59,13.9,855.45,5.91,962.32,8q39.6,1.11,79,3.94t78.54,7.81c52.19,6.61,104.1,16.13,155.28,29.91l9.58,2.67,4.79,1.34,4.78,1.42,9.54,2.84,9.51,3,4.76,1.51,4.73,1.6,9.47,3.2c6.29,2.25,12.59,4.44,18.83,6.86s12.47,4.85,18.7,7.35c3.1,1.27,6.18,2.61,9.27,3.92l4.64,2,4.6,2.08q18.45,8.19,36.4,17.82c3,1.63,6,3.16,8.94,4.88l8.87,5.06c5.84,3.52,11.71,7,17.44,10.77,11.49,7.45,22.78,15.34,33.61,24,21.64,17.25,41.89,36.92,59.06,59.54,1.85,2.77,3.49,5.47,5.09,8s3,4.93,4.34,7.23,2.64,4.45,3.78,6.56l3.25,6.06c4.11,7.73,7.3,14.28,10.51,21s6.33,13.65,9.92,22.34c.93,2.16,1.73,4.48,2.67,6.91s2,5,2.82,7.73,1.9,5.65,2.89,8.75,1.83,6.43,2.84,9.94c-1.21-2.13-2.26-5.63-1.89-1.71a5.05,5.05,0,0,1,1.58,2.3,37.86,37.86,0,0,1,1.57,4.91c.53,2,1.07,4.24,1.62,6.66s.88,5,1.32,7.65c.22,1.31.45,2.62.66,3.92s.35,2.6.52,3.87c.34,2.54.68,5,1,7.14.65,4.36,1.23,7.75,2.14,9.09l.26,3.93c.06,1.31.08,2.61.12,3.92q.09,3.91.2,7.81c0,2.59-.06,5.17-.07,7.75l-.06,3.87c0,1.29,0,2.57-.13,3.85-.14,2.56-.27,5.12-.41,7.67-.08,1.28-.12,2.53-.23,3.83l-.41,3.95c-.27,2.63-.55,5.25-.82,7.87s-.85,5.21-1.27,7.81c-.74,5.22-2.1,10.33-3.26,15.46l-.45,1.92-.57,1.9-1.13,3.78-1.14,3.78c-.39,1.25-.73,2.53-1.21,3.75l-2.74,7.39c-.48,1.23-.89,2.48-1.42,3.68l-1.59,3.6-3.22,7.2-3.63,7c-2.32,4.72-5.19,9.09-7.87,13.6l-1,1.68-1.11,1.62-2.23,3.23c-1.5,2.14-2.94,4.35-4.51,6.43l-4.83,6.19-2.43,3.1-2.57,3-5.18,5.91c-.85,1-1.77,1.93-2.68,2.86l-2.74,2.81a289.15,289.15,0,0,1-49,40c11-7.93,15-13.92,1.95-4.73l-3.17,2.79-3.26,2.65-6.55,5.31c-.93.21-1.84.46-2.78.63a112.71,112.71,0,0,0-11.55,8.13c-1.14,1-1.68,1.58-1.27,1.72s1.77-.22,4.35-1.41c-2.87,1.75-5.85,3.23-8.77,4.83S1463,595,1460,596.44l-9,4.36c-1.5.71-3,1.46-4.49,2.15l-4.52,2-9.07,4c-3,1.29-6.1,2.48-9.14,3.72s-6.1,2.51-9.18,3.62l-9.23,3.37a643.45,643.45,0,0,1-74.91,21.6c-50.39,11.4-101.23,17.63-151.84,21.1-25.32,1.77-50.6,2.64-75.82,3-12.62.26-25.21.17-37.8.18-12.58-.2-25.16-.26-37.71-.68-50.22-1.25-100.18-4.49-150-8.57-23.57-2.84-52.16-5.62-81.2-9l-10.91-1.19-10.9-1.29-21.56-2.54c-14.19-1.82-28-3.45-40.71-5.26-75.16-13.41-146-28.87-216.75-45.13-35.39-8.23-70.77-16.7-106.7-25.4s-72.33-17.86-109.82-27.22c0,0,5.43-.74,18.6.34,6.6.52,15.1,1.58,25.87,3.26,5.38.84,11.33,1.87,17.86,3.13S354.82,548.85,362.61,550.51Z"/><path class="cls-1" d="M64.94,289.31c4.85-3,17.35-15.53,9.54-3.58C72.18,286,64.78,291.66,64.94,289.31Z"/><path class="cls-1" d="M470.38,64.68c.23-.32,1.87-.62,3.63-.85s3.69-.37,4.44-.43c-5.52,1.59-10.28,4.49-14.91,4.9C469.08,66.57,468,66.08,470.38,64.68Z"/><path class="cls-1" d="M586.77,39.31c-.77.84-7.36,2.71-15.6,4.72-4.13,1-8.63,2.13-13,3.14L545.75,50C559.33,46.17,573,42.66,586.77,39.31Z"/><path class="cls-1" d="M697.46,31.31c9.64.52,7,1.31-5.77,2.39C690.69,33,694.89,32.23,697.46,31.31Z"/><path class="cls-1" d="M705,27.39a78.36,78.36,0,0,1,18.35.38c-.22-.61-5.53-.07-10.42.3S703.61,28.74,705,27.39Z"/><path class="cls-1" d="M945.25,34.46c1.44.11,3.3.2,5.38.29s4.34.25,6.59.44c4.51.38,8.95.94,11.53,2.08-2.93-.94-10-1.2-15.69-1.49S942.93,35.33,945.25,34.46Z"/><path class="cls-1" d="M1056.16,47.76a60.77,60.77,0,0,0,9.14,1.68c6.38,1.88-.68,1.63-6.21.73Z"/><path class="cls-1" d="M310.21,592.21c4,.82,8,1.56,11.93,2.31l-2.09,1C316.76,594.42,313.48,593.34,310.21,592.21Z"/><path class="cls-1" d="M419.79,111.36c11.34-4.41,8.48-1.12,10.46-1.49C419.81,113.13,433.6,107,419.79,111.36Z"/><polygon class="cls-1" points="896.6 32.51 892.91 32.6 894.11 29.6 896.6 32.51"/></g></g></svg>