<svg xmlns="http://www.w3.org/2000/svg" width="1496.259" height="583.41" viewBox="0 0 1496.259 583.41"><g transform="translate(-4190 -7627.295)"><g transform="translate(4059 6847.874)"><path d="M106.9,64.7V209.7c0,16.982-20.52,25.52-32.548,13.491L16.568,165.407A37.715,37.715,0,0,1,26.38,104.98Z" transform="translate(151.461 1019.903)" fill="#2c245e"/><path d="M254.727,21.533V217.484a38.847,38.847,0,0,1-21.51,34.766L127.364,305.177,46.842,345.461a37.715,37.715,0,0,0-9.812,60.427l-5.425-5.425A107.932,107.932,0,0,1,0,324.14v-186a38.847,38.847,0,0,1,21.51-34.766L223.641,2.287a21.492,21.492,0,0,1,31.086,19.246" transform="translate(131 779.421)" fill="#6edbff"/></g><g transform="translate(4059 6847.874)"><path d="M152.522,148.035,72,188.319V43.313c0-16.982,20.52-25.52,32.548-13.491l52.361,52.361,5.425,5.425a37.715,37.715,0,0,1-9.812,60.427" transform="translate(398.636 869.356)" fill="#2c245e"/><path d="M299.727,119.387V305.338a38.865,38.865,0,0,1-21.51,34.813L76.086,441.192A21.453,21.453,0,0,1,45,421.993V226.042a38.847,38.847,0,0,1,21.51-34.766L172.364,138.35l80.522-40.285A37.715,37.715,0,0,0,262.7,37.638l5.425,5.378a108.124,108.124,0,0,1,31.605,76.371" transform="translate(298.273 919.328)" fill="#ff88a3"/></g><path d="M19.943,0H57.337V-75.2h56.921a74.651,74.651,0,0,0,74.579-74.579,74.651,74.651,0,0,0-74.579-74.579H19.943Zm94.315-187.176a37.5,37.5,0,0,1,37.394,37.394,37.5,37.5,0,0,1-37.394,37.394H57.337v-74.787ZM222.907,0H260.3V-76.034a52.487,52.487,0,0,1,52.559-52.559h15.165v-37.394H312.859A88.485,88.485,0,0,0,260.3-148.743v-17.243H222.907ZM513.33-82.889c0-47.573-38.64-86.213-86.005-86.213a86.266,86.266,0,0,0-86.213,86.213c0,47.365,38.64,86.005,86.213,86.005A86.178,86.178,0,0,0,513.33-82.889Zm-37.186,0A49.03,49.03,0,0,1,427.325-34.07a48.9,48.9,0,0,1-48.819-48.819,48.763,48.763,0,0,1,48.819-48.819A48.9,48.9,0,0,1,476.145-82.889Zm212.728-35.939c0-28.668-33.031-51.936-73.748-51.936s-73.748,23.267-73.748,51.936h38.64c0-8.31,15.788-15.165,35.108-15.165s35.108,6.855,35.108,15.165ZM538.467-48.612c0,29.5,34.277,53.39,76.657,53.39,42.172,0,76.657-23.89,76.657-53.39,0-26.383-27.214-47.988-63.154-52.766l-24.306-3.116c-14.126-1.662-24.306-7.686-24.306-14.334h-38.64c0,25.552,26.383,46.742,60.868,51.1l24.306,3.116c15.373,2.077,26.591,8.517,26.591,16,0,9.141-17.035,16.619-38.017,16.619s-38.017-7.479-38.017-16.619ZM883.734-51.1h-43A48.768,48.768,0,0,1,803.754-34.07a49.11,49.11,0,0,1-46.119-32.408H888.1a86.222,86.222,0,0,0,1.662-16.412c0-47.573-38.64-86.213-86.005-86.213a86.266,86.266,0,0,0-86.213,86.213c0,47.365,38.64,86.005,86.213,86.005A86.221,86.221,0,0,0,883.734-51.1Zm-79.981-80.6a49.022,49.022,0,0,1,45.7,31.577H758.05A48.608,48.608,0,0,1,803.754-131.708Z" transform="translate(4795 8033)" fill="#2c245e" stroke="#2c245e" stroke-width="3"/></g></svg>