<svg height="70" viewBox="0 0 70 70" width="70" xmlns="http://www.w3.org/2000/svg"><path d="m61.2227678 53.7274603c-.3462242-.6924485-.6924485-1.384897-.6924485-2.0773455 0-1.384897-.6924485-2.4235698-1.7311212-3.4622425-.3462243-.3462243-1.0386728-.6924485-1.384897-.6924485 2.0773455-6.2320365-1.0386728-12.464073-4.5009153-16.9649883-2.769794-4.1546909-6.924485-7.2707092-6.5782607-12.8102972 0-6.5782607.6924485-18.69610947-11.4254003-17.65743672-12.4640729.6924485-9.0018304 13.50274572-9.3480547 18.00366102 0 3.8084667-1.7311212 7.6169335-4.5009152 10.7329517-.6924485.6924485-1.384897 1.7311212-1.7311213 2.4235697-3.4622425 4.154691-5.1933637 9.694279-5.1933637 14.8876428-.6924485.6924485-1.384897 1.384897-1.7311213 2.0773455-.3462242.3462242-.6924485.6924485-.6924485 1.0386727-.3462242.3462243-1.0386727.6924485-1.73112123 1.0386728-1.384897.3462242-2.42356975 1.0386727-3.11601825 2.4235697-.34622425 1.0386728-.6924485 2.4235698-.34622425 3.8084668.34622425.6924485.34622425 1.384897 0 2.4235697-.69244849 1.384897-.69244849 3.1160183 0 4.8471395 1.03867275 1.384897 2.769794 1.7311213 5.19336373 2.0773455 1.7311213 0 3.8084668.6924485 5.539588 1.384897 1.7311213 1.0386728 3.8084668 1.7311213 5.8858123 1.7311213 1.0386727 0 2.4235697-.3462243 3.4622425-.6924485 1.0386727-.6924485 1.7311212-1.384897 2.0773454-2.4235698 1.384897 0 3.4622425-.6924485 5.8858123-.6924485 2.0773455 0 4.154691.6924485 6.924485.3462243 0 .3462242 0 .6924485.3462242 1.0386727.6924485 1.7311213 2.4235698 3.1160183 4.5009153 3.4622425h.6924485c2.769794-.3462242 5.539588-1.7311212 7.2707092-3.8084667 1.384897-1.384897 3.1160183-2.4235698 4.8471395-3.1160183 2.0773455-1.0386727 3.4622425-1.7311212 3.8084668-3.4622425.3462242-2.4235697-.3462243-3.8084667-1.7311213-5.8858122zm-23.8894732-44.31670398c2.0773455.34622425 3.8084667 2.07734548 3.4622425 4.15469098 0 1.0386728-.3462243 2.0773455-1.0386728 3.1160183 0 0 0 0-.3462242 0-.6924485-.3462243-1.0386728-.3462243-1.384897-.6924485.3462242-.3462243.3462242-1.0386728.6924485-1.7311213 0-1.384897-.6924485-2.4235697-1.384897-2.4235697-1.0386728 0-1.7311213 1.0386727-1.7311213 2.4235697v.3462243c-.3462242-.3462243-1.0386727-.3462243-1.384897-.6924485v-.3462243c-.3462242-1.7311212 1.0386728-3.80846673 3.1160183-4.15469098zm-1.0386728 6.92448498c.3462243.3462243 1.0386728.6924485 1.384897.6924485.3462243 0 1.0386728.3462243 1.384897.6924485.6924485.3462243 1.384897.6924485 1.384897 1.7311213 0 1.0386727-1.0386727 2.0773455-3.1160182 2.769794-.6924485.3462242-1.0386728.3462242-1.384897.6924485-1.0386728.6924485-2.0773455 1.0386727-3.4622425 1.0386727-1.0386728 0-2.0773455-.6924485-2.769794-1.384897-.3462243-.3462242-.6924485-.6924485-1.384897-1.0386727-.3462243-.3462243-1.0386727-1.0386728-1.384897-2.0773455 0-.3462243.3462243-.6924485.6924485-1.0386728 1.0386727-.6924485 1.384897-1.0386727 1.7311212-1.384897l.3462243-.3462242c.6924485-1.0386728 2.0773455-1.7311213 3.4622425-1.7311213 1.0386727.3462243 2.0773455.6924485 3.1160182 1.384897zm-7.2707092-6.2320365c1.384897 0 2.4235697 1.384897 2.769794 3.8084668v.6924485c-.3462243 0-1.0386728.3462242-1.384897.6924485 0 0 0-.3462243 0-.6924485 0-1.0386728-.6924485-2.0773455-1.384897-1.7311213-.6924485 0-1.0386728 1.0386728-1.0386728 2.0773455 0 .6924485.3462243 1.0386728.6924485 1.384897s-.3462242.3462243-.6924485.3462243c-.6924484-.6924485-1.3848969-1.7311213-1.3848969-2.769794 0-2.0773455 1.0386727-3.8084668 2.4235697-3.8084668zm-3.4622425 55.7421042c-2.4235697 1.0386728-5.539588.6924485-7.6169335-.6924485-2.0773455-1.0386727-3.8084667-1.384897-6.2320365-1.384897-1.73112123-.3462242-3.46224248-.3462242-3.80846673-1.0386727s-.34622425-1.7311213.34622425-3.4622425c.34622425-1.0386728.34622425-2.0773455 0-3.1160183-.34622425-1.0386727-.34622425-1.7311212 0-2.769794.34622425-1.0386727 1.03867275-1.384897 2.07734548-1.7311212 1.0386728-.3462243 1.7311213-.6924485 2.4235698-1.384897.3462242-.3462243.6924485-.6924485 1.0386727-1.384897 1.0386728-1.384897 1.7311213-2.0773455 2.769794-2.0773455 2.0773455.3462242 3.8084668 3.4622425 5.1933638 6.5782607.6924485 1.0386728 1.384897 2.4235698 2.4235697 3.4622425 1.384897 1.7311213 3.1160183 4.154691 3.1160183 5.539588 0 1.7311213-.6924485 2.769794-1.7311213 3.4622425zm16.9649882-7.6169335c0 .3462243 0 .3462243-.3462242.6924485-4.154691 3.1160183-9.694279 3.4622425-14.1951943 1.0386728-.6924484-1.0386728-1.3848969-2.0773455-2.0773454-3.1160183 3.1160182-.3462242 2.4235697-4.5009152-4.154691-8.6556062-6.924485-4.5009153-2.0773455-12.8102973.3462242-16.618764.3462243-.3462243.3462243 0-1.0386727 2.769794-1.0386728 2.0773455-3.1160183 7.2707092-.3462243 11.079176 0-2.769794.6924485-5.539588 1.7311213-8.309382 2.4235697-4.5009153 4.154691-9.694279 5.1933637-14.8876427.3462242.3462242.3462242.3462242.6924485.3462242.3462242.3462243.6924485.6924485 1.0386727.6924485.6924485 1.0386728 2.0773455 1.384897 3.1160183 1.384897h.3462242c1.384897 0 2.769794-.3462242 3.8084668-1.384897.3462242-.3462242.6924485-.6924485 1.384897-.6924485 1.0386727-.3462242 2.0773455-1.0386727 3.1160182-2.0773455 1.384897 4.5009153 2.769794 8.6556062 4.8471395 12.464073 1.384897 2.769794 2.4235698 5.539588 3.1160183 8.6556062 1.0386727 0 2.4235697.3462243 3.4622425 1.0386728 2.769794 1.384897 3.8084667 2.4235697 3.4622425 4.154691-.3462243 0-.3462243 0-.6924485 0 0-1.0386728-.6924485-2.0773455-3.1160183-3.1160183-2.4235697-1.0386727-4.5009152-1.0386727-5.1933637 1.384897-.3462243 0-.6924485.3462243-1.0386728.3462243-2.769794 1.384897-2.769794 5.1933637-3.1160182 9.0018305.3462242 1.384897 0 2.4235697-.3462243 3.8084667zm15.9263155 2.0773455c-2.0773455.6924485-3.8084667 2.0773455-5.1933637 3.8084668-1.384897 2.0773455-3.8084668 3.4622425-6.5782608 3.1160182-1.384897 0-2.769794-1.0386727-3.1160182-2.4235697-.3462243-2.0773455-.3462243-4.154691.6924485-6.2320365.3462242-1.384897.6924485-2.4235698 1.0386727-3.8084668.3462243-4.154691.3462243-6.5782607 2.0773455-7.6169335 0 1.7311213 1.0386728 2.769794 2.4235698 3.4622425 1.7311212 0 3.4622425-.3462242 4.8471395-1.7311212h.6924485c1.0386727 0 1.7311212 0 2.4235697.6924485s1.0386728 1.7311212 1.0386728 2.4235697c0 1.0386728.6924485 2.0773455 1.0386727 3.1160183 1.7311213 1.7311212 1.7311213 2.769794 1.7311213 3.1160182-.3462243.6924485-1.7311213 1.384897-3.1160183 2.0773455zm-31.1601824-41.5469099c-.3462243 0-.3462243 0-.3462243.3462242 0 0 0 .3462243.3462243.3462243.3462242 0 .3462242.3462242.3462242.3462242 1.0386727 1.384897 2.769794 2.0773455 4.8471395 2.4235698 1.7311212-.3462243 3.4622425-.6924485 5.1933637-2.0773455.6924485-.3462243 1.384897-.6924485 2.0773455-1.0386728.3462243 0 .3462243-.3462242.3462243-.3462242 0-.3462243 0-.3462243-.3462243-.3462243-.6924485.3462243-1.7311212.6924485-2.4235697 1.0386728-1.384897 1.0386727-3.1160183 1.7311212-4.8471395 1.7311212-1.7311213 0-3.1160183-1.0386727-4.154691-2.0773455-.3462243 0-.6924485-.3462242-1.0386727-.3462242z"/></svg>