<svg height="70" viewBox="0 0 70 70" width="70" xmlns="http://www.w3.org/2000/svg"><path d="m63 43.8666675c0 3.0916667-1.09375 5.73125-3.28125 7.91875s-4.8270833 3.28125-7.91875 3.28125h-31.7333334c-3.5972221 0-6.6743055-1.2784719-9.23125-3.8354156-2.55694441-2.5569459-3.8354166-5.6340292-3.8354166-9.2312519 0-2.5666669.69027778-4.9145842 2.07083334-7.04375 1.38055546-2.1291667 3.19861106-3.71875 5.45416666-4.76875-.038889-.5444446-.0583334-.9625002-.0583334-1.2541669 0-4.1222221 1.4583333-7.6416664 4.375-10.5583331 2.9166666-2.9166667 6.4361111-4.375 10.5583334-4.375 3.0722223 0 5.857639.8555555 8.35625 2.5666666 2.4986104 1.711111 4.3215271 3.9472222 5.46875 6.7083334 1.3611104-1.2055556 2.974999-1.8083334 4.8416656-1.8083334 2.0611125 0 3.8208354.7291665 5.2791688 2.1874997 1.4583333 1.4583333 2.1875 3.2180556 2.1875 5.2791668 0 1.4583334-.3986115 2.8-1.1958344 4.025 2.5083333.5833334 4.5791667 1.8909722 6.2125 3.9229166 1.6333333 2.0319452 2.45 4.3604178 2.45 6.9854178z"/></svg>