<svg height="70.243902" viewBox="0 0 70.2439024 70.2439024" width="70.243902" xmlns="http://www.w3.org/2000/svg"><path d="m35.1219512 0c19.3973181 0 35.1219512 15.7246332 35.1219512 35.1219512 0 19.3973181-15.7246331 35.1219512-35.1219512 35.1219512-19.397318 0-35.1219512-15.7246331-35.1219512-35.1219512 0-19.397318 15.7246332-35.1219512 35.1219512-35.1219512zm-10.2485853 29.6956098c-2.0405854 0-3.8546342.4390243-5.4386342 1.3188292-1.5857561.8780488-2.8097561 2.1459512-3.6772683 3.8019512-.8657561 1.656-1.2977561 3.5648781-1.2977561 5.723122v1.620878c.0210732 2.1178537.4706342 3.9828293 1.3434147 5.5931708.8710243 1.6085853 2.0985365 2.8483902 3.6755121 3.7176585 1.5804879.8692683 3.3910244 1.3030244 5.4316098 1.3030244 2.0897561 0 3.9160976-.432 5.4842927-1.296 1.5646829-.8657561 2.7763902-2.1160976 3.6316097-3.7562927.8552196-1.6401951 1.2819513-3.5613658 1.2819513-5.7617561v-1.4189268c0-2.1898537-.4267317-4.1110244-1.2819513-5.7617561-.8552195-1.6507317-2.0739512-2.9098537-3.6597073-3.779122-1.584-.8692682-3.4156097-1.3047804-5.4930731-1.3047804zm21.2979512 0c-5.2595122 0-7.8936586 3.0731707-7.8936586 6.139317 0 1.5629269.4636098 3.2505366 1.6805854 4.3147317 1.2152195 1.0641952 3.0889756 1.6103415 5.8407805 2.304 2.2021463.5549269 5.6282927 1.115122 5.6282927 4.3358049 0 1.0993171-1.6893659 3.3084878-5.0944391 3.3084878-4.1601951 0-5.4280975-2.6306341-5.5036097-3.8388292h-3.1399024c.0561951 1.1818536.756878 6.5151219 8.6435121 6.5151219 6.8241952 0 8.3379516-4.5272195 8.3379516-6.3465366.0017558-5.940878-6.1059516-6.3974634-8.0692686-6.9225366-1.9633171-.5268292-5.1278049-.8411707-5.1278049-3.7404878 0-1.1432195 1.0360976-3.3681951 4.697561-3.3681951 4.0442927 0 4.860878 2.5428293 4.9416585 3.7194146h3.1381464c-.0649757-1.0958048-.161561-2.1178536-.7867318-3.0573658-.6971707-1.0483903-1.6823414-1.8702439-2.952-2.4673171-1.2714146-.5970732-2.718439-.8956097-4.3410731-.8956097zm-21.2979512 2.7693658c2.2197073 0 3.9477073.7129756 5.1822439 2.1371707 1.2345365 1.4241952 1.9738536 3.2628293 1.9738536 5.9268293v1.6665366c-.0351219 2.6025366-.7797073 4.3059512-1.9914146 5.7002927-1.2117073 1.3925853-2.9186342 2.0897561-5.1278049 2.0897561-2.196878 0-3.9213659-.7393171-5.1717073-2.214439-1.2538537-1.475122-2.0001951-3.0801952-2.0001951-5.6616586v-1.6507317c.0351219-2.5287805.7937561-4.4323902 2.035317-5.8565854 1.2380488-1.4241951 2.9379513-2.1371707 5.0997074-2.1371707zm12.1100487-14.8056585c-.5637073 0-1.0817561.0983414-1.5541463.2932683-.4723903.1949268-.8446829.4600975-1.1186342.7955122-.2757073.3354146-.4126829.6831219-.4126829 1.0413658h1.3346342c0-.3143414.1598048-.5830244.4811707-.8042927s.7182439-.3319024 1.1923902-.3319024c.5408781 0 .9482927.1281951 1.2275122.3828293.2774635.2563902.4161952.5988292.4161952 1.0290731v.5654634h-1.2924878c-1.1133659 0-1.979122.2072196-2.5937561.6216586-.6146342.414439-.9219513.9974634-.9219513 1.7473171 0 .6181463.2440976 1.1256585.7358049 1.5278048.4899512.4021464 1.1186342.6023415 1.8825366.6023415.8569756 0 1.5945366-.2967805 2.2109268-.8920976.0474147.3635122.1106342.6163903.1861464.7586342h1.3925853v-.107122c-.1826341-.3916097-.2739512-.9166829-.2739512-1.5787317v-3.3155122c-.017561-.7287805-.2827317-1.2995122-.7884878-1.7139512s-1.2081951-.6216585-2.1038049-.6216585zm7.9182439-.0017561c-.684878 0-1.278439.1510244-1.7806829.4530731-.5022439.3020488-.8868293.7252683-1.1555122 1.2714147-.2669268.5461463-.4021463 1.169561-.4021463 1.8702439v.2072195c0 1.1361951.3020488 2.0300488.9061463 2.6850732.6058537.6550244 1.4189268.9816585 2.4409756.9816585.5092683 0 .990439-.108878 1.4470244-.3319024s.8200976-.5180488 1.0922927-.8920976.4214634-.7656585.4442927-1.1783415h-1.2134634c-.0368781.3986342-.2265366.7322927-.5689756.9974635-.3441952.2669268-.7428293.4003902-1.2011708.4003902-.6620488 0-1.171317-.2230244-1.5260488-.6708293-.3564878-.4495609-.5356097-1.0870244-.5356097-1.9176585v-.2318049c0-.8534634.180878-1.5049756.5391219-1.9562927.3582439-.451317.864-.6760975 1.5155122-.6760975.484683 0 .8938537.1492683 1.224.4495609.3301464.3002927.5145366.683122.5514147 1.1484879h1.2134634c-.0368781-.772683-.3354147-1.4013659-.8920976-1.8842927-.5566829-.4829269-1.2573658-.7252683-2.0985366-.7252683zm-15.3992195 0c-.5303414 0-.9921951.1053658-1.3820488.3196097-.3898536.2142439-.7059512.4934634-.9482926.8394147-.3705366-.772683-1.0659513-1.1590244-2.088-1.1590244-.9096586 0-1.6314147.3108292-2.1670244.9324878l-.0333659-.7990244v-.0035122h-1.1800975v7.2035122h1.2485853v-5.2595122c.3020488-.6866342.8622439-1.0308293 1.6823415-1.0308293 1.0396097 0 1.5594146.5250732 1.5594146 1.5717073v4.7186342h1.2556098v-4.7800976c.0474146-.4600975.2265366-.8271219.5320975-1.1010731.3073171-.2721952.6919025-.4091708 1.1555122-.4091708.5637073 0 .9640976.1281951 1.2029269.3828293.2388292.2563902.3564878.6409756.3564878 1.1555122v4.7537561h1.2503414v-4.8257561c-.0263414-1.6718049-.8429268-2.5094634-2.4444878-2.5094634zm9.0456586 3.8405853v1.4803903c-.1685854.3196097-.4372683.5795122-.8130732.7779512-.3722927.2001951-.7674146.2985366-1.1836098.2985366-.4355122 0-.792-.1088781-1.0694634-.3266342-.2792195-.2177561-.4161951-.5180487-.4161951-.9061463 0-.8833171.8130732-1.3240976 2.4409756-1.3240976z" /></svg>
