<svg height="70" viewBox="0 0 70 70" width="70" xmlns="http://www.w3.org/2000/svg"><path d="m22.157184 5.00818629c-.1420591.01728946-.2815702.06274634-.4132636.13745325-.5267732.29882766-.7088152.96061659-.4046533 1.47815144l2.9638743 5.04347792c-3.8028422 2.9661807-6.5006277 7.3647386-7.3031414 12.3327311h37c-.6984099-5.0833129-3.4076069-9.5199378-7.2966835-12.4659551l2.8842346-4.91025392c.3041619-.51753485.1221199-1.17932378-.4046533-1.47815144-.5267733-.29882765-1.2003763-.12209231-1.5045383.39544254l-2.8110527 4.78337402c-2.6676249-1.56591299-5.7467314-2.49868403-9.0465967-2.56086032-3.5426614-.06653539-6.8659636.91082052-9.7138453 2.64121772l-2.8584061-4.86373142c-.2281215-.38815114-.6650964-.58476436-1.0912747-.53289579zm5.342816 10.99181371c.828 0 1.5.672 1.5 1.5s-.672 1.5-1.5 1.5-1.5-.672-1.5-1.5.672-1.5 1.5-1.5zm16 0c.828 0 1.5.672 1.5 1.5s-.672 1.5-1.5 1.5-1.5-.672-1.5-1.5.672-1.5 1.5-1.5zm-26.4574914 11c-.0130577.289252-.0425086.5751047-.0425086.8665315v22.8951495c0 2.4575542 1.9490294 4.4515985 4.3529412 4.4515985h3.2647059v7.068187c0 1.5017179 1.2177353 2.7185335 2.7205882 2.7185335s2.7205882-1.2168156 2.7205882-2.7185335v-7.068187h10.882353v7.068187c0 1.5017179 1.2177353 2.7185335 2.7205882 2.7185335s2.7205882-1.2168156 2.7205882-2.7185335v-7.068187h3.2647059c2.4039118 0 4.3529412-1.9940443 4.3529412-4.4515985v-22.7910797zm-6.5425086 1c-1.381 0-2.5 1.2050769-2.5 2.6923077v8.6153846c0 1.4872308 1.119 2.6923077 2.5 2.6923077s2.5-1.2050769 2.5-2.6923077v-8.6153846c0-1.4872308-1.119-2.6923077-2.5-2.6923077zm50 0c-1.381 0-2.5 1.2050769-2.5 2.6923077v8.6153846c0 1.4872308 1.119 2.6923077 2.5 2.6923077s2.5-1.2050769 2.5-2.6923077v-8.6153846c0-1.4872308-1.119-2.6923077-2.5-2.6923077z" /></svg>
