<svg height="70" viewBox="0 0 70 70" width="70" xmlns="http://www.w3.org/2000/svg"><path d="m20.9090909 4c-9.3281818 0-16.9090909 7.5809091-16.9090909 16.9090909v28.1818182c0 9.3281818 7.5809091 16.9090909 16.9090909 16.9090909h28.1818182c9.3281818 0 16.9090909-7.5809091 16.9090909-16.9090909v-28.1818182c0-9.3281818-7.5809091-16.9090909-16.9090909-16.9090909zm-4.7639377 21.2354396c.9863637 0 1.7200815.7047667 1.7200815 1.6347667 0 .9159091-.7337178 1.6210041-1.7200815 1.6210041-1.0004545 0-1.7310907-.705095-1.7310907-1.6210041 0-.93.7306362-1.6347667 1.7310907-1.6347667zm14.682616.8036229c5.1431818 0 8.3141873 3.5913105 8.3141873 9.3544924 0 5.7490909-3.1428237 9.3710055-8.3141873 9.3710055-5.1995455 0-8.3554681-3.6078237-8.3554681-9.3710055 0-5.7772728 3.2263772-9.3544924 8.3554681-9.3544924zm18.2218578 0c3.6213636 0 6.2681422 2.1117651 6.4372331 5.1272196h-2.7053432c-.2677273-1.6486363-1.6904695-2.6750717-3.775924-2.6750717-2.1981819 0-3.6493257 1.040856-3.6493257 2.6613106 0 1.2681818.9304411 2.0016798 3.269532 2.5512253l1.959517.4788711c3.6777273.8595454 5.1850135 2.3395305 5.1850135 5.0308941 0 3.424091-2.6499716 5.5648086-6.8913352 5.5648086-3.9595455 0-6.622506-2.0414204-6.8197788-5.2400568h2.7493788c.2395454 1.6909091 1.900951 2.7741477 4.2823146 2.7741477 2.2263636 0 3.8612388-1.154354 3.8612388-2.7466267 0-1.3527273-1.0288562-2.1692293-3.3961289-2.7328656l-2.3117898-.5504262c-3.2268182-.760909-4.7061438-2.3246688-4.7061438-4.9455779 0-3.1845455 2.6083597-5.2978521 6.5115416-5.2978521zm-18.2218578 2.5787463c-3.3677273 0-5.5070133 2.6330188-5.5070133 6.7757461 0 4.1286363 2.0688315 6.7922578 5.5070133 6.7922578 3.3959091 0 5.4822457-2.6636215 5.4822457-6.7922578 0-4.1427273-2.0863352-6.7757461-5.4822457-6.7757461zm-16.0063907 2.2402347h2.6503014v13.4854396h-2.6503014z"/></svg>