<svg height="38" viewBox="0 0 115 38" width="115" xmlns="http://www.w3.org/2000/svg"><g fill="none"><g fill="#2c2260" transform="translate(40.85 9.5)"><path d="m11.5217735.88432811c-.9966067-.58887833-2.13443134-.89453624-3.29149553-.88406797h-8.23027797v19.90932926h3.4969735v-6.8205357h4.73330447c1.15706419.0107762 2.29527363-.2949202 3.29149553-.884068.9750584-.5779097 1.7885049-1.3930873 2.3649207-2.3697532.5806484-.99991163.8861718-2.13571826.8861718-3.29211503 0-1.15643527-.3055234-2.29224189-.8861718-3.29215352-.5771854-.97497253-1.3906319-1.78884156-2.3649207-2.36663584zm-1.76387836 8.30629795c-.46405701.27556165-.99429793.41884601-1.53377381.41438161h-4.73330447v-6.12073999h4.73330447c.53947588-.0058884 1.07048638.13751142 1.53377381.41438161.45866996.270366.84269056.65130304 1.11666116 1.108135.2724315.46549136.4159583.99525479.4159583 1.53479373 0 .53950045-.1435268 1.06930236-.4159583 1.53479372-.2735858.45883324-.6576064.84188703-1.11666116 1.11425432z"/><path d="m22.7487977 5.40580988c-.6718437.22853143-1.3102107.54542733-1.898555.94237466v-1.34143549h-3.5000518v14.90284035h3.5000518v-7.038368c-.0080805-.7724578.1943191-1.5323306.5856508-2.1979505.3836358-.6509567.92619-1.19380543 1.5768703-1.57778288.6653023-.3917132 1.4244934-.59445884 2.1963825-.58629975h1.4479656v-3.50243922h-1.4479656c-.8365339-.00250485-1.6676808.13227404-2.4603486.39906083z"/><path d="m40.822779 7.10024463c-.6910832-.69013569-1.5072233-1.24225964-2.4049389-1.62685288-.9227269-.38736424-1.9131769-.58683855-2.9140163-.58683855-1.0008393 0-1.9912894.19947431-2.9140163.58683855-1.8065901.77603703-3.2460903 2.2165779-4.0218274 4.02420075-.3886381.9230546-.588729 1.9145377-.588729 2.9161427 0 1.001682.2000909 1.9930882.588729 2.9159888.7591911 1.8138576 2.1921499 3.2620957 3.9972008 4.0395183.9238813.383708 1.9139466.5807577 2.9140164.5807577 1.0000697 0 1.9905197-.1970497 2.9144011-.5807577 1.8146706-.7635675 3.2580187-2.2083419 4.0214425-4.0241238.3832511-.9244401.5802637-1.9154614.5802637-2.9160657 0-1.0007584-.1970126-1.9916642-.5802637-2.91610428-.3701682-.89942399-.9107984-1.71871958-1.5922619-2.41270389zm-5.3220335 9.36828787c-.715325.0073124-1.4191063-.1828097-2.0340011-.5491989-.6025815-.3575374-1.1055023-.8613226-1.4629724-1.4644024-.361318-.6142408-.5483261-1.3158454-.5398607-2.0289189-.007311-.7157675.1789275-1.4201431.5398607-2.0382325.354007-.60492711.8580822-1.1081735 1.4629724-1.46109254.6183579-.35403514 1.3186761-.54027017 2.0309228-.54027017s1.4125649.18623503 2.0309228.54027017c.603351.3566907 1.1066566.86039892 1.4629724 1.46417144.359394.6167809.5490956 1.3180391.5490956 2.0320747 0 .7138433-.1897016 1.4154479-.5490956 2.0319978-.3613181.6000009-.8634693 1.1030163-1.4629724 1.4644024-.6122013.3671589-1.3140586.5572811-2.0278445.5491989z"/><path d="m55.0226924 11.3823418c-.8800152-.4488268-1.830447-.7436701-2.8097382-.8717908l-2.0859477-.2670177c-.50446-.0447596-.9942979-.1931241-1.4387307-.43589545-.3405393-.2025917-.5156188-.42053941-.5156188-.64768534 0-.29161043.2670444-.55558771.7945918-.78277213 1.3348372-.49531822 2.8031967-.49531822 4.138034 0 .5279321.22718442.7945918.4911617.7945918.78277213v.14732542h3.6043299v-.14732542c-.0023087-.86012952-.3189911-1.68970094-.889635-2.33288339-.6406757-.72700553-1.4433481-1.29275361-2.3433724-1.65144559-2.0782519-.82252844-4.3912259-.82252844-6.4694779 0-.9000243.35869198-1.7030815.92444006-2.3437572 1.65144559-.5706439.64318245-.8869415 1.47275387-.889635 2.33288339-.0015392.76368294.2497288 1.50635239.7149402 2.11185679.5133102.6656584 1.1682231 1.2087766 1.9170249 1.5901754.8442297.4429769 1.7642631.7243115 2.7120014.8286093l2.085563.2670947c.5544827.053111 1.0920347.2193717 1.5799486.4880058.3805576.227069.5706439.4760751.5706439.7366271 0 .3286727-.2912862.6142408-.8650084.8751776-1.4495047.5395775-3.0444602.5395775-4.4939649 0-.5737222-.254779-.8650084-.5465049-.8650084-.8751776v-.1439386h-3.6074083v.1350868c.0023087.8867235.3297652 1.7418883.9200334 2.4034672.6645327.7512518 1.4983731 1.3331641 2.4326437 1.6972442 2.1625211.8351519 4.558225.8351519 6.7211308 0 .9338858-.3644649 1.7677262-.9463772 2.4322589-1.6972442.5902682-.6615789.9177247-1.5167437.9204182-2.4034672-.0065414-.7781923-.2674292-1.5329079-.7422603-2.149073-.528317-.6884808-1.2047782-1.2496875-1.9785913-1.642055z"/><path d="m73.5260996 9.45768225c-.7707348-1.8108557-2.2117741-3.2529745-4.0214425-4.02420075-.922727-.38736425-1.9135618-.58683856-2.9144012-.58683856-1.0004545 0-1.9912893.19947431-2.9140163.58683856-1.80659.77603703-3.2460903 2.21657789-4.0214425 4.02420075-.3886382.92305455-.5891139 1.91453765-.5891139 2.91614275 0 1.0015665.2004757 1.9929727.5891139 2.9162581.7680412 1.8123182 2.210235 3.2551683 4.0214425 4.0241238.9250357.3898659 1.9197184.5873004 2.9232513.579988 1.0200789.0053881 2.0293836-.2039772 2.9632695-.6138559.9065657-.3991026 1.7288624-.9667749 2.4234088-1.6729979.6933919-.7035289 1.2401788-1.538296 1.6072687-2.4554236l.0800364-.2028227h-3.9910442l-.0427117.0523414c-.3782488.4337402-.841921.7851197-1.3621573 1.0314318-.6483716.3021172-1.3652357.4264278-2.0770976.3598466-.7122467-.0661964-1.3937102-.3209754-1.9751282-.7373968-.6106621-.439898-1.0889563-1.0387443-1.3837057-1.731497h11.0892693l.0215483-.1166134c.0981215-.4726113.1477594-.9538436.1473746-1.4364613.0069263-.9997962-.1881624-1.990702-.5737222-2.91306385zm-6.938922-1.11425432c.8307621-.00792817 1.6426695.24785154 2.3191307.73058475.6087381.42227129 1.0878019 1.00580002 1.3837056 1.68519802h-7.4022094c.2935949-.6772043.7680412-1.26027118 1.3713923-1.68519802.67877-.48496541 1.4941404-.74089907 2.3279808-.73058475z"/></g><g><path d="m8.29094392 19.8779375v9.4463567c.00662517.2485083-.06224583.4931637-.19748413.7016024-.13523831.2088239-.33052689.3714138-.56005837.466579-.22953149.0951652-.4824822.1186675-.72553367.0666541-.24301294-.051628-.46468666-.1756895-.63570861-.3560025l-3.76163551-3.77039c-.2750603-.2754781-.4808259-.6126017-.60031016-.983245-.11944573-.3706433-.14925902-.7644036-.08685912-1.1485319.06236139-.3845135.21508707-.748607.44562004-1.0622282.23053296-.3140065.53224804-.568294.8802623-.7424424z" fill="#2c2260"/><path d="m16.5818107 1.40029063v12.76503977c0 .4703933-.1312323.9314628-.3785594 1.3314647-.247327.4000405-.601119.7232168-1.021702.9333122l-6.8906439 3.4478302-5.24170723 2.6245167c-.34693574.1741484-.64761082.4284359-.87737342.7416719-.22972408.3132359-.38202606.6765588-.44434892 1.0603018-.06232287.3833576-.03289476.7763474.08581912 1.1462201.11875241.3698728.32340097.7066111.59719016.9820892l-.35309869-.3536908c-.65238712-.6526713-1.16984407-1.4278628-1.52286573-2.2812671-.35298315-.853019-.53452069-1.7672981-.53452069-2.6906314v-12.11051915c0-.47039334.13123244-.93146281.37855945-1.33150328.24732702-.40000193.60111905-.72317823 1.02170208-.93327364l13.15794357-6.58535267c.2133922-.10614577.4503578-.15607859.6884404-.14498241.238044.01109619.4693474.08279755.671993.20836164.2026456.12552555.3698927.30075276.4859488.50907586.1160561.20832311.1770308.44284553.1772234.68133638z" fill="#69daff"/><path d="m27.3508781 15.4989912-5.2419769 2.6366146v-9.4585702c-.0065481-.24854676.0623999-.49327922.1975997-.70183349.1351998-.20855428.3304884-.37118269.5600584-.46638639s.4826362-.11851338.7256877-.06684679c.2430515.0516666.4645326.17584366.6355546.35619514l3.4084982 3.41099713.3532143.3533825c.2750218.2754396.4807103.6123705.6001176.9830138.1197924.3706048.1494516.7643651.0870517 1.1487631-.0623999.3843979-.2153182.7484914-.4456586 1.0622282-.2303404.3137754-.5323251.568217-.8801467.7424424z" fill="#2c2260"/><path d="m30.4 16.8879404v12.1134858c.0003843.4712024-.1305784.9327728-.3778669 1.3334682-.2472885.4006955-.6012731.7243341-1.0222799.9343139l-13.1581361 6.5825786c-.2130841.1067237-.4499726.1575812-.6881322.1467933-.2381211-.0104027-.4696171-.0816802-.6724553-.2072829-.2027996-.1252173-.3702009-.3005215-.486257-.5089602-.1160561-.2080534-.1767229-.4426914-.1767229-.6815676v-12.7648471c0-.4704318.1311941-.9316169.3785211-1.3315418s.6011191-.7231782 1.0217021-.9332351l6.8905283-3.4355782 5.2419769-2.6242855c.3478216-.1742255.6494212-.4286671.8801467-.7424424.2303404-.3137369.3832587-.6778303.4456586-1.0622283.0623999-.3844364.0323555-.7781582-.0870517-1.148763-.1194073-.3706433-.3250958-.7075742-.6001176-.9830138l.3532142.3503003c1.3138646 1.3172092 2.0538042 3.1014983 2.0572717 4.9628058z" fill="#ff86a1"/></g></g></svg>