<svg height="87" viewBox="0 0 297 87" width="297" xmlns="http://www.w3.org/2000/svg"><g fill="#1d1d28"><path d="m95.1397974 68.666456h8.6350916v-17.3653222h13.144302c9.507604-.0091656 17.212754-7.7143152 17.221919-17.2219198-.009165-9.5076046-7.714315-17.2127542-17.221919-17.2219198h-21.7793936zm21.7793936-43.223026c4.763448.0134458 8.621645 3.8716426 8.635091 8.6350912-.013446 4.7634487-3.871643 8.6216455-8.635091 8.6350913h-13.144302v-17.2699516zm25.089426 43.223026h8.634861v-17.557911c-.004421-3.2202913 1.272878-6.3099591 3.54997-8.587051s5.366759-3.5543905 8.587051-3.5499699h3.501929v-8.6350991h-3.501929c-4.367262-.0038116-8.620854 1.3917428-12.137021 3.982024v-3.982024h-8.634861zm67.065014-19.1408802c0-10.9856447-8.92282-19.9084645-19.860433-19.9084645-10.992344.0067514-19.901713 8.9161209-19.908465 19.9084645 0 10.9376128 8.92282 19.8604327 19.908465 19.8604327 10.959497-.0219789 19.838454-8.9009355 19.860433-19.8604327zm-8.58706 0c-.026689 6.2150235-5.05835 11.246684-11.273373 11.2733732-6.221842-.0102976-11.263076-5.0515315-11.273381-11.2733732-.003429-2.9909368 1.183194-5.8603607 3.298107-7.9752737 2.114913-2.1149131 4.984337-3.3015364 7.975274-3.298107 6.221932.010178 11.263306 5.051449 11.273604 11.2733807zm49.123541-8.2991c0-6.6200673-7.627579-11.9931566-17.030024-11.9931566-9.402444 0-17.030024 5.3728584-17.030024 11.9931566h8.92282c0-1.9189605 3.645794-3.5019297 8.107204-3.5019297s8.107204 1.5829692 8.107204 3.5019297zm-34.731799 16.2144078c0 6.8121943 7.915308 12.328917 17.701775 12.328917 9.738436 0 17.701776-5.5167227 17.701776-12.328917 0-6.0924108-6.284307-11.0814772-14.583638-12.1848217l-5.612786-.7195525c-3.262002-.3837921-5.612787-1.7748652-5.612787-3.3100336h-8.92282c0 5.9005148 6.092411 10.7937486 14.055751 11.800106l5.612786.7195524c3.549962.4796247 6.140443 1.9667613 6.140443 3.6947494 0 2.1108565-3.933754 3.8376901-8.778956 3.8376901s-8.778955-1.7270645-8.778955-3.8376901zm79.72969-.5745335h-9.929639c-2.137021 2.4931664-5.255783 3.9294161-8.539489 3.9325989-4.770689-.0061826-9.027406-2.9973941-10.649885-7.4837149h30.127218c.248761-1.2481272.37728-2.5172303.383792-3.7898893 0-10.9856446-8.92282-19.9084644-19.860433-19.9084644-10.992343.0067514-19.901713 8.9161209-19.908464 19.9084644 0 10.9376129 8.92282 19.8604328 19.908464 19.8604328 8.13581-.0078766 15.448354-4.9649208 18.468436-12.5194275zm-18.469359-18.6123002c4.688274.010809 8.884763 2.9104268 10.553128 7.2918189h-21.106949c1.645148-4.4002044 5.85639-7.3104985 10.554052-7.2937389z" stroke="#1d1d28"/><path d="m18.8932816 45.2680493v21.509927c0 2.5191833-3.0440256 3.7857471-4.8283111 2.0013133l-8.57192843-8.5719285c-1.27314666-1.2718682-1.85677471-3.0785072-1.56833792-4.8548392.28843679-1.7763321 1.41372262-3.3054814 3.02389242-4.1091633z" fill-opacity=".6"/><path d="m37.7873055 3.19033005v29.06821865c0 2.1850274-1.2355308 4.1821845-3.1908872 5.1573388l-15.7026917 7.85142-11.94498168 5.9759028c-1.61016981.8036818-2.73545563 2.3328312-3.02389242 4.1091632-.2884368 1.7763321.29519125 3.582971 1.56833791 4.8548393l-.80476796-.804768c-3.00238195-3.0029761-4.68885916-7.0756544-4.68842245-11.3220838v-27.5920443c0-2.1850274 1.23553011-4.1821845 3.1908865-5.1573388l29.9849866-14.99568271c.9886335-.49319185 2.1621308-.43939412 3.1014926.14218462.9393617.58157874 1.5106704 1.60802725 1.5099398 2.71285024"/><g transform="translate(31.489492 16.926507)"><path d="m30.838563 18.371024-11.9449816 5.9759028v-21.51081711c0-2.51918332 3.0440255-3.78574716 4.828311-2.00131328l7.7674572 7.76745716.8047679.80476796c1.2731467 1.27186827 1.8567748 3.07850717 1.568338 4.85483927-.2884368 1.776332-1.4137227 3.3054814-3.0238925 4.1091632" fill-opacity=".6"/><path d="m37.7873079 21.5343184v27.5847754c.0021449 2.1873609-1.2337202 4.1875549-3.1908864 5.164311l-29.98498663 14.9888588c-.98725709.4961373-2.16120247.4446924-3.10127462-.1359048-.94007214-.5805973-1.51172158-1.6072478-1.51016025-2.7121579v-29.0682186c0-2.1850274 1.23553322-4.1821845 3.19088962-5.1573388l15.70284008-7.8512717 11.9449817-5.9760511c1.6102144-.8036246 2.735565-2.332747 3.0240613-4.1090839.2884964-1.7763369-.2950851-3.5830084-1.5682101-4.85491858l.8047679.79779578c3.0014763 3.0064906 4.6876218 7.0809289 4.6884224 11.3292044"/></g></g></svg>