<svg height="98" viewBox="0 0 292 98" width="292" xmlns="http://www.w3.org/2000/svg"><g fill="#1d1d28"><g transform="translate(102.24218 23.130445)"><path d="m29.3507668 2.25232893c-2.537793-1.49983663-5.4363074-2.2783284-8.3848132-2.25166638h-20.9659536v50.70782875h8.90923151v-17.3714821h12.05672209c2.9485058.0274462 5.8470202-.7511436 8.3848132-2.2516664 2.484861-1.4719003 4.5570488-3.5481071 6.0254204-6.0356147 1.4791539-2.546713 2.2574496-5.4395422 2.2574496-8.3848131 0-2.945369-.7782957-5.8381982-2.2574496-8.38491116-1.4713122-2.48319465-3.5425199-4.55606866-6.0254204-6.02767491zm-4.4923543 21.15562647c-1.1821469.7018385-2.5338721 1.0667749-3.9071622 1.0554043h-12.05770233v-15.5891457h12.05770233c1.3742703-.01499739 2.7259955.35023307 3.9071622 1.05540429 1.1684238.68860551 2.1457044 1.65882851 2.843622 2.82235121.6949769 1.1855777 1.0605995 2.5348523 1.0605995 3.9090246 0 1.3740742-.3656226 2.7234469-1.0605995 3.9090246-.6959571 1.1686198-1.674218 2.1442341-2.843622 2.8379367z"/><path d="m57.9516642 13.768263c-1.7114664.5820554-3.3376536 1.3891696-4.8373922 2.4001699v-3.4165532h-8.916093v37.9566116h8.916093v-17.9262874c-.0205846-1.9674022.495992-3.9027512 1.4928771-5.5980439.9772806-1.6579463 2.3593927-3.0405485 4.0169469-4.0185153 1.6938224-.9976693 3.6287793-1.5140499 5.5951033-1.4932692h3.6875925v-8.9204958h-3.6875925c-2.1310012-.0063796-4.2482792.3368939-6.2675351 1.0163833z"/><path d="m103.993639 18.0838833c-1.760477-1.7577328-3.839526-3.1639583-6.1263827-4.1434935-2.3505708-.9865927-4.8746406-1.4946414-7.423216-1.4946414-2.5495557 0-5.0736256.5080487-7.4241963 1.4946414-4.6011588 1.9765183-8.269147 5.6454867-10.2442929 10.2493901-.9900235 2.3509628-1.4997386 4.876209-1.4997386 7.4272349 0 2.551222.5097151 5.0762721 1.4997386 7.4268428 1.9339767 4.6197831 5.5843208 8.3083559 10.182539 10.2884029 2.3525311.9772807 4.8756208 1.479154 7.423216 1.479154s5.0706848-.5018733 7.423216-1.479154c4.6227239-1.9447591 8.3005139-5.6245099 10.2452729-10.249194.97532-2.3544916 1.478174-4.8785615 1.478174-7.4270389 0-2.5488695-.502854-5.0726453-1.478174-7.4271369-.942973-2.2907772-2.320184-4.3774723-4.056156-6.1450074zm-13.5574405 23.8604492c-1.8232117.0186242-3.6150562-.4656051-5.1814499-1.3987758-1.5350265-.9106256-2.817156-2.1937353-3.7268014-3.7297421-.921408-1.5644332-1.3968154-3.3513767-1.3752505-5.1675307-.0196044-1.8230156.4558029-3.6170167 1.3752505-5.1912521.9018036-1.5407118 2.1849133-2.8224492 3.7268014-3.7213122 1.5752157-.9017056 3.3582382-1.3760347 5.1736081-1.3760347 1.8143897 0 3.5974122.4743291 5.1726279 1.3760347 1.536987.9084691 2.8191165 2.1913828 3.7277816 3.729154.9155268 1.5709027 1.3977958 3.3569639 1.3977958 5.1755685 0 1.8181145-.482269 3.605058-1.3977958 5.1753725-.9204278 1.528165-2.1996166 2.8093143-3.7277816 3.7297421-1.5585519.9351311-3.3474558 1.4193604-5.1647861 1.3987758z"/><path d="m140.166747 28.9901197c-2.242747-1.1431341-4.662913-1.8940816-7.158557-2.2203973l-5.313779-.6800775c-1.285071-.1139998-2.531912-.4918751-3.665048-1.1101987-.866516-.5159885-1.312516-1.0710878-1.312516-1.6496144 0-.7427137.680273-1.4150475 2.024157-1.9936722 3.400387-1.2615448 7.140912-1.2615448 10.5413 0 1.343883.5786247 2.024157 1.2509585 2.024157 1.9936722v.3752287h9.181733v-.3752287c-.006862-2.1906967-.812604-4.3035637-2.266272-5.9417095-1.632068-1.8516381-3.67779-3.2925634-5.969548-4.2061297-5.294175-2.094929-11.187266-2.094929-16.480461 0-2.292737.9135663-4.338459 2.3544916-5.970528 4.2061297-1.453668 1.6381458-2.25941 3.7510128-2.266271 5.9417095-.003921 1.9450531.636163 3.8365862 1.820271 5.3787684 1.308595 1.6953907 2.976932 3.0786791 4.884442 4.0500784 2.150606 1.1282347 4.493335 1.8447765 6.90762 2.1104165l5.31378.6802736c1.412499.1352705 2.781868.5587261 4.024789 1.2429206.968458.5783306 1.453668 1.2125337 1.453668 1.8761436 0 .837109-.743008 1.5644332-2.203538 2.2290232-3.692493 1.3742703-7.756491 1.3742703-11.448004 0-1.46151-.6489065-2.204518-1.3919142-2.204518-2.2290232v-.3666028h-9.189575v.3440577c.006862 2.2584299.84103 4.4364816 2.344689 6.1214821 1.691862 1.913392 3.816982 3.3954866 6.196959 4.322776 5.508844 2.1270802 11.611702 2.1270802 17.120546 0 2.379977-.9282696 4.503137-2.4103642 6.196959-4.322776 1.50366-1.6850005 2.337828-3.8630522 2.344689-6.1214821-.016663-1.9820075-.681253-3.9042215-1.890846-5.4735558-1.346825-1.7535179-3.069073-3.1828766-5.040298-4.1822123z"/><path d="m187.302649 24.088131c-1.963384-4.6121374-5.634312-8.2851246-10.244293-10.2493901-2.350571-.9865928-4.874641-1.4946415-7.424196-1.4946415-2.548576 0-5.072646.5080487-7.423216 1.4946415-4.602139 1.9765182-8.269147 5.6454866-10.244293 10.2493901-.990024 2.3509628-1.500719 4.8762089-1.500719 7.4272349 0 2.5509279.510695 5.075978 1.500719 7.4275289 1.956521 4.6158622 5.630391 8.2907119 10.244293 10.2491941 2.356452.9929642 4.890324 1.4958177 7.446741 1.4771935 2.598567.0137231 5.169687-.5195173 7.548684-1.563453 2.309402-1.0164895 4.404135-2.4623159 6.173434-4.261022 1.766359-1.7918446 3.159253-3.9179446 4.094385-6.253812l.203886-.5165766h-10.166856l-.108804.1333101c-.963558 1.1047094-2.144725 1.9996514-3.469984 2.6269931-1.651673.7694737-3.477825 1.0860852-5.291235.9165069-1.814389-.1685981-3.550361-.8175046-5.031476-1.878104-1.555611-1.120393-2.774026-2.6456174-3.524875-4.4100157h28.248998l.054892-.2970071c.249956-1.2037117.376405-2.4293805.375425-3.658578.017644-2.5464189-.479328-5.0701947-1.46151-7.4193931zm-17.676331-2.8379368c2.116298-.0201925 4.184565.6312625 5.907794 1.8607541 1.55071 1.0754989 2.771085 2.5617104 3.524876 4.2920951h-18.856518c.747909-1.7247974 1.956522-3.2098327 3.493509-4.2920951 1.72911-1.2351768 3.806199-1.887024 5.930339-1.8607541z"/></g><path d="m7.07053251 60.6471174c.407478-.5587261.93983619-1.0096279 1.55237649-1.3183976l10.5550231-5.3062321v21.1024985l.0006861.0254858c.0066656.2519168-.0626361.4979524-.1972205.7067395-.1344863.2087872-.3270018.3695435-.5506883.4626645-.2233925.093121-.4689379.1156661-.7047791.0656748-.2358413-.0509715-.4529603-.1725189-.6218524-.3518994l-.0166638-.017644-9.59009323-9.6738042c-.48579768-.4901106-.85014595-1.0900061-1.06197177-1.7506752-.21182583-.6616494-.26465976-1.3644681-.15399277-2.050623.11066699-.6871351.38150214-1.3360417.78917618-1.8937876z"/><path d="m42.195881 3.58618033v32.69155707c0 1.2046919-.3339614 2.3854665-.9633615 3.4098958-.6293021 1.0245274-1.5296353 1.8522262-2.599841 2.3901717l-17.5346889 8.8300296-13.33865557 6.7211815c-.88278732.4469809-1.64794807 1.0978479-2.23255207 1.8996689-.58470201.8028013-.97218349 1.7330313-1.1307833 2.715213-.15859981.9821818-.08380892 1.9878889.21829529 2.9357629.3021042.9468938.82299381 1.8094885 1.51973512 2.5142676l-.89856888-.9047442c-1.66010281-1.6722576-2.97693212-3.6572058-3.87520693-5.8421191s-1.36025326-4.526662-1.36025326-6.8912498v-31.0152806c0-1.204692.33396154-2.3854666.96336165-3.4099939.6294001-1.0244293 1.52963535-1.8520302 2.59984098-2.3900736l33.48318377-16.86519782c.5431406-.27191339 1.1460747-.39973425 1.7518515-.37140586.6058748.02842642 1.1944977.21211989 1.7100941.53363248.5156945.3215126.9413065.77025791 1.2365492 1.30379237.2953407.53343644.4509998 1.13411606.4509998 1.74489196z"/><path d="m70.2889258 36.6595336c-.407772.558432-.9400322 1.01002-1.5526705 1.3186917l-10.5550231 5.3429903v-21.1245534-.0253878c-.0068616-.2514267.0627341-.4978544.1970245-.7066415.1342903-.2085911.3273939-.3690533.5508843-.4624684.2234905-.0932191.4685458-.1158622.7047792-.0654788.2352531.0504814.4528622.1722249.6214603.3514093l.0176439.0182321 9.5895051 9.6580226c.4852096.4896206.8498519 1.089516 1.0615797 1.7507733.2117278.6613553.2646598 1.364272.1538948 2.050623-.110765.6863509-.3813061 1.3353555-.7890782 1.8937876z"/><path d="m77.3592643 43.2505417v31.0236124c.0009781 1.2056722-.3322972 2.3878191-.9615993 3.4141108-.629302 1.0262917-1.5301254 1.8545788-2.6015073 2.3937005l-33.4836739 16.8568659c-.5421604.274462-1.1449965.4038512-1.7509693.376405-.6060709-.026466-1.1951839-.2097674-1.7112704-.5302998-.5160865-.3215126-.9420907-.7694737-1.2374314-1.3036943-.2953407-.5332404-.4497263-1.1341161-.4497263-1.7447939v-32.6923412c0-1.204692.3339622-2.3848785.9633623-3.4092098.6293021-1.0253115 1.5295373-1.8526183 2.599841-2.3906617l17.5346889-8.7984665 13.3388516-6.7208875c.8851399-.4461967 1.6536334-1.0978478 2.2398057-1.9014333.5861724-.8034874.9753202-1.7359719 1.1341161-2.7204082.1587958-.9844362.0823386-1.9927899-.22153-2.9420362-.3038686-.9491483-.8273068-1.8120371-1.5271848-2.5175024l.8988629.8971966c3.3435349 3.3734316 5.2255598 7.9429293 5.2353642 12.7098436z"/></g></svg>