<svg height="99" viewBox="0 0 297 99" width="297" xmlns="http://www.w3.org/2000/svg"><g fill="#fff"><g transform="translate(104.3062 23.597161)"><path d="m29.943 2.29777592c-2.59-1.5301-5.547-2.3243-8.554-2.2971h-21.389v51.73099998h9.088v-17.722h12.301c3.007.028 5.965-.7663 8.554-2.2971 2.534-1.5016 4.648-3.6197 6.146-6.1574 1.509-2.5981 2.303-5.5493 2.303-8.554 0-3.0048-.794-5.956-2.303-8.55409998-1.5-2.5333-3.614-4.648-6.146-6.1493zm-4.584 21.58249998c-1.206.716-2.584 1.0883-3.986 1.0767h-12.301v-15.90369998h12.301c1.402-.0153 2.782.3573 3.986 1.07669998 1.192.7025 2.19 1.6923 2.902 2.8793.708 1.2095 1.081 2.586 1.081 3.9879 0 1.4018-.373 2.7784-1.081 3.9879-.711 1.1922-1.709 2.1875-2.902 2.8952z"/><path d="m59.12 14.0460759c-1.746.5938-3.405 1.4172-4.934 2.4486v-3.4854916h-9.096v38.7224916h9.096v-18.288c-.021-2.0071.505-3.9815 1.522-5.711.997-1.6914 2.407-3.1019 4.098-4.0996 1.729-1.0178 3.702-1.5446 5.708-1.5234h3.763v-9.1004916h-3.763c-2.174-.0065084-4.334.3436916-6.394 1.0368916z"/><path d="m106.091 18.4487759c-1.796-1.7932-3.917-3.2278-6.25-4.2271-2.398-1.0065-4.972-1.5248-7.573-1.5248s-5.175.5183-7.573 1.5248c-4.695 2.0164-8.436 5.7594-10.452 10.4562-1.01 2.3984-1.53 4.9746-1.53 7.5771 0 2.6027.52 5.1787 1.53 7.5767 1.973 4.713 5.697 8.476 10.388 10.496 2.401.997 4.974 1.509 7.573 1.509s5.173-.512 7.574-1.509c4.716-1.984 8.467-5.738 10.451-10.456.996-2.402 1.508-4.977 1.508-7.5769 0-2.6003-.512-5.175-1.508-7.577-.962-2.337-2.367-4.4658-4.138-6.269zm-13.831 24.3419c-1.859.019-3.688-.475-5.286-1.427-1.566-.929-2.873-2.238-3.802-3.805-.939-1.596-1.425-3.419-1.403-5.2718-.019-1.8598.465-3.69 1.403-5.296.92-1.5718 2.23-2.8794 3.802-3.7964 1.607-.9199 3.427-1.4038 5.278-1.4038s3.671.4839 5.278 1.4038c1.568.9268 2.876 2.2356 3.802 3.8044.934 1.6026 1.427 3.4247 1.427 5.28 0 1.8548-.493 3.6778-1.427 5.2798-.939 1.559-2.244 2.866-3.802 3.805-1.591.954-3.415 1.448-5.27 1.427z"/><path d="m142.994 29.5750759c-2.287-1.1662-4.757-1.9323-7.302-2.2652l-5.421-.6938c-1.311-.1163-2.584-.5018-3.739-1.1326-.885-.5264-1.339-1.0927-1.339-1.6829 0-.7577.693-1.4436 2.064-2.0339 3.47-1.287 7.285-1.287 10.755 0 1.371.5903 2.064 1.2762 2.064 2.0339v.3828h9.368v-.3828c-.007-2.2349-.829-4.3904-2.312-6.0616-1.666-1.889-3.752-3.359-6.091-4.291-5.401-2.1372-11.412-2.1372-16.813 0-2.339.932-4.425 2.402-6.091 4.291-1.483 1.6712-2.305 3.8267-2.311 6.0616-.005 1.9843.648 3.914 1.857 5.4873 1.334 1.7296 3.036 3.1408 4.982 4.1318 2.195 1.151 4.585 1.882 7.048 2.153l5.421.694c1.44.138 2.838.57 4.105 1.268.989.59 1.483 1.237 1.483 1.914 0 .854-.757 1.596-2.248 2.274-3.767 1.402-7.912 1.402-11.679 0-1.491-.662-2.248-1.42-2.248-2.274v-.374h-9.375v.351c.007 2.304.858 4.526 2.391 6.245 1.727 1.952 3.894 3.464 6.322 4.41 5.62 2.17 11.847 2.17 17.467 0 2.427-.947 4.594-2.459 6.322-4.41 1.534-1.719 2.384-3.941 2.391-6.245-.017-2.022-.694-3.983-1.929-5.584-1.373-1.7889-3.13-3.2471-5.142-4.2666z"/><path d="m191.081 24.5741759c-2.003-4.7052-5.748-8.4523-10.451-10.4562-2.398-1.0065-4.973-1.5248-7.574-1.5248-2.6 0-5.175.5183-7.573 1.5248-4.695 2.0164-8.436 5.7594-10.451 10.4562-1.01 2.3984-1.531 4.9746-1.531 7.5771 0 2.6024.521 5.1784 1.531 7.5774 1.996 4.709 5.744 8.458 10.451 10.456 2.404 1.013 4.989 1.526 7.597 1.507 2.651.014 5.274-.53 7.701-1.595 2.356-1.037 4.493-2.512 6.298-4.347 1.802-1.828 3.223-3.997 4.177-6.38l.208-.527h-10.372l-.111.136c-.983 1.127-2.188 2.04-3.54 2.68-1.685.785-3.548 1.108-5.398.935-1.851-.172-3.622-.834-5.133-1.916-1.587-1.143-2.83-2.699-3.596-4.499h28.819l.056-.303c.255-1.228.384-2.4784.383-3.7324.018-2.5978-.489-5.1725-1.491-7.5691zm-18.033-2.8952c2.159-.0206 4.269.644 6.027 1.8983 1.582 1.0972 2.827 2.6134 3.596 4.3787h-19.237c.763-1.7596 1.996-3.2746 3.564-4.3787 1.764-1.2601 3.883-1.9251 6.05-1.8983z"/></g><path d="m21.5246001 51.5929367v24.5179c.0172.645-.1616 1.28-.5127 1.821-.3511.542-.8581.964-1.454 1.211s-1.2526.308-1.8836.173c-.6309-.134-1.2064-.456-1.6504-.924l-9.76579996-9.786c-.7141-.715-1.2483-1.59-1.5585-2.552-.3101-.962-.3875-1.984-.2255-2.981.1619-.998.5584-1.943 1.1569-2.757.5985-.815 1.3818-1.475 2.2853-1.927z" opacity=".67"/><path d="m43.0490001 3.63443672v33.13149998c0 1.2209-.3407 2.4176-.9828 3.4558-.6421 1.0383-1.5606 1.8771-2.6525 2.4224l-17.8892 8.9488-13.60829996 6.8119c-.9007.452-1.6813 1.112-2.2778 1.925-.5964.813-.9918 1.756-1.1536 2.752-.1618.995-.0854 2.015.2228 2.975.3083.96.8396 1.834 1.5504 2.549l-.9167-.918c-1.6937-1.694-3.0371-3.706-3.9536-5.921-.9164-2.214-1.38770014-4.587-1.38770014-6.9835v-31.4327c0-1.2209.34070014-2.4176.98280014-3.4559.6421-1.0382 1.5606-1.877 2.6525-2.4223l34.16009996-17.09219998c.554-.2755 1.1692-.4051 1.7873-.3763.618.0288 1.2185.2149 1.7446.5408.5261.3258.9603.7806 1.2616 1.3213s.4596 1.1494.4601 1.7684z"/><path d="m71.0072001 40.2274367-13.609 6.8433v-24.5496c-.017-.6451.162-1.2803.513-1.8216s.858-.9634 1.454-1.2105 1.253-.3076 1.884-.1735 1.206.4564 1.65.9245l8.849 8.8532.917.9172c.714.7149 1.248 1.5894 1.558 2.5514.311.9619.388 1.9839.226 2.9816s-.559 1.9427-1.157 2.757c-.598.8144-1.382 1.4748-2.285 1.927z" opacity=".67"/><path d="m78.9232023 43.8324367v31.4404c.0009978 1.223-.3390022 2.421-.9810022 3.461s-1.561 1.88-2.654 2.425l-34.1606 17.085c-.5532.277-1.1682.409-1.7865.381-.6182-.027-1.2192-.212-1.7458-.538-.5265-.325-.9611-.78-1.2624-1.321-.3013-.54-.4588007-1.149-.4588007-1.769v-33.131c0-1.221.3406007-2.418.9827007-3.456s1.5606-1.877 2.6525-2.4222l17.8889-8.917 13.609-6.8113c.903-.4522 1.686-1.1126 2.285-1.927.598-.8143.995-1.7593 1.157-2.757.162-.9978.084-2.0197-.226-2.9816-.31-.962-.844-1.8365-1.558-2.5514l.917.9092c3.411 3.4188 5.332 8.0499 5.3410022 12.8809z"/></g></svg>