<svg fill="none" height="128" viewBox="0 0 128 128" width="128" xmlns="http://www.w3.org/2000/svg" xmlns:xlink="http://www.w3.org/1999/xlink"><filter id="a" color-interpolation-filters="sRGB" filterUnits="userSpaceOnUse" height="134.024" width="128" x="0" y="-3.01176"><feFlood flood-opacity="0" result="BackgroundImageFix"/><feBlend in="SourceGraphic" in2="BackgroundImageFix" mode="normal" result="shape"/><feColorMatrix in="SourceAlpha" result="hardAlpha" type="matrix" values="0 0 0 0 0 0 0 0 0 0 0 0 0 0 0 0 0 0 127 0"/><feOffset dy="3.01176"/><feGaussianBlur stdDeviation="3.01176"/><feComposite in2="hardAlpha" k2="-1" k3="1" operator="arithmetic"/><feColorMatrix type="matrix" values="0 0 0 0 1 0 0 0 0 1 0 0 0 0 1 0 0 0 0.25 0"/><feBlend in2="shape" mode="normal" result="effect1_innerShadow_126_1119"/><feColorMatrix in="SourceAlpha" result="hardAlpha" type="matrix" values="0 0 0 0 0 0 0 0 0 0 0 0 0 0 0 0 0 0 127 0"/><feOffset dy="-6.02353"/><feGaussianBlur stdDeviation="1.50588"/><feComposite in2="hardAlpha" k2="-1" k3="1" operator="arithmetic"/><feColorMatrix type="matrix" values="0 0 0 0 0 0 0 0 0 0 0 0 0 0 0 0 0 0 0.1 0"/><feBlend in2="effect1_innerShadow_126_1119" mode="multiply" result="effect2_innerShadow_126_1119"/></filter><filter id="b" color-interpolation-filters="sRGB" filterUnits="userSpaceOnUse" height="90.1719" width="78.3615" x="24.8105" y="23.6608"><feFlood flood-opacity="0" result="BackgroundImageFix"/><feColorMatrix in="SourceAlpha" result="hardAlpha" type="matrix" values="0 0 0 0 0 0 0 0 0 0 0 0 0 0 0 0 0 0 127 0"/><feOffset dy="6.02353"/><feGaussianBlur stdDeviation="3.01176"/><feComposite in2="hardAlpha" operator="out"/><feColorMatrix type="matrix" values="0 0 0 0 0 0 0 0 0 0 0 0 0 0 0 0 0 0 0.15 0"/><feBlend in2="BackgroundImageFix" mode="normal" result="effect1_dropShadow_126_1119"/><feBlend in="SourceGraphic" in2="effect1_dropShadow_126_1119" mode="normal" result="shape"/></filter><radialGradient id="c" cx="0" cy="0" gradientTransform="matrix(-116.70743871 -169.41101543 169.41101543 -116.70743871 128 152.094)" gradientUnits="userSpaceOnUse" r="1"><stop offset="0" stop-color="#1e2d86"/><stop offset="1" stop-color="#4b5cc5"/></radialGradient><g filter="url(#a)"><rect fill="url(#c)" height="128" rx="30.1176" width="128"/></g><g filter="url(#b)"><path clip-rule="evenodd" d="m37.4762 41.9687 32.6625-13.6008c.5019-.2079 1.0556-.1566 1.4555.0491.4048.2082.4047.4094.4047.4218v10.0359l-.0002.0499v16.3114c-.0142.8761-.6286 1.9406-2.0626 2.5333l-.0053.0022-13.9444 5.8052v-.0024l-9.9885 4.1607-6.8951 2.8705.013.0312c-1.2544.6529-2.2719 1.5685-2.9783 2.6542-.4832-1.2112-.7296-2.4748-.7296-3.7413v-25.0142c0-.8819.6118-1.9646 2.0628-2.5644zm39.0966-13.1299v5.2861c1.4664-.2004 3.1043.1223 4.4327 1.2241l.0034.0028 9.3384 7.7753c.062.0516.123.104.1829.1569l.688.5728c3.7314 3.1069 5.9311 7.4265 5.9311 12.0336v25.0205c0 3.0775-2.0698 5.6245-4.886 6.79l-.0035.0014-32.6596 13.5997-.0027.001c-1.8077.75-3.7663.583-5.3005-.206-1.5296-.787-2.8865-2.3566-2.8865-4.4895v-5.2921c-1.4659.1999-3.103-.123-4.4309-1.2243l-9.3417-7.7781c-.0518-.043-.1028-.0866-.153-.1306l-.7198-.5993c-3.7314-3.1068-5.9311-7.4265-5.9311-12.0335v-25.0142c0-3.0777 2.0701-5.6249 4.8866-6.7902l.0029-.0012 32.6623-13.6008c1.8076-.75 3.7662-.5827 5.3005.2064 1.5295.7867 2.8865 2.3563 2.8865 4.4892zm-25.1623 41.5973v16.07l-.0006.0008-.0046.0056c-.0385.0454-.1472.1393-.3525.2101-.4445.1534-.8923.0636-1.1521-.1511l-.0013-.001-8.4559-7.0406.0016-.0019-.9826-.8181c-.7774-.6979-.9478-1.4773-.8224-2.1196.1362-.6978.6897-1.5397 1.9261-2.0544l6.2102-2.5869zm4.5759-.2845c.0401-.8645.6587-1.8951 2.0607-2.4746l.0054-.0022 30.828-12.834-.0148-.0355c1.2554-.6527 2.2738-1.5684 2.9808-2.6544.4828 1.2107.7289 2.4736.7289 3.7395v25.0205c0 .8819-.6118 1.9647-2.0628 2.5644l-.0055.0023-32.6625 13.6009h-.0001c-.5021.2083-1.0553.1567-1.4554-.0492-.4048-.2081-.4048-.4094-.4048-.4218v-9.9485c.0014-.0475.0021-.0953.0021-.1435zm30.5541-24.2424-.0023.0028 1.0041.836c.7606.6933.9271 1.4649.8027 2.1018-.1362.6978-.6892 1.5395-1.9256 2.0542l-.0005.0002-9.8461 4.1014v-16.0693c.0019-.0025.0042-.0054.0071-.0087.0384-.0454.1471-.1394.3524-.2101.4446-.1534.8923-.0636 1.1522.1511l.0012.001z" fill="#fff" fill-rule="evenodd"/></g></svg>