<svg fill="none" height="28" viewBox="0 0 28 28" width="28" xmlns="http://www.w3.org/2000/svg" xmlns:xlink="http://www.w3.org/1999/xlink"><filter id="a" color-interpolation-filters="sRGB" filterUnits="userSpaceOnUse" height="29" width="28" x="0" y="-1"><feFlood flood-opacity="0" result="BackgroundImageFix"/><feBlend in="SourceGraphic" in2="BackgroundImageFix" mode="normal" result="shape"/><feColorMatrix in="SourceAlpha" result="hardAlpha" type="matrix" values="0 0 0 0 0 0 0 0 0 0 0 0 0 0 0 0 0 0 127 0"/><feOffset dy="-1"/><feGaussianBlur stdDeviation=".5"/><feComposite in2="hardAlpha" k2="-1" k3="1" operator="arithmetic"/><feColorMatrix type="matrix" values="0 0 0 0 0 0 0 0 0 0 0 0 0 0 0 0 0 0 0.25 0"/><feBlend in2="shape" mode="normal" result="effect1_innerShadow_561_2623"/></filter><g filter="url(#a)"><path d="m22.2662 14.5788-8.645 8.6449c-2.2024 2.2141-5.16349 2.0062-7.05583.0905-1.90617-1.8924-2.11196-4.8322.09258-7.0463l11.83195-11.82233c1.2949-1.29282 3.2184-1.5225 4.4801-.26836 1.2562 1.27547 1.0244 3.18516-.2609 4.48008l-11.6046 11.61091c-.5194.5365-1.14866.3797-1.50702.0235-.35414-.3659-.50133-.976.01594-1.5146l8.10118-8.0798c.4064-.4181.4277-1.01814.033-1.41071-.3925-.38086-.9947-.36164-1.4011.04476l-8.12667 8.12675c-1.25437 1.2543-1.20117 3.1837-.08953 4.2932 1.20961 1.2096 3.0368 1.1841 4.3008-.0799l11.6599-11.6599c2.2631-2.26312 2.182-5.24507.1938-7.23327-1.9413-1.939215-4.9722-2.069293-7.2354.19172l-11.89684 11.91285c-2.96413 2.9641-2.75413 7.2232-.06281 9.9166 2.69554 2.6817 6.95465 2.8938 9.91875-.0607l8.7077-8.7077c.3926-.3863.3884-1.1065-.0159-1.4757-.3863-.4139-1.0277-.3691-1.4341.0235z" fill="#fff"/></g></svg>