<svg fill="none" height="28" viewBox="0 0 30 28" width="30" xmlns="http://www.w3.org/2000/svg" xmlns:xlink="http://www.w3.org/1999/xlink"><filter id="a" color-interpolation-filters="sRGB" filterUnits="userSpaceOnUse" height="29" width="29.082" x="0" y="-1"><feFlood flood-opacity="0" result="BackgroundImageFix"/><feBlend in="SourceGraphic" in2="BackgroundImageFix" mode="normal" result="shape"/><feColorMatrix in="SourceAlpha" result="hardAlpha" type="matrix" values="0 0 0 0 0 0 0 0 0 0 0 0 0 0 0 0 0 0 127 0"/><feOffset dy="-1"/><feGaussianBlur stdDeviation=".5"/><feComposite in2="hardAlpha" k2="-1" k3="1" operator="arithmetic"/><feColorMatrix type="matrix" values="0 0 0 0 0 0 0 0 0 0 0 0 0 0 0 0 0 0 0.25 0"/><feBlend in2="shape" mode="normal" result="effect1_innerShadow_561_2634"/></filter><g filter="url(#a)"><path d="m3.96421 23.2928h12.34969c2.5073 0 3.9642-1.4184 3.9642-3.8857v-11.53101c0-2.45765-1.3587-3.87609-3.866-3.87609h-12.44789c-2.42085 0-3.96421 1.41844-3.96421 3.8782v11.5943c0 2.4673 1.45476 3.8203 3.96421 3.8203zm18.01739-5.9088 4.0357 3.4804c.4722.4107.9811.6755 1.4662.6755.9541 0 1.5982-.6848 1.5982-1.7027v-12.32884c0-1.01789-.6441-1.70274-1.5982-1.70274-.4873 0-.9919.26485-1.4662.67547l-4.0357 3.47087z" fill="#fff"/></g></svg>