<svg fill="none" height="28" viewBox="0 0 28 28" width="28" xmlns="http://www.w3.org/2000/svg" xmlns:xlink="http://www.w3.org/1999/xlink"><filter id="a" color-interpolation-filters="sRGB" filterUnits="userSpaceOnUse" height="29" width="28" x="0" y="-1"><feFlood flood-opacity="0" result="BackgroundImageFix"/><feBlend in="SourceGraphic" in2="BackgroundImageFix" mode="normal" result="shape"/><feColorMatrix in="SourceAlpha" result="hardAlpha" type="matrix" values="0 0 0 0 0 0 0 0 0 0 0 0 0 0 0 0 0 0 127 0"/><feOffset dy="-1"/><feGaussianBlur stdDeviation=".5"/><feComposite in2="hardAlpha" k2="-1" k3="1" operator="arithmetic"/><feColorMatrix type="matrix" values="0 0 0 0 0 0 0 0 0 0 0 0 0 0 0 0 0 0 0.25 0"/><feBlend in2="shape" mode="normal" result="effect1_innerShadow_659_2404"/></filter><g fill="#fff" filter="url(#a)"><path d="m1 7.50039c0 4.05911 4.93359 8.21411 13.1224 8.21411 3.923 0 7.4102-.9799 9.859-2.7672-.7273-.3153-1.3449-.8562-1.7442-1.5483-1.781 1.714-4.6294 2.6344-8.1148 2.6344-7.08561 0-9.73803-3.7294-9.73803-5.94614 0-.53063.07992-1.00477.25148-1.41492-1.1564-.63797-1.91671-1.87758-1.94226-3.2025-1.11632 1.03969-1.69359 2.40516-1.69359 4.03055zm19.6994 10.79861c0-5.0925-4.9593-12.74346-10.496-15.25502.0117.11391.0139.2161.0139.3225 0 .66984-.1725 1.31414-.4941 1.8743 4.3045 1.33242 8.3684 7.06432 8.3684 11.87902 0 2.7675-1.6034 4.6765-3.7372 4.685.0905.3567.1437.7251.1437 1.0839 0 .836-.2705 1.6369-.772 2.2866.1076.0117.244.0117.375.0117 3.8301 0 6.5983-2.8875 6.5983-6.888zm.8035-16.06338c-6.6954 0-13.98306 9.90468-13.98306 16.06338 0 .7317.09586 1.4709.30891 2.1984.58124-.8252 1.6964-1.3481 2.60575-1.3673-.2013-.6082-.3164-1.2933-.3164-2.0103 0-5.3046 5.179-12.18254 10.2856-12.18254 1.3828 0 2.4513.5018 3.0105 1.41703.6145-.40992 1.3238-.61968 2.0681-.61968.5581 0 1.1065.13101 1.6039.3546-.5677-2.39226-2.6553-3.85359-5.5833-3.85359z"/><path d="m6.46023 5.73507c1.30359 0 2.36859-1.05539 2.36859-2.36859 0-1.30359-1.06078-2.36648-2.36859-2.36648-1.31531 0-2.3782 1.06289-2.3782 2.36648 0 1.3132 1.065 2.36859 2.3782 2.36859zm19.02367 6.13643c1.3132 0 2.3686-1.065 2.3686-2.36862 0-1.3132-1.0554-2.3782-2.3686-2.3782-1.3036 0-2.3686 1.065-2.3686 2.3782 0 1.30362 1.065 2.36862 2.3686 2.36862zm-14.7449 13.3858c1.3152 0 2.3685-1.0533 2.3685-2.3686 0-1.3132-1.0629-2.3664-2.3685-2.3664-1.31323 0-2.36862 1.0532-2.36862 2.3664 0 1.3153 1.05539 2.3686 2.36862 2.3686z"/></g></svg>