<svg fill="none" height="28" viewBox="0 0 28 28" width="28" xmlns="http://www.w3.org/2000/svg" xmlns:xlink="http://www.w3.org/1999/xlink"><filter id="a" color-interpolation-filters="sRGB" filterUnits="userSpaceOnUse" height="29" width="28" x="0" y="-1"><feFlood flood-opacity="0" result="BackgroundImageFix"/><feBlend in="SourceGraphic" in2="BackgroundImageFix" mode="normal" result="shape"/><feColorMatrix in="SourceAlpha" result="hardAlpha" type="matrix" values="0 0 0 0 0 0 0 0 0 0 0 0 0 0 0 0 0 0 127 0"/><feOffset dy="-1"/><feGaussianBlur stdDeviation=".5"/><feComposite in2="hardAlpha" k2="-1" k3="1" operator="arithmetic"/><feColorMatrix type="matrix" values="0 0 0 0 0 0 0 0 0 0 0 0 0 0 0 0 0 0 0.25 0"/><feBlend in2="shape" mode="normal" result="effect1_innerShadow_658_2358"/></filter><g filter="url(#a)"><path d="m9.15647 9.49928c2.05073 0 3.75443-1.70367 3.75443-3.74273 0-2.05077-1.7058-3.75655-3.75443-3.75655-2.04867 0-3.75233 1.70578-3.75233 3.75655 0 2.02945 1.69406 3.74273 3.75233 3.74273zm8.79863 0c2.0508 0 3.7599-1.70156 3.7599-3.74273 0-2.05077-1.7112-3.75655-3.7599-3.75655-2.0486 0-3.7544 1.70578-3.7544 3.75655 0 2.03906 1.7015 3.74273 3.7544 3.74273zm-13.20065 7.89232c2.06038 0 3.76405-1.7037 3.76405-3.7523 0-2.0487-1.70367-3.75235-3.76405-3.75235-2.05078 0-3.75445 1.70365-3.75445 3.75235 0 2.0411 1.69406 3.7523 3.75445 3.7523zm17.60065 0c2.0528 0 3.7544-1.7037 3.7544-3.7523 0-2.0487-1.7016-3.75235-3.7544-3.75235-2.0508 0-3.7641 1.70365-3.7641 3.75235 0 2.0486 1.7133 3.7523 3.7641 3.7523zm-13.19863 7.8849c2.04863 0 3.75443-1.7037 3.75443-3.7566 0-2.0487-1.7037-3.7502-3.75443-3.7502-2.05077 0-3.75233 1.6994-3.75233 3.7502 0 2.0412 1.69406 3.7566 3.75233 3.7566zm8.79863 0c2.0487 0 3.7599-1.7037 3.7599-3.7566 0-2.0508-1.7091-3.7502-3.7599-3.7502-2.0529 0-3.7544 1.7015-3.7544 3.7502 0 2.0529 1.7058 3.7566 3.7544 3.7566z" fill="#fff"/></g></svg>