<svg fill="none" height="28" viewBox="0 0 28 28" width="28" xmlns="http://www.w3.org/2000/svg" xmlns:xlink="http://www.w3.org/1999/xlink"><filter id="a" color-interpolation-filters="sRGB" filterUnits="userSpaceOnUse" height="29" width="28" x="0" y="-1"><feFlood flood-opacity="0" result="BackgroundImageFix"/><feBlend in="SourceGraphic" in2="BackgroundImageFix" mode="normal" result="shape"/><feColorMatrix in="SourceAlpha" result="hardAlpha" type="matrix" values="0 0 0 0 0 0 0 0 0 0 0 0 0 0 0 0 0 0 127 0"/><feOffset dy="-1"/><feGaussianBlur stdDeviation=".5"/><feComposite in2="hardAlpha" k2="-1" k3="1" operator="arithmetic"/><feColorMatrix type="matrix" values="0 0 0 0 0 0 0 0 0 0 0 0 0 0 0 0 0 0 0.25 0"/><feBlend in2="shape" mode="normal" result="effect1_innerShadow_451_2881"/></filter><g fill="#fff" filter="url(#a)"><path d="m12.105 25.7385c1.3734 0 2.7363-.2548 4.0214-.71.1673-.0565.3209-.1183.4816-.1929-.5163-.5069-.906-1.0907-1.1374-1.6797-.1279-.0499-.2411-.2414-.3661-.4708-1.7901-2.9951-2.6426-6.2806-2.6426-9.4348 0-3.36452.9104-6.5989 2.6361-9.37484 3.5102 1.08656 6.2362 4.03829 7.0244 7.66334.6089.0054 1.1391.1196 1.9554.413-.8269-5.85281-5.9334-10.42336-11.9824-10.42336-6.63189 0-12.0954 5.47313-12.0954 12.10506 0 6.6222 5.47312 12.0569 12.105 12.105zm0-1.8764c-5.59477 0-10.22861-4.6339-10.22861-10.2286 0-5.59483 4.62423-10.22866 10.21901-10.22866.4605 0 .9265.03304 1.3828.09492-1.7065 2.95805-2.6093 6.31055-2.6093 9.75054 0 3.7436.9881 7.4814 2.8069 10.4784-.4887.0907-1.0343.1334-1.5708.1334zm-10.06008-15.26069c2.86289 3.13479 6.95578 4.94979 11.29378 4.94019 3.4418-.0096 6.7376-1.1801 9.3828-3.323l-.7428-1.47914c-2.4068 2.07044-5.4323 3.20154-8.64 3.21114-4.14746.0097-7.98722-1.8267-10.55738-4.98793zm4.55531 14.72109 1.8921.4226c-.8475-1.9563-1.28719-4.0434-1.31601-6.1849-.26907-5.7652 2.2439-11.23551 6.72048-14.83387l-1.6697-.6682c-4.43508 3.89742-6.89906 9.57937-6.63961 15.52127.01922 1.9509.36 3.8742 1.01274 5.7431zm6.38317-4.9385c-4.28505-.1265-8.5052-1.7958-11.81458-4.9001l-.401013 1.7773c3.543283 3.0445 7.979293 4.6413 12.449293 4.7276zm3.6499-6.0666c-.4994-1.3528-.787-2.81529-.7966-4.31505-.0192-1.63008.2684-3.25688.8649-4.76953l-1.5218-.43313c-.638 1.65539-.9511 3.40453-.9319 5.21227.0096 1.65304.311 3.25924.8669 4.77704zm-9.55847 1.0899c1.05844 0 1.92305-.8721 1.92305-1.9327 0-1.0584-.86461-1.92303-1.92305-1.92303-1.07015 0-1.93476.86463-1.93476 1.92303 0 1.0606.86461 1.9327 1.93476 1.9327zm8.79867.5423c1.0139 0 1.8457-.8276 1.8457-1.8553 0-1.016-.8318-1.8574-1.8457-1.8574-1.0394 0-1.867.8414-1.867 1.8574 0 1.0277.8276 1.8553 1.867 1.8553zm-3.4488 7.0355c1.0415 0 1.8776-.8456 1.8776-1.8989 0-1.0416-.8361-1.8776-1.8776-1.8776-1.0533 0-1.8989.836-1.8989 1.8776 0 1.0533.8456 1.8989 1.8989 1.8989z"/><path d="m16.125 20.7613c0 2.4152 1.4255 3.367 4.9723 5.3681.3825.2121.8503.1737 1.1613 0 3.5426-2.0117 4.9626-2.9529 4.9626-5.3681v-4.5821c0-.8088-.2779-1.3115-1.0891-1.6554-.7153-.2974-3.0401-1.0774-3.6253-1.2928-.5363-.2076-1.0831-.2022-1.5692-.0384-.6834.2367-2.9964 1.0338-3.7139 1.3312-.8111.3418-1.0987.8466-1.0987 1.6554zm1.7965-.229v-3.8529c0-.341.0991-.5063.4254-.6267.8341-.3068 2.129-.7925 2.865-1.0496.1839-.0628.3159-.0925.465-.0925v9.3658c-.1088 0-.2196-.033-.3305-.0895-2.6625-1.6024-3.4249-2.003-3.4249-3.6546z"/></g></svg>