<svg fill="none" height="28" viewBox="0 0 28 28" width="28" xmlns="http://www.w3.org/2000/svg" xmlns:xlink="http://www.w3.org/1999/xlink"><filter id="a" color-interpolation-filters="sRGB" filterUnits="userSpaceOnUse" height="29" width="28" x="0" y="-1"><feFlood flood-opacity="0" result="BackgroundImageFix"/><feBlend in="SourceGraphic" in2="BackgroundImageFix" mode="normal" result="shape"/><feColorMatrix in="SourceAlpha" result="hardAlpha" type="matrix" values="0 0 0 0 0 0 0 0 0 0 0 0 0 0 0 0 0 0 127 0"/><feOffset dy="-1"/><feGaussianBlur stdDeviation=".5"/><feComposite in2="hardAlpha" k2="-1" k3="1" operator="arithmetic"/><feColorMatrix type="matrix" values="0 0 0 0 0 0 0 0 0 0 0 0 0 0 0 0 0 0 0.25 0"/><feBlend in2="shape" mode="normal" result="effect1_innerShadow_560_5534"/></filter><g filter="url(#a)"><path d="m13.7336 25.8078c.2065 0 .5121-.0809.8093-.2332 6.7144-3.4584 8.9243-5.2741 8.9243-9.4791v-8.71987c0-1.36312-.5241-1.8532-1.673-2.33507-1.2867-.52875-5.5978-2.06133-6.8538-2.48579-.3839-.12234-.8154-.1957-1.2068-.1957-.3893 0-.8208.08297-1.1972.1957-1.2656.40524-5.57461 1.96665-6.86133 2.48579-1.13929.47015-1.67507.97195-1.67507 2.33507v8.71987c0 4.205 2.31023 5.8531 8.9243 9.4791.3068.162.6049.2332.8093.2332z" fill="#fff"/><path d="m14.8015 8.53862c0-.57164.5683-.75773.9951-.46828l2.9513 2.00416c.3992.2693.413.7886.0352 1.0366l-2.9768 2.0159c-.4364.2894-1.0048.0937-1.0048-.4897v-1.1866h-5.78088c-.47156 0-.86437-.3874-.86437-.859 0-.4715.39281-.86643.86437-.86643h5.78088zm-6.36213 8.74618c-.37992-.2555-.37359-.7749.02344-1.0463l2.96299-2.0041c.4193-.2778.993-.0917.993.4704v1.1941h5.7808c.4737 0 .8569.397.8569.8707 0 .4695-.3832.8548-.8569.8548h-5.7808v1.1887c0 .5717-.5737.7653-1.0026.4875z" fill="#735dc5"/></g></svg>