<svg fill="none" height="28" viewBox="0 0 43 28" width="43" xmlns="http://www.w3.org/2000/svg" xmlns:xlink="http://www.w3.org/1999/xlink"><filter id="a" color-interpolation-filters="sRGB" filterUnits="userSpaceOnUse" height="29" width="42.1094" x="0" y="-1"><feFlood flood-opacity="0" result="BackgroundImageFix"/><feBlend in="SourceGraphic" in2="BackgroundImageFix" mode="normal" result="shape"/><feColorMatrix in="SourceAlpha" result="hardAlpha" type="matrix" values="0 0 0 0 0 0 0 0 0 0 0 0 0 0 0 0 0 0 127 0"/><feOffset dy="-1"/><feGaussianBlur stdDeviation=".5"/><feComposite in2="hardAlpha" k2="-1" k3="1" operator="arithmetic"/><feColorMatrix type="matrix" values="0 0 0 0 0 0 0 0 0 0 0 0 0 0 0 0 0 0 0.25 0"/><feBlend in2="shape" mode="normal" result="effect1_innerShadow_559_5523"/></filter><g fill="#fff" filter="url(#a)"><path d="m21.9072 11.9656 1.2642 2.1839.408-.7149c.5086.2004 1.2713.4681 2.1204.946 2.7389 1.5933 3.8923 4.1969 6.765 5.8645.8986.5313 1.8443.9052 2.5737.9851.8817.0862 1.6432-.1884 2.1706-1.1025l4.71-8.1532c.4202-.7395.1052-1.4477-.5937-1.8584-.5304-.30137-1.5992-.5709-2.7992-1.26254-2.7485-1.58367-3.8922-4.19695-6.7671-5.86453-.8965-.52172-1.8518-.89344-2.5736-.97547-.8796-.08203-1.639.19805-2.1685 1.11633zm-1.7079 7.33-1.2717-2.1935-4.3615 7.5617c-.3031.521-.1095 1.1984.4019 1.5056.5328.3073 1.193.1266 1.4885-.4083z"/><path d="m27.5442 24.6638-12.4509-21.53391c-.5295-.91828-1.2889-1.19836-2.1685-1.11633-.7315.08203-1.6772.45375-2.5736.97547-2.87489 1.66758-4.02825 4.28086-6.77677 5.86453-1.2.69164-2.25914.96117-2.789532 1.26254-.7085121.4107-1.013901 1.1189-.593669 1.8584l4.700391 8.1532c.52734.9141 1.29844 1.1887 2.17054 1.1025.72938-.0799 1.68469-.4538 2.57156-.9851 2.88448-1.6676 4.02818-4.2712 6.77668-5.8645.8396-.4779 1.6119-.7456 2.1204-.946l7.1133 12.3265c.3052.5349.9633.7156 1.4981.4083.5115-.3072.6954-.9846.402-1.5056z"/></g></svg>