<svg fill="none" height="32" viewBox="0 0 32 32" width="32" xmlns="http://www.w3.org/2000/svg" xmlns:xlink="http://www.w3.org/1999/xlink"><filter id="a" color-interpolation-filters="sRGB" filterUnits="userSpaceOnUse" height="32.1264" width="31.793" x="0" y="-1"><feFlood flood-opacity="0" result="BackgroundImageFix"/><feBlend in="SourceGraphic" in2="BackgroundImageFix" mode="normal" result="shape"/><feColorMatrix in="SourceAlpha" result="hardAlpha" type="matrix" values="0 0 0 0 0 0 0 0 0 0 0 0 0 0 0 0 0 0 127 0"/><feOffset dy="-1"/><feGaussianBlur stdDeviation=".5"/><feComposite in2="hardAlpha" k2="-1" k3="1" operator="arithmetic"/><feColorMatrix type="matrix" values="0 0 0 0 0 0 0 0 0 0 0 0 0 0 0 0 0 0 0.25 0"/><feBlend in2="shape" mode="normal" result="effect1_innerShadow_561_2618"/></filter><g filter="url(#a)"><path d="m30.5644 8.55353-11.4537-5.23943c-1.2227-.55172-2.2291-.81586-3.2187-.79453-.9799-.02133-1.9863.24281-3.2186.79453l-11.44411 5.23943c-.809058.3673-1.22929 1.0282-1.22929 1.71867 0 .6883.420232 1.346 1.22929 1.7165l4.55814 2.0618 7.59307-3.5458c-.0577-.0757-.0769-.1568-.0769-.2325 0-.83947 1.2991-1.45057 2.6269-1.45057 1.3352 0 2.6172.6068 2.6172 1.45057 0 .8608-1.2778 1.4836-2.6172 1.4836-.4121 0-.8241-.0628-1.1871-.1692l-7.14778 3.3248 5.07778 2.3264c1.2323.5655 2.2387.8084 3.2186.7945.9896.0139 1.996-.2332 3.2187-.7945l11.4537-5.2491c.809-.3768 1.2293-1.0282 1.2293-1.7165 0-.69047-.4203-1.35137-1.2293-1.71867zm-23.00721 8.21667v6.8867c2.02992 1.2227 4.91411 1.9598 8.33481 1.9598 6.893 0 11.5845-2.9775 11.5845-6.6101v-3.7254l-7.6557 3.5014c-1.4132.6518-2.7039.9766-3.9288.9649-1.2152.0117-2.5134-.3131-3.9309-.9649zm-3.24-1.4869v3.7233c0 1.0175.54375 2.2325 1.5225 3.2726v-6.2911zm1.5225 10.9109 1.7175.0021v-2.5394c-.67875-.4043-1.25976-.8681-1.7175-1.3777zm-1.02491.2466v3.0419c0 .9954.64828 1.6437 1.64366 1.6437h.46828c.99539 0 1.64367-.6483 1.64367-1.6437v-3.0419c0-.9975-.64828-1.6437-1.64367-1.6437h-.46828c-.99538 0-1.64366.6462-1.64366 1.6437z" fill="#fff"/></g></svg>