<svg fill="none" height="28" viewBox="0 0 28 28" width="28" xmlns="http://www.w3.org/2000/svg" xmlns:xlink="http://www.w3.org/1999/xlink"><filter id="a" color-interpolation-filters="sRGB" filterUnits="userSpaceOnUse" height="29" width="28" x="0" y="-1"><feFlood flood-opacity="0" result="BackgroundImageFix"/><feBlend in="SourceGraphic" in2="BackgroundImageFix" mode="normal" result="shape"/><feColorMatrix in="SourceAlpha" result="hardAlpha" type="matrix" values="0 0 0 0 0 0 0 0 0 0 0 0 0 0 0 0 0 0 127 0"/><feOffset dy="-1"/><feGaussianBlur stdDeviation=".5"/><feComposite in2="hardAlpha" k2="-1" k3="1" operator="arithmetic"/><feColorMatrix type="matrix" values="0 0 0 0 0 0 0 0 0 0 0 0 0 0 0 0 0 0 0.25 0"/><feBlend in2="shape" mode="normal" result="effect1_innerShadow_658_2380"/></filter><g filter="url(#a)"><path d="m9.76571 24.2699c-.93703 0-1.46883-.5041-1.46883-1.3973v-18.11394c0-.89321.5318-1.39735 1.46883-1.39735h1.53159c.1897 0 .2855.09586.2855.27375v.30328c0 .51328.3408.85617.8445.85617h3.0572c.5132 0 .8444-.34289.8444-.85617v-.30328c0-.17789.0959-.27375.2834-.27375h1.5359c.9253 0 1.4571.50836 1.4571 1.39945v18.10974c0 .891-.5318 1.3994-1.4571 1.3994z" fill="#4374cc"/><path d="m9.37101 26.6312h9.20879c1.9903 0 3.3204-1.2947 3.3204-3.2325v-19.16621c0-1.93991-1.3301-3.23249-3.3204-3.23249h-9.20879c-2.01984 0-3.37101 1.29258-3.37101 3.23038v19.17042c0 1.9357 1.35117 3.2304 3.37101 3.2304zm.39374-2.3613c-.93703 0-1.46883-.5041-1.46883-1.3973v-18.11394c0-.89321.5318-1.39735 1.46883-1.39735h1.53165c.1896 0 .2855.09586.2855.27375v.30328c0 .51328.3407.85617.8444.85617h3.0572c.5133 0 .8444-.34289.8444-.85617v-.30328c0-.17789.0959-.27375.2834-.27375h1.5359c.9253 0 1.4571.50836 1.4571 1.39945v18.10974c0 .891-.5318 1.3994-1.4571 1.3994zm1.66565-.9124h5.0586c.3417 0 .5833-.2374.5833-.593 0-.3576-.2416-.5876-.5833-.5876h-5.0586c-.3417 0-.595.23-.595.5876 0 .3556.2533.593.595.593z" fill="#fff"/></g></svg>