<svg fill="none" height="28" viewBox="0 0 28 28" width="28" xmlns="http://www.w3.org/2000/svg" xmlns:xlink="http://www.w3.org/1999/xlink"><filter id="a" color-interpolation-filters="sRGB" filterUnits="userSpaceOnUse" height="29" width="28" x="0" y="-1"><feFlood flood-opacity="0" result="BackgroundImageFix"/><feBlend in="SourceGraphic" in2="BackgroundImageFix" mode="normal" result="shape"/><feColorMatrix in="SourceAlpha" result="hardAlpha" type="matrix" values="0 0 0 0 0 0 0 0 0 0 0 0 0 0 0 0 0 0 127 0"/><feOffset dy="-1"/><feGaussianBlur stdDeviation=".5"/><feComposite in2="hardAlpha" k2="-1" k3="1" operator="arithmetic"/><feColorMatrix type="matrix" values="0 0 0 0 0 0 0 0 0 0 0 0 0 0 0 0 0 0 0.25 0"/><feBlend in2="shape" mode="normal" result="effect1_innerShadow_561_2628"/></filter><g fill="#fff" filter="url(#a)"><path d="m4.93617 22.1291h18.71133c1.1944 0 1.9383-.649 1.9383-1.6268 0-1.2331-1.1426-2.2962-2.1842-3.3117-.7481-.7454-.9801-2.2681-1.0908-3.5715-.0328-.7596-.0902-1.4904-.1711-2.1902-.6175.2618-1.2925.4055-2.0027.4055-3.1223 0-5.6939-2.57159-5.6939-5.69394 0-1.44093.5515-2.75835 1.4342-3.75749-.4599-.24891-.9985-.38086-1.5903-.38086-1.7247 0-3.0025 1.18383-3.4741 2.73164-3.04127 1.09758-4.30408 4.13649-4.46415 8.45085-.14648 1.5291-.34688 3.2079-1.16461 4.006-1.05117 1.0155-2.18414 2.0786-2.18414 3.3117 0 .9778.73218 1.6268 1.93617 1.6268zm9.35713 4.8257c2.0703 0 3.5846-1.4826 3.7327-3.1865h-7.4578c.1481 1.7039 1.6624 3.1865 3.7251 3.1865z"/><path d="m20.1472 10.1804c2.2064 0 4.0496-1.82392 4.0496-4.03994 0-2.22562-1.8432-4.04953-4.0496-4.04953-2.2256 0-4.0495 1.82391-4.0495 4.04953 0 2.21602 1.8239 4.03994 4.0495 4.03994z"/></g></svg>