<svg fill="none" height="28" viewBox="0 0 43 28" width="43" xmlns="http://www.w3.org/2000/svg" xmlns:xlink="http://www.w3.org/1999/xlink"><filter id="a" color-interpolation-filters="sRGB" filterUnits="userSpaceOnUse" height="29" width="42.3359" x="0" y="-1"><feFlood flood-opacity="0" result="BackgroundImageFix"/><feBlend in="SourceGraphic" in2="BackgroundImageFix" mode="normal" result="shape"/><feColorMatrix in="SourceAlpha" result="hardAlpha" type="matrix" values="0 0 0 0 0 0 0 0 0 0 0 0 0 0 0 0 0 0 127 0"/><feOffset dy="-1"/><feGaussianBlur stdDeviation=".5"/><feComposite in2="hardAlpha" k2="-1" k3="1" operator="arithmetic"/><feColorMatrix type="matrix" values="0 0 0 0 0 0 0 0 0 0 0 0 0 0 0 0 0 0 0.25 0"/><feBlend in2="shape" mode="normal" result="effect1_innerShadow_447_816"/></filter><g fill="#fff" filter="url(#a)"><path d="m8.71218 13.4106c2.32502 0 4.31392-2.0791 4.31392-4.75495 0-2.61422-2.0049-4.62281-4.31392-4.62281-2.32078 0-4.32773 2.03742-4.31601 4.64414.00211 2.66412 1.98891 4.73362 4.31601 4.73362zm-6.78398 9.8934h13.5562c1.2181 0 1.9282-.577 1.9282-1.5447 0-2.7588-3.1846-6.5079-8.71003-6.5079-5.51789 0-8.70257 3.7491-8.70257 6.5079 0 .9677.702654 1.5447 1.9282 1.5447zm31.7072-9.8934c2.325 0 4.316-2.0791 4.316-4.75495 0-2.61422-2.0048-4.62281-4.316-4.62281-2.3208 0-4.3277 2.03742-4.316 4.64414.0021 2.66412 1.991 4.73362 4.316 4.73362zm-6.784 9.8934h13.5584c1.2159 0 1.926-.577 1.926-1.5447 0-2.7588-3.1846-6.5079-8.71-6.5079-5.5158 0-8.7026 3.7491-8.7026 6.5079 0 .9677.7027 1.5447 1.9282 1.5447z"/><path d="m16.5555 14.3636c.8988 0 1.6176-.7188 1.6176-1.6198 0-.8892-.7188-1.608-1.6176-1.608-.8914 0-1.6102.7188-1.6102 1.608 0 .901.7188 1.6198 1.6102 1.6198zm4.616 0c.8892 0 1.608-.7188 1.608-1.6198 0-.8892-.7188-1.608-1.608-1.608-.9009 0-1.6081.7188-1.6081 1.608 0 .901.7072 1.6198 1.6081 1.6198zm4.5947 0c.8988 0 1.6176-.7188 1.6176-1.6198 0-.8892-.7188-1.608-1.6176-1.608-.8914 0-1.6081.7188-1.6081 1.608 0 .901.7167 1.6198 1.6081 1.6198z"/></g></svg>