<svg fill="none" height="28" viewBox="0 0 28 28" width="28" xmlns="http://www.w3.org/2000/svg" xmlns:xlink="http://www.w3.org/1999/xlink"><filter id="a" color-interpolation-filters="sRGB" filterUnits="userSpaceOnUse" height="29" width="28" x="0" y="-1"><feFlood flood-opacity="0" result="BackgroundImageFix"/><feBlend in="SourceGraphic" in2="BackgroundImageFix" mode="normal" result="shape"/><feColorMatrix in="SourceAlpha" result="hardAlpha" type="matrix" values="0 0 0 0 0 0 0 0 0 0 0 0 0 0 0 0 0 0 127 0"/><feOffset dy="-1"/><feGaussianBlur stdDeviation=".5"/><feComposite in2="hardAlpha" k2="-1" k3="1" operator="arithmetic"/><feColorMatrix type="matrix" values="0 0 0 0 0 0 0 0 0 0 0 0 0 0 0 0 0 0 0.25 0"/><feBlend in2="shape" mode="normal" result="effect1_innerShadow_560_5550"/></filter><g filter="url(#a)"><path d="m1 8.00484h10.4015v-4.94133c0-1.91742-1.1716-3.06351-3.12416-3.06351h-4.05492c-2.01023 0-3.22242 1.14609-3.22242 3.06351zm0 9.68276h10.4015v-7.97932h-10.4015zm3.22242 9.7179h4.05492c1.95256 0 3.12416-1.1579 3.12416-3.0753v-4.9296h-10.4015v4.9296c0 1.9174 1.21219 3.0753 3.22242 3.0753zm8.83408-17.9384 5.5762 3.2217 2.4532-4.25741c.9581-1.66499.5046-3.3396-1.203-4.32116l-3.3692-1.94882c-1.285-.74485-2.5371-.68578-3.4605.07805.0431.35179.0417.72046.0033 1.10928zm0 12.8625 4.7245-8.163-4.7245-2.7214zm7.9589-2.036 4.2478-2.4532c1.665-.9581 2.0929-2.6445 1.1135-4.3521l-1.9392-3.3692c-.4346-.75934-.998-1.2534-1.6338-1.49386-.0809.25569-.1967.49428-.3303.74037l-3.8768 6.72629zm-7.286 4.2058 5.7986-3.3541-1.9322-3.3478z" fill="#fff"/></g></svg>