<svg fill="none" height="28" viewBox="0 0 28 28" width="28" xmlns="http://www.w3.org/2000/svg" xmlns:xlink="http://www.w3.org/1999/xlink"><filter id="a" color-interpolation-filters="sRGB" filterUnits="userSpaceOnUse" height="29" width="28" x="0" y="-1"><feFlood flood-opacity="0" result="BackgroundImageFix"/><feBlend in="SourceGraphic" in2="BackgroundImageFix" mode="normal" result="shape"/><feColorMatrix in="SourceAlpha" result="hardAlpha" type="matrix" values="0 0 0 0 0 0 0 0 0 0 0 0 0 0 0 0 0 0 127 0"/><feOffset dy="-1"/><feGaussianBlur stdDeviation=".5"/><feComposite in2="hardAlpha" k2="-1" k3="1" operator="arithmetic"/><feColorMatrix type="matrix" values="0 0 0 0 0 0 0 0 0 0 0 0 0 0 0 0 0 0 0.25 0"/><feBlend in2="shape" mode="normal" result="effect1_innerShadow_560_5540"/></filter><g filter="url(#a)"><path d="m8.71265 25.3487h10.97365c1.7796 0 2.7127-.9544 2.7127-2.8756v-8.2999c0-1.9148-.9331-2.8596-2.7127-2.8596h-10.97365c-1.78171 0-2.71265.9448-2.71265 2.8596v8.2999c0 1.9212.93094 2.8756 2.71265 2.8756zm-.57117-13.0505h2.19442l.0021-3.9525c0-2.7422 1.7602-4.24712 3.8567-4.24712 2.0922 0 3.878 1.50492 3.878 4.24712l-.0043 3.9525h2.187l.0021-3.73476c0-4.32399-2.8617-6.56344-6.0628-6.56344-3.1915 0-6.05111 2.23945-6.05111 6.56344z" fill="#fff"/></g></svg>