<svg fill="none" height="28" viewBox="0 0 29 28" width="29" xmlns="http://www.w3.org/2000/svg" xmlns:xlink="http://www.w3.org/1999/xlink"><filter id="a" color-interpolation-filters="sRGB" filterUnits="userSpaceOnUse" height="29" width="28.5508" x="0" y="-1"><feFlood flood-opacity="0" result="BackgroundImageFix"/><feBlend in="SourceGraphic" in2="BackgroundImageFix" mode="normal" result="shape"/><feColorMatrix in="SourceAlpha" result="hardAlpha" type="matrix" values="0 0 0 0 0 0 0 0 0 0 0 0 0 0 0 0 0 0 127 0"/><feOffset dy="-1"/><feGaussianBlur stdDeviation=".5"/><feComposite in2="hardAlpha" k2="-1" k3="1" operator="arithmetic"/><feColorMatrix type="matrix" values="0 0 0 0 0 0 0 0 0 0 0 0 0 0 0 0 0 0 0.25 0"/><feBlend in2="shape" mode="normal" result="effect1_innerShadow_561_2639"/></filter><g fill="#fff" filter="url(#a)"><path d="m14.5504 26.6835 3.562-4.2438c.36-.4207.4132-.5229.5538-.9607l.2199-.6809-1.9627-2.4621-.5519 2.5894-3.5142 4.1651c-1.1522 1.3832.7368 2.7335 1.6931 1.593zm8.6203-.3621c.7465 1.5281 3.0115.5836 2.1926-1.0777l-2.4181-4.8968c-.1896-.3675-.4453-.768-.6785-1.1013l-1.518-2.153.0991-.2995c.4059-1.244.5709-1.9812.653-3.2008l.2386-3.4289c.1193-1.65825-.8679-2.90231-2.5444-2.90231-1.2696 0-2.1249.64008-3.2763 1.76812l-1.8162 1.78849c-.5944.5827-.7924 1.0662-.8531 1.8532l-.2248 2.8015c-.0628.7327.3492 1.2502 1.0329 1.2736.6879.049 1.1095-.363 1.1702-1.1384l.2599-3.0562.8377-.7481c.2857-.2644.6811-.0917.6555.2226l-.1853 2.5432c-.1055 1.3093.1928 1.9535 1.1226 3.1006l2.3967 3.0124c.2419.3026.2696.4155.3771.6115zm4.1508-14.433h-2.7101l-1.6645-1.834-.2098 2.9571.5826.5805c.3877.3877.7402.5112 1.4527.5112h2.5491c.7486 0 1.2288-.4216 1.2288-1.1074 0-.6645-.492-1.1074-1.2288-1.1074zm-6.7899-5.63348c1.456 0 2.6264-1.18219 2.6264-2.62852 0-1.45593-1.1704-2.6264-2.6264-2.6264-1.4559 0-2.6285 1.17047-2.6285 2.6264 0 1.44633 1.1726 2.62852 2.6285 2.62852z"/><path d="m5.31631 5.48148h6.80389c.4334 0 .7826-.36305.7826-.81023 0-.44719-.3492-.81985-.7826-.81985h-6.80389c-.44508 0-.78468.37266-.78468.81985 0 .44718.3396.81023.78468.81023zm-4.547562 5.93012h8.337412c.44297 0 .78046-.363.78046-.8102s-.33749-.81984-.78046-.81984h-8.337412c-.431249 0-.768748.38224-.768748.81984s.337499.8102.768748.8102zm3.771782 5.9302h4.59141c.43335 0 .77085-.3631.77085-.8102 0-.4472-.3375-.8199-.77085-.8199h-4.59141c-.44296 0-.78257.3727-.78257.8199 0 .4471.33961.8102.78257.8102zm-3.28663 5.8704h6.36187c.43336 0 .77296-.3631.77296-.8103 0-.4471-.3396-.8198-.77296-.8198h-6.36187c-.433356 0-.772965.3727-.772965.8198 0 .4472.339609.8103.772965.8103z"/></g></svg>