<svg fill="none" height="28" viewBox="0 0 28 28" width="28" xmlns="http://www.w3.org/2000/svg" xmlns:xlink="http://www.w3.org/1999/xlink"><filter id="a" color-interpolation-filters="sRGB" filterUnits="userSpaceOnUse" height="29" width="28" x="0" y="-1"><feFlood flood-opacity="0" result="BackgroundImageFix"/><feBlend in="SourceGraphic" in2="BackgroundImageFix" mode="normal" result="shape"/><feColorMatrix in="SourceAlpha" result="hardAlpha" type="matrix" values="0 0 0 0 0 0 0 0 0 0 0 0 0 0 0 0 0 0 127 0"/><feOffset dy="-1"/><feGaussianBlur stdDeviation=".5"/><feComposite in2="hardAlpha" k2="-1" k3="1" operator="arithmetic"/><feColorMatrix type="matrix" values="0 0 0 0 0 0 0 0 0 0 0 0 0 0 0 0 0 0 0.25 0"/><feBlend in2="shape" mode="normal" result="effect1_innerShadow_561_2607"/></filter><g fill="#fff" filter="url(#a)"><path d="m11.9052 14.2162c2.5638 0 4.7275-2.2711 4.7275-5.20708 0-2.88188-2.1797-5.07492-4.7275-5.07492-2.54793 0-4.72762 2.23359-4.72551 5.09624.00211 2.91466 2.17336 5.18576 4.72551 5.18576zm-7.80005 10.9022h15.38155c-.1322-.2833-.1983-.5859-.1983-.9077v-4.2978c-.652-.5158-1.1362-1.1995-1.4198-1.9661-1.5495-.9832-3.5735-1.6498-5.9634-1.6498-6.07997 0-9.9052 4.1466-9.9052 7.1616 0 1.0359.78797 1.6598 2.10515 1.6598z"/><path d="m22.2993 11.8645c-2.0207 0-3.6196 1.6106-3.6196 3.5984 0 1.5032.8854 2.8082 2.2397 3.3621v5.3857c0 .1596.0766.285.1872.4085l.9523.945c.1308.1244.337.1383.4954-.0084l1.7443-1.7539c.1605-.153.1542-.3602-.0043-.5111l-1.0129-1.0311 1.4381-1.3997c.1392-.1488.1317-.3623-.0192-.5324l-1.384-1.3861c1.653-.7041 2.5877-1.9571 2.5877-3.4786 0-1.9878-1.6106-3.5984-3.6047-3.5984zm-.0096 1.7595c.5956 0 1.0878.4996 1.0878 1.0877 0 .6244-.4922 1.1165-1.0878 1.1165-.6009 0-1.1048-.4921-1.1048-1.1165 0-.5881.4922-1.0877 1.1048-1.0877z"/></g></svg>