<svg fill="none" height="28" viewBox="0 0 28 28" width="28" xmlns="http://www.w3.org/2000/svg" xmlns:xlink="http://www.w3.org/1999/xlink"><filter id="a" color-interpolation-filters="sRGB" filterUnits="userSpaceOnUse" height="29" width="28" x="0" y="-1"><feFlood flood-opacity="0" result="BackgroundImageFix"/><feBlend in="SourceGraphic" in2="BackgroundImageFix" mode="normal" result="shape"/><feColorMatrix in="SourceAlpha" result="hardAlpha" type="matrix" values="0 0 0 0 0 0 0 0 0 0 0 0 0 0 0 0 0 0 127 0"/><feOffset dy="-1"/><feGaussianBlur stdDeviation=".5"/><feComposite in2="hardAlpha" k2="-1" k3="1" operator="arithmetic"/><feColorMatrix type="matrix" values="0 0 0 0 0 0 0 0 0 0 0 0 0 0 0 0 0 0 0.25 0"/><feBlend in2="shape" mode="normal" result="effect1_innerShadow_512_2747"/></filter><g filter="url(#a)"><path d="m0 11.633v-1.91837l18.2177-.00211c1.946 0 2.9939 1.03828 2.9939 2.95548v12.2292h-1.9225v-11.989c0-.8102-.4618-1.2752-1.2539-1.2752h-3.7449v13.2642h-1.9204v-13.2642zm3.84421 13.2546h20.06669c2.539 0 3.8443-1.2957 3.8443-3.7962v-14.27177c0-2.50265-1.3053-3.80578-3.8443-3.80578h-20.06669c-2.52937 0-3.84421 1.30313-3.84421 3.80578v14.27177c0 2.5005 1.31484 3.7962 3.84421 3.7962z" fill="#fff"/></g></svg>