<svg fill="none" height="28" viewBox="0 0 28 28" width="28" xmlns="http://www.w3.org/2000/svg" xmlns:xlink="http://www.w3.org/1999/xlink"><filter id="a" color-interpolation-filters="sRGB" filterUnits="userSpaceOnUse" height="29" width="28" x="0" y="-1"><feFlood flood-opacity="0" result="BackgroundImageFix"/><feBlend in="SourceGraphic" in2="BackgroundImageFix" mode="normal" result="shape"/><feColorMatrix in="SourceAlpha" result="hardAlpha" type="matrix" values="0 0 0 0 0 0 0 0 0 0 0 0 0 0 0 0 0 0 127 0"/><feOffset dy="-1"/><feGaussianBlur stdDeviation=".5"/><feComposite in2="hardAlpha" k2="-1" k3="1" operator="arithmetic"/><feColorMatrix type="matrix" values="0 0 0 0 0 0 0 0 0 0 0 0 0 0 0 0 0 0 0.25 0"/><feBlend in2="shape" mode="normal" result="effect1_innerShadow_512_2137"/></filter><g filter="url(#a)"><path d="m6.34249 9.11812h15.99401c1.0561 0 2.0334.23742 2.85.6621l-2.5889-6.0846c-.691-1.6507-2.1118-2.54719-4.0008-2.54719h-8.5125c-1.89868 0-3.30774.89649-3.99868 2.54719l-2.5964 6.08249c.82406-.42257 1.79929-.65999 2.85327-.65999zm0 10.17748h15.99401c2.5811 0 4.3425-1.7496 4.3425-4.3073 0-2.5599-1.7614-4.3245-4.3425-4.3245h-15.99401c-2.58327 0-4.34249 1.7646-4.34249 4.3245 0 2.5577 1.75922 4.3073 4.34249 4.3073zm14.50761-4.3073c0-.7486.6485-1.4025 1.4046-1.4025.7603 0 1.4184.6539 1.4184 1.4025 0 .7816-.6581 1.3907-1.4184 1.4046-.7561.0021-1.4046-.6134-1.4046-1.4046zm-7.6449 9.9956h2.2601v-6.7664h-2.2601zm-8.79653.9818h19.85533c.6168 0 1.1231-.5063 1.1231-1.1253 0-.6285-.5063-1.1348-1.1231-1.1348h-19.85533c-.62109 0-1.12734.5063-1.12734 1.1348 0 .619.50625 1.1253 1.12734 1.1253zm9.92183 1.7332c1.5607 0 2.8446-1.2818 2.8446-2.8446 0-1.5607-1.2839-2.8446-2.8446-2.8446-1.5532 0-2.8371 1.2839-2.8371 2.8446 0 1.5628 1.2839 2.8446 2.8371 2.8446z" fill="#fff"/></g></svg>