<svg fill="none" height="28" viewBox="0 0 36 28" width="36" xmlns="http://www.w3.org/2000/svg" xmlns:xlink="http://www.w3.org/1999/xlink"><filter id="a" color-interpolation-filters="sRGB" filterUnits="userSpaceOnUse" height="29" width="35.7891" x="0" y="-1"><feFlood flood-opacity="0" result="BackgroundImageFix"/><feBlend in="SourceGraphic" in2="BackgroundImageFix" mode="normal" result="shape"/><feColorMatrix in="SourceAlpha" result="hardAlpha" type="matrix" values="0 0 0 0 0 0 0 0 0 0 0 0 0 0 0 0 0 0 127 0"/><feOffset dy="-1"/><feGaussianBlur stdDeviation=".5"/><feComposite in2="hardAlpha" k2="-1" k3="1" operator="arithmetic"/><feColorMatrix type="matrix" values="0 0 0 0 0 0 0 0 0 0 0 0 0 0 0 0 0 0 0.25 0"/><feBlend in2="shape" mode="normal" result="effect1_innerShadow_560_5545"/></filter><g filter="url(#a)"><path d="m7.36991 26.6759h21.03659c1.5555 0 2.0669-1.4191 1.4432-2.6547l-5.2235-10.4781 8.9358 12.4878c.3162.4418.7217.6162 1.1163.6162.5989 0 1.1119-.3689 1.1119-1.1257v-3.5588c0-.5053-.4202-.9276-.9276-.9276-.5054 0-.916.4223-.916.9276v1.4977l-14.5181-20.29239c-.8229-1.16039-2.2535-1.14117-3.0764 0l-14.50852 20.29239v-1.4977c0-.5053-.41062-.9276-.918038-.9276-.514919 0-.925542.4223-.925542.9276v3.5588c0 .7568.513045 1.1257 1.10976 1.1257.39679 0 .80226-.1744 1.11843-.6162l8.93581-12.4878-5.22564 10.4781c-.62156 1.2356-.11977 2.6547 1.43155 2.6547zm4.56989-2.0693 5.1035-10.8546c.1809-.3778.514-.5651.8449-.5651.3351 0 .6661.1873.8353.5651l5.1152 10.8546h-4.0554l-1.8951-8.2589-1.9027 8.2589z" fill="#fff"/></g></svg>