<svg fill="none" height="28" viewBox="0 0 34 28" width="34" xmlns="http://www.w3.org/2000/svg" xmlns:xlink="http://www.w3.org/1999/xlink"><filter id="a" color-interpolation-filters="sRGB" filterUnits="userSpaceOnUse" height="29" width="33.9883" x="0" y="-1"><feFlood flood-opacity="0" result="BackgroundImageFix"/><feBlend in="SourceGraphic" in2="BackgroundImageFix" mode="normal" result="shape"/><feColorMatrix in="SourceAlpha" result="hardAlpha" type="matrix" values="0 0 0 0 0 0 0 0 0 0 0 0 0 0 0 0 0 0 127 0"/><feOffset dy="-1"/><feGaussianBlur stdDeviation=".5"/><feComposite in2="hardAlpha" k2="-1" k3="1" operator="arithmetic"/><feColorMatrix type="matrix" values="0 0 0 0 0 0 0 0 0 0 0 0 0 0 0 0 0 0 0.25 0"/><feBlend in2="shape" mode="normal" result="effect1_innerShadow_659_2410"/></filter><g fill="#fff" filter="url(#a)"><path d="m7.49625 25.4571c.49195 0 .85593-.2302 1.44046-.7711l3.31949-3.0577c-.6457-.5315-1.2122-1.4163-1.2122-3.2505v-8.2019c0-3.67457 2.2556-5.89925 5.9397-5.89925h8.412l-.0096-.35977c-.2074-2.34235-1.7684-3.90938031-4.5448-3.90938031h-16.27005c-2.80172 0-4.57125 1.63711031-4.57125 4.49484031v11.72506c0 2.8111 1.74422 4.5619 4.49531 4.5619h1.88414v3.405c0 .7612.41836 1.2628 1.1168 1.2628z"/><path d="m27.1517 27.1312c.7081 0 1.1147-.4919 1.1147-1.2628v-3.3954h1.2253c2.7511 0 4.4953-1.7508 4.4953-4.5736v-7.4245c0-2.85021-1.7716-4.48521-4.5733-4.48521h-12.0942c-2.9042 0-4.5617 1.62867-4.5617 4.53071v7.379c0 2.8439 1.6617 4.5736 4.5617 4.5736h4.0853l4.3043 3.8968c.5867.5292.9485.7614 1.4426.7614z"/></g></svg>