<svg fill="none" height="28" viewBox="0 0 28 28" width="28" xmlns="http://www.w3.org/2000/svg" xmlns:xlink="http://www.w3.org/1999/xlink"><filter id="a" color-interpolation-filters="sRGB" filterUnits="userSpaceOnUse" height="29" width="28" x="0" y="-1"><feFlood flood-opacity="0" result="BackgroundImageFix"/><feBlend in="SourceGraphic" in2="BackgroundImageFix" mode="normal" result="shape"/><feColorMatrix in="SourceAlpha" result="hardAlpha" type="matrix" values="0 0 0 0 0 0 0 0 0 0 0 0 0 0 0 0 0 0 127 0"/><feOffset dy="-1"/><feGaussianBlur stdDeviation=".5"/><feComposite in2="hardAlpha" k2="-1" k3="1" operator="arithmetic"/><feColorMatrix type="matrix" values="0 0 0 0 0 0 0 0 0 0 0 0 0 0 0 0 0 0 0.25 0"/><feBlend in2="shape" mode="normal" result="effect1_innerShadow_451_6973"/></filter><g filter="url(#a)"><path d="m7.31151 24.6505h2.51344c.22175 0 .38275.064.54795.2292l1.7836 1.7719c1.5209 1.5326 2.9531 1.5229 4.474 0l1.7836-1.7719c.1748-.1652.3262-.2292.5576-.2292h2.5038c2.1588 0 3.1737-1.0095 3.1737-3.1758v-2.5038c0-.2292.0661-.3828.2313-.5576l1.7719-1.7815c1.5304-1.5208 1.5208-2.9531 0-4.4761l-1.7719-1.7815c-.1673-.1652-.2313-.3262-.2313-.54793v-2.51344c0-2.14921-1.0095-3.17367-3.1737-3.17367h-2.5038c-.2314 0-.3849-.05648-.5576-.22171l-1.7836-1.77188c-1.523-1.532577-2.9531-1.522968-4.474.00211l-1.7836 1.76977c-.1631.16523-.3262.22171-.54795.22171h-2.51344c-2.15882 0-3.17367 1.00313-3.17367 3.17367v2.51344c0 .22173-.05648.38483-.22171.54793l-1.77188 1.7815c-1.530467 1.523-1.520858 2.9553 0 4.4761l1.77188 1.7815c.16523.1748.22171.3284.22171.5576v2.5038c0 2.1588 1.01696 3.1758 3.17367 3.1758z" fill="#fff"/><path d="m13.0927 20.1753c-.4427 0-.8025-.1818-1.1303-.6068l-2.87185-3.4933c-.20953-.2682-.31711-.5482-.31711-.8356 0-.6065.47344-1.0907 1.07789-1.0907.36187 0 .64287.134.94427.5207l2.2587 2.8679 4.8436-7.75857c.2564-.40969.5885-.61078.9577-.61078.5735 0 1.113.41062 1.113 1.01505 0 .2801-.1418.5665-.3056.8262l-5.4846 8.5507c-.2672.4003-.6471.6152-1.0857.6152z" fill="#644eb4"/></g></svg>