<svg fill="none" height="29" viewBox="0 0 28 29" width="28" xmlns="http://www.w3.org/2000/svg" xmlns:xlink="http://www.w3.org/1999/xlink"><filter id="a" color-interpolation-filters="sRGB" filterUnits="userSpaceOnUse" height="29.311" width="28" x="0" y="-1"><feFlood flood-opacity="0" result="BackgroundImageFix"/><feBlend in="SourceGraphic" in2="BackgroundImageFix" mode="normal" result="shape"/><feColorMatrix in="SourceAlpha" result="hardAlpha" type="matrix" values="0 0 0 0 0 0 0 0 0 0 0 0 0 0 0 0 0 0 127 0"/><feOffset dy="-1"/><feGaussianBlur stdDeviation=".5"/><feComposite in2="hardAlpha" k2="-1" k3="1" operator="arithmetic"/><feColorMatrix type="matrix" values="0 0 0 0 0 0 0 0 0 0 0 0 0 0 0 0 0 0 0.25 0"/><feBlend in2="shape" mode="normal" result="effect1_innerShadow_658_2363"/></filter><g fill="#fff" filter="url(#a)"><path d="m1 15.5864v1.7681c0 2.5005 1.30523 3.8058 3.84421 3.8058h3.12726v-2.296h-2.99414c-1.08961 0-1.68141-.5716-1.68141-1.7123v-1.5656zm2.29592-1.7131v-5.29922h-2.29592v5.29922zm0-7.00265v-1.26164c0-1.1386.5918-1.71024 1.68141-1.71024h1.52626v-2.29593h-1.65938c-2.53898 0-3.84421 1.30313-3.84421 3.80578v1.46203zm10.20818-5.26781h-5.29708v2.29593h5.29708zm1.7035 2.29593h1.3629c1.08 0 1.6814.57164 1.6814 1.71024v2.54742h2.2959v-2.74781c0-2.50265-1.3148-3.80578-3.8346-3.80578h-1.5056zm11.1714 16.09663v-9.0176c0-2.50051-1.3127-3.80574-3.8346-3.80574h-11.8668c-2.54113 0-3.84636 1.29562-3.84636 3.80574v11.948c0 2.5006 1.30523 3.8058 3.84636 3.8058h6.0665v-2.2959h-5.9334c-1.08213 0-1.68354-.5738-1.68354-1.7124v-11.543c0-1.1386.60141-1.71021 1.68354-1.71021h11.591c1.08 0 1.6814.57161 1.6814 1.71021v6.5096z"/><path d="m17.9728 24.5999c-.0117.514.5822.6842.9152.3523l1.6812-1.7065 1.909 4.7239c.1106.2648.3703.4125.6529.3072l1.1698-.4582c.2752-.1169.3394-.4305.2201-.668l-2.0154-4.6746 2.411-.0621c.4884-.0108.7364-.5097.382-.8737l-6.3616-6.5058c-.3288-.3384-.8344-.1416-.8461.3384z"/></g></svg>