<svg height="20" viewBox="0 0 20 20" width="20" xmlns="http://www.w3.org/2000/svg"><g><path d="m10 20c5.4786617 0 10.0016853-4.529368 10.0016853-10 0-5.47862206-4.5310533-10-10.00961591-10-5.46895663 0-9.99206939 4.52137794-9.99206939 10 0 5.470632 4.53105328 10 10 10zm0-1.9698637c-4.45613879 0-8.0222057-3.5740273-8.0222057-8.0301363 0-4.45613879 3.55813631-8.03013631 8.01427509-8.03013631 4.45610901 0 8.03985131 3.57399752 8.03985131 8.03013631 0 4.456109-3.5758117 8.0301363-8.0319207 8.0301363z"/><path d="m6.31910781 10.9169765h7.35553899c.5787361 0 .9797274-.3410162.9797274-.8993309 0-.56636431-.3851301-.91526146-.9797274-.91526146h-7.35553899c-.59459728 0-.9893829.34889715-.9893829.91526146 0 .5583147.41066666.8993309.9893829.8993309z"/></g></svg>