<svg height="10" viewBox="0 0 12 10" width="12" xmlns="http://www.w3.org/2000/svg"><path d="m4.24868774 0c-.1630249 0-.29580688.0509491-.39834594.15284729-.10253907.10189819-.1538086.23530579-.1538086.40022278v7.07849121l.06427002 1.73547363.33407593-.14923095-1.90859985-2.11743165-1.26168824-1.23696899c-.04864501-.05249023-.10644531-.09184265-.17340087-.11805725-.06695557-.0262146-.13891602-.0393219-.21588135-.0393219-.15570069 0-.283844.05090332-.38442993.15270996-.10058594.10180664-.15087891.22991943-.15087891.38433838 0 .14868164.05700684.28353882.17102051.40457153l3.66549682 3.66668706c.05883789.0620117.12365723.1080932.19445801.1382446s.14337158.045227.2177124.045227c.07788086 0 .15231324-.0150756.22329712-.045227.07098389-.0301514.13568116-.0762329.1940918-.1382446l3.66082764-3.66668706c.11755371-.12103271.17633056-.25588989.17633056-.40457153 0-.15441895-.05117798-.28253174-.15353393-.38433838-.10235596-.10180664-.22943115-.15270996-.38122559-.15270996-.07696533 0-.14901733.0131073-.216156.0393219-.06713868.0262146-.12680054.06556702-.1789856.11805725l-1.25692749 1.23696899-1.91921997 2.11743165.34469604.14923095.06427002-1.73547363v-7.07849121c0-.16491699-.05215454-.29832459-.15646362-.40022278s-.23797607-.15284729-.40100098-.15284729z" transform="matrix(0 -1 1 0 .752075 9.325951)"/></svg>