<svg fill="none" height="500" viewBox="0 0 780 500" width="780" xmlns="http://www.w3.org/2000/svg" xmlns:xlink="http://www.w3.org/1999/xlink"><clipPath id="a"><path d="m0 0h780v500h-780z"/></clipPath><g clip-path="url(#a)"><path d="m780 0h-780v500h780z" fill="#253747"/><path d="m211.053 467.045v-28.936c0-11.068-6.742-18.316-18.317-18.316-5.787 0-12.079 1.91-16.406 8.203-3.371-5.281-8.203-8.203-15.451-8.203-4.832 0-9.664 1.461-13.484 6.742v-5.787h-10.114v46.297h10.114v-25.564c0-8.203 4.326-12.08 11.068-12.08s10.114 4.326 10.114 12.08v25.564h10.113v-25.564c0-8.203 4.832-12.08 11.069-12.08 6.742 0 10.113 4.326 10.113 12.08v25.564zm150.015-46.297h-16.406v-13.99h-10.113v13.99h-9.158v9.158h9.158v21.239c0 10.619 4.326 16.855 15.9 16.855 4.327 0 9.159-1.461 12.53-3.371l-2.922-8.709c-2.922 1.911-6.293 2.416-8.709 2.416-4.832 0-6.742-2.921-6.742-7.697v-20.733h16.406v-9.158zm85.852-1.011c-5.787 0-9.664 2.921-12.08 6.742v-5.787h-10.113v46.297h10.113v-26.07c0-7.698 3.371-12.08 9.664-12.08 1.91 0 4.326.506 6.293.955l2.921-9.664c-2.022-.393-4.888-.393-6.798-.393zm-129.733 4.832c-4.831-3.371-11.574-4.832-18.822-4.832-11.574 0-19.271 5.787-19.271 14.945 0 7.698 5.787 12.08 15.9 13.485l4.832.505c5.282.956 8.203 2.416 8.203 4.832 0 3.371-3.877 5.787-10.619 5.787s-12.08-2.416-15.451-4.832l-4.832 7.698c5.282 3.877 12.53 5.787 19.777 5.787 13.485 0 21.239-6.293 21.239-14.945 0-8.203-6.293-12.53-15.901-13.991l-4.832-.505c-4.326-.506-7.697-1.461-7.697-4.327 0-3.371 3.371-5.281 8.708-5.281 5.788 0 11.575 2.416 14.496 3.877zm269.073-4.832c-5.787 0-9.664 2.921-12.08 6.742v-5.787h-10.113v46.297h10.113v-26.07c0-7.698 3.371-12.08 9.664-12.08 1.91 0 4.326.506 6.293.955l2.922-9.552c-1.967-.505-4.832-.505-6.799-.505zm-129.227 24.16c0 13.99 9.664 24.103 24.61 24.103 6.742 0 11.574-1.461 16.406-5.281l-4.832-8.203c-3.877 2.921-7.698 4.326-12.08 4.326-8.203 0-13.99-5.787-13.99-14.945 0-8.709 5.787-14.496 13.99-14.946 4.326 0 8.203 1.461 12.08 4.327l4.832-8.204c-4.832-3.876-9.664-5.281-16.406-5.281-14.946-.056-24.61 10.113-24.61 24.104zm93.549 0v-23.149h-10.113v5.787c-3.371-4.326-8.203-6.742-14.496-6.742-13.035 0-23.148 10.113-23.148 24.104 0 13.99 10.113 24.103 23.148 24.103 6.742 0 11.574-2.416 14.496-6.742v5.787h10.113zm-37.138 0c0-8.204 5.281-14.946 13.99-14.946 8.203 0 13.99 6.293 13.99 14.946 0 8.203-5.787 14.945-13.99 14.945-8.653-.506-13.99-6.799-13.99-14.945zm-121.024-24.16c-13.485 0-23.149 9.664-23.149 24.103 0 14.496 9.664 24.104 23.655 24.104 6.742 0 13.484-1.91 18.822-6.293l-4.832-7.248c-3.877 2.922-8.709 4.832-13.485 4.832-6.292 0-12.529-2.921-13.99-11.068h34.217c0-1.461 0-2.416 0-3.877.45-14.889-8.259-24.553-21.238-24.553zm0 8.709c6.293 0 10.619 3.876 11.574 11.068h-24.103c.955-6.236 5.281-11.068 12.529-11.068zm251.262 15.451v-41.465h-10.114v24.103c-3.371-4.326-8.203-6.742-14.495-6.742-13.036 0-23.149 10.113-23.149 24.104 0 13.99 10.113 24.103 23.149 24.103 6.742 0 11.574-2.416 14.495-6.742v5.787h10.114zm-37.139 0c0-8.204 5.282-14.946 13.99-14.946 8.203 0 13.991 6.293 13.991 14.946 0 8.203-5.788 14.945-13.991 14.945-8.708-.506-13.99-6.799-13.99-14.945zm-338.574 0v-23.149h-10.114v5.787c-3.371-4.326-8.203-6.742-14.495-6.742-13.035 0-23.149 10.113-23.149 24.104 0 13.99 10.114 24.103 23.149 24.103 6.742 0 11.574-2.416 14.495-6.742v5.787h10.114zm-37.588 0c0-8.204 5.281-14.946 13.99-14.946 8.203 0 13.99 6.293 13.99 14.946 0 8.203-5.787 14.945-13.99 14.945-8.709-.506-13.99-6.799-13.99-14.945z" fill="#fff"/><path d="m465.738 69.1387h-151.926v272.9493h151.926z" fill="#ff5a00"/><path d="m323.926 205.613c0-55.455 26.07-104.673 66.074-136.4743-29.441-23.1485-66.58-37.1387-107.09-37.1387-95.965 0-173.613 77.648-173.613 173.613s77.648 173.614 173.613 173.614c40.51 0 77.649-13.99 107.09-37.139-40.06-31.351-66.074-81.019-66.074-136.475z" fill="#eb001b"/><path d="m670.711 205.613c0 95.965-77.649 173.614-173.613 173.614-40.51 0-77.649-13.99-107.09-37.139 40.51-31.857 66.074-81.019 66.074-136.475 0-55.455-26.07-104.673-66.074-136.4743 29.385-23.1485 66.524-37.1387 107.033-37.1387 96.021 0 173.67 78.154 173.67 173.613z" fill="#f79e1b"/></g></svg>