<svg height="15" viewBox="0 0 16 15" width="16" xmlns="http://www.w3.org/2000/svg"><path d="m2.5234375 14.5595703h9.5209961c.835612 0 1.4650879-.208903 1.8884277-.626709.4233399-.417806.6350098-1.0389811.6350098-1.8635254v-9.57080074c0-.82454427-.2116699-1.44710287-.6350098-1.86767578-.4233398-.42057292-1.0528157-.63085938-1.8884277-.63085938h-9.5209961c-.83007812 0-1.45817057.208903-1.88427734.62670898-.42610677.41780599-.63916016 1.04174805-.63916016 1.87182618v9.57080074c0 .8300782.21305339 1.4526368.63916016 1.8676758.42610677.4150391 1.05419922.6225586 1.88427734.6225586zm.05810547-1.402832c-.37630208 0-.6640625-.0996094-.86328125-.2988281-.19921875-.1992188-.29882813-.49528-.29882813-.8881836v-9.37158207c0-.39290364.09960938-.68896484.29882813-.88818359s.48697917-.29882813.86328125-.29882813h9.40478513c.3707683 0 .6585287.09960938.8632813.29882813s.3071289.49527995.3071289.88818359v9.37158207c0 .3929036-.1023763.6889648-.3071289.8881836-.2047526.1992187-.492513.2988281-.8632813.2988281zm7.16357422-3.89306642c.18261719 0 .32926431-.06225586.43994141-.18676758s.1660156-.28637696.1660156-.48559571v-3.67724609c0-.24902344-.0636393-.43025716-.190918-.54370117-.1272786-.11344401-.30436193-.17016602-.53124995-.17016602h-3.69384766c-.19921875 0-.35831705.05533854-.47729492.16601563-.11897786.11067708-.17846679.25732422-.17846679.4399414 0 .18815105.06087239.33894857.18261718.45239258s.28222656.17016602.48144532.17016602h1.37792968l1.11230469-.12451172-1.1953125 1.09570312-2.81396484 2.82226563c-.13834636.1328125-.20751953.28499349-.20751953.45654297 0 .19368489.05948893.35001626.17846679.46899416.11897787.1189778.27254232.1784668.46069336.1784668.1936849 0 .35416667-.0691732.48144531-.2075196l2.82226563-2.80566402 1.08740234-1.18701172-.11621093 1.17871094v1.30322266c0 .19921875.056722.35831705.17016601.47729492.11344401.11897786.26147461.1784668.4440918.1784668z" transform="translate(.619998 .059082)"/></svg>