<svg height="22" viewBox="0 0 35 22" width="35" xmlns="http://www.w3.org/2000/svg"><g fill="none" transform="translate(6.2373 2.2653)"><path d="m4.09150695 17.4305546v-1.1607219c0-.445138-.27091295-.7352017-.71558387-.7352017-.23354564 0-.48343949.0775372-.65766454.3269639-.13545648-.2129936-.32696391-.3269639-.61889597-.3269639-.22047106-.0095283-.43100691.0922307-.56050955.270913v-.2335457h-.36760085v1.857155h.36760085v-1.0626327c0-.3269639.1933758-.4834395.46428875-.4834395s.42552017.1742251.42552017.4834395v1.064034h.36760085v-1.064034c0-.3269639.19337579-.4834395.46428874-.4834395s.42552017.1742251.42552017.4834395v1.064034zm6.03575375-1.8380043h-.67728241v-.5605095h-.36666667v.5605095h-.38675159v.3269639h.38675159v.8725266c0 .4255202.15460722.6772824.61889596.6772824.1758965-.0036675.34824702-.050162.50212312-.1354565l-.1163057-.3269639c-.10436291.0652319-.22539608.0988162-.34845011.0966879-.1933758 0-.2900637-.1163058-.2900637-.3096816v-.8893418h.67728241v-.3096815zm3.443397-.0579193c-.2036819-.004538-.3947465.0983566-.5030573.270913v-.2335457h-.3676009v1.857155h.3676009v-1.0430149c0-.3096815.1546072-.5030573.4063694-.5030573.084955.0034464.1692515.0164512.2512951.0387686l.1163057-.3484501c-.0887-.0223615-.1795013-.0353555-.2709129-.0387686zm-5.20386413.1933758c-.19337579-.1354565-.46428875-.1933758-.75435244-.1933758-.46428875 0-.75435244.2129936-.75435244.5805945 0 .3096815.21299363.4834395.61889596.5418259l.1933758.0191507c.21299363.0387686.34845011.1163058.34845011.2129937 0 .1354564-.15460722.2335456-.44513801.2335456-.22183908.0045642-.43911771-.0633251-.61889596-.1933758l-.1933758.2900637c.27091295.1933758.59974522.2335457.7940552.2335457.5418259 0 .8318896-.2512952.8318896-.5997453 0-.3269639-.23354565-.4834394-.6385138-.5418259l-.1933758-.0191507c-.17422505-.0191507-.3269639-.0775372-.3269639-.1933758 0-.1354565.15460721-.2335456.36760085-.2335456.23354564 0 .46428874.0966879.58059447.1546072zm5.61023353.7739703c0 .5605095.3676009.9673461.9673461.9673461.2709129 0 .4642887-.0579194.6576645-.2129937l-.1933758-.2900637c-.1369157.1108819-.3072665.172274-.4834395.1742251-.3269639 0-.5805944-.2512951-.5805944-.618896 0-.3676008.2503609-.6170276.5805944-.6170276.176173.0019511.3465238.0633432.4834395.1742251l.1933758-.2900637c-.1933758-.1546072-.3867516-.2129937-.6576645-.2129937-.5805945-.0387685-.9673461.3676009-.9673461.9285775zm-2.5923567-.9673461c-.5418259 0-.9094267.3867516-.9094267.9673461s.3867516.9673461.9477282.9673461c.272911.0057642.5394197-.083017.7543525-.2512952l-.1933758-.2709129c-.1554419.1204508-.345246.1881913-.5418259.1933758-.2512952 0-.5222081-.1546072-.5605096-.4834395h1.3737155v-.1546072c0-.5805945-.3484501-.9673461-.8706582-.9673461zm-.0191507.3484501c.2709129 0 .4642887.1742251.4834395.4642888h-1.0056476c.0579193-.270913.2335457-.4642888.5222081-.4642888zm-5.01048834.618896v-.9285775h-.36760085v.2335456c-.13545647-.174225-.3269639-.2709129-.59974522-.2709129-.52220807 0-.90942675.4063694-.90942675.9673461 0 .5609766.38675159.967346.90942675.967346.27091295 0 .46428875-.0966879.59974522-.2709129v.2335456h.36760085zm-1.48955414 0c0-.3484501.21299363-.618896.58059448-.618896.34845011 0 .56050956.270913.56050956.618896 0 .3676008-.23354565.618896-.56050956.618896-.36760085.0191507-.58059448-.270913-.58059448-.618896zm14.29673038-.9673461c-.2036819-.004538-.3947465.0983566-.5030573.270913v-.2335457h-.3676009v1.857155h.3671338v-1.0430149c0-.3096815.1546072-.5030573.4063694-.5030573.084955.0034464.1692515.0164512.2512951.0387686l.1163057-.3484501c-.0887-.0223615-.1795013-.0353555-.2709129-.0387686zm-1.4316348.9673461v-.9285775h-.3676009v.2335456c-.1354565-.174225-.3269639-.2709129-.5997452-.2709129-.5222081 0-.9094268.4063694-.9094268.9673461 0 .5609766.3867516.967346.9094268.967346.2709129 0 .4642887-.0966879.5997452-.2709129v.2335456h.3676009zm-1.4895542 0c0-.3484501.2129937-.618896.5805945-.618896.3484501 0 .5605096.270913.5605096.618896 0 .3676008-.2335457.618896-.5605096.618896-.3676008.0191507-.5805945-.270913-.5805945-.618896zm5.223482 0v-1.6637792h-.3676009v.9673461c-.1354564-.1742251-.3269639-.270913-.5997452-.270913-.5222081 0-.9094267.4063694-.9094267.9673461 0 .5609766.3867515.9673461.9094267.9673461.270913 0 .4642888-.0966879.5997452-.270913v.2335457h.3676009zm-1.4895542 0c0-.3484501.2129937-.618896.5805945-.618896.3484501 0 .5605096.270913.5605096.618896 0 .3676008-.2335457.618896-.5605096.618896-.3680679.0196178-.5810616-.2704459-.5810616-.618896z" fill="#fff"/><path d="m7.941273 1.489663h6.713036v10.949554h-6.713036z" fill="#ff5f00"/><path d="m8.61855578 6.96443993c.00046569-2.13402083.97670938-4.15068495 2.65027602-5.47477707-2.85523484-2.24490601-6.95629708-1.91858843-9.42060264.74958829-2.46430555 2.66817668-2.46430555 6.78220088 0 9.45037755 2.46430556 2.6681767 6.5653678 2.9944943 9.42060264.7495883-1.67356664-1.3240921-2.64981033-3.34075624-2.65027602-5.47477707z" fill="#eb001b"/><path d="m22.5476889 6.96443993c.0019273 2.66460072-1.5182003 5.09624727-3.9144334 6.26165177s-5.2476042.85983-7.3424704-.7868747c1.6739816-1.3237666 2.6503504-3.34063264 2.6503504-5.47477707 0-2.13414442-.9763688-4.15101043-2.6503504-5.47477707 2.0948662-1.64670469 4.9462373-1.95227922 7.3424704-.78687473s3.9163607 3.59705109 3.9144334 6.2616518z" fill="#f79e1b"/></g></svg>