<svg height="18" viewBox="0 0 18 18" width="18" xmlns="http://www.w3.org/2000/svg"><g fill="#a4a4ae" fill-rule="nonzero"><path d="m8.99723505 17.9944701c4.92928075 0 8.99875135-4.0751789 8.99875135-8.99723505 0-4.92924504-4.0766952-8.99723505-9.0058867-8.99723505-4.92054883 0-8.9900997 4.06799001-8.9900997 8.99723505 0 4.92205615 4.07669514 8.99723505 8.99723505 8.99723505zm0-1.7723327c-4.00929281 0-7.21776703-3.2156363-7.21776703-7.22490235 0-4.00929281 3.20133887-7.22490238 7.21063168-7.22490238 4.009266 0 7.2336432 3.21560957 7.2336432 7.22490238 0 4.00926605-3.2172418 7.22490235-7.22650785 7.22490235z"/><path d="m7.47452381 13.7887142h3.50580439c.3853983 0 .6875805-.2801518.6875805-.670188 0-.3679167-.3021822-.6598419-.6875805-.6598419h-.9703189v-4.11524387c0-.51424494-.2570511-.85445861-.74207677-.85445861h-1.64063187c-.38690564 0-.68758052.29353062-.68758052.66144729 0 .39003627.30067488.67015242.68758052.67015242h.88024399v3.63810277h-1.03302084c-.38533585 0-.68758052.2919252-.68758052.6598419 0 .3900362.30224467.670188.68758052.670188zm1.46785821-7.64685148c.65779042 0 1.17617388-.52713317 1.17617388-1.18022317 0-.66092106-.51838346-1.1849236-1.17617388-1.1849236-.64597249 0-1.17467544.52400254-1.17467544 1.1849236 0 .65309.52870295 1.18022317 1.17467544 1.18022317z"/></g></svg>