<svg height="27" viewBox="0 0 26 27" width="26" xmlns="http://www.w3.org/2000/svg"><g fill="none" fill-rule="evenodd"><circle cx="13" cy="13.5" fill="#039" r="13"/><g fill="#fc0" fill-rule="nonzero" transform="translate(2.959584 3.388888)"><path d="m10.0404161.00000061.3242509.99799939 1.0494963.00008665-.8494963.61691335.3247713.99802608-.8497713-.61702608-.84827503.61702608.32427503-.99802608-.849-.61691335 1.049-.00008665z"/><path d="m10.0404161 17.3333336.3242509.9979994 1.0494963.0000866-.8494963.6169134.3247713.9980261-.8497713-.6170261-.84827503.6170261.32427503-.9980261-.849-.6169134 1.049-.0000866z"/><path d="m1.37374912 8.66666761.32425088.99799939 1.04949627.00008665-.84949627.61691335.32477129.9980261-.84977129-.6170261-.84827503.6170261.32427503-.9980261-.849-.61691335 1.049-.00008665z"/><path d="m6.2313345 2.775112.32477168.99902548-.84977168-.61702548-.84827542.61702448.32427542-.99802448-.84899959-.61691309 1.04899959-.00008691.32474861-.99799939.32425139.99799939 1.04949827.0000868z"/><path d="m2.53486255 4.333333.32424995.998 1.04949785.00008691-.84949785.61691309.32477179.99802608-.84977179-.61702608-.84827342.61702448.32427342-.99802448-.84899859-.6169131 1.04899859-.0000869z"/><path d="m2.53486155 13 .32425045.998 1.04949827.0000866-.84949827.6169134.32477129.9980241-.84977129-.6170241-.84827492.6170245.32327492-.9980245-.848-.6169143 1.049-.0000857z"/><path d="m5.70708255 16.172221.32425045.998 1.04949827.0000866-.84949827.6169134.32477129.9980241-.84977129-.6170241-.84827492.6170245.32327492-.9980245-.848-.6169143 1.049-.0000857z"/><path d="m18.706334 10.662667-.848275.6170261.324275-.9980261-.849-.61691335 1.049-.00008665.3247476-.998.3242524.998 1.0494963.00008665-.8494963.61691335.3247713.9980261z"/><path d="m14.3737475 1.161112.32425.998 1.0494979.00008691-.8494979.61691309.3247737.99802448-.8497737-.61702448-.8482734.61702548.3242734-.99802548-.8489986-.6169131 1.0489986-.0000869z"/><path d="m17.5459681 4.33333361.3242514.99799939 1.0494969.0000869-.8494969.6169131.3247717.99802448-.8497717-.61702448-.8482735.61702608.3242735-.99802608-.8489996-.61691309 1.0489996-.00008691z"/><path d="m17.5459691 13.0000006.3242509.9979994 1.0494983.0000857-.8484983.6159143.3237732.9990245-.8497732-.6170245-.848273.6170241.324273-.9980241-.849-.6169134 1.049-.0000866z"/><path d="m14.3737481 16.1722216.3242509.9979994 1.0494983.0000857-.8484983.6159143.3237732.9990245-.8497732-.6170245-.848273.6170241.324273-.9980241-.849-.6169134 1.049-.0000866z"/></g></g></svg>