<svg height="15" viewBox="0 0 236 15" width="236" xmlns="http://www.w3.org/2000/svg"><g transform="translate(.383931 .51)"><path d="m3.015 7.23h4.185l.63 1.89c.12.375.18.675.18.855 0 .435-.315.615-1.08.645v.375h3.87v-.375c-.87-.03-1.155-.315-1.575-1.545l-3.18-9.06-.93.105-3.195 8.46c-.57 1.515-1.065 2.04-1.92 2.04v.375h3.51v-.375c-.87-.03-1.26-.27-1.26-.81 0-.285.105-.75.285-1.23zm3.99-.555h-3.78l1.95-5.25z"/><path d="m11.722857 11.025c.3-.045.51-.06.675-.06s.345.015.555.045c.885.15 1.08.18 1.5.18 1.41 0 2.325-.885 2.325-2.265 0-.585-.18-1.08-.495-1.425-.345-.375-.72-.6-1.725-1.02-.99-.42-1.275-.57-1.56-.78-.27-.195-.405-.465-.405-.81 0-.81.6-1.335 1.53-1.335 1.095 0 1.755.795 1.785 2.13h.495l.075-2.37c-.3.075-.54.105-.72.105-.09 0-.195-.015-.315-.03-.81-.15-1.005-.18-1.395-.18-.75 0-1.455.315-1.86.855-.255.345-.405.855-.405 1.38 0 1.02.495 1.56 2.115 2.265 1.365.6 1.41.615 1.68.84.225.195.36.525.36.87 0 .885-.615 1.41-1.635 1.41-.69 0-1.245-.27-1.635-.81-.255-.33-.36-.69-.42-1.395h-.465z"/><path d="m20.385714 3.825h1.8v-.405h-1.8c0-.99.015-1.56.045-2.205l-.69.195c-.225 1.41-.675 1.995-1.56 2.07v.345h.945v4.86c0 1.11.045 1.44.21 1.74.255.48.81.735 1.545.735.54 0 1.02-.12 1.515-.375l-.135-.39c-.33.195-.615.27-.945.27-.345 0-.585-.105-.735-.315s-.195-.6-.195-1.485z"/><path d="m23.183571 3.42v.33c.855 0 1.035.225 1.035 1.35v4.02c0 1.395-.09 1.515-1.095 1.545v.33h3.435v-.33c-1.005-.03-1.08-.135-1.08-1.545v-2.355c0-.795.135-1.41.405-1.905.315-.57.735-.9 1.125-.9.24 0 .33.09.42.42.09.285.225.375.555.375.48 0 .795-.24.795-.615 0-.525-.495-.93-1.14-.93-.885 0-1.695.645-2.19 1.785 0-.21 0-.375 0-.48 0-.315-.015-.51-.045-1.26z"/><path d="m36.481428 10.65c-.57 0-.75-.045-.84-.165s-.165-.66-.165-1.29l.015-.69.015-1.425c.03-1.47.03-1.47.03-1.515 0-.825-.135-1.32-.435-1.695-.36-.435-1.05-.66-2.01-.66-.885 0-1.62.165-2.19.48-.63.36-1.02.9-1.02 1.44 0 .315.225.45.735.45.225 0 .42-.045.525-.12.12-.09.15-.195.165-.51.06-.93.57-1.38 1.56-1.38.615 0 1.035.195 1.23.585.15.315.21.675.21 1.365v.945c-1.095.075-1.89.18-2.67.36-1.455.33-2.205 1.095-2.205 2.28 0 .63.255 1.23.66 1.59.375.315.87.465 1.53.465.765 0 1.29-.165 1.95-.645.3-.21.495-.375.735-.645.06 1.005.18 1.245.63 1.245.3 0 .96-.06 1.545-.15zm-2.175-3.135c0 .99-.105 1.62-.345 2.04-.375.645-1.155 1.095-1.92 1.095-.75 0-1.26-.645-1.26-1.59 0-.795.345-1.395 1.005-1.71.6-.3 1.185-.42 2.52-.54z"/><path d="m42.452142 3.42v.33c.525 0 .765.03.885.135.165.135.225.48.225 1.23v4.005c0 1.395-.075 1.515-1.11 1.545v.33h3.42v-.33c-1.005-.03-1.08-.15-1.08-1.545v-3.06c0-.63.045-1.935.09-2.805zm.825-2.505c0 .48.375.855.855.855.465 0 .84-.375.84-.855 0-.465-.375-.84-.84-.84-.48 0-.855.375-.855.84z"/><path d="m49.149999 3.255-2.265.165v.33c.855 0 1.035.225 1.035 1.35v4.02c0 1.395-.09 1.515-1.095 1.545v.33h3.42v-.33c-1.02-.03-1.095-.135-1.095-1.545v-2.595c0-.615.195-1.335.51-1.83.42-.675.99-1.005 1.695-1.005.63 0 1.08.27 1.32.795.165.345.24.87.24 1.62v3.015c0 .105-.03.66-.045.825-.015.255-.06.375-.15.495-.12.15-.39.21-.885.225v.33h3.405v-.33c-1.02-.03-1.095-.135-1.095-1.545v-3.105c0-.915-.105-1.44-.39-1.875-.405-.645-1.02-.93-1.965-.93-1.245 0-1.98.435-2.64 1.59z"/><path d="m62.687856 8.865c-.51 1.2-1.335 1.815-2.415 1.815-1.56 0-2.505-1.395-2.505-3.675 0-2.16.81-3.42 2.175-3.42.87 0 1.485.555 1.575 1.38.03.39.03.42.12.51.105.09.3.15.51.15.465 0 .75-.18.75-.465 0-.375-.255-.825-.645-1.185-.54-.48-1.35-.765-2.22-.765-2.19 0-3.675 1.65-3.675 4.095 0 2.295 1.47 3.885 3.585 3.885 1.44 0 2.475-.72 3.09-2.115z"/><path d="m64.030713 10.995h3.39v-.33c-1.005-.03-1.08-.15-1.08-1.545v-6.12c0-.795.03-1.995.09-3l-2.4.12v.33c.51.015.735.045.84.135.165.135.225.495.225 1.23v7.305c0 1.395-.075 1.515-1.065 1.545z"/><path d="m68.41857 3.42v.33c.525 0 .765.03.885.135.165.135.225.48.225 1.23v4.005c0 1.395-.075 1.515-1.11 1.545v.33h3.42v-.33c-1.005-.03-1.08-.15-1.08-1.545v-3.06c0-.63.045-1.935.09-2.805zm.825-2.505c0 .48.375.855.855.855.465 0 .84-.375.84-.855 0-.465-.375-.84-.84-.84-.48 0-.855.375-.855.84z"/><path d="m75.116427 3.255-2.265.165v.33c.855 0 1.035.225 1.035 1.35v4.02c0 1.395-.09 1.515-1.095 1.545v.33h3.42v-.33c-1.02-.03-1.095-.135-1.095-1.545v-2.595c0-.615.195-1.335.51-1.83.42-.675.99-1.005 1.695-1.005.63 0 1.08.27 1.32.795.165.345.24.87.24 1.62v3.015c0 .105-.03.66-.045.825-.015.255-.06.375-.15.495-.12.15-.39.21-.885.225v.33h3.405v-.33c-1.02-.03-1.095-.135-1.095-1.545v-3.105c0-.915-.105-1.44-.39-1.875-.405-.645-1.02-.93-1.965-.93-1.245 0-1.98.435-2.64 1.59z"/><path d="m89.254284 10.65c-.57 0-.75-.045-.84-.165s-.165-.66-.165-1.29l.015-.69.015-1.425c.03-1.47.03-1.47.03-1.515 0-.825-.135-1.32-.435-1.695-.36-.435-1.05-.66-2.01-.66-.885 0-1.62.165-2.19.48-.63.36-1.02.9-1.02 1.44 0 .315.225.45.735.45.225 0 .42-.045.525-.12.12-.09.15-.195.165-.51.06-.93.57-1.38 1.56-1.38.615 0 1.035.195 1.23.585.15.315.21.675.21 1.365v.945c-1.095.075-1.89.18-2.67.36-1.455.33-2.205 1.095-2.205 2.28 0 .63.255 1.23.66 1.59.375.315.87.465 1.53.465.765 0 1.29-.165 1.95-.645.3-.21.495-.375.735-.645.06 1.005.18 1.245.63 1.245.3 0 .96-.06 1.545-.15zm-2.175-3.135c0 .99-.105 1.62-.345 2.04-.375.645-1.155 1.095-1.92 1.095-.75 0-1.26-.645-1.26-1.59 0-.795.345-1.395 1.005-1.71.6-.3 1.185-.42 2.52-.54z"/><path d="m92.517141 3.255-2.265.165v.33c.855 0 1.035.225 1.035 1.35v4.02c0 1.395-.09 1.515-1.095 1.545v.33h3.42v-.33c-1.02-.03-1.095-.135-1.095-1.545v-2.595c0-.615.195-1.335.51-1.83.42-.675.99-1.005 1.695-1.005.63 0 1.08.27 1.32.795.165.345.24.87.24 1.62v3.015c0 .105-.03.66-.045.825-.015.255-.06.375-.15.495-.12.15-.39.21-.885.225v.33h3.405v-.33c-1.02-.03-1.095-.135-1.095-1.545v-3.105c0-.915-.105-1.44-.39-1.875-.405-.645-1.02-.93-1.965-.93-1.245 0-1.98.435-2.64 1.59z"/><path d="m101.749998 3.825h1.8v-.405h-1.8c0-.99.015-1.56.045-2.205l-.69.195c-.225 1.41-.675 1.995-1.56 2.07v.345h.945v4.86c0 1.11.045 1.44.21 1.74.255.48.81.735 1.545.735.54 0 1.02-.12 1.515-.375l-.135-.39c-.33.195-.615.27-.945.27-.345 0-.585-.105-.735-.315s-.195-.6-.195-1.485z"/><path d="m105.582855 13.095c.54-.255.9-.525 1.2-.885.405-.51.645-1.155.645-1.755 0-.84-.45-1.38-1.155-1.38-.585 0-1.005.42-1.005.99 0 .495.24.75.885.9.225.06.285.12.285.3 0 .54-.36.99-1.155 1.455z"/><path d="m114.478569 11.025c.3-.045.51-.06.675-.06s.345.015.555.045c.885.15 1.08.18 1.5.18 1.41 0 2.325-.885 2.325-2.265 0-.585-.18-1.08-.495-1.425-.345-.375-.72-.6-1.725-1.02-.99-.42-1.275-.57-1.56-.78-.27-.195-.405-.465-.405-.81 0-.81.6-1.335 1.53-1.335 1.095 0 1.755.795 1.785 2.13h.495l.075-2.37c-.3.075-.54.105-.72.105-.09 0-.195-.015-.315-.03-.81-.15-1.005-.18-1.395-.18-.75 0-1.455.315-1.86.855-.255.345-.405.855-.405 1.38 0 1.02.495 1.56 2.115 2.265 1.365.6 1.41.615 1.68.84.225.195.36.525.36.87 0 .885-.615 1.41-1.635 1.41-.69 0-1.245-.27-1.635-.81-.255-.33-.36-.69-.42-1.395h-.465z"/><path d="m127.746426 6.765c-.03-.885-.09-1.245-.24-1.65-.465-1.215-1.5-1.905-2.865-1.905-2.115 0-3.555 1.665-3.555 4.095 0 2.295 1.47 3.885 3.615 3.885 1.47 0 2.49-.645 3.165-2.025l-.345-.195c-.6 1.14-1.41 1.695-2.475 1.695-1.08 0-1.815-.54-2.25-1.65-.24-.615-.33-1.215-.345-2.25zm-5.265-.405c.09-.78.18-1.17.405-1.605.405-.765 1.005-1.17 1.725-1.17.705 0 1.215.375 1.545 1.11.195.435.27.87.285 1.665z"/><path d="m133.649283.12v.33c1.095.015 1.11.045 1.11 1.5v2.265c-.63-.705-1.26-1.005-2.175-1.005-2.01 0-3.39 1.695-3.39 4.17 0 1.14.3 2.1.855 2.79.54.645 1.365 1.035 2.205 1.035 1.095 0 1.935-.45 2.55-1.395l.06 1.305 2.1-.12v-.33h-.165c-.435 0-.615-.075-.705-.27-.075-.18-.075-.195-.105-1.605v-5.805c0-1.155.03-2.025.09-2.985zm1.155 7.08c0 2.25-.84 3.57-2.265 3.57-1.275 0-1.95-1.23-1.95-3.555 0-2.355.735-3.63 2.085-3.63 1.365 0 2.13 1.29 2.13 3.615z"/><path d="m145.244997 3.255-2.265.165v.33c.855 0 1.035.225 1.035 1.35v4.02c0 1.395-.09 1.515-1.095 1.545v.33h3.42v-.33c-1.02-.03-1.095-.135-1.095-1.545v-2.595c0-.615.195-1.335.51-1.83.42-.675.99-1.005 1.695-1.005.63 0 1.08.27 1.32.795.165.345.24.87.24 1.62v3.015c0 .105-.03.66-.045.825-.015.255-.06.375-.15.495-.12.15-.39.21-.885.225v.33h3.405v-.33c-1.02-.03-1.095-.135-1.095-1.545v-3.105c0-.915-.105-1.44-.39-1.875-.405-.645-1.02-.93-1.965-.93-1.245 0-1.98.435-2.64 1.59z"/><path d="m152.392854 7.32c0 2.325 1.44 3.87 3.615 3.87 2.28 0 3.72-1.575 3.72-4.08 0-2.355-1.44-3.9-3.63-3.9-1.035 0-1.98.36-2.61 1.005-.69.705-1.095 1.86-1.095 3.105zm1.395-.195c0-2.295.795-3.57 2.235-3.57 1.47 0 2.31 1.35 2.31 3.69 0 2.31-.81 3.585-2.28 3.585-1.44 0-2.265-1.35-2.265-3.705z"/><path d="m163.215711 3.255-2.265.165v.33c.855 0 1.035.225 1.035 1.35v4.02c0 1.395-.09 1.515-1.095 1.545v.33h3.42v-.33c-1.02-.03-1.095-.135-1.095-1.545v-2.595c0-.615.195-1.335.51-1.83.42-.675.99-1.005 1.695-1.005.63 0 1.08.27 1.32.795.165.345.24.87.24 1.62v3.015c0 .105-.03.66-.045.825-.015.255-.06.375-.15.495-.12.15-.39.21-.885.225v.33h3.405v-.33c-1.02-.03-1.095-.135-1.095-1.545v-3.105c0-.915-.105-1.44-.39-1.875-.405-.645-1.02-.93-1.965-.93-1.245 0-1.98.435-2.64 1.59z"/><path d="m175.351425 7.32c0 2.325 1.44 3.87 3.615 3.87 2.28 0 3.72-1.575 3.72-4.08 0-2.355-1.44-3.9-3.63-3.9-1.035 0-1.98.36-2.61 1.005-.69.705-1.095 1.86-1.095 3.105zm1.395-.195c0-2.295.795-3.57 2.235-3.57 1.47 0 2.31 1.35 2.31 3.69 0 2.31-.81 3.585-2.28 3.585-1.44 0-2.265-1.35-2.265-3.705z"/><path d="m185.739282 10.095c.825.795 1.545 1.11 2.52 1.11 2.085 0 3.375-1.59 3.375-4.14 0-2.355-1.245-3.855-3.195-3.855-1.08 0-1.845.465-2.43 1.47v-1.68c0-.78.03-1.995.09-3l-2.415.12v.33c1.035.015 1.095.09 1.095 1.365v6.525c0 1.995 0 2.1-.045 2.685h.405zm.21-2.745c0-2.355.855-3.735 2.295-3.735 1.32 0 1.995 1.23 1.995 3.63 0 2.385-.705 3.615-2.085 3.615-.75 0-1.41-.39-1.74-1.035-.315-.585-.465-1.395-.465-2.475z"/><path d="m192.947139 10.995h3.39v-.33c-1.005-.03-1.08-.15-1.08-1.545v-6.12c0-.795.03-1.995.09-3l-2.4.12v.33c.51.015.735.045.84.135.165.135.225.495.225 1.23v7.305c0 1.395-.075 1.515-1.065 1.545z"/><path d="m197.334996 3.42v.33c.525 0 .765.03.885.135.165.135.225.48.225 1.23v4.005c0 1.395-.075 1.515-1.11 1.545v.33h3.42v-.33c-1.005-.03-1.08-.15-1.08-1.545v-3.06c0-.63.045-1.935.09-2.805zm.825-2.505c0 .48.375.855.855.855.465 0 .84-.375.84-.855 0-.465-.375-.84-.84-.84-.48 0-.855.375-.855.84z"/><path d="m208.817853 3.93v-.57c-.81.03-1.26.045-1.635.045-.345 0-.465-.015-.945-.09-.42-.075-.69-.105-1.005-.105-.705 0-1.335.15-1.845.45-.735.435-1.17 1.32-1.17 2.34 0 .6.165 1.155.48 1.545.165.21.33.36.75.645l-.585.39c-.585.405-.72.6-.72 1.02 0 .6.3 1.02.945 1.32-.93.6-1.05.75-1.05 1.38 0 .69.255 1.155.81 1.455.57.315 1.32.465 2.325.465 1.125 0 1.98-.18 2.655-.57.675-.375 1.125-1.125 1.125-1.86 0-.84-.42-1.38-1.245-1.62-.42-.105-.9-.15-1.92-.15-.06 0-.225 0-.345 0-.375 0-.495 0-.705 0-1.26 0-1.65-.18-1.65-.75 0-.345.225-.6.78-.9.555.135.87.18 1.32.18 1.8 0 2.97-1.02 2.97-2.61 0-.78-.27-1.41-.855-2.01zm-5.34 1.89c0-1.5.585-2.265 1.71-2.265 1.11 0 1.68.81 1.68 2.385 0 1.485-.585 2.28-1.68 2.28-.6 0-1.11-.27-1.365-.72-.225-.405-.345-1.005-.345-1.68zm.165 5.205c.015-.015.915-.03 1.44-.03.96 0 1.395.015 1.71.06.81.135 1.155.465 1.155 1.095 0 1.05-.99 1.71-2.595 1.71-1.53 0-2.325-.585-2.325-1.695 0-.63.195-.99.615-1.14z"/><path d="m216.92571 10.65c-.57 0-.75-.045-.84-.165s-.165-.66-.165-1.29l.015-.69.015-1.425c.03-1.47.03-1.47.03-1.515 0-.825-.135-1.32-.435-1.695-.36-.435-1.05-.66-2.01-.66-.885 0-1.62.165-2.19.48-.63.36-1.02.9-1.02 1.44 0 .315.225.45.735.45.225 0 .42-.045.525-.12.12-.09.15-.195.165-.51.06-.93.57-1.38 1.56-1.38.615 0 1.035.195 1.23.585.15.315.21.675.21 1.365v.945c-1.095.075-1.89.18-2.67.36-1.455.33-2.205 1.095-2.205 2.28 0 .63.255 1.23.66 1.59.375.315.87.465 1.53.465.765 0 1.29-.165 1.95-.645.3-.21.495-.375.735-.645.06 1.005.18 1.245.63 1.245.3 0 .96-.06 1.545-.15zm-2.175-3.135c0 .99-.105 1.62-.345 2.04-.375.645-1.155 1.095-1.92 1.095-.75 0-1.26-.645-1.26-1.59 0-.795.345-1.395 1.005-1.71.6-.3 1.185-.42 2.52-.54z"/><path d="m220.188567 3.255-2.265.165v.33c.855 0 1.035.225 1.035 1.35v4.02c0 1.395-.09 1.515-1.095 1.545v.33h3.42v-.33c-1.02-.03-1.095-.135-1.095-1.545v-2.595c0-.615.195-1.335.51-1.83.42-.675.99-1.005 1.695-1.005.63 0 1.08.27 1.32.795.165.345.24.87.24 1.62v3.015c0 .105-.03.66-.045.825-.015.255-.06.375-.15.495-.12.15-.39.21-.885.225v.33h3.405v-.33c-1.02-.03-1.095-.135-1.095-1.545v-3.105c0-.915-.105-1.44-.39-1.875-.405-.645-1.02-.93-1.965-.93-1.245 0-1.98.435-2.64 1.59z"/><path d="m229.421424 3.825h1.8v-.405h-1.8c0-.99.015-1.56.045-2.205l-.69.195c-.225 1.41-.675 1.995-1.56 2.07v.345h.945v4.86c0 1.11.045 1.44.21 1.74.255.48.81.735 1.545.735.54 0 1.02-.12 1.515-.375l-.135-.39c-.33.195-.615.27-.945.27-.345 0-.585-.105-.735-.315s-.195-.6-.195-1.485z"/><path d="m234.019281 9.075c-.615 0-1.065.45-1.065 1.05s.45 1.065 1.065 1.065c.6 0 1.05-.465 1.05-1.065s-.45-1.05-1.05-1.05z"/></g></svg>
