<svg height="27" viewBox="0 0 26 27" width="26" xmlns="http://www.w3.org/2000/svg" xmlns:xlink="http://www.w3.org/1999/xlink"><defs><circle id="a" cx="13" cy="13" r="13"/><mask id="b" fill="#fff"><use fill="#fff" fill-rule="evenodd" xlink:href="#a"/></mask></defs><g fill="none" fill-rule="evenodd" transform="translate(0 .5)"><use fill="#d8d8d8" xlink:href="#a"/><g mask="url(#b)"><g fill-rule="nonzero" transform="translate(-6.5)"><path d="m0 0h39v26h-39z" fill="#039"/><g fill="#fc0" transform="translate(9.035073 2.777299)"><g transform="translate(8.666667)"><path d="m.78945825.18783087v1.44444444h.72222222z" transform="matrix(.95105652 .30901699 -.30901699 .95105652 1.105484 -.311004)"/><path d="m.54894198.18783087v1.44444444h.72222222z" transform="matrix(-.95105652 .30901699 .30901699 .95105652 2.262292 -.236681)"/><path d="m.78945825.18783087v1.44444444h.72222222z" transform="matrix(0 1.00000000434 -1.00000000434 0 3.35983843167 .32021834252)"/><path d="m.54894198.18783087v1.44444444h.72222222z" transform="matrix(-.58778524626 -.80901700413 -.80901700413 .58778524626 3.6466263841 1.44337520306)"/><path d="m.78945825.18783087v1.44444444h.72222222z" transform="matrix(-.95105651185 .30901699926 -.30901699926 -.95105651185 3.45614501417 2.65929661432)"/><path d="m.54894198.18783087v1.44444444h.72222222z" transform="matrix(.58778525441 -.80901698948 -.80901698948 -.58778525441 2.47658172487 3.27912272405)"/><path d="m.78945825.18783087v1.44444444h.72222222z" transform="matrix(0 1.00000000434 1.00000000434 0 .23668056833 .32021834252)"/><path d="m.54894198.18783087v1.44444444h.72222222z" transform="matrix(.58778524626 -.80901700413 .80901700413 .58778524626 -.0501073841 1.44337520306)"/><path d="m.78945825.18783087v1.44444444h.72222222z" transform="matrix(.95105651185 .30901699926 .30901699926 -.95105651185 .14037398583 2.65929661432)"/><path d="m.54894198.18783087v1.44444444h.72222222z" transform="matrix(-.58778525441 -.80901698948 .80901698948 -.58778525441 1.11993727513 3.27912272405)"/></g><g transform="translate(8.666667 17.333333)"><path d="m.78945825.18783087v1.44444444h.72222222z" transform="matrix(.95105652 .30901699 -.30901699 .95105652 1.105484 -.311004)"/><path d="m.54894198.18783087v1.44444444h.72222222z" transform="matrix(-.95105652 .30901699 .30901699 .95105652 2.262292 -.236681)"/><path d="m.78945825.18783087v1.44444444h.72222222z" transform="matrix(0 1.00000000434 -1.00000000434 0 3.35983843167 .32021834252)"/><path d="m.54894198.18783087v1.44444444h.72222222z" transform="matrix(-.58778524626 -.80901700413 -.80901700413 .58778524626 3.6466263841 1.44337520306)"/><path d="m.78945825.18783087v1.44444444h.72222222z" transform="matrix(-.95105651185 .30901699926 -.30901699926 -.95105651185 3.45614501417 2.65929661432)"/><path d="m.54894198.18783087v1.44444444h.72222222z" transform="matrix(.58778525441 -.80901698948 -.80901698948 -.58778525441 2.47658172487 3.27912272405)"/><path d="m.78945825.18783087v1.44444444h.72222222z" transform="matrix(0 1.00000000434 1.00000000434 0 .23668056833 .32021834252)"/><path d="m.54894198.18783087v1.44444444h.72222222z" transform="matrix(.58778524626 -.80901700413 .80901700413 .58778524626 -.0501073841 1.44337520306)"/><path d="m.78945825.18783087v1.44444444h.72222222z" transform="matrix(.95105651185 .30901699926 .30901699926 -.95105651185 .14037398583 2.65929661432)"/><path d="m.54894198.18783087v1.44444444h.72222222z" transform="matrix(-.58778525441 -.80901698948 .80901698948 -.58778525441 1.11993727513 3.27912272405)"/></g><g transform="translate(0 .151777)"><path d="m.78945825.18783087v1.44444444h.72222222z" transform="matrix(.95105652 .30901699 -.30901699 .95105652 1.105484 8.203886)"/><path d="m.54894198.18783087v1.44444444h.72222222z" transform="matrix(-.95105652 .30901699 .30901699 .95105652 2.262292 8.278209)"/><path d="m.78945825.18783087v1.44444444h.72222222z" transform="matrix(0 1.00000000434 -1.00000000434 0 3.35983843167 8.83510834252)"/><path d="m.54894198.18783087v1.44444444h.72222222z" transform="matrix(-.58778524626 -.80901700413 -.80901700413 .58778524626 3.6466263841 9.95826520306)"/><path d="m.78945825.18783087v1.44444444h.72222222z" transform="matrix(-.95105651185 .30901699926 -.30901699926 -.95105651185 3.45614501417 11.17418661432)"/><path d="m.54894198.18783087v1.44444444h.72222222z" transform="matrix(.58778525441 -.80901698948 -.80901698948 -.58778525441 2.47658172487 11.79401272405)"/><path d="m.78945825.18783087v1.44444444h.72222222z" transform="matrix(0 1.00000000434 1.00000000434 0 .23668056833 8.83510834252)"/><path d="m.54894198.18783087v1.44444444h.72222222z" transform="matrix(.58778524626 -.80901700413 .80901700413 .58778524626 -.0501073841 9.95826520306)"/><path d="m.78945825.18783087v1.44444444h.72222222z" transform="matrix(.95105651185 .30901699926 .30901699926 -.95105651185 .14037398583 11.17418661432)"/><path d="m.54894198.18783087v1.44444444h.72222222z" transform="matrix(-.58778525441 -.80901698948 .80901698948 -.58778525441 1.11993727513 11.79401272405)"/><path d="m.78945825.18783087v1.44444444h.72222222z" transform="matrix(-.58778525441 -.80901698948 .80901698948 -.58778525441 5.59464409794 4.48303833065)"/><path d="m.54894198.18783087v1.44444444h.72222222z" transform="matrix(.95105651185 .30901699926 .30901699926 -.95105651185 4.7024527349 3.74295508142)"/><path d="m.78945825.18783087v1.44444444h.72222222z" transform="matrix(.58778525255 -.80901699351 .80901699351 .58778525255 4.14185624364 2.64729244788)"/><path d="m.54894198.18783087v1.44444444h.72222222z" transform="matrix(-.00000001133 .99999999946 .99999999946 .00000001133 4.57001495365 1.57006973695)"/><path d="m.78945825.18783087v1.44444444h.72222222z" transform="matrix(.9510565107 .30901698698 -.30901698698 .9510565107 5.4388182889 .69833079638)"/><path d="m.54894198.18783087v1.44444444h.72222222z" transform="matrix(-.9510565107 .30901698698 .30901698698 .9510565107 6.5956262776 .77265379565)"/><path d="m.78945825.18783087v1.44444444h.72222222z" transform="matrix(.58778525255 -.80901699351 -.80901699351 -.58778525255 6.66854401753 4.48303857336)"/><path d="m.54894198.18783087v1.44444444h.72222222z" transform="matrix(-.95105651272 .30901700362 -.30901700362 -.95105651272 7.56073537963 3.74295531907)"/><path d="m.78945825.18783087v1.44444444h.72222222z" transform="matrix(-.58778524237 -.80901699219 -.80901699219 .58778524237 8.12133338578 2.64729209921)"/><path d="m.54894198.18783087v1.44444444h.72222222z" transform="matrix(.00000000387 .9999999924 -.9999999924 .00000000387 7.69317468682 1.5700693927)"/><path d="m.78945825.18783087v1.44444444h.72222222z" transform="matrix(-.95105651185 .30901699926 -.30901699926 -.95105651185 4.61725822572 6.84085270927)"/><path d="m.54894198.18783087v1.44444444h.72222222z" transform="matrix(.58778525441 -.80901698948 -.80901698948 -.58778525441 3.63769493641 7.460678819)"/><path d="m.78945825.18783087v1.44444444h.72222222z" transform="matrix(-.58778525255 -.80901699351 .80901699351 -.58778525255 2.42242400661 7.65525939291)"/><path d="m.54894198.18783087v1.44444444h.72222222z" transform="matrix(.95105651272 .30901700362 .30901700362 -.95105651272 1.53023264451 6.91517613862)"/><path d="m.78945825.18783087v1.44444444h.72222222z" transform="matrix(.58778524237 -.80901699219 .80901699219 .58778524237 .96963463836 5.81951291876)"/><path d="m.54894198.18783087v1.44444444h.72222222z" transform="matrix(-.00000000387 .9999999924 .9999999924 .00000000387 1.39779333732 4.74229021224)"/><path d="m.78945825.18783087v1.44444444h.72222222z" transform="matrix(-.58778525255 -.80901699351 -.80901699351 .58778525255 4.9491117805 5.81951326742)"/><path d="m.54894198.18783087v1.44444444h.72222222z" transform="matrix(.00000001133 .99999999946 -.99999999946 .00000001133 4.52095307049 4.74229055649)"/><path d="m.78945825.18783087v1.44444444h.72222222z" transform="matrix(-.9510565107 .30901698698 .30901698698 .9510565107 3.65214973524 3.87055161592)"/><path d="m.54894198.18783087v1.44444444h.72222222z" transform="matrix(.9510565107 .30901698698 -.30901698698 .9510565107 2.49534174655 3.9448746152)"/><path d="m.78945825.18783087v1.44444444h.72222222z" transform="matrix(0 1.00000000434 -1.00000000434 0 4.52095172012 13.168441246)"/><path d="m.54894198.18783087v1.44444444h.72222222z" transform="matrix(-.58778524626 -.80901700413 -.80901700413 .58778524626 4.80773967255 14.29159810653)"/><path d="m.78945825.18783087v1.44444444h.72222222z" transform="matrix(-.95105652413 .30901699134 -.30901699134 -.95105652413 4.61725741656 15.50751815493)"/><path d="m.54894198.18783087v1.44444444h.72222222z" transform="matrix(.587785269 -.80901699029 -.80901699029 -.587785269 3.6376941112 16.12734425929)"/><path d="m.78945825.18783087v1.44444444h.72222222z" transform="matrix(-.58778525255 -.80901699351 .80901699351 -.58778525255 2.42242214562 16.32192608507)"/><path d="m.54894198.18783087v1.44444444h.72222222z" transform="matrix(.95105651272 .30901700362 .30901700362 -.95105651272 1.53023078352 15.58184283078)"/><path d="m.78945825.18783087v1.44444444h.72222222z" transform="matrix(-.95105652413 .30901699134 .30901699134 .95105652413 3.65214857434 12.53721850602)"/><path d="m.54894198.18783087v1.44444444h.72222222z" transform="matrix(.95105652413 .30901699134 -.30901699134 .95105652413 2.49534056932 12.61154150634)"/><path d="m.78945825.18783087v1.44444444h.72222222z" transform="matrix(-.00000001133 .99999999946 .99999999946 .00000001133 1.39779256292 13.16844042973)"/><path d="m.54894198.18783087v1.44444444h.72222222z" transform="matrix(.58778525255 -.80901699351 .80901699351 .58778525255 1.11100459916 14.29159728153)"/><path d="m.78945825.18783087v1.44444444h.72222222z" transform="matrix(0 1.00000000434 -1.00000000434 0 7.69317272012 16.340662246)"/><path d="m.54894198.18783087v1.44444444h.72222222z" transform="matrix(-.58778524626 -.80901700413 -.80901700413 .58778524626 7.97996067255 17.46381910653)"/><path d="m.78945825.18783087v1.44444444h.72222222z" transform="matrix(-.95105652413 .30901699134 -.30901699134 -.95105652413 7.78947841656 18.67973915493)"/><path d="m.54894198.18783087v1.44444444h.72222222z" transform="matrix(.587785269 -.80901699029 -.80901699029 -.587785269 6.8099151112 19.29956525929)"/><path d="m.78945825.18783087v1.44444444h.72222222z" transform="matrix(-.58778525255 -.80901699351 .80901699351 -.58778525255 5.59464314562 19.49414708507)"/><path d="m.54894198.18783087v1.44444444h.72222222z" transform="matrix(.95105651272 .30901700362 .30901700362 -.95105651272 4.70245178352 18.75406383078)"/><path d="m.78945825.18783087v1.44444444h.72222222z" transform="matrix(-.95105652413 .30901699134 .30901699134 .95105652413 6.82436957434 15.70943950602)"/><path d="m.54894198.18783087v1.44444444h.72222222z" transform="matrix(.95105652413 .30901699134 -.30901699134 .95105652413 5.66756156932 15.78376250634)"/><path d="m.78945825.18783087v1.44444444h.72222222z" transform="matrix(-.00000001133 .99999999946 .99999999946 .00000001133 4.57001356292 16.34066142973)"/><path d="m.54894198.18783087v1.44444444h.72222222z" transform="matrix(.58778525255 -.80901699351 .80901699351 .58778525255 4.28322559916 17.46381828153)"/></g><g transform="matrix(-1 0 0 1 20.929853 .151777)"><path d="m.78945825.18783087v1.44444444h.72222222z" transform="matrix(.95105652 .30901699 -.30901699 .95105652 1.105484 8.203886)"/><path d="m.54894198.18783087v1.44444444h.72222222z" transform="matrix(-.95105652 .30901699 .30901699 .95105652 2.262292 8.278209)"/><path d="m.78945825.18783087v1.44444444h.72222222z" transform="matrix(0 1.00000000434 -1.00000000434 0 3.35983843167 8.83510834252)"/><path d="m.54894198.18783087v1.44444444h.72222222z" transform="matrix(-.58778524626 -.80901700413 -.80901700413 .58778524626 3.6466263841 9.95826520306)"/><path d="m.78945825.18783087v1.44444444h.72222222z" transform="matrix(-.95105651185 .30901699926 -.30901699926 -.95105651185 3.45614501417 11.17418661432)"/><path d="m.54894198.18783087v1.44444444h.72222222z" transform="matrix(.58778525441 -.80901698948 -.80901698948 -.58778525441 2.47658172487 11.79401272405)"/><path d="m.78945825.18783087v1.44444444h.72222222z" transform="matrix(0 1.00000000434 1.00000000434 0 .23668056833 8.83510834252)"/><path d="m.54894198.18783087v1.44444444h.72222222z" transform="matrix(.58778524626 -.80901700413 .80901700413 .58778524626 -.0501073841 9.95826520306)"/><path d="m.78945825.18783087v1.44444444h.72222222z" transform="matrix(.95105651185 .30901699926 .30901699926 -.95105651185 .14037398583 11.17418661432)"/><path d="m.54894198.18783087v1.44444444h.72222222z" transform="matrix(-.58778525441 -.80901698948 .80901698948 -.58778525441 1.11993727513 11.79401272405)"/><path d="m.78945825.18783087v1.44444444h.72222222z" transform="matrix(-.58778525441 -.80901698948 .80901698948 -.58778525441 5.59464409794 4.48303833065)"/><path d="m.54894198.18783087v1.44444444h.72222222z" transform="matrix(.95105651185 .30901699926 .30901699926 -.95105651185 4.7024527349 3.74295508142)"/><path d="m.78945825.18783087v1.44444444h.72222222z" transform="matrix(.58778525255 -.80901699351 .80901699351 .58778525255 4.14185624364 2.64729244788)"/><path d="m.54894198.18783087v1.44444444h.72222222z" transform="matrix(-.00000001133 .99999999946 .99999999946 .00000001133 4.57001495365 1.57006973695)"/><path d="m.78945825.18783087v1.44444444h.72222222z" transform="matrix(.9510565107 .30901698698 -.30901698698 .9510565107 5.4388182889 .69833079638)"/><path d="m.54894198.18783087v1.44444444h.72222222z" transform="matrix(-.9510565107 .30901698698 .30901698698 .9510565107 6.5956262776 .77265379565)"/><path d="m.78945825.18783087v1.44444444h.72222222z" transform="matrix(.58778525255 -.80901699351 -.80901699351 -.58778525255 6.66854401753 4.48303857336)"/><path d="m.54894198.18783087v1.44444444h.72222222z" transform="matrix(-.95105651272 .30901700362 -.30901700362 -.95105651272 7.56073537963 3.74295531907)"/><path d="m.78945825.18783087v1.44444444h.72222222z" transform="matrix(-.58778524237 -.80901699219 -.80901699219 .58778524237 8.12133338578 2.64729209921)"/><path d="m.54894198.18783087v1.44444444h.72222222z" transform="matrix(.00000000387 .9999999924 -.9999999924 .00000000387 7.69317468682 1.5700693927)"/><path d="m.78945825.18783087v1.44444444h.72222222z" transform="matrix(-.95105651185 .30901699926 -.30901699926 -.95105651185 4.61725822572 6.84085270927)"/><path d="m.54894198.18783087v1.44444444h.72222222z" transform="matrix(.58778525441 -.80901698948 -.80901698948 -.58778525441 3.63769493641 7.460678819)"/><path d="m.78945825.18783087v1.44444444h.72222222z" transform="matrix(-.58778525255 -.80901699351 .80901699351 -.58778525255 2.42242400661 7.65525939291)"/><path d="m.54894198.18783087v1.44444444h.72222222z" transform="matrix(.95105651272 .30901700362 .30901700362 -.95105651272 1.53023264451 6.91517613862)"/><path d="m.78945825.18783087v1.44444444h.72222222z" transform="matrix(.58778524237 -.80901699219 .80901699219 .58778524237 .96963463836 5.81951291876)"/><path d="m.54894198.18783087v1.44444444h.72222222z" transform="matrix(-.00000000387 .9999999924 .9999999924 .00000000387 1.39779333732 4.74229021224)"/><path d="m.78945825.18783087v1.44444444h.72222222z" transform="matrix(-.58778525255 -.80901699351 -.80901699351 .58778525255 4.9491117805 5.81951326742)"/><path d="m.54894198.18783087v1.44444444h.72222222z" transform="matrix(.00000001133 .99999999946 -.99999999946 .00000001133 4.52095307049 4.74229055649)"/><path d="m.78945825.18783087v1.44444444h.72222222z" transform="matrix(-.9510565107 .30901698698 .30901698698 .9510565107 3.65214973524 3.87055161592)"/><path d="m.54894198.18783087v1.44444444h.72222222z" transform="matrix(.9510565107 .30901698698 -.30901698698 .9510565107 2.49534174655 3.9448746152)"/><path d="m.78945825.18783087v1.44444444h.72222222z" transform="matrix(0 1.00000000434 -1.00000000434 0 4.52095172012 13.168441246)"/><path d="m.54894198.18783087v1.44444444h.72222222z" transform="matrix(-.58778524626 -.80901700413 -.80901700413 .58778524626 4.80773967255 14.29159810653)"/><path d="m.78945825.18783087v1.44444444h.72222222z" transform="matrix(-.95105652413 .30901699134 -.30901699134 -.95105652413 4.61725741656 15.50751815493)"/><path d="m.54894198.18783087v1.44444444h.72222222z" transform="matrix(.587785269 -.80901699029 -.80901699029 -.587785269 3.6376941112 16.12734425929)"/><path d="m.78945825.18783087v1.44444444h.72222222z" transform="matrix(-.58778525255 -.80901699351 .80901699351 -.58778525255 2.42242214562 16.32192608507)"/><path d="m.54894198.18783087v1.44444444h.72222222z" transform="matrix(.95105651272 .30901700362 .30901700362 -.95105651272 1.53023078352 15.58184283078)"/><path d="m.78945825.18783087v1.44444444h.72222222z" transform="matrix(-.95105652413 .30901699134 .30901699134 .95105652413 3.65214857434 12.53721850602)"/><path d="m.54894198.18783087v1.44444444h.72222222z" transform="matrix(.95105652413 .30901699134 -.30901699134 .95105652413 2.49534056932 12.61154150634)"/><path d="m.78945825.18783087v1.44444444h.72222222z" transform="matrix(-.00000001133 .99999999946 .99999999946 .00000001133 1.39779256292 13.16844042973)"/><path d="m.54894198.18783087v1.44444444h.72222222z" transform="matrix(.58778525255 -.80901699351 .80901699351 .58778525255 1.11100459916 14.29159728153)"/><path d="m.78945825.18783087v1.44444444h.72222222z" transform="matrix(0 1.00000000434 -1.00000000434 0 7.69317272012 16.340662246)"/><path d="m.54894198.18783087v1.44444444h.72222222z" transform="matrix(-.58778524626 -.80901700413 -.80901700413 .58778524626 7.97996067255 17.46381910653)"/><path d="m.78945825.18783087v1.44444444h.72222222z" transform="matrix(-.95105652413 .30901699134 -.30901699134 -.95105652413 7.78947841656 18.67973915493)"/><path d="m.54894198.18783087v1.44444444h.72222222z" transform="matrix(.587785269 -.80901699029 -.80901699029 -.587785269 6.8099151112 19.29956525929)"/><path d="m.78945825.18783087v1.44444444h.72222222z" transform="matrix(-.58778525255 -.80901699351 .80901699351 -.58778525255 5.59464314562 19.49414708507)"/><path d="m.54894198.18783087v1.44444444h.72222222z" transform="matrix(.95105651272 .30901700362 .30901700362 -.95105651272 4.70245178352 18.75406383078)"/><path d="m.78945825.18783087v1.44444444h.72222222z" transform="matrix(-.95105652413 .30901699134 .30901699134 .95105652413 6.82436957434 15.70943950602)"/><path d="m.54894198.18783087v1.44444444h.72222222z" transform="matrix(.95105652413 .30901699134 -.30901699134 .95105652413 5.66756156932 15.78376250634)"/><path d="m.78945825.18783087v1.44444444h.72222222z" transform="matrix(-.00000001133 .99999999946 .99999999946 .00000001133 4.57001356292 16.34066142973)"/><path d="m.54894198.18783087v1.44444444h.72222222z" transform="matrix(.58778525255 -.80901699351 .80901699351 .58778525255 4.28322559916 17.46381828153)"/></g></g></g></g></g></svg>