<svg height="14" viewBox="0 0 15 14" width="15" xmlns="http://www.w3.org/2000/svg"><path d="m7.4213807.5c-3.82406284 0-6.9213807 3.09904821-6.9213807 6.9213807 0 3.0586735 1.98297557 5.6524609 4.73249406 6.5666599.34606903.0651764.47296101-.1488096.47296101-.332803 0-.1643828-.00576782-.599853-.00865173-1.1766347-1.92529739.4175899-2.33135173-.9286186-2.33135173-.9286186-.31492282-.7988427-.7700036-1.0122519-.7700036-1.0122519-.62696174-.4291256.04844966-.4204739.04844966-.4204739.69502198.0484497 1.06012481.7129022 1.06012481.7129022.61715645 1.0583945 1.62017987.7527002 2.01585213.5756282.06229243-.4475827.24051798-.7527002.43835411-.9257347-1.53712329-.1730345-3.15268891-.76827327-3.15268891-3.42031564 0-.75558406.26820351-1.3727405.71232544-1.85723715-.07786554-.17476487-.31146214-.87843857.06056208-1.83185876 0 0 .57966563-.18572372 1.90337969.70944152.55371046-.15400072 1.14202782-.23013591 1.73034518-.2335966.58831736.00346069 1.17663472.07959588 1.73034517.2335966 1.31506233-.89516524 1.89472793-.70944152 1.89472793-.70944152.3720243.95342019.1384277 1.65709389.0692138 1.83185876.4412381.48449665.7094416 1.10165309.7094416 1.85723715 0 2.65896376-1.6178728 3.24439724-3.15787998 3.41454784.24224833.2076414.4671932.6321527.4671932 1.2804554 0 .9263115-.00865173 1.6703599-.00865173 1.8953048 0 .1816862.12112417.3979793.47584493.3287655 2.76912908-.9078544 4.75037428-3.5033722 4.75037428-6.5574314 0-3.82233249-3.0990482-6.9213807-6.9213807-6.9213807" /></svg>
