<svg height="13" viewBox="0 0 15 13" width="15" xmlns="http://www.w3.org/2000/svg"><path d="m14.7352641 2.92946185c-.5527452.24336616-1.1383155.40400932-1.7378667.47675989.6312373-.37940834 1.103872-.97440792 1.3306215-1.67511894-.5850306.3414216-1.233424.58995191-1.9236493.72836607-.9363089-1.00123452-2.42864797-1.2481655-3.63756295-.60189201-1.20891499.64627349-1.83253017 2.02437182-1.52005631 3.35910212-2.51606188-.11872859-4.74483747-1.32754561-6.23786489-3.1533822-.27141861.46126595-.4129885.98737025-.40970592 1.52255578 0 1.05194763.53520142 1.97655424 1.34600082 2.51975292-.48053817-.01529608-.95046142-.145221-1.37060778-.37894721v.03691044c-.00056203 1.44135601 1.0147896 2.68339917 2.42747681 2.96944515-.44397185.11896305-.90897313.13683154-1.36076501.0522898.39866337 1.23337294 1.53628751 2.07769564 2.83226134 2.10204974-1.0706934.8402957-2.39273392 1.2963585-3.75379207 1.2949414-.23991788 0-.47922058-.014149-.71975364-.0412167 1.38765361.8885111 3.00113459 1.3601506 4.64887032 1.3589219 5.56917068 0 8.61120638-4.6113471 8.61120638-8.60321153 0-.12918655 0-.2583731-.0092276-.38755965.5942539-.42763013 1.1068399-.95855259 1.5133282-1.56746349z" transform="translate(0 -1)"/></svg>
