<svg height="11" viewBox="0 0 15 11" width="15" xmlns="http://www.w3.org/2000/svg"><path d="m14.3959196 4.06179775c-.1631795-.61466384-.6413013-1.09594007-1.2548788-1.26315789-1.1064459-.29863986-5.54464813-.29863986-5.54464813-.29863986s-4.43820225 0-5.54523951.29863986c-.61328657.16750843-1.09110504.64870609-1.2542874 1.26315789-.29686576 1.11413365-.29686576 3.43820225-.29686576 3.43820225s0 2.3240686.29686576 3.4382022c.16317945.6146639.64130125 1.0959401 1.25487877 1.2631579 1.10644589.2986399 5.54464814.2986399 5.54464814.2986399s4.43820223 0 5.54523953-.2986399c.6136408-.1671091 1.0918084-.6484314 1.2548787-1.2631579.2962744-1.1141336.2962744-3.4382022.2962744-3.4382022s0-2.3240686-.2968657-3.43820225zm-8.2513306 5.54819634v-4.21998818l3.70963927 2.10999409z" transform="translate(0 -2)"/></svg>
