<svg height="18" viewBox="0 0 18.0015167 18" width="18.001517" xmlns="http://www.w3.org/2000/svg"><g fill="#00ab7e" fill-rule="nonzero"><path d="m9 18c4.9307955 0 9.0015167-4.0764312 9.0015167-9 0-4.93075985-4.0779479-9-9.00865425-9-4.92206096 0-8.99286245 4.06924015-8.99286245 9 0 4.9235688 4.07794796 9 9 9zm0-1.7728773c-4.01052491 0-7.21998513-3.2166246-7.21998513-7.2271227 0-4.01052491 3.20232268-7.22712268 7.21284758-7.22712268 4.01049815 0 7.23586615 3.21659777 7.23586615 7.22712268 0 4.0104981-3.2182305 7.2271227-7.2287286 7.2271227z"/><path d="m8.05726394 13.1417398c.31261561 0 .58480595-.1550632.77004312-.4424387l3.89706464-6.08731894c.1100075-.1883777.2153755-.39103049.2153755-.58742008 0-.4359881-.3861413-.72629888-.7960149-.72629888-.2554349 0-.4920446.15194944-.6764609.43912862l-3.44015467 5.52672718-1.61918811-2.06498145c-.21381412-.27559852-.41961635-.36102603-.68239405-.36102603-.4201249 0-.75870334.3410409-.75870334.76831227 0 .2104684.08154647.39970261.22548401.58875841l2.06006543 2.5103643c.23350483.2969219.48913606.4361933.80488327.4361933z"/></g></svg>