<svg height="58" preserveAspectRatio="none" viewBox="0 0 147 58" width="147" xmlns="http://www.w3.org/2000/svg"><path d="m273.860182 50.3593901c2.446854-.8055223 5.372805-1.289181 8.368717-1.6746733 2.99547-.3854924 6.062228-.6845965 8.828775-1.1700707.649572-.0909489-.134165.3918243 1.331025.1645405 2.67489-.5091191 6.161855-.8182302 9.807339-.8800879l.685438-.0117782h.686766c.459173 0 .918788 0 1.378403.0054463.919674.0154534 1.837576.0336077 2.745294.0754513.908161.0417993 1.80348.0909046 2.677989.1454563.43659.0272758.869196.0654885 1.293831.0990962.425077.033652.844841.0663741 1.255307.1100331l-.402495.0909047c.626104.0609278 1.324825.0172688 2.033288-.0290913.708906-.04636 1.428438-.0790821 2.091736-.0172688.007085.0708906-.430391.0772668-.127966.1909308.173131-.0963952.773996-.0818275 1.403642-.0582268.630089.0236449 1.286746.0681895 1.575887.010007.517621.1281875.452974.2891414 1.119372.4427893l.780194-.1682157c.581383-.0921444 1.172063-.1126013 1.758759-.0608835.626104.0472456 1.289403.1290731 1.971741.249069l2.103249.3636628c.356888.0591124.716876.1118486 1.078192.1545777.361759.0427292.725288.0909047 1.08749.1118486-.146563.0317923-.435705.026346-.219181.1199959 2.317117.2182065 4.899464.6764049 7.510149 1.3200876 2.607143.6496604 5.178421 1.4368955 7.702762 2.3583842-.224937.0045165-.459615.0808976-.21121.2836508.164717-.0727503.627875.023645 1.214128.1981925l.225822.0690751.232022.0818275.484854.1818535c.329878.1236268.667726.256375.996719.3836769.232907.2509287.795692.4545675 1.486001.69912.347146.116365.713333.2727582 1.08749.4345977.379028.1650275.744772.360209 1.092804.5836848l-.149663-.0172688c.595552.1818093.970594.4363688 1.321283.6736596.350689.2372907.671712.4664342 1.178263.5836848l.543302.5827992c.085016-.0031438.170031.0098299.250176.0381685.089443.0349803.174459.0797906.253718.1336338.189957.1331024.369729.280197.537546.4400439.186415.1691012.381242.3509548.58891.5154953.104941.0808976.206783.1654703.313495.2400361.105384.0745214.216524.140497.332535.1972626l.01904-.0818275c.338733.2067826.657099.4448261.951554.7109867.27143.2648766.561457.509739.868309.732772l.037195.0909046c.208111.1527623.402052.300034.583153.4409739.181544.1408955.337406.2918424.487954.4245463l.754513.6837109c.207668.1818093.354231.3300108.470242.4072776.116011.077311.1904.0954653.231136.033652.181544.3373168-.197484.0063761-.543745-.2727582-.362202-.2681975-.691194-.4900349-.383013.0091214 1.278333 1.0909885 2.521685 2.26469 3.6353 3.5648078.282057.3218636.571198.6364211.832001.9818852l.200141.2527442.099627.1273019.090772.1327482.375043.5282033c.48574.7213923.902847 1.4865764 1.246894 2.2856339.343605.807869.573855 1.659707.68411 2.5311163.109811.8752615.077488 1.7625669-.096086 2.6274672-.175787.8594097-.476441 1.6883112-.89222 2.4601814-.41268.757701-.902847 1.469839-1.463418 2.1247243-.597323.5163809-.979893.8273518-1.178263.8755273-.110697.1281874-.283828.2999897-.481312.499112-.09697.1009117-.208111.2009378-.321465.3045947l-.346261.3181884c-.234678.2109005-.47467.4127682-.676139.6009536-.170031.1439508-.331206.2984842-.481755.4627591.090329-.070005-.019925-.0345376-.189514.0418435-.190842.0827574-.376813.1768501-.556586.2818354-.13505.0754513-.251061.1481573-.35246.2182066-.093871.0613263-.184643.127479-.271873.1981924-.144349.1197745-.282499.2475635-.413122.3827471-.138593.1378403-.28737.2651865-.445003.3809316-.22228.1625479-.463158.298927-.716876.4065248.154976-.1044983.291798-.2333499.406038-.3810644.053577-.0909047.029224-.1309328-.075274-.1318184-.502123.422111-1.044097.7936112-1.618395 1.1102055-.608835.3506891-1.259293.6810099-1.8637.9998182.171359-.1354935.452973-.3024251.3715-.36353-.618134.439247-1.24778.7053633-1.861486.9453551-.308181.1173391-.611492.2293648-.905947.352903-.302868.117782-.598208.2546039-.883807.4100229l.392754-.3400622c-.252833.075717-.453416.1399214-.603522.197484-.119996.0407367-.236449.0894435-.349803.1452349-.105827.0447217-.193942.1226527-.251062.2218374-.042065.0912146-.110697.1669316-.196598.2182952-.127966.0845727-.362645.1819863-.797464.310838.394083-.2001407.22538-.2089965.276301-.2997683-.418879.2391062-.85237.451645-1.297816.6362882-.241763.1027271-.491939.2045686-.747428.304639-.255489.1000703-.518506.1926133-.78108.2864846-.522934.1908422-1.053839.3582165-1.549763.5278048-.495481.1700311-.963952.3165944-1.35892.4649288.090329-.0518064.052249-.0912146.052249-.0912146-1.764072.5636707-3.652568.9719224-5.596413 1.5838572-.736802.0982992.139478-.4543018-1.746361.0562342.072617.1545335-.724846.3812416-1.397.5667703-.672597.1850859-1.207929.3524602-.603522.4153363-.824031.14922-1.890267.3254501-2.885215.4963668-.994947.1709166-1.918606.3427189-2.455709.4963667.714662-.2608028-.873623-.2590317.484411-.5362178l-1.066236-.0128409c.127523-.1647176 1.067565-.1474488.710234-.2590317-.680567.140807-2.64788.6243329-3.270442.6655123-.307738.1036127-.607949.2169667-.917902.3343059-.309952.1173391-.628761.2355639-.973251.3537886-.344047.1182247-.714662.2355639-1.128227.3427189-.413122.107155-.868752.2089965-1.383716.2917981.951554-.2678875-.605293-.2900269.047378-.4410181-.928972.3520175-1.861486.6947364-2.796657 1.0365697-.687652.1027271-.181101-.2453053-1.169849-.0318808.063319.081916-.362202.1930561-.659756.3002111-.131066 0-.84617.1044982-1.570131.1718022-.72396.067304-1.45899.0974137-1.631235-.0535775-.317038-.0956425 1.116271-.1939417.339619-.2262653-1.273905.1390358-1.317298.262574-2.594302.3927541l-.027896-.042065c-.846613.0380799-2.472093.3745997-1.540464.4737845.58891-.0429505-.24132-.1819864.634074-.1620609-.286927.123981-.801891.2329072-1.403642.3263357-.60175.0938714-1.292944.1647176-1.932775.2200663.432162-.0907718.3715-.174459.543745-.2824996-1.697211.4033811-3.516632.6225618-5.437009.8528122-.01904.1598469.699607-.3338631.987863-.2727582-2.476521-.0526919-5.074808.6097208-7.147062.369729.335192-.0416222.191285.216524.166489.1731306-1.19066.0296669-1.145053-.2054542-1.917277-.0912146-.039851-.0664184-.282943-.0473784-.615478 0-.332534.0473785-.754512.1084834-1.153466.1399214-.408694.1084834-.209439-.0597765.48574-.0907718-.553486.0735031-1.942959.1917278-3.515747.2554894-1.57323.0637617-3.330218.0766026-4.614306-.0243534.049592.0907718-1.582972.3205795-2.174981.3006539l.232907-.2054542c-.271873-.0655328-.763812-.0655328-1.204387-.073503-.440132-.008413-.825359-.0265673-.872295-.1164536-.634517.1129113.582711.0907718 1.743262.0380799 1.160993-.0526919 2.265309-.1142396 1.408955-.0190399-.438361-.1718023-2.381321.3064101-2.009821.0292241-.593337-.0053135-1.177819.0433933-1.757873.0681895-.573412.0367515-1.149038.0061991-1.715366-.0907718.329878.0416222.970595-.2639024.012841-.2727582-1.686584-.0163832-.483083.0854584-1.852187.1089262l-.861225.0518063c-.032324.1000704-.40958.0792593-.701378.0637617-.291799-.0154976-.497253-.027453-.188186.1000704-.099627-.0912146-.714219-.0912146-1.280546-.1120257-.566328-.0208111-1.087491-.0690752-.986978-.2320216l.24752-.2515043c-.724847-.0172688-1.207044.2151956-1.787984.296226-.090329-.0309952-.282499-.0907718-.242648-.1354935-.142135.3980675-1.737948-.1434637-2.627954.1018415-.380799-.0637616-.815618-.1137968-1.259736-.1607325l-1.339172-.1372646c-.868132-.0965281-1.631102-.1957129-1.980906-.3639728-1.183443.0057562-2.270845.0411794-3.598416-.2054542.271873-.0053135.63434.0256817.724935-.052692-.824606-.2182951-1.043876-.1315084-1.816853-.1633892.090595-.0190399-.322616-.1310656-.869948-.2727582-.547287-.1421353-1.22874-.3174799-1.682732-.4547446-1.178041-.0500352-.810127.2236086-.945134.3391766-.502034-.2727582-1.328456-.338291-2.190212-.4073661-.430436-.0371943-.870834-.0743886-1.281344-.1399214-.38102-.0544631-.753096-.1598469-1.106442-.3126092.41051.0172687 1.717181.1089261.775678-.1629465-.492027-.290027-1.034842-.3108381-1.663736-.3329775-.628849-.0216967-1.345637-.0345376-2.174804-.3041962l.349804.411794c-.357951-.1757874-.990476-.2727582-1.506059-.346704-.515628-.073503-.906169-.1607325-.78387-.3050818-.187521-.0132837-.373449-.0438362-.555479-.0912146-.210237-.0500352-.434067-.1124685-.634296-.1625037-.402363-.1009559-.716787-.1536478-.662413.0261246-1.352012-.4817547-3.036604-.9037329-4.567105-1.3872588-1.530546-.4835259-2.899783-1.0237288-3.618341-1.6126385-.200274-.0509207-.533739-.1819864-.800165-.2727582-.266426-.0912146-.463069-.1509911-.398732-.0318808.202798.1629465.445181.2692159.702308.3072958.18668.0318808.325318.0371943.421359.1416925-.346173-.1270805-.453107-.0752742-.506551-.048264-.314071-.1425782-.616983-.3090669-.906168-.4972524-.14953-.1164535-.090639-.1682599.352504-.1270805-.193322-.1075978-.392045-.2045686-.595374-.2909125-.181234-.0748314-.343428-.1403642-.499289-.1872999-.311724-.1000704-.591744-.1430209-.883498-.2076681-.146829-.0305525-.29813-.0624333-.460368-.1036127-.176629-.0433934-.3506-.0969709-.52103-.1607325-.187566-.0699607-.39147-.1563046-.618001-.2656736-.254958-.1275233-.503009-.2687731-.743089-.422421.083377-.0301096.090639-.0801448-.009033-.1656031-.19775-.1487772-.406835-.2820568-.625263-.3980676l-.33528-.1354935c-.11145-.0464929-.221129-.0974136-.331693-.1465633-.221085-.0991847-.444915-.1943844-.665114-.3002111-.234988-.1678171-.456206-.3546742-.661483-.5579144-.114195-.1319512-.142268-.208111-.126859-.2572606.032589-.0982992.239195-.0912146.290868-.1939417-.181233-.1270805-.371544-.2643452-.560925-.4007243s-.362467-.2864846-.543701-.4175503c-.181234-.1306228-.332579-.2581461-.476663-.3568881-.116232-.0867867-.242471-.1594042-.37606-.2156384-.098742-.1629464-.1921-.3281068-.285436-.4910533l-.139549-.2435341c-.045311-.0810304-.090617-.1673743-.129582-.2509729.379687.7327276-.603513-.4546118-.89258-.7746156l.308098.3018495c-.029012-.0868753-.073198-.1678172-.13049-.2391062-.03715-.0536661-.08065-.1118486-.128675-.1745918l-.074304-.0954654-.074309-.1036127c-.102395-.14001-.212951-.287326-.31988-.4255205-.106925-.1381945-.195731-.2727139-.271851-.3836326-.063429.1818093.48752 1.1118881.843647 1.5946613-.101363-.0876723-.197865-.1808795-.289066-.2791344l-.154051-.1663559c-.050748-.0581825-.097865-.1209258-.148613-.1818536-.100584-.1254422-.204795-.2536297-.311724-.3800017-.106929-.1263721-.206606-.2582347-.316253-.3754853.075212.0154533.070682-.0636731.016312-.1981925-.05437-.1345637-.149521-.3309407-.261883-.5518925-.055278-.1109187-.120523-.2245385-.181234-.3454642-.060715-.1209258-.114178-.2427371-.170363-.3636628-.101151-.2074468-.191883-.4198528-.271851-.6364211-.034435-.1009116-.067963-.1891152-.102399-.266382-.034431-.0772667-.0589-.1490871-.090617-.2100149-.04702-.0982992-.103471-.1917721-.168548-.2790901-.09152-.1327482-.174888-.2045686-.204794-.3318706.026279-.012708.01722-.1054724-.005438-.2263538-.022653-.1209258-.062526-.2727582-.081552-.4018756-.044403-.2636367-.064342-.4391141.08246-.1281875.023937.0747872.040037.1518768.048025.2300291.012686.082713.02628.1718022.041684.266382.025062.2162583.093163.4252548.200265.6145915-.012686-.070005-.019934-.1309328-.024464-.18637-.004534-.0554815 0-.1064023 0-.1545777 0-.0954654.009967-.1818093 0-.2818354-.008754-.1259293-.027847-.2508844-.057089-.3736699-.031717-.1609096-.090617-.3636628-.181238-.6427529-.116896-.4227752-.216573-.3545856-.300847-.3854923-.040778-.0163832-.079743-.0581825-.111459-.2036388-.016439-.1020629-.027029-.2049671-.031716-.3082256 0-.0672597-.005437-.1427553-.00725-.2282136l-.001812-.1354492c0-.0472899.004531-.0982107.007249-.1509469.009062.0554815.016311.1054724.026279.150017s.023561.0854584.035341.1227412c.020622.0654443.044514.1297373.071588.1927462.048933.1145496.096962.2163911.154051.3791161-.005438-.2609357-.009972-.5209415-.005438-.7800618l.019935-.3873078c.007248-.129073.012686-.2581904.029901-.385448l-.199356-.0709349c.058901-.2100149.070682-.0636288.102399-.160024-.058989-.1866357-.081451-.3830127-.066152-.5781942 0-.1264164.008156-.2627512.016311-.4045766.008156-.1418697.031717-.2863961.048933-.4318524.028091-.2909568.085179-.5718623.110556-.8091531.011778-.1191103.020837-.2263981.026275-.3146017.006965-.0703592.001753-.1414269-.015405-.210015.100597-.3951451.241812-.7787335.421372-1.1446102l.27185-.5455164c.090617-.1754774.181234-.3445786.260072-.5118644l-.047121.14001c.0589-.0972808.115988-.2000079.171266-.3063659s.119615-.2118304.176704-.3227491.114178-.2227673.168548-.3373169.117804-.2245384.169455-.3372726l.308098-.6609958c.097865-.2090851.175796-.4136537.251008-.5863858l.015405.0572527c.140457-.1981925.350689-.5454721.579952-.9036887.229263-.3582165.453084-.7273256.589919-1.0082754.438587-.4336678.652428-.3891232.832776-.3918242.180304-.0027453.333464-.0427292.665114-.6282294.178488-.2000079.34232-.4127239.490256-.636421.106048-.1548877.197085-.319561.271828-.4918504.104233-.2654964.052559-.3882376-.164894-.2545595.811012-.7473397 1.631102-1.5837686 2.47838-2.3556389.847277-.7718702 1.73259-1.4737798 2.627865-1.9510623.201204-.2509287.010007-.1818536.502965-.5973227 1.314818-.9091792 2.68317-1.8810574 4.036998-2.7274934 1.353784-.8464359 2.685871-1.5701307 3.890169-1.9837844-.770232.5036728.040781.206384.11145.300034.580896-.5146097.886243-.253674.985915-.6536898-.075186-.0636288-.106004-.1245566-.222015-.1263721-.115966-.0018154-.31531.0527362-.724934.230029.404178-.2464122.873579-.5000419 1.359274-.7619074.24287-.1290731.492958-.2545596.742159-.3800018.249202-.1254865.498404-.2482276.743975-.3636628.245571-.1154795.486581-.2245827.717673-.3264243.231091-.1017972.453106-.1927461.659711-.2727139.334085-.1398328.676361-.2591645 1.024881-.3573309-.511998.1336781-.165825-.080012.18938-.2981743 0 .1617952.315355.109059.752122-.0418436.499998-.1817207.986358-.3992631 1.455316-.6509445l.069783-.2209518.699563-.0909047c.352505-.2018233.271828-.5127499 1.307601-.7364028.104631.0666841.23087.0904619.352505.0663298.957797-.5382103 2.315256-1.2873655 3.477888-1.5382941l.996763-.0672597c.463954-.1900009 1.220637-.5991382.356135-.3945695 1.953719-.4891493 3.199684-.8355434 3.871174-.8082676 1.573097-.7564169 3.578446-1.4664737 5.686211-2.064682 2.107987-.5982393 4.317063-1.0910018 6.290574-1.4664871l-.090329.1536479c1.081735-.0909135.503452-.3400267 1.261064-.394574-.318808.1891065.859011.1181894.056234.4291248 1.540464-.1518324 1.909308-.5900477 2.887872-.8255186.120882-.1981969-.774438.2518364-.621676 0 .158961-.0972808 2.12716-.2254727 2.322872-.5227702.398511.0427335.131066.2818397-.057119.4191266l.910374-.2727494c.592895.0645498-.03498.3018406-.652228.5454943-.617248.243658-1.219885.5091323-.597323.5973183.282942-.0618223.564556-.1218247.847499-.1818315.42862.0745525-.124424.2372908-.511865.3563923-.387883.1191014-.614591.1891064.459173.0636421.906389-.2727494 1.646733-.7764266.80012-.7627887.962624-.1818314 1.166307-.3636628 1.388144-.5454942.132394-.1118707.283385-.199295.445889-.2582037.34759-.1127474.705806-.1865338 1.069336-.2200176.593781.0763723-1.673743.261839-1.240253.4254895 1.014873.0745524 1.964214-.3863956 2.852449-.4173067-.987863.0209129-.195713-.3463896.432162-.471854 1.087491 0-.664184.3263888.852812.1818314.232022-.1818314 1.615738-.4491255.397625-.420942.25549-.2036521.654443-.2209253 1.087491-.2309235.433047-.0100026.906389-.0163655 1.3049-.1818358.259031.0981929-.119554.2727493-.352461.4218542-.232907.1491004-.317922.2645621.520278.2509287-.142579-.1054636.362201-.2318401.793478-.3636673.43172-.1318272.783294-.2672942.32545-.4073041.663298.0154577.744772.1936539.280286.3754853.473784.0354541 1.032141-.1191015 1.516553-.2218374.484854-.102736.894434-.1554678 1.063137.0663696l.30641-.261839c.297997.0590947.724846.0909179 1.208815.1954694.412237-.0245483 1.073764-.1363747 1.624594-.198197.550829-.0618222.991405-.0709127.96041.1118265.132394-.0236361.66994-.0481844 1.082177-.095461.412236-.0472766.700492-.1100065.332534-.2272881-1.177819-.1109196-1.342094.229108-2.008935-.0809153.407809.1025721.83333.1115829 1.245124.0263636.402052-.0700054.785508-.1818323 1.12557-.2382002l.113797.1372833c.406923-.0645503 1.339437-.0645503 1.59227-.2127439-.309067.0845519-.145678.1772866.181101.2072891l.415336-.219108c.822703-.0663688.920559.0318206 1.012217.13001.091214.0981894.1811.2027448.977678.1700138l-1.214128.1691012c.265231-.0363663.809862.1609229 1.573673.0909179.297555-.1909218.859897-.418214 1.115829-.5673162.905947-.0772787.401167.2218352 1.292059.0381848-.388769.0709145-.777538.1400109-1.166307.2163805-.090772.0318189.108041.1127342.47467.1881943.495481.1017618.999818.1562515 1.505484.1627428.768239-.0472766 1.972626-.2882071.761155-.4327619.606178.015456 1.449692.1609203.962181.2872967 1.36999-.0118224-.17136-.2172913 1.013987-.2882057.479541.1454638 1.971741.4073028 2.864404.6518686-.415779.0800076-.832001.1700133-1.246895.2545639l.815618.0472767c-1.071107.2027443.521163.2282003-.090772.4700385.551273.0754601 1.22874.0290912 1.768943-.0072751-.796578-.2727493-.331649-.3945739.280286-.4982176.611492-.1036481 1.368219-.1818358 1.146824-.3991258.405152-.0024796.807648.0645543 1.189775.1981969.212539.0877476.415336.1977585.604407.3282087.34449.2091072.702707.3636672 1.896909.1672858-.370614-.1427376.759384-.3345716-.657984-.3636628 1.381945.1818314.986977-.3036605 2.606257.0481843-1.231397.0245482 1.249552.5545891-.525591.5909554.13328-.1191015-.962623-.2136547-1.235382-.2036521.554815.2145624-.159404.3863912 1.252651.5454943.432163.0281879.943141.0809153 1.328368.0981929.385227.0172732.645144-.0063673.573412-.1209213-.007085-.2327433-1.319955-.1427376-.738572-.3036605.583153.0463025 1.160993.1405635 1.728206.2818398.3715.0781922.622562.0991007 1.007788-.0527273-1.08749-.1209213-1.330138-.3936707-1.290287-.5454987l1.286745.0809153-.271872.1163739c.32235.0698234.649129.1187162.977678.1463729.115125.0103435.231136-.0051851.33962-.0454568.153205-.0545516.301096-.1236445 1.280546.0527318l.869195.4500333c-.254603.0909179-.959967-.0618223-1.569687-.1609229-.609721-.0990963-1.119815-.1672858-.976794.0681895.491939.07759.987863.1273684 1.485116.1491005.47954.0277274.954653.1032584 1.419139.2254727-.271872-.0081828-.634517-.058187-.905947-.0645498.226266.044549.429506.2236528.808091.3891232.378585.1654659.930743.3254766 1.861486.3236612.952882.0500042.271872-.1018282.325007-.2536563 1.019744.1718288 1.689241.2436537 2.265753.3154785.576069.0718249 1.066236.1172816 1.721565.2518364-.166932.1218291.406923.254564.833772.3573.212981.0509119.389654.0909179.418436.1254643.029224.0345509-.090772.044549-.464044.044549-.267002-.1183841-.544188-.2127026-.828016-.2818398-.187742-.0509119-.393196-.1027359-.607949-.151828-.214753-.0490964-.442347-.0909179-.66994-.1345592-.452974-.0827307-.912589-.1563754-1.306671-.1900141-.304197-.0370704-.611935-.0370704-.916131 0 .334305.2509286-.060663.1618306-.602637.0454611-.541974-.1163738-1.233168-.2454735-1.482458-.1018282.815618.1491048 1.178262.3091156 1.376632.4663988.198369.1572876.212096.3163906.319694.4545807.445003.1018283.898862.0909179 1.173391.102736.232022-.1818314-.355117-.2909303-.345818-.5227659.224494.0509119.452973.0981885.671268.1445574.218295.0463645.441461.0909135.657985.132735.433048.0836429.854583.1491048 1.250437.2109271.666398.1075535 1.338552.1737505 2.012477.1981924.576512.2472978.335634.4191444-.377699.2727582 2.16214.4330922 4.298598.9864459 6.39919 1.6574045-.599536-.3527702-.034094-.2209518.580054-.0618134.614592.1590942 1.276119.3518404.87628.0781523-1.047639-.3972705-1.911078-.892796-1.268591-.8873054.669497.2090851-.064204.1463419.196598.2991042.452974.0236449.767797.2018233 1.080406.3636628s.626104.3009196 1.087048.2790901c-1.959785-.4545675-.499024.3136719-.9334.4818875.715105.1245567.685438.1727321.648244.2336157-.037195.0609278-.081474.1436851.598651.3527702 1.575887.3060559 3.134505.6945149 4.669655 1.1637387.499467.249556 1.011774.4720134 1.535151.6663979.556143.2209518 1.149038.4309667 1.737948.636421.588909.2054542 1.168963.4082074 1.710937.5955072.541974.1872999 1.035684.3763709 1.449692.5454721.815618.4909648.103613.5455164 1.017973.9919366 1.099003.4545674-.679682-.6655123.888678.1599797l-.181101-.0081916c.259917.0709349.977679.4491654 1.713595.7809917.735915.3318263 1.481572.636421 1.812336.5400258l-.641602.0909489c.285599.1654704.597323.2199777.85724.3054803-.036308.1081735.265674.3636629-.24929.202709.43969.343693.957753.5800539 1.499727.7955152.541974.2155055 1.102988.4227751 1.631236.6818954l-.589795-.522757c.236449.0909047.460058.1900009.67481.2863518.214753.0963953.417994.1973069.616363.2964032.395854.2000079.765583.4009456 1.132655.6036989.367072.2027089.724846.4172846 1.104759.6291149.189071.106358.383899.2109448.585368.3200481.201026.1091033.408694.2209076.626989.3327562l-.148777.1481572 1.075535.4627591c-.340505.0272758.518506.6728183 1.133098.8401041l-1.431981-.5455164-1.436408-.520056c-.674811-.5136798.916131.2327743.553044-.1972626-.301982-.3782306-1.930119-1.1819374-2.277265-1.1509864.600865.3463497.650457.3245645 1.157894.5145654.068189.3564011-.850599-.1536479-1.396115-.2309146.325893.1581643.737687.4800278.847056.4372987-.685881-.2190922-1.332796-.5273178-2.385749-1.0646426.761155.2727582-.309952-.3545856 0-.2872816-.097856.0909046-.408694.0254604-.853697-.150017-.221838-.0909047-.478656-.2036388-.758498-.3418333-.279843-.1381946-.58891-.2909569-.90639-.4655044-.233793-.1906208-.492382-.3486965-.768239-.4700208-.302425-.1391244-.645144-.2627512-1.008674-.3909386-.724846-.2600502-1.540464-.5082336-2.298962-.8864642.885578.0688095 1.757873.2565521 2.593417.5582245-.915246-.5627409-1.081735-.4854742-2.009821-1.0336916-.543745-.0400281-.996719.0818275-2.318002-.3545856v-.1990781c-.419764-.1323497-.84927-.2302504-1.284974-.2927722-.202798-.0365744-.403381-.0854584-.600865-.1463862-.300654-.0924101-.595995-.2020004-.88425-.3281954-2.517257-1.0764649-5.184177-2.0001676-7.168759-2.6474813l-.020811-.2000079c-.379913-.0087229-.758055-.0590238-1.127341-.150017-.433048-.0909046-.905947-.2354753-1.400985-.3709245-.494596-.1354936-.989192-.2891414-1.466076-.4145836-.476441-.1254865-.925872-.2309146-1.314641-.2927723-.634517-.2181623-1.300472-.4009014-1.966427-.5727479-.666398-.1718465-1.33501-.3127421-1.961999-.4473057-.62699-.1345637-1.214128-.2645666-1.721565-.3909387-.433048-.0985206-.855912-.2382649-1.262392-.4173288-2.313574-.4218454-4.490326-.7554871-6.689218-1.0682291-2.199334-.3127731-4.422136-.6037034-6.834452-.9091837l.842628-.1736486c-.889121.0972808-.543745-.2191054-1.400985-.2727494.954211.3182061-1.210586.1518325-1.826063.2600236-.534447-.1000084-1.109187-.1818358-1.702525-.2345676-.59378-.0527274-1.202615-.0909135-1.806137-.1018238-.603522-.0109104-1.199516-.0154578-1.764958 0-.565442.0154577-1.101217.0318188-1.581201.056367l-.065533-.1872865c-1.951815.2527485-4.250776-.1172816-6.669291-.1772884-.277187-.0754602-.716876-.247289-1.437294-.2245606-.568542.1375215-1.145939.236538-1.728207.2963854-.286042.0345509-.592452.0663697-.946683.1045558-.354232.0381818-.755842.0790955-1.233168.1454652-1.401871.0390938-3.677365.0909135-5.10846.0709127-2.61777.3873033-5.266536.6682354-7.933455 1.0137173l-1.002033.1300073-1.002474.1400012c-.669498.0909489-1.33811.2000079-2.008935.3036648-1.338552.2227673-2.680204.46639-4.015213.7736857l-.427735-.1445264c-1.28586.3527259-2.650536.6782203-4.043109 1.0073456l-2.099706.4854741c-.701379.1672858-1.400986.3254944-2.099707.4964111-2.781912.6582505-5.453304 1.3764547-7.57825 2.1592618l.308979-.4818432c-.357996.0796577-.71112.1801266-1.057514.3009195-.320757.1056496-.635358.2291878-.942388.370039-.535554.2527441-.843647.4782124-.63434.5454721-.377124.0979893-.748845.215727-1.11366.3527702-.388769.1381946-.784755.2982186-1.168078.4463759-.191196.0736801-.379691.1445707-.561811.2100149-.182163.0654886-.356135.1291174-.52196.1818536-.28002.0967937-.571065.1578986-.866317.1818093-.504868.1586956-.991051.3720758-1.449869.636421-.362467.2073139-.693231.4109527-1.238747.6664421-1.368308.4845886-2.28807.8655202-3.176128 1.2627907-.441283.2045686-.879866.4046208-1.352012.6446126l-.748491.3782306-.843647.4418151.61623-.2727139c.232863-.2063841.188451-.3636628-.432251-.0791264-.217498.1345636-.539184.300034-.878981.4791422-.339841.1791083-.702308.3582166-.996807.5273178-.59626.3345715-.943318.5909465-.393285.5455164-1.339305.5745633-2.789174 1.4600976-4.182898 2.3928774-1.393679.9328242-2.740245 1.899256-3.958137 2.6093129.133191-.0227151.058891.0754513-.067083.2118304-.125929.1363791-.307163.312742-.398687.4354832-.985029.7773166-1.998131 1.5664999-2.899783 2.3801694-.901607.8137139-1.696326 1.6473975-2.244587 2.465672-.150416.1290731-.090595-.0218295-.070669-.1118485.008147-.0445446.005446-.0745215-.040781-.0454302-.111229.090329-.210237.1948716-.294499.3109266-.168526.246368-.139568.2727582-.119598.3154874.019926.0427291.026258.0963509-.161308.406392-1.10011 1.6364605-2.11048 3.3048019-2.718518 5.0521812-.294597.8510852-.474998 1.7377265-.536457 2.6365887-.056513.8546275.035472 1.7126203.271855 2.5356327.22464.7139534.525099 1.4015609.896201 2.0510884.181234.3300109.394184.650059.610748.965502.114196.1555076.225646.313672.340727.4664342l.362467.442745c.510182.5869615 1.064288 1.1340719 1.657404 1.6365049l.457623.3790276.475733.36353c.155862.123981.324387.2346783.488441.3511319.164009.1164535.325317.2346783.497473.3418333l.507437.329878c.171271.1075978.347058.2103249.519259.3157087l.26005.1571902.265541.1501056.530993.2988827c.724934.3812416 1.444422.7518562 2.187511 1.0848337 1.46612.6646267 2.966113 1.2517653 4.493692 1.7583162l-.096971.0611049c1.06203.1815436 2.225591.6362882 3.363737 1.0325846.570888.1899566 1.128183.3790276 1.660105.5007946.265497.0619905.522846.1120257.769347.1447921.234412.0287813.470818.0380799.70678.0278958.470331.2103249 1.878533.4804263 1.471654.5641135.502079.0531347 1.000261.138593 1.491536.2550466.277319.0619905.568187.1275233.868133.1992552.299945.0717318.608923.1483344.925208.2191807 1.263189.2988827 2.633312.5738548 3.882022.6256612-.204879-.0394083-.413123-.0575626-.621632-.0549059.609854.1558618 1.209745.2639024 1.804189.3639728.594445.1000704 1.185258.1726878 1.780633.2453052.59533.0726175 1.196151.1447921 1.812336.2236086.307208.0402938.618001.0854584.934286.134608.31624.0491496.634295.1009559.964129.1620608-.271828.0061991-.761155-.0239106-.849978.0553487.996807.2926837 2.456639-.0965281 2.972267.3869978.586297.0549059.438583-.1718022.077931-.1952701 1.442607.1917278 2.9159.3374055 4.407657.4547446 1.491314.1173392 3.002997.1970412 4.521764.2537183 3.03842.1142396 6.109606.1381502 9.139613.1425781 1.087491.0854583 1.642748.1647176 1.924805.2435341.281614.0792593.285157.14922.260803.2036831-.049592.1053838-.212982.1474488 1.505041-.0053135.280285.0836872.20324-.1629465.251061-.0739458 1.325711-.117782 2.069155.4764412 2.990599.2439769-.38257-.2599173.611492-.1527623.634074-.313052.665513.0336519 1.197302.0730602 1.654704.1093689.457844.0363087.840857.0646472 1.205272.0845728.813404.0469356 1.629907.0137264 2.436669-.0991848l-.15409.1434637c2.446853-.4653715 5.305944-.3896546 7.352958-.9635095 6.761835-.4410181 13.362495-1.1654213 19.865741-2.1674534 6.503688-1.0020321 12.912177-2.2794791 19.23078-3.985989 3.10661-.7961351 6.167169-1.7631868 9.167952-2.8962846 1.48423-.5685414 2.941449-1.1818045 4.356604-1.8638771.357331-.1654703.701378-.3472796 1.052952-.5209416.351575-.1736619.688981-.3636628 1.034356-.5455163.675697-.3800018 1.350065-.7646085 1.993437-1.1818931 1.273905-.7953381 2.462794-1.7206348 3.547628-2.7611453.508322-.4967653.973694-1.0356841 1.391687-1.6110002.398067-.5428154.729716-1.131238.988748-1.7528699.491496-1.1880479.610607-2.498217.340948-3.7557385l-.04915-.2427814c-.015497-.0808976-.045164-.1609096-.065975-.2418072l-.069075-.2436669-.034538-.1218114-.044279-.1209257c-.060662-.1609096-.11424-.323679-.181101-.4855184l-.212096-.4836588c-.031881-.0818274-.077045-.1609096-.116896-.240036l-.123096-.2399918c-.042065-.080012-.079702-.1609096-.124423-.2400361l-.139479-.2363609-.138593-.2372907c-.04605-.0800121-.090772-.1590942-.144792-.2364052l-.309067-.4672755c-.03808-.0791265-.081916-.1545778-.125309-.227328l-.123981-.212716c-.080588-.1391244-.157633-.2727582-.230251-.3936839-.165603-.2499989-.317037-.4727661-.458287-.6773348-.141692-.2045686-.271872-.3900088-.402495-.5663717-.06509-.0909489-.128852-.1745918-.193942-.2573049l-.207668-.240036c-.278957-.3173028-.576954-.6309305-.951554-1.0100909-.190842-.1818093-.412237-.3773007-.654885-.5972784-.243092-.220022-.514079-.4664343-.828459-.7328163.141692.0418436.29534.1818536.174902-.0136379-.162061.0527362-.602637-.32638-1.053839-.7209495l-.336962-.2909125c-.104499-.087628-.213868-.1695883-.327222-.2454824-.206782-.1418254-.37947-.2354753-.48574-.230029-1.788425-1.4750196-3.703932-2.7881555-5.723494-3.9239542-2.060298-1.1586467-4.192771-2.183571-6.383692-3.0683968.369729.1245566.660641.18637.758498.1581644.097856-.0281614 0-.132704-.434377-.3045505l-.975022-.1818093-.11601-.1354935c-.603522-.2009378-1.307557-.2918424-.724846.0200141-2.916653-1.0273597-5.883784-1.8965107-8.880582-2.6283971l-.280728-.0708906-.2825-.0645586-.564556-.1281875-1.129113-.2582347-1.134869-.2363609c-.377699-.0800121-.755398-.1609097-1.135311-.2300291-.759384-.1418254-1.516996-.2936578-2.279922-.4172846l-1.142839-.1954914-1.145053-.1745475c-3.057018-.4618735-6.12909-.7952053-9.216659-1.0000839-3.088012-.2048786-6.177353-.2860861-9.269351-.2436669-1.467846-.0417993-3.247859-.0145235-5.057539.0854583-1.809679.1000261-3.647255.2382206-5.236425.3836769-4.73386.1327482-9.243226.4354833-13.740637.9673617-2.249812.2727582-4.498296.590061-6.768919.9918923-1.138412.199388-2.281251.4185244-3.42896.6573206-.573413.1212357-1.149039.2484934-1.727321.3818615l-.865211.2054542c-.28737.0709348-.58271.1445707-.85724.2172767.066419-.0644258.138151-.1230954.214753-.1754331.248405-.1740162.509651-.3290367.78108-.4636889.750085-.3791162 1.98901-.882789 3.938168-1.3346554z" transform="translate(-222 -40)"/></svg>