<svg height="64" preserveAspectRatio="none" viewBox="0 0 158 64" width="158" xmlns="http://www.w3.org/2000/svg"><path d="m218.762523 58.3662915c-1.892252-1.708449-3.958637-3.2856713-6.175939-4.7151397-2.397767-1.5408016-4.95331-2.9129203-7.639717-4.101339-5.394448-2.3789951-11.210511-4.0702694-17.242922-5.0140136-.661708-.1102977-.552478-.1776587-.652737-.2795417-.099731-.1018829-.40895-.2416537-1.921274-.4521514-1.390431-.1684241-2.879537-.336805-4.449378-.500137-1.569313-.163358-3.226221-.3140722-4.934314-.4504772-1.708092-.1364006-3.486894-.257646-5.301577-.3553173-1.815211-.0976713-3.674219-.1683982-5.551697-.2189167-3.755481-.0976713-7.59803-.0900937-11.345069.0176795-3.746511.1077776-7.413343.3199582-10.824251.5944467.267532-.0648322.537176-.1237742.806819-.186082-2.601979.1945011-5.687837.9261941-8.405377 1.296658-.039576-.063132.846922-.2231414.195768-.2180494-.318717.1515515-1.539763.3611861-2.810411.5893763-.636907.1187124-1.288589.2374248-1.84951.3536344-.441666.0849672-.877528.1898277-1.305105.3140636-1.082425.130493-1.02417-.0496685-2.421935.1448196-.490213.1742928-.977312.3586833-1.464411.5388879-2.038946.7181864-4.593064 1.3076058-7.330339 1.9895873-1.36658.3452197-2.777907.7131807-4.186067 1.1282642-1.414018.4155581-2.800755.8893721-4.154881 1.4195864.238352-.1422737.768087-.3586833.303889-.2609861-4.359883 1.6494596-9.189189 3.6407298-13.7905381 6.1389119-2.3174019 1.2478396-4.5205616 2.629193-6.5924351 4.1333151-2.0555683 1.5088688-3.9320955 3.1524165-5.49228 4.9020761.0843229-.1625122.1519712-.3300732.141576-.4108977-.0104481-.0808246-.1041108-.0841905-.3403521.0951511-.0197879.1220783-.1530265.3519515-.367422.6550543-.104058.1532344-.2227327.3283903-.3600872.5169665-.0666457.0951512-.1415759.1919853-.2081688.2955512-.0666457.1035659-.1467472.2104977-.2237881.3199755-.7067398.9803807-1.3413407 1.9936435-1.9004891 3.034524-.397584.4209954-.8326384 1.364006-1.1584107 2.530978-.0395494.1454238-.0794471.2944292-.1196878.4471026-.0208169.0757757-.0416338.1515514-.0624507.2290532-.0208169.0774587-.0301831.1532344-.0447523.22983-.0281041.1549605-.0707774.3090148-.0801437.4689809-.0083268.0783218-.017693.1583264-.0260198.2382879-.0124901.0796163-.0187484.1597504-.0187325.2399708-.0339878.6519905.0253865 1.3049304.1769355 1.9458307l-.1196931-.2062688c.1863019.464752.3892573.8512254.5599504 1.2082257.08951.1776587.1863019.3427168.2674851.505229.0811832.162469.1863019.3148835.2747723.4689809.3809305.600337.8191034 1.1476397 1.5997023 1.6519624l.2081793.2643951.1040581.133859c.0364097.0437997.0749302.0842336.1123953.1288532.1519712.1683809.2987183.3477225.4590268.5161466.5391282.1784785 1.1448494.695445 1.8869225 1.2511623.7421258.5556742 1.6163821 1.156788 2.5374962 1.5300568l-.0083373-.0841473c.8430706.3788785 1.457129.6995013 2.0670188 1.0041577.6487797.3365891 1.3255263.6364987 2.0253851.8975711l.1301253.0979561c1.9046525.7163308 3.4242058 1.2626409 4.4629392 1.6087236.2601979.0841473.4891572.1618217.6879334.2230982.1988289.0617081.3663665.105292.5027184.1367933.2705931.0621396.4163377.0655918.4163377-.0043152.6390176.3145814-.3216195.043584-1.1885939-.1972067-.8669743-.2407908-1.6371726-.4496487-.638015.0522144 6.4977166 1.9979588 13.3222246 3.4521967 20.2216626 4.6311219 6.886457 1.1595065 13.842409 2.0307546 20.839942 2.6098606 1.561398.2399277 2.568735.3430621 2.914364.4725195.696007.0228708 2.007286.1027028 3.305373.1575064s2.581399.0910517 3.220416.0513514c-.467522-.0185555.888609.1851241 1.625775.2274135 2.537074.2054057 2.789304-.1838295 5.571221.009062-1.111817.0470362-1.491745.1195323-1.125009.2317287 2.393546-.14154 5.570165-.0655917 8.38427-.1475814-.436917.0474677-1.116566.0768114-1.010503.1600956 3.075833-.2407907 5.620295 0 8.309868-.2347493l-1.003115.1877132c2.176142.0276175 2.497498-.0724962 2.732842-.1682946.235344-.09623.40895-.2023851 2.289593-.236907-.895996.0910517-.575168.1372248-.728195.2079948 1.739226-.220509 4.019321-.394845 6.296777-.5894626 2.27693-.194186 4.55122-.40477 6.275143-.6382248-.208433.0431524-.144056.0794005-.144056.0794005 1.883809-.2166253 3.809305-.4319561 5.773321-.7007959 1.964016-.2684083 3.963387-.5890311 5.987031-1.0171035.752468-.0957984.655375.0146719.861697.0582559.103953.0211447.280725.0245969.677538-.0276176.198935-.0271861.452748-.0642972.777269-.1264367.32505-.0621396.721336-.1432662 1.209438-.2485582-.0591-.0673178.321883-.1950491.889136-.3508295.567254-.1557803 1.316556-.3370207 1.99726-.5152403 1.360353-.3590285 2.439454-.6736099 1.249013-.5652972 1.64741-.3762895 3.762342-.9010234 5.701029-1.4835815 1.939216-.5825582 3.700076-1.2138787 4.697387-1.6609382-.66118.3223489-.2364.26323.03852.2524419.136141-.0069044.2364 0 .140363.069044-.09551.0690439-.383094.2123101-1.034249.4539638l.520291-.1372248.512902-.1467184c.342463-.0992506.688092-.1928914 1.028444-.2981834-.216348.2360439-2.041057.7435168-1.332386.6520336.325049-.1307519.803653-.3227804 1.352965-.5558037l.86117-.3771524c.300776-.1290259.600497-.2753127.903384-.4134006l.452748-.2088579.436917-.2123101c.287056-.139814.566198-.2701344.821066-.3974341.254869-.1272998.488102-.245106.695479-.3452197l.520291-.2524419c.264366-.1687261.52029-.3370207.78149-.5053153.261201-.1682946.503932-.3529871.758801-.5320698.254868-.1795142.503932-.3698165.760911-.561845l.390481-.2921421.39312-.3089716c1.065909-.8341371 2.250545-1.7916469 3.671053-3.0647308-.62477.6289471-.359348.5236983-.037465.3595032.321356-.164152.694424-.3831076.24537.0421168l.209488-.2475225.207905-.2526145.416338-.5051859c.134558-.168424.263311-.3460827.394703-.5186925l.194713-.2584832c.065432-.0841905.122421-.1759758.184159-.2635321l.359877-.5287902c.116616-.1776155.22268-.3595032.332964-.5380249l.164636-.2685809c.056461-.0884194.103952-.1818444.151971-.2728098l.295499-.5456197c.32716-.4967711.425836-.5236982.557756-.6087517.132447-.0850104.289695-.2331959.673844-.9943621-.068071.0227413-.030605-.1355851.042214-.3595463.073347-.2239613.188381-.5110977.246953-.7578003.113451-.1902592.582029-1.2957821.897052-2.4417387.038521-.1439998.077041-.2879564.115562-.4302732.03852-.1422737.081262-.2820445.103952-.4209954.062794-.2761757.12717-.5388447.189436-.7712639.045908-.22983.104481-.431093.145639-.5893762.021635-.1177199.067543-.2316424.136669-.336805.043797-.1220783.064377-.0698638.07493.0598093.01372.1732571.01372.3470752 0 .5203324-.024801.365415-.040631.6415907.103953.0193754.007387-.065678.014775-.1296731.021634-.1911222.007388-.0614923.005277-.1221215.007388-.1810677 0-.1161664.008443-.2264641.011609-.33003 0-.2079949-.014775-.3923853-.021635-.5607662 0-.0841905-.014775-.1641951-.025328-.2408339-.010026-.0765956-.021635-.1515514-.032189-.2230982-.010553-.0715899-.021635-.1414538-.031133-.2104977s-.031133-.135585-.045908-.202946c-.032188-.134722-.056989-.2694008-.095509-.4108546l-.127171-.4521514c-.048018-.1633752-.11345-.336805-.175716-.5388879-.02955-.1002-.077041-.2029029-.117672-.3140636-.040632-.1111607-.084429-.2281902-.136669-.3519515l.031661-.0496684c-.067015-.1641951-.14089-.3494487-.233234-.5380249-.092871-.1886194-.198934-.3847905-.312385-.5742298l-.179938-.2812245c-.060683-.0917853-.118728-.1827507-.185215-.267761-.129281-.1684241-.249064-.3300732-.365681-.4656151-.240093-.267761-.424252-.4555173-.510792-.4849904-.041686-.0151465-.055406.0067317-.031132.0740927.043797.1210427.099731.2390215.167273.3527714.07282.102746.128226.1734729.167802.2214584.022162.0311992.049602.0595504.082318.0841904.035354.0210584.039575-.0160095.049601-.0395708.010554-.0235612.025329-.032839.083373.0437998.029023.0378878.068598.098517.124005.1885762.07704.1222941.146694.2476088.207905.3755559-.357766-.3940683-.906551-1.10302-1.641078-1.8767867-.780963-.8315911-1.631052-1.6192529-2.543934-2.3575915.330326.2341021.487047.3275272.609996.3755559.125059.0371974.245897.0819465.362514.1338589-.644294-.4765757-1.308641-.9455566-2.006758-1.398528-.698645-.4530145-1.419981-.8975711-2.172449-1.3261614-.752468-.428547-1.525516-.8512253-2.332335-1.2528453-.198935-.102746-.401563-.202946-.606829-.3014631-.204739-.098517-.407895-.1995369-.6158-.2971909-.416338-.1928484-.832675-.3907024-1.262733-.5759559-.072819.0522145.284946.1380879.708671.2627122.208433.0614922.443777.1305362.648516.202946.176244.0578674.341408.136146.490213.232376-1.033193-.5921812-2.113877-1.1291273-3.233609-1.6073428-1.122898-.4849905-2.277457-.9177665-3.416185-1.3244784-1.138201-.4066688-2.264792-.7813616-3.343893-1.1450936-.538231-.1852535-1.06802-.3603662-1.576701-.5439368-.509209-.1835274-1.005754-.3620491-1.481191-.5438936.654848.1683809.255924.3005569.231123.2467027-.566198-.1742928-.977259-.3182926-1.303364-.4361851-.325577-.1178494-.563032-.2121806-.777269-.298054-.485464-.2027734-.998366-.3598484-1.527627-.4681179-.050129-.0791848-.526622-.1953512-1.185692-.3368049l-1.100207-.2239613c-.39101-.0842336-.800487-.1591463-1.193607-.2467026-.832676-.1069318-.385205-.1583264.979369.162469-.275975-.0538543-.654848-.1313129-1.116038-.228147l-1.615221-.3308931c-1.215769-.2475656-2.687462-.533839-4.252554-.8243414-1.56562-.2904592-3.226749-.5843274-4.816642-.8545913-1.59042-.270307-3.112242-.5237414-4.39661-.7510685.041687.0454827-.770937.0109607-1.740281-.0538974-.484935-.0294732-1.009447-.0681809-1.486995-.1069318-.478076-.0387078-.908661-.0757757-1.206271-.1136636l.501293-.134722c-.534537-.1245811-1.53818-.2331959-2.4289-.330893-.449581-.0530344-.865919-.099337-1.178304-.1414538-.312385-.0420736-.535065-.0841904-.578862-.133039-1.29967-.0050489 1.177249.168424 3.539134.3856535 2.361357.2172295 4.597127.4689809 2.855791.3232982-.215292-.0681809-.62477-.1220783-1.110761-.1683809-.485992-.0463026-1.040581-.0724098-1.545568-.1018829-1.010503-.0505316-1.812045-.0841905-1.418398-.1759758-2.411487-.2576633-4.775482-.2526144-7.062965-.5978341.666985.0842336 1.995149-.1187124.038521-.2525713-.861698-.0564003-1.352966-.0749559-1.652687-.0841905-.161469-.0089757-.323994-.0070338-.484936.0058687-.16569.0151466-.251174.0421168-1.651103-.0067317l-1.758749-.0075517c-.065433.0909222-.832676.0513514-1.430007.0235612s-1.014724-.0395708-.379928.0841905c-.103952-.0420737-.469105-.0681809-.953513-.0841905-.483881-.0160095-1.086489-.0261072-1.665351-.0404338-.578335-.0142835-1.130285-.0226982-1.516018-.0530344-.38626-.030293-.605774-.0724098-.520818-.1498685l.484408-.2382879c-1.495966 0-2.450007.232376-3.621979.3435368-.194713-.0218783-.58836-.069044-.51343-.1094778-.0591.0943312-.311858.1397708-.682815.1608292-.37043.0210584-.864864.0236044-1.405733.0210584-.541398-.002546-1.12923 0-1.69279.0210584-.517652.0151465-1.032665.0666705-1.539236.1540543-1.56087-.0142835-3.547049.0715899-5.321629.168424-.887554.0437566-1.723395.0934682-2.429955.1195755-.55459.0327958-1.110762.0364638-1.665351.0109175-2.376132.3149267-4.526419.6736099-7.245014.9261812.532954-.1027028 1.270648-.2054488 1.409427-.3005568-.637962.0286532-1.272759.0933387-1.89964.1936251-.507098.0842336-.992034.1911653-1.757694.3292101.166219-.0504884-.692313.0109607-1.831041.1204385-.568309.0547173-1.208382.1187124-1.823443.1868933l-1.685033.1835705c-.408106.0853556-.80893.1919422-1.200045.3191125-.246689.0841904-.361195.1456827-.410111.1953511-.097831.1002.066646.1532344-.032241.2357419-1.112608.0218783-2.733159.4033029-4.395291.8470396-1.662131.4437367-3.366952.9337761-4.725195 1.1198495.381933-.1254442 1.189597-.3864735 1.665246-.5574003.475648-.1709269.618227-.2643952-.347635-.0740928-.555539.0505315-1.102054.1525008-1.628835.3039659-.538073.1540974-1.086594.3368049-1.665298.5574003l-.89816.331713c-.312279.1162095-.630733.2349219-.97003.3528145-.339296.1178925-.691099.2382878-1.064748.3553173-.373648.1170295-.768087.2315561-1.184425.3469026.312227.0067318.624454.0134636.936734.0252442-.4709.099337-.931088.2294416-1.375973.3890194-.508945.1683809-1.033509.3780587-1.509158.5565373-.94296.3696439-1.665245.6525514-1.588257.4521514-.326368.1541406-.662288.294645-1.006439.4209954l-1.189649.4614292c-.749355.299737-1.301992.5624492-1.045963.6213523-1.405997.523353-2.775321 1.1088456-4.1017967 1.7538885-1.3988206.6735667-2.7903593 1.4237722-4.0955172 2.1723379-2.6165951 1.4919963-4.8501491 3.0041879-6.361365 3.7821835-.5683089.4807616-2.0618477 1.6174836-1.6267774 1.4869474.4132243-.2419558.7828097-.529308 1.0980444-.8537714.2372966-.2298731.3923811-.4066687.6244537-.5051858-.5276777.4134006-.575538.5607662-.5953259.633176-.3299041.2399709-.6431863.4664781-.9075528.6576003-.2643665.1911223-.4756486.3502686-.6245065.4395078-.2914364.1793417-.3038896.0926052.1717591-.4849904-.3643087.2736297-.6796488.5186494-.9471286.7527514-.2674798.234059-.4912679.4521515-.6931574.6576004-.2019422.2054057-.365364.4074886-.526675.6020199-.1613111.1944881-.3122269.3847905-.4538028.5893763-.1415231.2045858-.2945497.4083517-.4610319.6281272-.1665351.2197323-.3299569.4647519-.5339571.7257812-.104058.1296731-.2081688.2711268-.3122268.4209953-.1041108.1498685-.2289593.30142-.3580293.4639321l-.3923811.5262442-.2206748.2854536c-.0707615.0993369-.1425785.2029028-.2185641.3090147-.0145639-.1077948-.0780435-.102746-.220622.0580832-.1007547.1169863-.1921802.2390215-.2737433.365415-.1040791.1683809-.2279356.3788786-.3757276.6407709-.0718169.1683809-.1321832.3477225-.198792.5203323l-.0967972.2593463c-.0312227.0841905-.0541186.1751127-.0811779.2618491l-.1519606.5186494-.1155245.5245613c-.2081635.5894194-.3226485.9741667-.4027921 1.2133177-.0801385.2391077-.1571583.3368049-.2081583.3519514-.1217722.0395708-.2081583-.2273271-.3445049-.2121806-.033307.1683809-.0353861.3435367-.0541186.5195124-.0187379.1759758-.03851.3553174-.03851.532976v.5287471c0 .1751558.0291384.3435367.0437129.5051858.0150652.1575497.0400771.3143657.0749355.469844.0156139.0740928.0301831.1456827.0437128.2155465.0131128.0671884.0304839.1338158.0520395.1995802.0595537.2060529.1413965.4075318.2445892.6019768.0386893.5553721.1287955 1.107551.2695694 1.6520055-.0283152-.0984307-.048483-.1982855-.0603716-.2989171 0-.0530343.0145744-.063132.0374704-.0387077.1063903.1481424.1962538.303707.2685246.464752l.0926338.1852535c.0364256.063132.073896.1288101.1124059.1944881.0749355.133039.1529948.2694439.2279356.399937.1623611.2576633.323688.4900393.4267276.6264442l-.4163218-.5464396c.042763.1318739.1042269.2593032.1831833.3797417.0530791.0884194.1040791.1894393.1821385.2938251l.2383414.3267072.1290594.1726099c.0426733.0580832.0874257.1162095.1373862.1683808l.2862071.336805c.1821543.2214584.3830412.4142636.533957.5742297-.0383094-.1253147-.1023695-.2445881-.1894363-.3527713-.116564-.168424-.2550266-.3898393-.4163377-.6213954-.0853254-.1145266-.1592531-.2399708-.2393704-.3637321l-.2393809-.3704638c-.1436339-.2526145-.28102-.4866735-.3913416-.6837076.1207326.1439566.2508316.3090148.3830148.4908592.0333017.0446628.0666088.0909654.1040791.1380879l.1124059.1389509.2143955.2913223.1176193.1473656c.0405784.0488054.0853255.096791.12907.1456396l.2622557.2888194c.1750307.188792.3633589.3692987.5641402.5405277-.1041108-.0311561-.0687036.0699069.0603663.2526144.0676483.0901024.163369.1987171.2737064.3216153s.2341834.2627122.3809305.4025261c.5826617.5579613 1.1999917 1.0921888 1.8495101 1.5996617.1332386.1156486.2643665.2079948.3798752.2912791.1155614.0832842.2237881.1540542.3205641.2157623.0968289.0612765.1842123.1117648.2654219.1549173.0811568.0427209.1561398.0755168.2237881.106155.2716484.1186693.4391861.1605272.6098898.2826486-.0322939.0548037.4683667.3758579.8326225.6257107.3643087.2502842.6245065.4099483.0801543.175199-.4485788-.2399277-.883649-.6869872-1.6246667-1.0805376.1444781.1195323.2809883.2446744.4090029.3758579.1024223.1091757.2126014.2140362.3299569.3132869.1669044.1367933.3449428.2649561.5328488.3827623.2414653.1549173.5755908.3309793 1.0314515.5661602.7004393.3365892.6879861.2045427.8024394.1816719.0583084-.0116512.1467999 0 .372646.1169431.1134507.0573928.265369.1337727.4631426.245106.1977208.1113333.4423522.2576202.7587477.4354083-.2551321-.1113333-.5174407-.211447-.7858175-.2999096-.2081689-.0681809-.3965498-.1178062-.6775381-.2330233.1893835.1212585.3882124.2312972.5817646.3478089.1936049.1160801.3892678.2312971.5870413.3443566l.5973839.3365891c.1988289.1113334.3986605.2230983.6026606.3283903l.2247907-.1096073c.3060003.201522.064535.104429.2081688.2006589.1427896.0340905.281991.0776745.4163377.1294574.1654797.060845.3600872.1333411.568256.2174884.2081689.0841473.4329596.1782197.6650849.2779018l.7191719.2930052c.9658612.394845 1.928609.7508528 2.2897516.7642301 1.3280591.4975478 2.7331592 1.1685685 4.0268662 1.6182172l-.257084-.069044c.191494.0794005.393436.1592326.601552.2386331.208169.078969.42573.1523282.647408.2269819.221677.0750853.445465.1484445.672367.2200776.226848.0716331.457918.1363618.685875.2010904.456916.1298889.908608.2524419 1.337399.3486719.428844.0957985.827451.1911654 1.183423.2524419l-.09055.0185555c.441297.1290259 1.187539.3370207 1.977472.525597.789986.1885762 1.612214.360323 2.19192.4509432 2.228383.6874186.520396.8751318 3.13488 1.2328657.584931.1272998 1.113664.2213721 1.56124.2830801.358663.0496254.720913.0802636 1.084483.0914832.538126.0094936.668199-.0841472.215451-.2382015 2.081583.4958217 4.357826.8747003 6.594493 1.2242352s4.440038.6736099 6.399675 1.0826952c.632157.0069044.252229-.0841473 1.533431.0315013 3.144959.4410181 6.499405.7314342 9.6908.9799923 3.190866.2481267 6.223957.4470595 8.74995.7474006-1.856897-.009062-.138251.1812403-.103952.2899845 1.539235-.097093 1.828403.2524419 2.393546-.0146718-.143529-.1747675.013719-.2524419-1.778802-.3913928l6.490435.1346357c2.185641.0448785 4.163377.0841473 5.220843.1531912-1.058522-.0703385-.241677-.1285943.590999-.1851241-.275448.2744497 2.541823.2882585 4.659921.1255737l.293389-.1743359c.462245.0405633.925019.0841473 1.38832.1229845.406839-.0431525.62477-.1389509 1.008392-.2140362.384149-.0746538.926602-.1346357 1.984068-.1074496.112395.0569612.240093.1186692.624242.1419715l1.777746-.2170568c.630047-.0841473 1.2907-.1583695 1.956629-.2382016.666457-.0802636 1.338718-.1475814 1.992511-.2097209.653265-.0625711 1.291227-.1018398 1.886975-.1264367l.985174.027186.985702.0185556c.251174-.033659.544563-.0785375.814206-.1255737.269644-.0470362.520291-.1001137.676483-.1432662.319245-.0841472.290223-.1363617-.599442-.0690439 4.042011-.3081085 6.617078-.6947546 7.929412-.6969122 3.369222-.8009096 7.488801-1.7269614 11.637403-2.8907832 2.073245-.579969 4.154934-1.2164678 6.153249-1.905181 1.998315-.6891448 3.915368-1.4313671 5.666202-2.1943025l-.134557.1976382c.246953-.0841472.44061-.1682945.597331-.2390646.157248-.07077.279141-.1294573.373595-.1808088.128754-.0651602.244843-.1454238.343519-.2386331.137723-.1268682.193657-.2321602.859059-.5048837-.258562.1950491.129809.0841473.416337.0176925.143529-.0306383.258035-.0522145.256979-.0094936-.001055.0431525-.121893.1475814-.462245.3547132.169912-.0742222.332964-.1441292.484936-.2166253.151971-.0724961.294444-.1436977.431112-.2136047.27281-.1398139.52029-.2679767.741915-.3982972.221625-.1307519.416338-.2528734.605774-.3762894.189436-.1238475.357238-.2351809.512903-.3538502.312385-.2364754.604718-.4539638.900745-.686124.146695-.1160802.297611-.2343179.458552-.3547132.16147-.1203954.337186-.2407908.520818-.3762895.050657-.1398139-.229012.0841473-.520818.2930052-.291278.2088579-.574113.4069277-.501294.2308657.19788-.1458553.406312-.2813541.624243-.4069277.168857-.0992507.34774-.2222352.543508-.3473773.195768-.1255737.401563-.2593463.604719-.3965711.202628-.1376563.397341-.2848062.584666-.421168l.270699-.2028165c.085484-.0664548.162525-.1342042.2364-.1972068.294444-.2524419.49971-.4612998.530843-.570044.303943-.1808088.392065-.1592325.383094-.0496253-.013719.0729277-.040103.1441292-.078096.2114471-.04538.0819896-.096565.1622532-.151971.2399276.207905-.184261.400507-.3814677.598386-.5734961.197879-.1920285.394176-.3831939.576224-.5834213.440611-.290416.479132-.2230982.312385.0267545-.040631.0625711-.094454.1363618-.159358.2192145-.064377.0824212-.135086.174336-.220569.2666822-.16833.1885763-.361987.3991603-.5567.6106073-.194713.2114471-.403674.4116745-.576752.5976616-.086011.0919147-.166218.1795142-.235872.2584832-.070181.0794005-.132447.1467183-.17941.2054057-.185215.2351809-.135086.306814.393647.0422894l.617383-.5053153c.103953-.0841473.207905-.1682946.306581-.2524419l.297082-.2619354c.346157-.1989328.336131-.1169432.171496.078969-.083374.0979561-.207905.2248243-.337186.3598915-.129282.1346357-.291279.2675452-.429002.3931189-.275448.2524419-.49549.4479225-.441139.4310931.112395-.0591189.217403-.1272998.312385-.2036796l.364098-.2619355c.146694-.1078811.324522-.2334548.52029-.3939819.631102-.5980931 1.108651-1.2238037 1.285423-1.562119.083373-.1743359.094982-.2761757.011609-.2735866-.083373.0025892-.255924.1126279-.565143.3460827l.226901-.2166253c.069654-.0703385.132975-.1393825.193658-.2045427.120838-.1307519.227957-.2498527.321356-.3568708.092871-.1087442.177827-.2045426.244842-.2964574.066487-.0914832.123477-.175199.172551-.2524419.146166-.2209406.2612-.4539638.342462-.6956176.130337-.4057626.356183-.7897331 1.383044-2.2227831.178355-.1793416.168856-.1246243.061738.0530344-.054351.0841904-.131392.2079948-.220569.3435367l-.143001.2138636c-.050657.0740927-.109229.1473656-.164108.2231413-.433223.6070688-.94507 1.2191864-.613161 1.0103717.326632-.2972773.618966-.6179864.873306-.9582004.135086-.1683809.241149-.3426736.35671-.5144204.115562-.17179.223736-.3452197.32505-.5211954.100786-.1759757.193657-.3536344.289167-.5279272l.143528-.2593463.131392-.2601661c.087595-.17179.1773-.3401709.269643-.5051859.091289-.168424.172551-.3292101.267533-.4875364-.10448.1751558-.192602.3081948-.262256.4041659-.048546.0660233-.107118.1268682-.174133.1810246-.083373.0564002-.103953-.0058688-.080207-.1389078.03852-.1923737.089705-.3829349.153026-.5708639.038521-.1145266.082318-.235785.130336-.3570003.048019-.1212584.084429-.2458827.129809-.3629121.208433-.3797417.302887-.5051859.336131-.5051859.033771 0 .028494.1119807.013719.2062688-.014775.0943313-.017413.1683809.043798.0783217.06121-.0901023.179938-.3443998.405784-.9093518.000527-.1820602.017413-.3638183.050129-.5439367.015303-.1144835.038521-.232376.05013-.3452197.011081-.1128005.019524-.2197323.0248-.3090147.010554-.1784786.005277-.2870933-.040631-.2399277-.044852.0625279-.079679.1292416-.103952.1986739-.022163.0555804-.048019.1238044-.075986.2063119l-.046963.133859-.060155.1532343c-.007916-.0559255-.011609-.11211-.011609-.1683809 0-.0597661 0-.1212584 0-.1835705.00897-.1335137.027439-.2665096.055934-.3982541.034299-.1389077.060682-.2845904.094981-.4352788.0343-.1507315.073875-.3056489.114507-.4639752.040631-.1582832.060155-.3224784.090232-.4866303.014775-.0842336.030606-.1641951.041687-.2475657l.018996-.2483855c.009499-.1683809.016358-.3308931.007388-.4934052-.015831-.1591031-.042742-.3173432-.080207-.4740298.070709-.1843904.145639-.133902.220569.0126005.084956.1884468.157776.380389.217403.5750929.059628.1886194.117672.3233413.180994.2526145.054878-.0902318.090233-.1873249.10448-.2871365.027967-.1608292.04538-.3940251.065432-.7190494-.067543.1035659-.118728-.0446197-.192602-.2989171-.034299-.1271271-.069654-.2812246-.103953-.4445566-.034299-.1633321-.093927-.336805-.14089-.4976342-.023745-.0841904-.048546-.1616491-.070709-.2374248-.021634-.0757757-.056989-.1456827-.084956-.2104977-.040103-.1019261-.091816-.2006158-.154082-.2946881-.093926-.1246243-.167801-.0841905-.208432.2525713-.026912-.2424737-.031133-.4335959-.038521-.5716838-.013192-.0891961.003694-.1795573.048019-.2618491.065432-.0715899.198934.062269.368319.4074887-.051713-.3829349-.156193-.7600011-.312385-1.1240352l-.108174-.2905024c-.044853-.0934251-.093399-.1860734-.139307-.2778587l-.139307-.2710837-.06807-.133039c-.025857-.0437998-.049602-.0842336-.074931-.1288533-.103952-.1683809-.190491-.3367618-.270171-.4866734-.080207-.1498685-.166746-.2938251-.225846-.4251812-.05435-.1161232-.095509-.2358713-.124004-.3578633-.027439-.0898866-.027439-.1837432 0-.2736298-.172023-.1178925-.339297-.2340589-.512375-.3469026-.094454-.2130005-.207905-.4723468-.363042-.7578003-.155137-.2854103-.321356-.6129375-.52029-.9556543-.054351-.068483-.113451-.1408928-.177828-.2172295-.063849-.0757757-.131391-.1557804-.208432-.2357419l-.490213-.5102347-.550368-.5245612c-.09076-.0842336-.185214-.1742928-.280196-.2526145l-.275976-.2525714-.25909-.2366049-.24537-.2164096c-.154081-.1389077-.287584-.265215-.391536-.3746928-.207905-.2146835-.312386-.3586832-.207905-.3948881-.048019-.0353419-.130337-.1010199-.235345-.1852104-.105007-.0842336-.231122-.1911654-.377817-.3006-.291278-.2214584-.624242-.4866734-.936628-.6971711-.616327-.4336391-1.097041-.6895763-.654848-.2214584.784657.6820246 1.281202 1.0280641 1.665351 1.3210693.182049.1364481.352489.2827349.510264.437868.167274.1803342.307109.3765484.41581.5843275-.103952-.1423168-.214237-.2795417-.331909-.4125807s-.253813-.2525713-.387843-.3780587c-.134558-.1254442-.273865-.2391077-.416338-.3502685-.143-.1111176-.298138-.2163664-.449053-.3199323-.297611-.2088148-.613689-.3923853-.9113-.570044-.29761-.1776586-.593637-.3368049-.858003-.5051858l-.055934-.2121806-.59311-.3713269c-.227957-.1448197-.472799-.3073319-.728723-.4538345-.255923-.1465025-.492323-.2896393-.704449-.4016199-.163053-.0893687-.337714-.1639362-.520818-.2222783.540342.234922.356182.0126437-.129809-.3216584-.268588-.0841905-.546674-.1582832-.818956-.2357419-.670678-.3629122-1.041108-.567498-1.249013-.7156835-.128225-.0797026-.230595-.1838295-.296554-.3031029-.063322-.1175041-.16147-.2203364-.286529-.2989171-.198935-.1423168-.553534-.3536344-1.242681-.6736098.358821.1499116.721335.2964142 1.074351.4546974.352489.1582832.713948.3081517 1.06116.4723468-.227957-.1086147-.540869-.3165664-.962484-.5775956l-.336131-.2054489c-.120838-.0690439-.249063-.1397708-.384149-.2121806-.273865-.1439998-.571475-.299737-.911827-.4428737-.312385-.0446196-.74297-.135585-1.160363-.2240044-.417393-.0883763-.826343-.1683809-1.089654-.2062688-.806819-.3140636-.95668-.432776-1.107596-.5422538-.150915-.1094346-.312385-.2037659-1.144532-.4487855.361986.1120238.728195.2206385 1.089654.3368049l1.082267.3494486c.340352.0883763-1.187803-.8849274-3.369222-1.7378789-.35671-.1212584-.769882-.2475225-1.152976-.3561373-.322411-.0935977-.651154-.1723077-.984646-.235785-.487047-.0841905-.52029 0 .55881.4513316-.552478-.1995802-1.195717-.47239-1.593586-.6559174-.397341-.1835706-.534537-.302283-.060155-.2063119-1.274869-.4209954-1.219991-.3367618-1.118677-.2450197.100787.0917853.239038.2063119-.877528-.1111176-.208432-.1044289-.53612-.2475656-.936628-.4142636l-.646405-.2685809c-.230067-.0943312-.473854-.1894824-.72239-.2879563l-.759856-.3014631-.767243-.295508-1.400457-.5456197c.825288.1254442 1.645299.2660781 2.468476.4058489l-1.56087-.4673412c1.059049.1861166.825287.0682241.479659-.0841904-.345629-.1523713-.80682-.3367618-.180994-.2921421-.564615-.1813698-1.140311-.3396099-1.724978-.4740729-.602608-.1363618-1.200994-.266898-1.737115-.3704639.751413.304829.887026.4395078.689147.4647951-.197879.0252442-.735582-.0463026-1.342412-.1339021-.606829-.0875563-1.284367-.1894392-1.760332-.2331958-.475438-.0437998-.751413-.0286533-.555645.1161664-.784129-.1607429-1.549789-.3742181-2.289593-.6382249-.394175-.1560824-.776214-.3306773-1.145061-.5228783-.652737-.3140636-1.352965-.5893763-3.740706-.7704009.728722.2467027-1.523406.0841905 1.274869.5413908-.492851-.1162527-.995728-.2054057-1.503882-.266898-.297082-.0324075-.596275-.052646-.895996-.0606292-.550368-.0227413-1.154031-.0783217-2.752894-.4462395 1.221046.1448196.604718-.0639951.120838-.2585264-.241677-.097654-.450637-.1877564-.377817-.2306931.072819-.0429367.427946-.0362049 1.313389.069044-.266477.0732728 1.910721.4530145 2.453174.5279271-.544564-.1827075-.461191-.2584832-.589944-.3629121-.06596-.0513515-.18416-.1086148-.463301-.1868933-.468578-.1228982-.945071-.2252127-1.42684-.3065119-.865919-.1439566-1.894363-.3089716-2.668466-.4125375-.774631-.1035659-1.297032-.1322192-1.145061-.0092778.010554.1111607.673317.2130005 1.187275.2946881.514486.0816876.879639.1423168.298138.1515515-.864336-.132176-1.546096-.2450197-2.102796-.3527714-.556699-.1077948-.993617-.1919853-1.36774-.2635321-.749302-.1423168-1.256928-.19873-2.014673-.1204255 1.095986.1464896 1.769303.2938553 2.155563.4277142.38626.1339021.491268.2399708.454858.3090148l-1.274869-.1532344-1.280674-.1524145.520818-.0664979c-.646933-.1195755-1.300725-.2128711-1.958739-.2795417-.22268-.0264093-.449054-.0264093-.671734 0-.215292.0275313-.434279.0329254-.651154.0160096-.356183-.0185124-.919215-.0842077-1.907027-.2096649l-.901274-.2525972-.904439-.2458611c.493379-.0665152 1.931828.1305103 3.163955.298067.615272.084199 1.18147.1566089 1.552955.181866.371485.0252614.551424 0 .396286-.1237699-.641128-.0959883-1.179887-.1524015-1.664823-.2020786-.485463-.0496771-.910771-.0841991-1.334496-.1161923-.846395-.0715684-1.672738-.1422953-2.882176-.3309017.548785.0286273 1.288589.1044073 1.832097.1313517-.92238-.1136722-1.758222-.7577916-5.507899-.8158878-1.928662-.0572547-.52029.0926181-.592054.2332304-1.041108-.0841991-1.903861-.1372421-2.649998-.1793416-.746136-.0420996-1.38146-.0614664-1.967182-.0841991l-1.688041-.0513644c-.561976-.018521-1.14506-.0387293-1.818377-.0740927.289168-.1288231-.899162-.1995499-1.785133-.2525973-.885443-.053043-1.471693-.084199.025856-.161662.340352.0606249.97251.1229327 1.752945.1835533.780435.0606249 1.710203.1237742 2.643665.1818703.933462.0580962 1.873256.1052489 2.670577.1271401.797321.0218913 1.457445.0319933 1.838956-.0050531-.737693-.232389.080207-.1540845 1.200467-.0378879.559866.0547303 1.193607.1254572 1.748196.1625035.555117.0370464 1.027388.0463069 1.265899-.0143136-1.671683-.1785002-2.45634-.3367963-2.888508-.4891936-.43164-.1524015-.505515-.2980669-.761966-.4319431-.936628-.0993542-1.84951-.0799874-2.409376-.0917767-.416338.1734513.800487.2685939.843228.4866691-3.73543-.3713139-7.367962-.447094-9.446485-.336792-.624242-.0799917-.832675-.161662-.701283-.2248113.130864-.0631493.606829-.0976713 1.352965-.0732556-4.475234-.1473484-9.262853-.2568046-13.510658-.2652237.688092.077463.735055.1237699.448526.1540845-.286001.0303103-.905495.0420952-1.5519.0614621-1.292283.0303146-2.693267.0783044-1.753473.1928181 2.277457.0210498 4.230919.2525929 2.982962.414255-1.41787-.0075776.042742-.1473484-.550896-.2138636-1.79938.2138636-2.820437-.2458612-4.579186.1035659 1.014724-.0639908 1.572479-.1128264 1.847399-.1683982.27492-.0555717.268588-.110302.157248-.1683981-.221624-.1161967-.861697-.2416495-.491268-.3822618-.73611.0538845-1.095986.0757757-1.269064.0698854-.172551-.0058946-.156721-.032839-.141418-.0665195.033244-.0656737.068598-.1540845-1.389375-.1001957l-2.309645.206286-2.46035.220604c-1.665298.1582919-3.376345.3207954-4.995841.4908765-2.054513.0471527-4.636756.3022744-7.145072.6415951-2.508315.3393207-4.940645.7577874-6.732903 1.0541671-.95441.084199-1.133451.0067361-1.329114-.0580962-.195663-.0648322-.410058-.1178752-1.437341.0336805-2.381357.4445696 1.854734-.0126307-1.711048.5051945l.322622-.120404c-.520395.1313474-2.150286.3965797-3.754162.7317017-.799326.1734297-1.596594.3527713-2.243949.5447566-.3236778.0942881-.6109455.1868933-.8451288.2761758-.187906.0672746-.363095.155694-.5203957.262669l.476704-.2854104.4798173-.2804047c-.6599137.1195755-1.2323384.3435368-1.7537894.505229-.0634797-.0943313-.8544684 0 .1759277-.3250243-2.2283827.3174295-4.4702211 1.2015371-6.7339582 1.9088058.5203957-.0842336 1.0313987-.1785217 1.5476257-.2627121-1.9212743.6458197-3.531377 1.1619231-5.1165207 1.6915332-1.6764846.5468279-3.315979 1.1651595-4.9115179 1.8524056v-.2104977c-.1717591.0841904-.3455761.1616491-.5203957.2450196l-.5110558.2525714c-.3403415.168424-.6848464.3317561-1.0189402.5051858.1998315-.1936251-.1956682-.1002-.7701931.1212584-.1436285.0564003-.2987077.1187124-.4569055.1886194-.158203.0698638-.3184851.1490054-.4787672.2290101-.3039476.150861-.5956214.3173863-.8732326.4984541 1.6788064-.9994541 3.421103-1.9365529 5.21231-2.8273923.4059424-.1313561.5110558-.1389509.4548582-.0841904-.1587255.1096935-.3263159.2106703-.5016632.302283-.4600821.2618491-.9835911.5599031-.4465208.4436935.358768-.0935977.7095681-.2060961 1.0501841-.3367618.4495813-.1557803.9616925-.3587263 1.4685268-.5548974.5068872-.1961711.9960443-.4016199 1.3936494-.5708639.2880593-.1122395.5608686-.248515.81389-.4066688-1.3218325.4403709-1.3624109.5051859-2.3334433.9421908-.5661981-.0757757 1.4102713-.8057858 2.3199348-1.30342-.3414074.1263073-.7681404.2576633-1.122001.3738729-.3538606.1161664-.6317356.2247812-.6838174.2879564 1.2781407-.607112 2.6394963-1.1164836 4.9365298-1.8423079-.754579.2947313-.5203957.2643951-.1769303.1936682s.8170033-.1767956.5380729-.0530344c.0416338-.1338589.6036632-.3890194 1.5206087-.700537 1.194926-.3922127 2.4147056-.7328582 3.6542204-1.0204693.2720178-.036507.5589161-.0867365.8607478-.1507315.3028869-.0614491.6245064-.133859.9512972-.2164096.6609163-.1683809 1.3790855-.3603662 2.135722-.5708639 1.515385-.4108804 3.19836-.8647105 4.927138-1.1568786-1.324946.4950882-3.035994 1.0356633-5.059321 1.5964295 2.159679-.3654581 2.362624-.5372049 4.53998-.8521143.492271-.1852362.905495-.3814203 1.545568-.600337.319509-.1102977.695268-.2315475 1.166748-.3578461.47148-.1262943 1.040792-.2626992 1.737062-.4058359l.197774.1422952c.635904-.1246156 1.108439-.2365963 1.512271-.3367963.403832-.1001957.73896-.1877606 1.096989-.2761714.358029-.0884064.73896-.1751342 1.236454-.2635407.249803-.0446239.527731-.0909352.846184-.1380878.318507-.0471484.679649-.0917767 1.091818-.1406123 2.824711-.328373 5.69628-.6163336 8.406485-.8360919 2.710258-.2197582 5.255036-.3822617 7.426061-.4841434l.174661.1641895c1.190968-.2475466 3.204058-.3654249 5.32374-.4327837.529788-.015156 1.066964-.0311535 1.598863-.0420996l1.573535-.0303116c1.025277-.0168398 1.988289-.0437832 2.801968-.0841986 2.773474.0766211 5.782819.0841986 8.455506.1523998 2.672688.0682012 5.005023.1835533 6.409173.4209928 4.88049.2315475 9.449651.5834989 14.037281 1.0945837 4.752792.5249065 9.469175 1.2465968 14.130679 2.1622273-.576224-.0269444-1.152976-.0479942-1.729727-.067361.326105.0208858.650099.0611298.968816.120404.168857.0342673.331909.0839876.486519.1481898.267532.1077776.52029.2281816 1.394652.3806004-.964067-.2905067-.345629-.2399881.672261-.0934682l.820011.1203953.856421.134722c.280197.0437566.548785.0841905.787295.1170295.237983.032839.443249.063132.601552.0783217 2.152398.5708639 4.628261 1.1577373 7.042914 1.7479335 2.414653.5902393 4.763874 1.1863905 6.67565 1.7075859l.066487.2054057c1.961906.4606093 4.027764 1.1678781 6.140585 2.0275182.528733.2138636 1.057466.4428737 1.592531.6736099.535065.2306931 1.069075.4723468 1.603085.7257812 1.074879.4934052 2.148175 1.0280642 3.226221 1.567772.225846.1549173.509209.3645951.897052.6129807.191547.1263072.409478.265215.658014.4117176.125059.0735317.258034.1490485.399452.2265072.14089.0783217.288639.1616491.446943.2450197 1.091765.4461964 2.141843.956992 3.140737 1.5282011l.776741.4504685.845868.5220153c.299721.1877995.61105.3966143.954569.6172096.170439.1111176.342462.2331959.52029.3570003.177827.1237613.37254.2525714.565142.3898393 1.31339 1.0296177 2.511746 2.1510206 3.581349 3.3510905 1.159835 1.3177035 2.12654 2.7592113 2.684296 3.9320951.646405 1.0517118 1.146116 2.158486 1.489634 3.2997391.345629 1.1581257.523456 2.3449046.529788 3.5363439.003166 1.1967472-.154609 2.3901716-.471744 3.5590853-.317662 1.1643828-.76566 2.3029604-1.33819 3.4016652-1.140312 2.199265-2.67902 4.2491362-4.564939 6.0818211-.939794.9187159-1.944493 1.7921216-3.010401 2.6159021-1.069603.8190336-2.191973 1.5931887-3.352336 2.3289381l-.832676.2433799c-1.148754.7232352-2.343416 1.3977081-3.579237 2.0208296-1.264316.6321836-2.586148 1.2276875-3.945446 1.7839227-1.359298.5566667-2.763448 1.0593928-4.178679 1.5332068-1.415759.4742455-2.856319.8975711-4.290547 1.2950053-2.872677.7823541-5.736911 1.431367-8.468699 1.9720673-2.732314.5407003-5.323739.9843076-7.662407 1.3748376l.832676-.4712251c-1.47697.1726098-3.148653.4082221-4.354924.6252791-1.206271.217488-1.94713.402612-1.550844.48115-1.492273.112628-3.339672.344357-5.060429.504884l-.637962.060845-.624243.049625c-.405784.031933-.79521.058256-1.161418.078106-.616328.037111-1.234766.037111-1.850566 0-.764077.029775-1.378294.067318-1.909138.11047-.530843.042721-.98148.084148-1.41312.132047-.432168.048331-.850617.093641-1.316556.139814-.466467.046604-.985702.090188-1.619443.120395-3.063168.033659-5.161742.028049-7.215991.033659-2.054777.006041-4.059424.00863-6.946349-.037111l1.426841.05653c.636906-.060414.695479-.205406-.736638-.261073-1.075408.02546-3.048394-.067318-4.487899-.112628-1.439504-.045741-2.34711-.038837-1.29281.216194-.767243-.063866-1.561398-.132909-2.394073-.188576-.832676-.055667-1.664823-.115217-2.530215-.17822-1.72234-.115648-3.507473-.241654-5.284691-.38492-1.777746-.143266-3.547049-.315876-5.238784-.51524-1.691207-.199796-3.304317-.444902-4.765615-.7266874.240463.0893255-.013509.0901886-.409003.0638656-.395494-.0258915-.929451-.0841473-1.24896-.0841473-2.665511-.3840569-5.374714-.8923928-7.939227-1.4110854-2.564513-.5186925-4.985393-1.0425634-7.101327-1.4391345-.812888-.2472636 1.385259.1272998-.728565-.3831938-1.267693-.2649561-.083267.1372248-1.64551-.1859871-4.266485-.9700673-8.412659-2.2581681-12.385491-3.8470417-3.9404856-1.5845582-7.6383977-3.4202638-10.8669933-5.4937394-1.476917-.9182843-2.8433382-1.9474705-4.0809481-3.0733181-.0790989-.0716331-.158203-.1424031-.2352176-.2148992l-.2268961-.2230983-.4517079-.4479225-.4288067-.466478c-.0707721-.078106-.1446681-.1549174-.2081582-.2347494l-.2008764-.2433799c-.5511487-.6507391-1.0383535-1.335396-1.4571132-2.0477567l-.3049554-.5447567c-.0947129-.1843904-.1800595-.3730098-.2695694-.5599031-.0437128-.0943313-.091589-.1861166-.1300989-.2820876l-.1019949-.2888194-.1165692-.2887763-.0551634-.1448197c-.0176931-.0479855-.0312227-.0976971-.0468367-.1465025l-.1790146-.5894195c-.0551635-.1969909-.0926339-.398254-.138431-.597791-.0208116-.0993369-.0457919-.1987171-.0634849-.299737l-.0416338-.3022829-.0416316-.3031029c-.0145713-.1002-.0281015-.2012631-.0312238-.303146l-.0333054-.6078887c-.0083267-.202946.0062451-.4058489.0083262-.6079318l.0093674-.3039659.0322643-.3022399c.0239386-.2004.0385099-.403346.0718169-.602883.0749355-.3974341.1405047-.796508.257074-1.1846644l.0791042-.2930483c.0145691-.0488055.0260197-.0976541.0416285-.1465026l.0499605-.1431367.1977524-.5725469c.0312227-.095971.0718117-.1894392.1113611-.2820444l.1207327-.2795416c.082228-.1852536.1530001-.3755559.2508368-.5540345.1842176-.3612292.3611532-.7266442.5765987-1.0726838.1040791-.1751558.2081582-.3519514.3122426-.5237414l.3403363-.5051858.1696536-.2525713c.056203-.0842336.1207327-.1641951.181099-.2467026l.3663613-.4892194c.9900552-1.2695022 2.1126841-2.4681049 3.3555232-3.5826466 2.3623073-2.1278909 4.9521491-4.0829993 7.7393952-5.8425408l-.0614217.1431367c.2137095-.1583263.4347009-.3171705.6629742-.4765757.2279568-.1591463.4694221-.3106977.7129453-.4664781.4860439-.3140636 1.0074949-.6095716 1.5372833-.9084887 1.0688638-.5893763 2.1981467-1.1510055 3.323261-1.668835 2.2418915-1.0508055 4.4358695-1.9466506 5.9502515-2.8197974.254974-.0791416.617172-.2096778 1.006439-.3536344l1.180257-.4209954c.737904-.2526145 1.268748-.4092148.936733-.204629 1.61844-.7055858 4.004968-1.4574742 6.614228-2.1630601 1.305158-.3578202 2.667569-.6996739 4.012303-1.0474396l1.005384-.2525713c.33307-.0875564.664399-.17179.993987-.2526145.327846-.0841905.653634-.1683809.974198-.2584833.320564-.0901023.638015-.1683808.950242-.2526144-.42705.0872111-.846659.1966026-1.256242.3275703 2.589472-.5110978 5.008294-1.005366 7.474976-1.4566544 2.564513-.4817972 5.159104-.850837 7.772691-1.1055228l-1.007336.1810245c-.340352.064815-.624771.133039-.702867.1843905 1.077518-.066498 2.322309-.3056489 3.457872-.4917223 1.135562-.1860777 2.160312-.3157422 2.776639-.173447.612106-.0623078.823177-.1313518.787823-.1751342-.035354-.0437825-.319245-.0656738-.696007-.0227328 6.084123-.5051944 12.385122-.8125219 18.764217-.8478853 6.39387-.0478863 12.785102.2090866 19.141507.7695809.564087.0673567 1.058521.1372421 1.492272.197867.434279.0606205.806819.1187167 1.127119.1683981.640073.1060947 1.071186.1902851 1.353494.2601921.573057.1389077.569364.2062687.510791.2525713-.058044.0463026-.174661.0639951.170968.1077949.173606.0218783.461718.0504883.930296.095108l.844812.0766387 1.164057.1102977c.561976.1532344.449581-.0917853.531899 0 1.380932.1414538 2.420457.4108977 3.352336.6626492.465939.1246243.90655.2424736 1.352965.3368049.451164.1001569.911827.1678199 1.377766.202083-.712892-.3755559 1.289645.0841904 1.385682-.0395708 2.693267.5834644 4.279466 1.0272011 5.73269 1.4052598 1.452696.3780587 2.770307.698854 4.898959 1.1602401l-.36357.0387509c1.259567.2357419 2.552377.5338391 3.843604.8722838 1.291755.3384879 2.579288.7241414 3.836744 1.1198495 1.256928.3957512 2.48114.8091517 3.642559 1.2074058 1.161418.3982971 2.279567.7788587 3.31276 1.1156636.799432.3435367 1.585144.7080887 2.366107 1.0794156.780435.3713269 1.546623.765352 2.300147 1.1787957.753523.4134006 1.495438.8419908 2.225216 1.2831815.729251.4411907 1.435283.9169034 2.123903 1.4103087 1.400456.992075 2.676381 2.093412 3.809305 3.2879584.571474.613369 1.09282 1.2559954 1.561398 1.9239523.476493.6813342.881749 1.3936087 1.211548 2.1294012.33613.7468396.584666 1.5175425.74297 2.3020111.157248.789992.214237 1.5909879.169912 2.3903872-.006332.1002 0 .2004001-.016886.299737l-.033244.2972341-.034299.2980541c-.013719.0968341-.031133.1869364-.046963.2812245-.068598.3721468-.122949.7460197-.220569 1.1148007l-.132975.5540344c-.046963.1843904-.10448.3670979-.161469.5498054-.057517.1827075-.103953.367098-.170968.5489856l-.200517.5413908c-.538759 1.4426729-1.278563 2.8311033-2.205693 4.1383639-.922908 1.2924161-1.99937 2.508927-3.214084 3.6323581-1.197829 1.1079394-2.505414 2.1349679-3.910092 3.0705132-1.386209.9234626-2.842599 1.7752921-4.360728 2.5507418-3.018316 1.5483102-6.204433 2.8070674-9.46126 3.8729332-1.629468.5337959-3.27635 1.0222817-4.93959 1.4650259-1.665351.4453334-3.337561.8419045-5.022436 1.2151732-.842174.1868502-1.689624.3568709-2.535491.5286177-.846395.1717467-1.696484.3275271-2.549211.4759716-1.702815.3012041-3.412491.579969-5.129026.8216228-6.795433.9381344-13.604058 1.4844445-20.404767 1.7679562-6.80071.2839432-13.600891.2787649-20.39949.034522-6.798599-.2438114-13.587699-.7357494-20.384134-1.50861-6.796383-.7728605-13.58237-1.8270751-20.330892-3.3007315-1.56124-.4125375-2.747723-.7525789-3.769782-1.0373851-.510001-.1454238-.978367-.2753127-1.428001-.3995918-.449634-.1247106-.880483-.2451059-1.317611-.3624806-.437181-.1169432-.878478-.2390646-1.353071-.3620492l-1.515385-.4073592c-1.1032685-.2981834-2.4157083-.6559173-4.1121919-1.1789251.2945497.0388372.7222852.1687261.297663-.0284806-.116564.036248-.4704247-.0418579-.9491866-.1795143-.2394073-.0681809-.5068871-.157938-.7930995-.2524418-.2862123-.0940724-.5880439-.1967753-.8898755-.3072456-1.2136058-.4211679-2.4417228-.9195788-2.8288799-.9260517-2.346002-.9786978-4.6055704-2.0506048-6.7079437-3.3680494-1.0692859-.6598011-2.070702-1.3886461-2.9943912-2.1791128-.9693491-.8344391-1.7983834-1.7686898-2.4656529-2.7785868-.0426733-.064815-.0884652-.1279471-.1269751-.195308l-.1155297-.2037659c-.0770198-.136405-.1550792-.27199-.2289752-.4092148l-.1967129-.4252243-.0957524-.2146835-.080141-.2205954c-.0530807-.1481855-.1040797-.2947313-.1550792-.4437367l-.1165688-.4555174c-.0176935-.0757757-.0395505-.1515514-.0541218-.2281902l-.0364277-.2323759c-.0218569-.1557804-.0489178-.3106977-.0634887-.4664781-.0258392-.3130711-.0303563-.6270484-.0135304-.9405079.0114487-.1557372.0114487-.3140204.035387-.4689809l.0738965-.465615c.0251406-.15427.0598782-.3074181.1040796-.4588832l.0603669-.2281471c.0208158-.0741359.03955-.1566434.0634886-.2189556.0902022-.2643519.1810995-.529308.2726885-.7948251.8047453-2.1351405 1.9830811-4.1661109 3.4991623-6.0311602-.4694009.6053859-.7285592 1.1088888-.7587424 1.2629862-.0145691.0766387.0301832.0690439.1446734-.0488486.056203-.0589031.1311385-.1456395.2237723-.2635321.0926285-.1178925.1987867-.267761.3392967-.4445566l.247713-.3948881c.0832622-.1322192.165485-.2652582.2549949-.3932052.1779751-.2576634.3476235-.5220585.5339254-.7754929l.2862334-.1852535c.7951575-.9514254 1.6766957-1.9954991.6556923-1.13163 1.0711328-1.1056523 2.2295435-2.1541708 3.4679502-3.1389099 1.2238427-.9750297 2.5092127-1.8982766 3.8509386-2.7659431 2.6518968-1.7074564 5.465474-3.2437703 8.4148226-4.5947011 5.8461933-2.6943964 12.0264593-4.7572565 18.3107833-6.408399 1.572954-.4108977 3.152557-.796767 4.738756-1.1577373 1.586147-.3609272 3.178942-.697689 4.77828-1.0103717 1.595908-.3137615 3.198518-.6034008 4.808462-.8689265 1.607834-.2660694 3.218306-.5152964 4.833527-.7375834 6.447166-.8923885 12.955542-1.4640507 19.488719-1.7117588 3.102744-.0581004 6.86192-.0959883 10.691276-.0109477 1.913887.0420995 3.850992.1145093 5.724248.2172338 1.873783.1027201 3.688466.2399665 5.370703.3974168 4.87363.5735825 9.687633 1.4384225 14.403488 2.5874387 4.633538 1.1518254 9.119325 2.5916503 13.358688 4.4625252l.397341.1742927.393647.1818877.786768.3645519c.52029.2526145 1.041108.500137 1.548734.7670781.508153.266898 1.016834.534659 1.521822.8074688.250647.1380879.4976.2829075.746136.4209954l.373596.2130005.366208.2205954c.983591.5826445 1.934994 1.2065859 2.862124 1.8591374.927657.6525083 1.822598 1.3421277 2.68324 2.0653629l.321884.27199c.103952.0909222.214237.1818444.312385.2769956l.624243.5624491c.402618.3856104.812623.767035 1.195717 1.170381.194713.1986739.392592.3965711.575696.6037029.183105.2071318.377818.4083517.559866.6171665l.539287.631493c.178883.2113176.344573.4302301.52029.6458197.085484.1086148.174134.2155466.255924.3258442l.244842.332576c.16147.2222784.330854.4411908.480715.6735668l.462245.6820246c.145639.231815.290751.4639321.435862.696308.569892.9437443 1.080156 1.9101868 1.52921 2.8956163 0 0-.11134-.1153465-.326105-.3872933-.103953-.135585-.237983-.3115608-.400507-.5287902-.162525-.2172295-.363043-.4740298-.583612-.7796787-.468578-.602883-1.041108-1.3977081-1.837373-2.367689-.964067-1.1883324-2.00412-2.3355405-3.114882-3.4369639z" transform="translate(-77 -38)"/></svg>