<svg height="18" viewBox="0 0 18 18" width="18" xmlns="http://www.w3.org/2000/svg"><path d="m8.54873657 11.5643463c-.55984497 0-1.06899261-.1367569-1.52744293-.4102707s-.8245697-.6394958-1.09835815-1.0979461c-.27378846-.45845036-.41068268-.96732335-.41068268-1.526619 0-.55984497.13689422-1.06915283.41068268-1.52792359.27378845-.45877075.63990783-.82505035 1.09835815-1.0988388s.96759796-.41068268 1.52744293-.41068268c.55929566 0 1.06819153.13689423 1.52668763.41068268s.8246384.64006805 1.0984268 1.0988388c.2737885.45877076.4106827.96807862.4106827 1.52792359 0 .55929565-.1367569 1.06816864-.4102707 1.526619-.2735138.4584503-.6394958.8244323-1.0979462 1.0979461-.45845028.2735138-.9676437.4102707-1.52758023.4102707zm-5.73294067-7.14990233c.43185425-.63555908.96180725-1.17430115 1.58985901-1.6162262l1.66168213 1.65467835c-.6777649.41326904-1.21298218.94903564-1.60565186 1.6072998zm11.4562683.01579285-1.654541 1.64588928c-.3922119-.65826416-.9247742-1.19407654-1.5976868-1.60743714l1.6537171-1.6625061c.6274109.44192505 1.1602478.98327637 1.5985107 1.62405396zm0 8.18879698c-.4382629.6362-.9710998 1.1752167-1.5985107 1.6170502l-1.6537171-1.654541c.6782227-.4133606 1.21344-.951828 1.6056519-1.6154023zm-11.4562683.0079651 1.64588928-1.644928c.39797974.6582642.93319702 1.1940766 1.60565186 1.6074372l-1.65371704 1.654541c-.62805176-.4424744-1.16065979-.9814911-1.5978241-1.6170502zm5.72415161 4.4512482c1.16867065 0 2.26778409-.2224503 3.29734039-.6673508s1.9379883-1.0610046 2.725296-1.8483124c.7873078-.7873077 1.4035721-1.6957397 1.8487931-2.725296.4452209-1.0295563.6678314-2.12894439.6678314-3.29816436 0-1.16867066-.223938-2.26789856-.671814-3.29768372s-1.0654678-1.93686676-1.8527756-2.72124481c-.7873077-.78437805-1.6957397-1.40050507-2.725296-1.84838104-1.0295563-.44787598-2.12894438-.67181397-3.29816435-.67181397-1.1633606 0-2.25979615.22393799-3.28930664.67181397-1.0295105.44787597-1.93791962 1.06400299-2.72522736 1.84838104s-1.40357208 1.69145965-1.84879303 2.72124481-.66783142 2.12901306-.66783142 3.29768372c0 1.16921997.22393799 2.26860806.67181397 3.29816436.44787597 1.0295563 1.06414031 1.9379883 1.84879302 2.725296.78465271.7873078 1.69173432 1.4034119 2.72124482 1.8483124 1.02951049.4449005 2.12887573.6673508 3.2980957.6673508z" transform="translate(.530742 .46756)"/></svg>