<svg fill="none" height="28" viewBox="0 0 28 28" width="28" xmlns="http://www.w3.org/2000/svg"><path d="m1.34828 4.43055c-.25242 1.19954-.34828 2.77711-.34828 3.83907 0 8.87108 5.29711 14.72758 13.384 14.72758 5.2952 0 7.7093-3.1415 8.2851-4.1205l-1.7369-.09c1.6204 1.7034 2.2706 3.4017 3.0567 5.876.1821.5815.5899.8123 1.0423.8123.9136 0 1.6429-.7921 1.6429-1.8635 0-1.6404-2.3709-4.495-3.5948-5.6444-5.2214-4.8251-13.14329-1.9315-15.11884-7.1833-.14179-.3753.25266-.6783.59508-.3242 4.06196 4.1737 9.38316.6877 14.42676 5.3222.4532.4022.9958.1999 1.0788-.2832.0586-.3377.0958-.8725.0958-1.405 0-5.74406-3.9801-8.62664-9.7357-8.62664-1.9024 0-4.1317.47602-5.86285.47602-1.86984 0-3.97195-.13758-5.67-1.93383-.54164-.54914-1.3378-.43664-1.54007.4214z" fill="#000"/></svg>