<svg fill="none" height="28" viewBox="0 0 28 28" width="28" xmlns="http://www.w3.org/2000/svg"><path d="m6.84421 24.8972h14.94889c2.5294 0 3.8442-1.3053 3.8442-3.8058v-14.26219c0-2.50265-1.3148-3.80577-3.8442-3.80577h-14.94889c-2.52937 0-3.84421 1.29351-3.84421 3.80577v14.26219c0 2.5102 1.31484 3.8058 3.84421 3.8058z" fill="#000"/><path d="m10.248 19.0188c-1.0373 0-1.88081-.8435-1.88081-1.8808 0-1.0299.84351-1.8692 1.88081-1.8692 1.0299 0 1.8617.8393 1.8617 1.8692 0 1.0373-.8318 1.8808-1.8617 1.8808zm8.1523 0c-1.0394 0-1.8712-.8435-1.8712-1.8808 0-1.0299.8318-1.8692 1.8712-1.8692 1.0181 0 1.8713.8393 1.8713 1.8692 0 1.0373-.8532 1.8808-1.8713 1.8808zm-4.0809-6.3926c-1.0374 0-1.8809-.8414-1.8809-1.8808 0-1.02778.8435-1.86918 1.8809-1.86918 1.0277 0 1.8712.8414 1.8712 1.86918 0 1.0394-.8435 1.8808-1.8712 1.8808z" fill="#fff"/></svg>