<svg fill="none" height="28" viewBox="0 0 28 28" width="28" xmlns="http://www.w3.org/2000/svg"><path d="m14.1634 15.5295c.4953 0 .9469-.2332 1.4752-.7615l10.2164-10.14254c-.4505-.40711-1.2612-.60422-2.4108-.60422h-18.8946c-1.00336 0-1.71586.1875-2.12578.56578l10.26448 10.18098c.5208.5187.9703.7615 1.4751.7615zm-12.84934 7.0643 8.40961-8.3348-8.3993-8.28636c-.21164.36399-.32437.97711-.32437 1.84476v12.9501c0 .8595.10219 1.4707.31406 1.8263zm3.53015 1.9795h18.89459c1.0287 0 1.7527-.198 2.1731-.5878l-8.5715-8.5064-.7228.7324c-.8192.7882-1.5935 1.1482-2.4542 1.1482-.8702 0-1.6467-.36-2.4562-1.1482l-.7303-.7282-8.55237 8.4926c.47273.3994 1.27359.5974 2.41968.5974zm22.14189-1.9891c.2001-.3652.3044-.9668.3044-1.8167v-12.9501c0-.84843-.1127-1.46155-.3147-1.81593l-8.3822 8.25753z" fill="#000"/></svg>