<svg fill="none" height="28" viewBox="0 0 28 28" width="28" xmlns="http://www.w3.org/2000/svg"><path d="m14.5484 22.8378c1.4958 0 5.5826-5.3695 5.5826-7.3788 0-1.1325-2.5228-3.341-3.8428-3.341-.5763 0-1.4937.8182-2.1616.8182-.6638 0-2.149-1.3062-2.149-1.8762 0-.326.2728-.5072.5967-.5072.5742 0 1.4723.942 2.3927.942.7554 0 1.1487-.5042 1.1487-1.2385 0-.41951-.2248-.8306-.5381-1.34201 1.2007-.58382 3.5852-1.78617 4.3767-3.37594-.8346-1.36359-3.1561-2.26054-5.8959-2.26054-4.0259 0-7.92778 2.39249-8.21185 4.6957-.1057 1.20515.74532 2.47479 2.36063 3.88129l1.70039 1.4777c.54113.4805.85763.7052.85763 1.0099 0 .506-.571.8471-.571 1.4916 0 .5859.2791 1.0856.8864 1.5309 1.9006 1.4318 2.3428 1.6205 2.3428 2.052.0139.7692-.4432 1.353-.4432 2.0658 0 .6424.8321 1.3551 1.5682 1.3551zm-.4434 3.3722c6.6319 0 12.1071-5.4827 12.1071-12.105 0-6.63188-5.4848-12.105-12.1167-12.105-6.62017 0-12.0954 5.47312-12.0954 12.105 0 6.6223 5.48484 12.105 12.105 12.105zm0-1.8764c-5.59267 0-10.2265-4.6338-10.2265-10.2286 0-5.59477 4.62423-10.22861 10.2169-10.22861 5.5948 0 10.2382 4.63384 10.2382 10.22861 0 5.5948-4.6338 10.2286-10.2286 10.2286z" fill="#000"/></svg>