<svg fill="none" height="28" viewBox="0 0 28 28" width="28" xmlns="http://www.w3.org/2000/svg"><path d="m13.9873 13.072 11.1193-6.23165c-.1885-.18844-.4163-.33961-.6931-.48867l-8.2207-4.62023c-.7296-.41227-1.4761-.63282-2.2034-.63282-.7389 0-1.4854.22055-2.215.63282l-8.21112 4.62023c-.2768.14906-.50461.30023-.70476.48867zm-.8634 13.6385v-12.1163l-11.04492-6.23909c-.05976.2325-.07898.48-.07898.78727v9.34622c0 1.6739.58711 2.3468 1.71586 2.9848l9.08414 5.1c.1041.0637.2102.1115.3239.1371zm1.7173 0c.1136-.0256.2177-.0734.3335-.1371l9.0745-5.1c1.1384-.638 1.7159-1.3109 1.7159-2.9848v-9.34622c0-.30727-.0214-.55477-.079-.78727l-11.0449 6.23909z" fill="#000"/></svg>