<svg height="16" viewBox="0 0 20 16" width="20" xmlns="http://www.w3.org/2000/svg"><path d="m4.73318481 0c-.61495971 0-1.2233963.09152985-1.82530975.27458954s-1.14660644.44714355-1.63407898.79225159c-.48747253.34510803-.87306976.75798797-1.15679168 1.23863983-.05310059.09869384-.08587647.18903351-.09832764.27101898s-.01867676.20944977-.01867676.38239288v11.70291138c0 .2157898.06509399.3857117.19528198.5097656.13018799.124054.30944825.186081.53778076.186081.11709595 0 .22599793-.0188141.32670594-.0564423.100708-.0376282.20370483-.0966797.30899048-.1771545.5140686-.4324952 1.09556579-.7583313 1.74449157-.9775086.64892578-.2191772 1.31295777-.3287659 1.99209595-.3287659.64141846 0 1.25003815.1050797 1.82585907.315239s1.08460236.5024643 1.5263443.876915c.0987854.0854187.20429993.128128.31654358.128128.09246826 0 .17351532-.0330734.24314117-.0992203.06962586-.0661468.10443878-.1533737.10443878-.2616806v-12.3714294c0-.10821533-.01080322-.19109344-.03240966-.24863434-.02160645-.05754089-.07402039-.14632415-.15724183-.26634979-.40310668-.58932495-.98231506-1.0517807-1.73762512-1.38736725s-1.57571411-.50337982-2.46121216-.50337982zm9.90472409 0c-.8860473 0-1.7067032.16779327-2.4619674.50337982-.7552643.33558655-1.3344956.7980423-1.7376938 1.38736725-.0831299.12002564-.1353836.2088089-.1567612.26634979-.0213776.0575409-.0320663.14041901-.0320663.24863434v12.3714294c0 .1083069.0348358.1955338.1045074.2616806.0696716.0661469.1504212.0992203.2422485.0992203.1122437 0 .217804-.0427093.316681-.128128.4416503-.3744507.9504089-.6667557 1.5262756-.876915s1.1844635-.315239 1.8257904-.315239c.6791382 0 1.3431702.1095887 1.9920959.3287659.6489258.2191773 1.230423.5450134 1.7444916.9775086.1052857.0804748.2082825.1395263.3089905.1771545s.2096558.0564423.3268433.0564423c.2282409 0 .4074554-.062027.5376434-.186081.130188-.1240539.195282-.2939758.195282-.5097656v-11.70291138c0-.17294311-.0060883-.30173492-.0182648-.38637542-.0121765-.08464051-.0450897-.17365265-.0987396-.26703644-.2837219-.48065186-.6693192-.8935318-1.1567917-1.23863983-.4874725-.34510804-1.0320053-.6091919-1.6335983-.79225159-.6015931-.18305969-1.2099152-.27458954-1.8249665-.27458954z" transform="translate(.385168 .314743)"/></svg>