<svg fill="none" height="28" viewBox="0 0 28 28" width="28" xmlns="http://www.w3.org/2000/svg"><path d="m14.1188 18.3261c-2.3444 0-4.22108-1.8863-4.22108-4.2169 0-2.3369 1.87668-4.22318 4.22108-4.22318 2.3328 0 4.2094 1.88628 4.2094 4.22318 0 2.3306-1.8745 4.2169-4.2094 4.2169zm-8.12458-9.95508c.63351-.93445 1.42218-1.73694 2.34702-2.37257l2.34566 2.34774c-.95675.57398-1.7923 1.39241-2.35667 2.36081zm16.22578.00961-2.3499 2.33607c-.5547-.96849-1.3882-1.78692-2.347-2.3609l2.3478-2.34774c.9248.63563 1.7135 1.44773 2.3491 2.37257zm0 11.43377c-.626.9248-1.4243 1.739-2.3395 2.3747l-2.3574-2.3499c.9685-.574 1.7923-1.3903 2.3567-2.3608zm-16.21618.0096 2.33602-2.336c.56437.9705 1.39031 1.7868 2.34706 2.3608l-2.34566 2.3499c-.91523-.6357-1.71351-1.4403-2.33742-2.3747zm8.10118 6.4061c6.6319 0 12.1071-5.4752 12.1071-12.1071 0-6.62009-5.4848-12.10493-12.1167-12.10493-6.62017 0-12.0954 5.48484-12.0954 12.10493 0 6.6319 5.48484 12.1071 12.105 12.1071z" fill="#000"/></svg>