<svg height="16" viewBox="0 0 16 16" width="16" xmlns="http://www.w3.org/2000/svg"><path d="m7.59375 15.1796875c1.03645833 0 2.01302083-.1992187 2.9296875-.5976563.9166667-.3984374 1.7239583-.9466145 2.421875-1.6445312s1.2447917-1.5039062 1.640625-2.4179688c.3958333-.91406245.59375-1.89192703.59375-2.9335937 0-1.03645833-.1992187-2.01302083-.5976563-2.9296875-.3984374-.91666667-.9466145-1.72526042-1.6445312-2.42578125s-1.5052083-1.24739583-2.421875-1.640625c-.91666667-.39322917-1.89322917-.58984375-2.9296875-.58984375s-2.01171875.19661458-2.92578125.58984375-1.72135417.94010417-2.421875 1.640625-1.24869792 1.50911458-1.64453125 2.42578125-.59375 1.89322917-.59375 2.9296875c0 1.04166667.19921875 2.01953125.59765625 2.9335937.3984375.9140626.94661458 1.7200521 1.64453125 2.4179688s1.50390625 1.2460938 2.41796875 1.6445312c.9140625.3984376 1.89192708.5976563 2.93359375.5976563zm-.15625-6.0390625c-.453125 0-.6796875-.2109375-.6796875-.6328125 0-.015625 0-.03125 0-.046875s0-.03125 0-.046875c0-.359375.08984375-.65104167.26953125-.875s.40494792-.43229167.67578125-.625c.328125-.22916667.57291667-.42447917.734375-.5859375s.2421875-.3671875.2421875-.6171875c0-.27604167-.09895833-.49869792-.296875-.66796875s-.45833333-.25390625-.78125-.25390625c-.23958333 0-.453125.05729167-.640625.171875s-.34895833.27864583-.484375.4921875l-.125.171875c-.07291667.09375-.15755208.16927083-.25390625.2265625s-.21223958.0859375-.34765625.0859375c-.140625 0-.26953125-.04947917-.38671875-.1484375s-.17578125-.23958333-.17578125-.421875c0-.06770833.00651042-.13411458.01953125-.19921875s.02734375-.12630208.04296875-.18359375c.11979167-.359375.38932292-.66927083.80859375-.9296875s.95703125-.390625 1.61328125-.390625c.44270833 0 .85286458.07552083 1.23046875.2265625s.6796875.37369792.90625.66796875c.22656245.29427083.33984375.65755208.33984375 1.08984375 0 .44791667-.1145833.80338542-.34375 1.06640625-.22916667.26302083-.53385417.51953125-.9140625.76953125-.25520833.16666667-.44791667.32552083-.578125.4765625s-.19791667.33072917-.203125.5390625c-.00520833.01041667-.0078125.0234375-.0078125.0390625v.046875c-.00520833.15625-.06770833.28776042-.1875.39453125s-.27864583.16015625-.4765625.16015625zm-.015625 2.3203125c-.23958333 0-.4453125-.0794271-.6171875-.2382813-.171875-.1588541-.2578125-.3528645-.2578125-.5820312s.0859375-.4244792.2578125-.5859375c.171875-.16145833.37760417-.2421875.6171875-.2421875s.44401042.07942708.61328125.2382812c.16927083.1588542.25390625.3554688.25390625.5898438s-.0859375.4296875-.2578125.5859375-.375.234375-.609375.234375z" transform="translate(.320312 .078125)"/></svg>
