<svg height="18" viewBox="0 0 18 18" width="18" xmlns="http://www.w3.org/2000/svg"><path d="m8.8754425 14.8106689c.38031006 0 .74274445-.1224746 1.08730317-.367424.34455873-.2449493.65835573-.539566.94139103-.8838501.2830352-.344284.5222854-.6739425.7177505-.9889755.1954651-.3150329.3342133-.5422668.4162445-.6817016.2156067-.3403931.307457-.6698456.2755509-.9883576-.0319062-.318512-.0478592-.5820923-.0478592-.790741 0-.0973205.0728073-.22995754.2184219-.39791103s.2912521-.35712433.4369125-.56751251c.1456604-.21038819.2184906-.43542481.2184906-.67510987 0-.18292236-.0848236-.3554306-.2544708-.51752472-.1696472-.16209411-.3667145-.31448364-.5912018-.45716857-.2244873-.14268494-.4228592-.27701569-.5951156-.40299225-.1722565-.12597657-.2583847-.24229432-.2583847-.34895325 0-.12432861.0419082-.23616028.1257248-.335495.0838165-.09933471.1764907-.14900207.2780227-.14900207.0925598 0 .2122421.05944061.359047.17832184.1468048.11888122.3054428.25561523.475914.41020202.1704712.1545868.3376007.28985596.5013885.4058075.1637879.11595154.3092651.17392731.4364319.17392731.1107788 0 .193016-.02455902.2467117-.07367707.0536957-.04911804.0986023-.0983963.1347199-.14783477.0361175-.04943848.0837478-.07415772.1428909-.07415772.1031799 0 .1960602.12304688.2786408.36914063.0825805.24609375.1813888.54430389.2964248.89463043s.2711563.68680572.4683609 1.00943756c.1972046.32263183.4620209.56048584.7944489.71356204.1907043-.20187381.3435516-.4310303.4585418-.68746951.1149903-.25643921.1724854-.55334473.1724854-.89071655 0-1.09185792-.2092896-2.12416077-.6278687-3.09690857-.4185791-.97274781-.9977874-1.83155823-1.7376251-2.57643128-.7398376-.74487305-1.5986481-1.33055878-2.5764313-1.75705719s-2.02349849-.63713836-3.13714595-.63201448c-.81124878 0-1.4651413.09050295-1.96167755.2713196-.49653626.18081665-.8581009.40972137-1.08469391.68671417-.22659302.2769928-.33988953.56078338-.33988953.85137176 0 .37014771-.0728302.66384888-.2184906.88110352s-.29262543.40800476-.44089508.57225037c-.14826965.1642456-.22240448.35673523-.22240448.57746887 0 .20864868.06681061.37511444.20043182.49939728.13362122.12428283.31121064.18642425.53276825.18642425.23931885 0 .42707062-.05188751.56325531-.15566254.1361847-.10377502.24886322-.22336578.33803559-.35877227.08917236-.1354065.17486572-.25499726.25708007-.35877228.08221436-.10377503.18374634-.15566254.30459595-.15566254.11901856 0 .23808289.04589081.357193.13767243.1191101.09178161.25195312.18354034.39852905.27527618s.32212829.13760376.5266571.13760376c.13549805 0 .23737335-.03916168.30562592-.11748505.06825256-.07832336.10645294-.17639923.11460113-.2942276.01226807-.05859375.03213501-.1014862.05960083-.12867736.02746582-.02719117.06523133-.04078675.11329651-.04078675.18045044 0 .35540772.05406189.52487183.16218567s.30846405.23735047.41699982.38768005c.10853576.15032959.16280364.28211976.16280364.39537049 0 .17129516-.03076171.31544494-.09228515.43244934-.06152344.11700439-.14712525.17550659-.25680542.17550659-.11791992 0-.29077149-.03536224-.51855469-.10608673s-.4799881-.14128876-.75661468-.21169281c-.27662659-.07040405-.55208588-.10560608-.82637787-.10560608-.62576294 0-1.19707489.13057709-1.71393585.39173126-.51686097.26115418-.92985535.60990143-1.23898316 1.04624176-.30912781.43634034-.46369171.91438294-.46369171 1.43412781 0 .6897583.19468689 1.22490692.58406067 1.60544586s.93475342.57080837 1.63613891.57080837c.42205811 0 .77291108.1270752 1.0525589.3812256.27964783.2541504.41947174.5773316.41947174.9695435 0 .3023987.00308991.644783.00926972 1.027153s.05175018.7490616.13671112 1.1000748.2403717.6406402.4662323.8688812c.22586059.228241.55879211.3423614.99879455.3423614zm2.1121216-11.22363277c-.1472168 0-.2637863.02435303-.3497086.07305908-.0859222.04870606-.1976852.07305909-.335289.07305909-.1305542 0-.2393188-.04083252-.32629392-.12249756-.08697509-.08166504-.13046264-.18809509-.13046264-.31929016 0-.20617676.09391021-.36270905.28173066-.46959687.1878204-.10688781.4542618-.16033172.799324-.16033172.2929688 0 .5362931.0666275.7299729.19988251.1936798.133255.2905197.29738617.2905197.49239349 0 .11416626-.0319062.21034241-.0957184.28852844-.0638123.07818604-.1437378.11727905-.2397766.11727905-.1534424 0-.2747269-.02874755-.3638535-.08624267s-.1759414-.08624268-.2604446-.08624268zm-2.44761659 13.49121097c1.16867065 0 2.26778409-.2239151 3.29734039-.6717453s1.9379883-1.0639344 2.725296-1.8483124c.7873078-.7843781 1.4035721-1.6914826 1.8487931-2.7213135.4452209-1.0298309.6678314-2.12908171.6678314-3.29775236 0-1.16867066-.223938-2.26789856-.671814-3.29768372s-1.0654678-1.93819428-1.8527756-2.72522736c-.7873077-.78703308-1.6957397-1.40316009-2.725296-1.84838104s-2.12894438-.66783142-3.29816435-.66783142c-1.1633606 0-2.25979615.22261047-3.28930664.66783142-1.0295105.44522095-1.93791962 1.06134796-2.72522736 1.84838104s-1.40357208 1.6954422-1.84879303 2.72522736-.66783142 2.12901306-.66783142 3.29768372c0 1.16867065.22393799 2.26792146.67181397 3.29775236.44787597 1.0298309 1.06414031 1.9369354 1.84879302 2.7213135.78465271.784378 1.69173432 1.4004822 2.72124482 1.8483124 1.02951049.4478302 2.12887573.6717453 3.2980957.6717453zm0-1.2414551c-.99627686 0-1.93515015-.1904984-2.81661987-.5714951-.88146973-.3809967-1.65818024-.9074707-2.33013153-1.579422-.6719513-.6719513-1.19853974-1.4487991-1.57976532-2.3305435-.38122559-.8817444-.57183838-1.82048033-.57183838-2.81620786 0-.99572754.19061279-1.93446351.57183838-2.81620789.38122558-.88174439.90781402-1.65859222 1.57976532-2.33054352.67195129-.67195129 1.44733429-1.1984024 2.32614898-1.57935333.8788147-.38095093 1.81608582-.57142639 2.81181336-.57142639 1.00158691 0 1.94181065.19047546 2.82067105.57142639.8788605.38095093 1.6557312.90740204 2.3306122 1.57935333.674881.6719513 1.2027969 1.44879913 1.5837479 2.33054352.3809509.88174438.5714264 1.82048035.5714264 2.81620789 0 .99572753-.1904755 1.93446346-.5714264 2.81620786-.380951.8817444-.9075623 1.6585922-1.579834 2.3305435s-1.4491425 1.1984253-2.3306122 1.579422-1.82006835.5714951-2.81579589.5714951z" transform="translate(.530742 .458771)"/></svg>
