<svg height="16" viewBox="0 0 16 16" width="16" xmlns="http://www.w3.org/2000/svg"><path d="m7.59375 15.1796875c1.03645833 0 2.01302083-.1992187 2.9296875-.5976563.9166667-.3984374 1.7239583-.9466145 2.421875-1.6445312s1.2447917-1.5039062 1.640625-2.4179688c.3958333-.91406245.59375-1.89192703.59375-2.9335937 0-1.03645833-.1992187-2.01302083-.5976563-2.9296875-.3984374-.91666667-.9466145-1.72526042-1.6445312-2.42578125s-1.5052083-1.24739583-2.421875-1.640625c-.91666667-.39322917-1.89322917-.58984375-2.9296875-.58984375s-2.01171875.19661458-2.92578125.58984375-1.72135417.94010417-2.421875 1.640625-1.24869792 1.50911458-1.64453125 2.42578125-.59375 1.89322917-.59375 2.9296875c0 1.04166667.19921875 2.01953125.59765625 2.9335937.3984375.9140626.94661458 1.7200521 1.64453125 2.4179688s1.50390625 1.2460938 2.41796875 1.6445312c.9140625.3984376 1.89192708.5976563 2.93359375.5976563zm.0078125-11.5078125c.1875 0 .33984375.05859375.45703125.17578125s.17578125.26692708.17578125.44921875v3.6953125l-.0703125 1.609375.7421875-.8984375.8671875-.90625c.11458333-.11979167.2604167-.1796875.4375-.1796875.171875 0 .3164063.05598958.4335937.16796875.1171876.11197917.1757813.25390625.1757813.42578125 0 .16666667-.0598958.3125-.1796875.4375l-2.5390625 2.5390625c-.15625.1614583-.32291667.2421875-.5.2421875-.171875 0-.3359375-.0807292-.4921875-.2421875l-2.5390625-2.5390625c-.11458333-.11979167-.171875-.265625-.171875-.4375s.05729167-.31380208.171875-.42578125.25520833-.16796875.421875-.16796875c.17708333 0 .32291667.05989583.4375.1796875l.8828125.90625.71875.890625-.0625-1.6015625v-3.6953125c0-.18229167.05989583-.33203125.1796875-.44921875s.27083333-.17578125.453125-.17578125z" transform="translate(.320312 .078125)"/></svg>