<svg fill="none" height="28" viewBox="0 0 30 28" width="30" xmlns="http://www.w3.org/2000/svg"><path d="m1.65234 27.0433h2.1832c1.05234 0 1.65023-.6096 1.65023-1.6524v-19.4238c0-1.05445-.59789-1.66195-1.65023-1.66195h-2.1832c-1.064062 0-1.65234.6075-1.65234 1.66195v19.4238c0 1.0428.588278 1.6524 1.65234 1.6524zm6.88006 0h4.5204c1.0619 0 1.6502-.6096 1.6502-1.6524v-15.2843c0-1.04481-.5883-1.65231-1.6502-1.65231h-4.5204c-1.06406 0-1.66195.6075-1.66195 1.65231v15.2843c0 1.0428.59789 1.6524 1.66195 1.6524zm1.04367-14.2219c-.4514 0-.79523-.3417-.79523-.7814 0-.4343.34172-.776.79523-.776h2.46493c.465 0 .7739.3417.7739.776 0 .4397-.3321.7814-.7739.7814zm0 11.4218c-.45351 0-.79523-.3417-.79523-.7835 0-.4322.34383-.776.79523-.776h2.46493c.4418 0 .7739.3438.7739.776 0 .4418-.3321.7835-.7739.7835zm8.17363 2.8001h2.7257c1.0641 0 1.6524-.6096 1.6524-1.6524v-22.72896c0-1.05444-.5883-1.66194-1.6524-1.66194h-2.7257c-1.0641 0-1.6524.6075-1.6524 1.66194v22.72896c0 1.0428.5883 1.6524 1.6524 1.6524zm8.1227.0628 1.7728-.2421c1.0427-.1235 1.5598-.7831 1.448-1.8354l-2.1371-19.11447c-.1139-1.04484-.7638-1.58858-1.8236-1.45757l-1.7632.24422c-1.0524.12352-1.5694.78304-1.4555 1.82366l2.1445 19.11656c.1139 1.0427.7639 1.5886 1.8141 1.4651z" fill="#000"/></svg>