<svg fill="none" height="28" viewBox="0 0 28 28" width="28" xmlns="http://www.w3.org/2000/svg"><path d="m6.71273 3c-2.62031 0-5.33976 1.22484-6.519373 3.25266-.1647639.29132-.193357.47742-.193357.98905v16.45709c0 .6846.413669 1.0781 1.11984 1.0781.37405 0 .66468-.1115 1.00217-.3635 1.43649-1.1686 3.30071-1.7742 5.16283-1.7742 1.78172 0 3.45136.615 4.70836 1.6772.1437.1181.3129.1788.4587.1788.2768 0 .5025-.2001.5025-.5175v-17.53028c0-.31946-.0319-.4193-.2609-.75047-1.1421-1.67133-3.44273-2.69695-5.98077-2.69695zm14.13657 0c-2.536 0-4.8366 1.02562-5.9787 2.69695-.229.33117-.2608.43101-.2608.75047v17.53028c0 .3174.2257.5175.5025.5175.1457 0 .3246-.0607.4586-.1788 1.257-1.0622 2.9267-1.6772 4.7084-1.6772 1.8621 0 3.7263.6056 5.1628 1.7742.3375.252.6281.3635 1.0001.3635.7082 0 1.1219-.3935 1.1219-1.0781v-16.45709c0-.51163-.0286-.70734-.1933-.98905-1.1797-2.02782-3.8991-3.25266-6.5215-3.25266z" fill="#000"/></svg>