<svg height="16" viewBox="0 0 20 16" width="20" xmlns="http://www.w3.org/2000/svg"><path d="m9.2713623 8.14389038c.3362732 0 .68302918-.17596435 1.0402679-.52789307l7.2419129-7.17462158c-.3179627-.29425049-.8874664-.44137573-1.7085114-.44137573h-13.39672848c-.7098999 0-1.20707702.1365509-1.49153137.40965271l7.28160095 7.2063446c.35192871.35192872.69625855.52789307 1.0329895.52789307zm-9.05273437 4.94810482 5.92739868-5.86381527-5.93234253-5.85488891c-.14245605.25488281-.21368408.67753601-.21368408 1.26795959v9.18099979c0 .5949096.07287598 1.0181579.21862793 1.2697448zm2.45448303 1.3794709h13.39686584c.7136536 0 1.2152252-.1378785 1.504715-.4136353l-6.0408325-5.98521422-.5340729.53338623c-.5612183.53887939-1.13735964.80831909-1.7284241.80831909-.5927124 0-1.1693573-.2694397-1.72993469-.80831909l-.5342102-.53256226-6.02407837 5.97656255c.32720947.2809753.89053345.421463 1.68997192.421463zm15.64233394-1.3874359c.1351319-.2514954.2026978-.6720887.2026978-1.2617798v-9.18099979c0-.57980347-.068573-.99453735-.205719-1.24420166l-5.9084473 5.83113098z" transform="translate(.811223 .774109)"/></svg>