<svg height="16" viewBox="0 0 16 16" width="16" xmlns="http://www.w3.org/2000/svg"><path d="m0 7.39159565v6.31631175c0 .1819548.04126082.3398929.12378247.4738144s.19109555.2349401.32572171.3030557.28590932.1021734.45384949.1021734c.16386888 0 .31299897-.0351931.44739024-.1055792.13439128-.0703861.24159504-.1714047.32161129-.3030557.08001625-.1316509.12002437-.2884538.12002437-.4704086v-7.77104938h-.30698992c-.29548074 0-.55486804.05660641-.77816191.16981922s-.39698863.27849098-.52108427.49583452c-.12409565.21734354-.18614347.48037151-.18614347.78908389zm2.46613672 8.32959725h11.25469208c.7551436 0 1.3237913-.1889425 1.7059433-.5668274.3821519-.377885.5732279-.9418938.5732279-1.6920265v-10.80360251c0-.7455917-.191076-1.3084457-.5732279-1.68856202-.382152-.38011631-.9507997-.57017447-1.7059433-.57017447h-8.24586201c-.75968458 0-1.33060284.19005816-1.71275479.57017447-.38215196.38011632-.57322794.94297032-.57322794 1.68856202v11.61194661c0 .3716606-.05214365.6690596-.15643097.8921968-.10428732.2231373-.29309278.4092416-.56641637.558313zm3.65851188-10.98657506c-.13513507 0-.24709518-.04452959-.33588033-.13358877-.08878515-.08905917-.13317773-.1986509-.13317773-.32877516 0-.12605299.04439258-.23235638.13317773-.31891015.08878515-.08655378.20074526-.12983067.33588033-.12983067h6.9531925c.1310638 0 .2397552.04327689.3260741.12983067.0863189.08655377.1294783.19285716.1294783.31891015 0 .13012426-.0432769.23971599-.1298306.32877516-.0865538.08905918-.1951277.13358877-.3257218.13358877zm0 2.48504466c-.13513507 0-.24709518-.04441214-.33588033-.13323644s-.13317773-.19626294-.13317773-.32231593c0-.13012427.04439258-.23971599.13317773-.32877517s.20074526-.13358876.33588033-.13358876h6.9531925c.1305941 0 .239168.04452958.3257218.13358876.0865537.08905918.1298306.1986509.1298306.32877517 0 .12605299-.0431594.23349163-.1294783.32231593s-.1950103.13323644-.3260741.13323644zm4.3663268 2.48422258c-.1351351 0-.2472322-.04313987-.3362914-.12941962-.0890591-.08627975-.1335887-.19448175-.1335887-.32460602 0-.12605299.0444121-.2346269.1332364-.32572171.0888243-.09109482.2010389-.13664223.3366437-.13664223h2.5868657c.1305941 0 .2390505.04554741.3253694.13664223.0863189.09109481.1294784.19966872.1294784.32572171 0 .13012427-.0431595.23832627-.1294784.32460602s-.1947753.12941962-.3253694.12941962zm0 2.51557922c-.1356048 0-.2478194-.0431399-.3366437-.1294196s-.1332364-.1924461-.1332364-.3184991c0-.1301243.0445296-.239716.1335887-.3287752.0890592-.0890592.2011563-.1335887.3362914-.1335887h2.5868657c.1305941 0 .2390505.0445295.3253694.1335887s.1294784.1986509.1294784.3287752c0 .126053-.0431595.2322194-.1294784.3184991s-.1947753.1294196-.3253694.1294196zm-3.9999119.0339404c-.26298882 0-.46923421-.074751-.61873619-.224253s-.22425297-.3557474-.22425297-.6187362v-1.77382392c0-.26706009.07475099-.47534113.22425297-.62484311s.35574737-.22425297.61873619-.22425297h1.74352425c.26251905 0 .46866658.07475099.61844259.22425297.149776.14950198.22466401.35778302.22466401.62484311v1.77382392c0 .2629888-.07488801.4692342-.22466401.6187362-.14977601.149502-.35592354.224253-.61844259.224253z"/></svg>