<svg height="28" viewBox="0 0 38 28" width="38" xmlns="http://www.w3.org/2000/svg"><path d="m0 15.2362366c0 1.0374959.2688446 1.8205312.80653381 2.3491058s1.33439637.7928619 2.39012146.7928619h4.69778443c.65311686 0 1.21939595.0664012 1.69883728.1992035.47944132.1328024.92306522.359492 1.33087162.680069s.8269704.7586467 1.257492 1.314209c1.1059977 1.4358317 2.4686992 2.5354563 4.0881043 3.2988739s3.3168538 1.1451263 5.0923462 1.1451263h4.5909729c.5212402 0 .9384816-.1545562 1.2517242-.4636688.3132426-.3091125.4698639-.7242889.4698639-1.2455292v-21.63446041c0-.51298015-.1566213-.91989645-.4698639-1.2207489-.3132426-.30085246-.730484-.45127869-1.2517242-.45127869h-4.5909729c-1.7754924 0-3.4729411.37964376-5.0923462 1.13893127-1.6194051.75928752-2.9821066 1.85734559-4.0881043 3.2941742-.4305216.55541992-.8496856.99345398-1.257492 1.31410217s-.8514303.54918925-1.33087162.68562317c-.47944133.13643392-1.04572042.20465088-1.69883728.20465088h-4.69778443c-1.05572509 0-1.85243225.26450094-2.39012146.79350281s-.80653381 1.30769348-.80653381 2.33607483zm2.17019653-.2225952v-5.02398686c0-.7962443.39313762-1.19436645 1.17941285-1.19436645h4.54483032c1.32574463 0 2.4436696-.22864787 3.353775-.68594361.9101054-.45729573 1.7884166-1.23766072 2.6349335-2.34109497.9026286-1.18261719 2.0117594-2.080012 3.3273926-2.69218445 1.3156331-.61217244 2.6994832-.91825866 4.1515503-.91825866h3.7008056c.2943726 0 .4415589.14846801.4415589.44540405v19.81054685c0 .2878215-.1471863.4317322-.4415589.4317322h-3.7008056c-1.4520671 0-2.8359172-.3058726-4.1515503-.9176178-1.3156332-.6117452-2.424764-1.5047963-3.3273926-2.6791534-.8465169-1.1042888-1.7248281-1.887146-2.6349335-2.3485718s-2.02803037-.6921387-3.353775-.6921387h-4.54483032c-.78627523 0-1.17941285-.3981221-1.17941285-1.1943664zm24.22613527-5.35382084h7.7384949c.6045532 0 1.1195983-.21280416 1.5451355-.63841248.4255371-.42560832.6383056-.93648783.6383056-1.53263855 0-.59629313-.2127685-1.10742187-.6383056-1.53338623-.4255372-.42596435-.9405823-.63894653-1.5451355-.63894653h-7.7384949zm0 10.07104494h7.7384949c.6045532 0 1.1195983-.2127686 1.5451355-.6383057.4255371-.4255371.6383056-.9405111.6383056-1.5449219 0-.5962931-.2127685-1.1072082-.6383056-1.5327453-.4255372-.4255371-.9405823-.6383057-1.5451355-.6383057h-7.7384949z" transform="translate(1.011786 1.5)"/></svg>
