<svg height="28" viewBox="0 0 28 28" width="28" xmlns="http://www.w3.org/2000/svg"><path d="m2.94329834 25.5614929h11.98767086c.9902141 0 1.7285665-.2523244 2.2150574-.7569732.4864909-.5046489.7297363-1.2903189.7297363-2.3570099v-9.0597535c0-1.0565795-.2432454-1.8371938-.7297363-2.3418426s-1.2248433-.7569733-2.2150574-.7569733h-11.98767086c-.98195394 0-1.71799215.2523245-2.20811462.7569733-.49012248.5046488-.73518372 1.2852631-.73518372 2.3418426v9.0597535c0 1.066691.24506124 1.852361.73518372 2.3570099.49012247.5046488 1.22616068.7569732 2.20811462.7569732zm.24310303-2.1366577c-.29366048 0-.51394145-.073878-.6608429-.2216339s-.22035217-.3945262-.22035217-.7403107v-9.0890198c0-.3457845.07345072-.5900624.22035217-.7328338s.36718242-.2141571.6608429-.2141571h11.52902223c.2845459 0 .4979909.0713857.6403351.2141571.1423441.1427714.2135162.3870493.2135162.7328338v9.0890198c0 .3457845-.0711721.5925548-.2135162.7403107-.1423442.1477559-.3557892.2216339-.6403351.2216339zm-.89144898-12.0617981h2.27743531v-4.37008666c0-1.04689535.20009358-1.92848206.60028076-2.64476013.40018717-.71627808.93175252-1.2568512 1.59469604-1.62171936.66294352-.36486817 1.38619995-.54730225 2.16976929-.54730225.79282633 0 1.51861061.18243408 2.17735291.54730225.6587423.36486816 1.1879934.90544128 1.5877533 1.62171936.3997599.71627807.5996399 1.59786478.5996399 2.64476013v4.37008666h2.2774353v-4.11117553c0-1.21836344-.1824341-2.28277588-.5473023-3.1932373-.3648681-.91046143-.8627522-1.66572571-1.4936523-2.26579285s-1.3420156-1.04888916-2.1333466-1.34646606c-.7913309-.29757691-1.61395768-.44636536-2.46788021-.44636536-.85292562 0-1.67526754.14878845-2.46702576.44636536-.79175822.2975769-1.50105794.74639892-2.12789917 1.34646606-.62684122.60006714-1.12476094 1.35533142-1.49375915 2.26579285-.36899821.91046142-.55349732 1.97487386-.55349732 3.1932373z" transform="translate(5 1)"/></svg>
