<svg height="28" viewBox="0 0 28 28" width="28" xmlns="http://www.w3.org/2000/svg"><path d="m0 10.433136c0 1.4376831.26944987 2.7874603.80834961 4.0493317.53889974 1.2618713 1.28715006 2.371821 2.24475098 3.3298492.95760091.9580282 2.06552124 1.7065277 3.32376098 2.2454987 1.25823975.5389709 2.60620117.8084564 4.04388423.8084564 1.104716 0 2.1534628-.1634217 3.1462403-.4902649.9927775-.3268433 1.907725-.7828573 2.7448425-1.368042l6.1440125 6.1564026c.1661987.1660563.3581746.2883199.5759277.3667907.2177531.0784709.4409892.1177063.6697083.1177063.3321126 0 .6258799-.0755157.8813018-.2265472.255422-.1510315.4566193-.3565369.6035919-.6165161.1469727-.2599793.220459-.5555979.220459-.8868561 0-.2270101-.0413004-.44487-.1239013-.6535797s-.2032268-.3969472-.3618775-.5647125l-6.1017151-6.1252136c.6397299-.8570557 1.1387533-1.8070374 1.4970703-2.8499451.3583171-1.0429077.5374756-2.1403605.5374756-3.2923584 0-1.43768312-.2696635-2.78749594-.8089904-4.04943849-.539327-1.26194255-1.287791-2.36986287-2.2453919-3.32376099-.9576009-.95389811-2.0655212-1.70236206-3.323761-2.24539184-1.2582397-.54302979-2.6099039-.81454468-4.0549927-.81454468-1.43768306 0-2.78564448.27151489-4.04388423.81454468-1.25823974.54302978-2.36616007 1.29149373-3.32376098 2.24539184-.95760092.95389812-1.70585124 2.06181844-2.24475098 3.32376099s-.80834961 2.61175537-.80834961 4.04943849zm2.48635864 0c0-1.0973104.20522054-2.12533571.61566162-3.08407594.41044108-.95874024.98120626-1.80158997 1.71229554-2.5285492.73108927-.72695922 1.573939-1.29548136 2.52854919-1.7055664s1.98057048-.61512757 3.07788081-.61512757c1.0964559 0 2.124054.20504253 3.0827942.61512757.9587403.41008504 1.80159.97860718 2.5285492 1.7055664.7269593.72695923 1.295695 1.56980896 1.7062073 2.5285492.4105123.95874023.6157684 1.98676554.6157684 3.08407594 0 1.0964559-.2052561 2.124232-.6157684 3.0833282-.4105123.9590963-.979248 1.801946-1.7062073 2.5285492-.7269592.7266032-1.5698089 1.2951254-2.5285492 1.7055664-.9587402.4104411-1.9863383.6156617-3.0827942.6156617-1.09731033 0-2.12327062-.2052206-3.07788081-.6156617-.95461019-.410441-1.79745992-.9789632-2.52854919-1.7055664-.73108928-.7266032-1.30185446-1.5694529-1.71229554-2.5285492-.41044108-.9590962-.61566162-1.9868723-.61566162-3.0833282z" transform="translate(1.474305 1.25)"/></svg>