<svg height="28" viewBox="0 0 34 28" width="34" xmlns="http://www.w3.org/2000/svg"><path d="m20.2890625 19.1542969v2.3242187h6.0566406c1.3307292 0 2.4791667-.2438151 3.4453125-.7314453.9661459-.4876302 1.7067058-1.1529948 2.2216797-1.9960937.514974-.843099.7724609-1.8024089.7724609-2.8779297 0-1.3307292-.3668619-2.5133464-1.1005859-3.5478516-.7337239-1.0345052-1.7386068-1.8069661-3.0146484-2.3173828.0091146-1.44921875-.2278646-2.78450521-.7109375-4.00585938-.4830729-1.22135416-1.1575521-2.27864583-2.0234375-3.171875-.8658854-.89322916-1.8776042-1.58821614-3.0351563-2.08496093s-2.40625-.74511719-3.7460937-.74511719c-1.1575521 0-2.2102865.18457031-3.1582031.55371094-.9479167.36914062-1.7932943.86588541-2.5361329 1.49023437-.7428385.62434896-1.3740234 1.31933594-1.8935547 2.08496094-.7565104-.19140625-1.5289713-.20279948-2.31738276-.03417969s-1.51529948.48990886-2.18066406.96386719c-.66536459.47395833-1.2076823 1.07096354-1.62695313 1.79101563-.41927083.72005208-.64257813 1.53580729-.66992187 2.44726562-.984375.1640625-1.83203126.52408854-2.54296876 1.0800781-.7109375.5559896-1.26009114 1.2578125-1.64746093 2.1054688-.38736979.8476562-.58105469 1.7864583-.58105469 2.8164062 0 1.1393229.27571615 2.1761068.82714844 3.1103516s1.33984375 1.679362 2.36523437 2.2353515c1.02539063.5559896 2.24902344.8339844 3.67089844.8339844h5.67382815v-2.3242187h-5.68750002c-.97526042 0-1.79785157-.1754558-2.46777344-.5263672-.66992188-.3509115-1.17578125-.8180339-1.51757813-1.4013672-.34179687-.5833333-.51269531-1.235026-.51269531-1.9550781 0-1.2213542.37369792-2.2307943 1.12109375-3.0283203.74739583-.7975261 1.79557292-1.1962891 3.14453125-1.1962891.17317708 0 .25976562-.0911458.25976562-.2734375-.01822916-1.29427083.24153646-2.30143229.77929688-3.02148438.53776042-.72005208 1.2281901-1.17578124 2.07128906-1.3671875.84309894-.19140624 1.71582034-.15494791 2.61816404.109375.1640625.04557292.2779948 0 .3417969-.13671874.4192708-.74739584.9205729-1.4264323 1.5039062-2.03710938.5833334-.61067708 1.2828777-1.09602865 2.0986329-1.45605469s1.7705078-.54003906 2.8642578-.54003906c1.3854166 0 2.6113281.328125 3.6777343.984375 1.0664063.65625 1.9140626 1.52213542 2.5429688 2.59765625s.9798177 2.25130208 1.0527344 3.52734375c.0182291.30989583.0205078.63802085.0068359.98437505-.0136719.3463541-.0341797.6790364-.0615234.9980468-.0182292.1640625.0501302.2597656.2050781.2871094 1.1848958.2460937 2.1259766.7200521 2.8232422 1.421875s1.0458984 1.5996094 1.0458984 2.6933594c0 .9752604-.3463541 1.7750651-1.0390625 2.399414-.6927083.624349-1.7272135.9365235-3.1035156.9365235zm-3.8691406 8.8730469c.3098958 0 .5742187-.1070964.7929687-.3212891s.328125-.4716797.328125-.7724609v-12.0175782l-.109375-2.3515625.8613282.9296875 1.8730468 1.9003906c.21875.2096355.4739584.3144532.765625.3144532.2734375 0 .5104167-.0888672.7109375-.2666016.2005209-.1777344.3007813-.4078776.3007813-.6904297 0-.2916666-.1139323-.5377604-.3417969-.7382812l-4.3476563-4.07421878c-.1458333-.13671874-.2848307-.23470052-.4169921-.29394531-.1321615-.05924479-.2711589-.08886719-.4169922-.08886719-.1367188 0-.2711589.0296224-.4033203.08886719-.1321615.05924479-.2757162.15722657-.4306641.29394531l-4.3613281 4.07421878c-.2096354.2005208-.3144532.4466146-.3144532.7382812 0 .2825521.0979818.5126953.2939454.6904297.1959635.1777344.430664.2666016.7041015.2666016.2916667 0 .546875-.1048177.765625-.3144532l1.8867188-1.9003906.8476562-.9296875-.0957031 2.3515625v12.0175782c0 .3007812.1070964.5582682.3212891.7724609s.4762369.3212891.7861328.3212891z" transform="translate(.5)"/></svg>
