<svg height="28" viewBox="0 0 32 28" width="32" xmlns="http://www.w3.org/2000/svg"><path d="m5.13165283 21.4460449h13.48837277c1.6164144 0 2.8776093-.4418436 3.7835846-1.325531.9059754-.8836873 1.358963-2.1271159 1.358963-3.7302856v-11.32202151c0-1.60316976-.4529876-2.84866333-1.358963-3.73648072-.9059753-.88781738-2.1671702-1.33172607-3.7835846-1.33172607h-13.48837277c-1.55061849 0-2.79354858.44390869-3.72879028 1.33172607-.9352417.88781739-1.40286255 2.1337382-1.40286255 3.73776246v11.36303707c0 1.6023153.45117188 2.8384807 1.35351562 3.7084961.90234376.8700155 2.16172282 1.3050232 3.77813721 1.3050232zm.40075684-2.1328125c-1.03436279 0-1.83455912-.2733663-2.40058899-.8200989-.56602987-.5467325-.8490448-1.3630574-.8490448-2.4489746v-10.62988278c0-1.10201009.28301493-1.92257181.8490448-2.46168518.56602987-.53911336 1.3662262-.80867004 2.40058899-.80867004h12.69924923c1.0252482 0 1.8208873.27130127 2.3869171.81390381.5660299.54260254.8490448 1.36141967.8490448 2.45645141v10.62988278c0 1.0859172-.283905 1.9022421-.851715 2.4489746-.5678101.5467326-1.363912.8200989-2.3883057.8200989zm17.85952763-12.23995969v2.6138916l6.1074829-5.0237732c.0619506-.04471842.1150716-.08032226.1593628-.10681152.0442911-.02648926.0933532-.03973389.1471862-.03973389.1431275 0 .2146912.09677124.2146912.29031372v11.87594608c0 .1942545-.0715637.2913818-.2146912.2913818-.053833 0-.1028951-.0154877-.1471862-.046463-.0442912-.0309753-.0974122-.0688222-.1593628-.1135407l-6.1074829-5.0115966v2.6017151l5.135498 4.3542785c.2862549.2381185.576533.4289907.8708344.5726166.2943013.1436259.5837249.2154388.8682708.2154388.5783488 0 1.0463969-.1922251 1.4041443-.5766754s.5366211-.8862152.5366211-1.5052948v-13.43838499c0-.6200765-.1788737-1.12233988-.5366211-1.50679016s-.8257955-.57667542-1.4041443-.57667542c-.2854004 0-.5750376.07202658-.8689117.21607972s-.5839386.33100891-.8701935.56086731z" transform="translate(0 3.25)"/></svg>