<svg height="28" viewBox="0 0 28 28" width="28" xmlns="http://www.w3.org/2000/svg"><path d="m0 14.185192c0 1.003012.23645749 1.899902.70937246 2.69067s1.12315596 1.4122812 1.95072296 1.8645395c.827567.4522582 1.77144755.6783874 2.83164166.6783874h15.74244612c1.0601941 0 2.0040747-.2261292 2.8316417-.6783874.827567-.4522583 1.477808-1.0737715 1.9507229-1.8645395.472915-.790768.7093725-1.687658.7093725-2.69067 0-.4417248-.0537963-.8612538-.1613889-1.2585872s-.2373809-.7812263-.3893649-1.1516786l-3.7701186-8.95795625c-.3838587-.91573412-.9545509-1.61416263-1.7120767-2.09528556s-1.6634445-.72168439-2.7177563-.72168439h-9.22081595c-2.16183839 0-3.63838098.93898998-4.42962778 2.81696995l-3.76006391 8.93764155c-.15649833.3715467-.28974079.7581072-.39972738 1.1596813-.10998659.4015742-.16497988.8252072-.16497988 1.2708992zm4.1382454-5.07641462 2.29268686-5.71786622c.38508986-.9718218 1.17927785-1.4577327 2.38256396-1.4577327h9.10282658c1.2023286 0 1.9960377.4859109 2.3811276 1.4577327l2.2926869 5.71786622c-.2109445-.06019166-.4343034-.10345442-.6700769-.12978828-.2357735-.02633385-.4843035-.03950078-.7455901-.03950078h-15.62055796c-.2533522 0-.49812024.01316693-.73430412.03950078-.23618389.02633386-.46330483.06959662-.68136282.12978828zm-1.93830843 5.07641462c0-.5984967.14001403-1.1260288.42004207-1.5825962.28002804-.4565675.6667595-.8145711 1.16019435-1.0740109.49343486-.2594397 1.06395609-.3891596 1.71156369-.3891596h15.74244612c.6476076 0 1.2181288.1297199 1.7115637.3891596.4934348.2594398.8801663.6174434 1.1601943 1.0740109.2800281.4565674.4200421.9840995.4200421 1.5825962 0 .6300973-.1319087 1.1714461-.395726 1.6240463-.2638173.4526003-.6404598.800686-1.1299275 1.044257-.4894677.2435711-1.0781832.3653566-1.7661466.3653566h-15.74244612c-.6476076 0-1.22011242-.1296857-1.71751445-.389057-.49740204-.2593714-.88413349-.6173408-1.16019436-1.0739083-.27606086-.4565674-.4140913-.9801323-.4140913-1.5706946zm17.48766243 0c0 .4102609.1469908.7619717.4409723 1.0551325.2939816.2931608.6496596.4353636 1.0670341.4266084.4103977 0 .7625874-.1463751 1.0565689-.4391255.2939816-.2927504.4409724-.6402889.4409724-1.0426154 0-.4008218-.1491796-.7504123-.4475387-1.0487714-.2983592-.2983591-.64836-.4475387-1.0500026-.4475387-.4086193 0-.7621086.1491796-1.0604677.4475387s-.4475387.6479496-.4475387 1.0487714zm-7.6354496 10.9594659h2.2210725v-7.0830543h-2.2210725zm-9.32300497 1.0235319h20.86708247c.3001375 0 .5590643-.108858.7767803-.326574.2177159-.217716.3265739-.4770532.3265739-.7780115 0-.3088927-.108858-.572197-.3265739-.789913-.217716-.217716-.4766428-.326574-.7767803-.326574h-20.86708247c-.30095832 0-.56029548.108858-.77801147.326574s-.32657399.4810203-.32657399.789913c0 .3009583.108858.5602955.32657399.7780115s.47705315.326574.77801147.326574zm10.42759047 1.8318102c.5359794 0 1.0247631-.1320455 1.466351-.3961364.441588-.2640909.7943932-.6168962 1.0584158-1.0584157.2640225-.4415196.3960338-.9306794.3960338-1.4674797 0-.536937-.1320113-1.0261653-.3960338-1.4676848-.2640226-.4415196-.6168278-.7942906-1.0584158-1.0583131-.4415879-.2640226-.9303716-.3960338-1.466351-.3960338-.5288659 0-1.0140586.1320112-1.4555781.3960338-.4415196.2640225-.7943248.6167935-1.0584157 1.0583131-.264091.4415195-.3961364.9307478-.3961364 1.4676848 0 .5368003.1320454 1.0259601.3961364 1.4674797.2640909.4415195.6168961.7943248 1.0584157 1.0584157.4415195.2640909.9267122.3961364 1.4555781.3961364z" transform="translate(.75)"/></svg>