<svg height="10" viewBox="0 0 11 10" width="11" xmlns="http://www.w3.org/2000/svg"><path d="m10.9833656 16.0005298c0-.1756689-.0717295-.3459922-.2036999-.4731886l-3.82904629-3.8184184c-.14667346-.1477694-.29912099-.2089228-.4627-.2089228-.36019524 0-.62187998.2574042-.62187998.6077008 0 .1803238.06847936.3359977.18453831.4509792l1.30214362 1.3191206 2.16968378 1.9840263.20203316-.3774996-2.01098596-.1183567h-7.07215479c-.38180101 0-.64129755.2600776-.64129755.6345592s.25949654.6345591.64129755.6345591h7.07215479l2.01098596-.1183566-.20203316-.3716899-2.16968378 1.9782404-1.30214362 1.3180372c-.11605895.1091718-.18453831.2706673-.18453831.4509733 0 .3503138.26168474.6077067.62187998.6077067.16357901 0 .31602654-.0658959.45317575-.1993545l3.83857054-3.8269271c.1319704-.1271905.2036999-.2975138.2036999-.4731886z" transform="matrix(-1 0 0 1 10.9834 -11)"/></svg>
