<svg height="12" viewBox="0 0 12 12" width="12" xmlns="http://www.w3.org/2000/svg"><path d="m11.0129917 6.00047092c0-.15615009-.0637596-.30754863-.1810666-.42061206l-3.40359674-3.39414973c-.1303764-.13135053-.26588532-.18570913-.41128888-.18570913-.32017355 0-.55278221.22880371-.55278221.54017845 0 .16028784.06087055.29866462.16403405.40087041l1.157461 1.17255164 1.9286078 1.763579.17958504-.33555522-1.78754308-.10520593h-6.28635982c-.33937867 0-.57004226.23118002-.57004226.56405257s.23066359.56405257.57004226.56405257h6.28635982l1.78754308-.10520593-.17958504-.33039096-1.9286078 1.75843591-1.157461 1.17158863c-.1031635.09704153-.16403405.24059315-.16403405.40086512 0 .31139008.23260866.54018374.55278221.54018374.14540356 0 .28091248-.05857414.40282288-.17720397l3.41206274-3.40171304c.117307-.11305815.1810666-.26445669.1810666-.42061207z"/></svg>
