<svg height="12" viewBox="0 0 12 12" width="12" xmlns="http://www.w3.org/2000/svg"><path d="m5.99732423 11.2042184c.12565188 0 .24786348-.0043686.36914676-.0150171l.28849147.5415973c.07797952.1539932.21886689.216901.38449146.1951673.17097611-.0276314.27216383-.1443277.29296929-.3118635l.08972013-.6080546c.24349489-.0664574.47098977-.1523004.69411605-.2522321l.45187713.4092287c.12450512.1181706.28330375.1263617.43003413.0484368.14869624-.083331.20679863-.228587.17195904-.3961229l-.12854607-.5983344c.20177474-.1425802.38853242-.30460071.5665529-.47197272l.56294878.23175426c.1602731.06105116.3127918.02326276.4227714-.10653925.1118907-.12881911.1215563-.28133788.0285597-.43003413l-.3238772-.51686006c.1363004-.20712628.2575291-.41954949.3700751-.63732424l.6046144.02129693c.171959.00535154.3046007-.08081911.3627576-.24360409.0590854-.15399318.016-.30552901-.1210648-.40775427l-.4863345-.37477133c.0644915-.23721502.1052833-.4807099.1319318-.73294198l.5779658-.18566553c.1646417-.05280546.2615154-.17578157.2615154-.34577474 0-.16999318-.0968737-.29733789-.2615154-.34675768l-.5779658-.1847099c-.0266485-.2532041-.0674403-.49573788-.1319318-.73293652l.4819659-.37287099c.1423618-.10217065.1791672-.25565051.1244505-.41498976-.057174-.16371877-.1898157-.24072082-.3627031-.23634676l-.6055972.01407782c-.1106348-.21779113-.2318635-.43462116-.3681639-.63737338l.3204915-.50960273c.0949079-.1486744.0813652-.30748396-.0217884-.43632492-.1133652-.13075767-.264901-.16030034-.4217884-.10025392l-.56824571.22888191c-.17709215-.17608737-.36821843-.33276177-.56562457-.47536382l.13045734-.59396041c.03582252-.17097065-.026157-.31281911-.16950171-.39515631-.15109898-.08959454-.30607509-.06345939-.4334198.04938157l-.45722867.40294334c-.21875767-.0999372-.45160409-.18142253-.69318771-.2532041l-.0843686-.60366689c-.01883959-.16755495-.12925597-.27794261-.29051194-.31185889-.16999318-.03050327-.30705802.04404832-.38694881.19272496l-.29040273.53967454c-.12128328-.00532969-.24349488-.00970375-.36914676-.00970375-.12128327 0-.24251194.00437406-.36816382.00970375l-.28509488-.53626102c-.0823372-.15400988-.22323004-.221309-.38353038-.19613848-.17097064.02858353-.27314675.14430394-.29735426.31185889l-.09065939.60366689c-.23815973.07178157-.47098976.15764096-.69315495.2575727l-.44752491-.40923413c-.12542253-.11913174-.28423208-.13075768-.43440273-.04842048-.14867987.0823372-.20243004.22759864-.16755768.39515632l.12318908.59929556c-.20083004.14259659-.38854335.29927645-.5665529.47098976l-.56196587-.23079863c-.15689284-.06538157-.31281912-.02325188-.42374335.10654471-.11187986.12446689-.11721502.28135426-.02325188.43003413l.32391536.51589351c-.14067986.20275222-.26194676.42053788-.37009693.63832901l-.60462525-.02132969c-.17630034-.00970376-.30556833.08084641-.36273529.23922457-.06441939.15838362-.01599836.30898021.12009338.41211741l.4819757.37478771c-.06015563.23719864-.10431127.47973242-.12660205.73293652l-.58233666.1847099c-.16563495.04941979-.25714457.1767645-.25714457.34675768 0 .16999317.09150962.29296928.25714457.34577474l.58233666.18566553c.02229078.25223208.06644642.49572696.12660205.73294198l-.4819757.37193174c-.13705174.10309898-.17384737.25660068-.12350635.41594539.06057993.16273038.18984792.23972696.36273529.23535836l.60899932-.0174744c.10718907.22121502.22845597.43462116.36913583.64076451l-.32487099.5105802c-.09492423.14869625-.07700751.30749488.0251686.43194539.11433174.13515361.26492833.16469621.42278226.10369966l.56292696-.23328327c.17704846.17610921.36913037.33376112.56559181.48070992l-.1260669.5929829c-.03583344.1675905.02709079.3128464.1704355.3961229.15017065.088628.30609693.0678225.42907304-.0493652l.45722866-.4073174c.22216519.1043003.45499523.1857747.69219386.2522321l.08532423.603686c.02325188.1719044.13364096.2832491.29490239.3162321.16904847.0314539.30268396-.0430854.38598225-.1961502l.28701707-.5406144c.12565188.0106485.24688055.0150171.36816382.0150171zm0-1.0301706c-2.29436723 0-4.15720955-1.86282597-4.15720955-4.15721505 0-2.29970785 1.86284232-4.15722048 4.15720955-4.15722048 2.29968601 0 4.15721497 1.85751263 4.15721497 4.15722048 0 2.29438908-1.85752896 4.15721505-4.15721497 4.15721505zm-1.01812423-5.01152768.73678635-.46331195-1.73220478-2.97504437-.77303481.41115632zm2.28217884 1.28123413h3.45512626v-.8683686h-3.45414333zm-1.54146075.90189761-.72759591-.47443003-1.83682184 3.00341296.76482184.42910581zm.28177474.15765188c.82315359 0 1.48739932-.66430034 1.48739932-1.48647099 0-.82316997-.66424573-1.4874157-1.48739932-1.4874157-.82219249 0-1.48644368.66424573-1.48644368 1.4874157 0 .82217065.66425119 1.48647099 1.48644368 1.48647099zm0-.88344028c-.33348805 0-.60301979-.26954266-.60301979-.60303071 0-.33447099.26953174-.60399727.60301979-.60399727.33447099 0 .60401365.26952628.60401365.60399727 0 .33348805-.26954266.60303071-.60401365.60303071z"/></svg>
