<svg height="23" viewBox="0 0 23 23" width="23" xmlns="http://www.w3.org/2000/svg" xmlns:xlink="http://www.w3.org/1999/xlink"><radialGradient id="a" cx="100%" cy="118.823437%" r="160.71875%"><stop offset="0" stop-color="#1e2d86"/><stop offset="1" stop-color="#4b5cc5"/></radialGradient><g fill="none" fill-rule="evenodd"><rect fill="url(#a)" fill-rule="nonzero" height="23" rx="6" width="23"/><path d="m6.70193078 7.78078733 5.91040072-2.43727148c.0908207-.0372558.1910148-.02806281.2633782.00879875.0732319.03730957.0732319.07336473.0732319.07558681v1.79843928.0089421 2.92301261c-.0026057.1569977-.1137837.3477567-.3732713.4539689l-.000959.0003942-2.523291 1.0402953v-.00043l-1.80745624.7455999-1.24769397.5143953.0023524.005591c-.22698834.1170001-.41110875.2810762-.53893445.4756343-.08743684-.2170478-.13202384-.4434857-.13202384-.6704432v-4.4825596c0-.158037.11070749-.35205749.37327133-.45954201zm7.07467512-2.35288592v.94727228c.2653505-.0359118.5617346.02191623.8021135.21935945l.0006152.00050176 1.6898182 1.3933384c.0112192.00924675.0222573.01863687.0330965.02811658l.1244961.1026461c.6752107.55675833 1.0732546 1.33083323 1.0732546 2.15642832v4.4836885c0 .5514899-.374538 1.0079138-.8841399 1.2167721l-.0006333.0002509-5.909876 2.4370743-.0004886.0001792c-.32711.1344005-.681526.104474-.95914515-.0369153-.2767868-.1410309-.5223229-.4223041-.5223229-.8045211v-.9483475c-.26526005.0358222-.56149938-.0220416-.80178782-.2193953l-1.69041534-1.3938401c-.0093734-.0077056-.01860204-.0155188-.02768592-.0234036l-.13025048-.1073949c-.6752107-.5567405-1.07325459-1.3308333-1.07325459-2.1564104v-4.4825596c0-.55152567.37459229-1.00798543.88424843-1.21680789l.00052477-.00021504 5.9103646-2.43727148c.3270919-.13440045.6815079-.10442019.9591451.036987.2767688.14097711.522323.42225037.522323.80446732zm-4.55321175 7.45426099v2.8797536l-.00010857.0001434-.00083239.0010035c-.00696672.0081357-.02663639.0249626-.06378619.03765-.08043392.0274894-.161465.0113972-.20847677-.0270772l-.00023524-.0001792-1.53012653-1.2616797.00028952-.0003405-.17780512-.146604c-.14067342-.1250641-.17150793-.264733-.14881634-.3798336.0246459-.1250462.12480378-.2759151.34853496-.3681497l1.12375877-.463574zm.82802615-.0509826c.0072562-.1549189.1191942-.339603.3728913-.4434498l.0009771-.0003942 5.5784412-2.2998605-.0026781-.0063616c.2271693-.11696421.4114526-.2810582.5393868-.47567005.0873645.21695816.1318972.44327055.1318972.67012065v4.4836885c0 .158037-.1107075.3520754-.3732713.459542l-.0009953.0004122-5.9104007 2.4372894h-.0000181c-.0908569.0373275-.1909605.0280807-.2633601-.0088167-.07325-.0372916-.07325-.0733647-.07325-.0755868v-1.7827771c.0002533-.0085121.00038-.0170778.00038-.0257153zm5.5288779-4.34425252-.0004162.00050177.1816956.1498117c.1376334.12423977.1677622.26251095.1452516.37664381-.0246459.12504618-.1247133.27587932-.3484445.36811387l-.0000905.00003584-1.7816883.73497333v-2.87962816c.0003438-.000448.00076-.00096768.0012847-.00155904.0069486-.00813571.0266183-.02498057.0637681-.03765005.080452-.02748937.161465-.01139716.2084949.02707721l.0002171.0001792z" fill="#fff"/></g></svg>