<svg height="23" viewBox="0 0 23 23" width="23" xmlns="http://www.w3.org/2000/svg" xmlns:xlink="http://www.w3.org/1999/xlink"><radialGradient id="a" cx="100%" cy="118.823437%" r="160.71875%"><stop offset="0" stop-color="#6e6e6e"/><stop offset="1" stop-color="#b1b1b1"/></radialGradient><g fill="none"><rect fill="url(#a)" height="23" rx="6" width="23"/><path d="m11.6064205 18.0758188c.1538239 0 .3076477-.0079648.4638264-.0202928l.3702577.6967438c.0884436.1818044.2751654.276412.4876515.238943.2020972-.0362916.3488567-.1910159.3728203-.4010779l.1168396-.7724438c.2965663-.0775006.586276-.1876221.8692676-.3075784l.5731861.5066976c.1510535.1363706.3636089.1782029.5589188.0669733.1738396-.1013257.2579199-.2978823.2069454-.5066977l-.1555554-.7533283c.2436526-.180904.4884826-.380785.7099031-.5930634l.7084486.2951812c.2051446.0817254.4041252.0282576.552824-.1430888.1203718-.1498761.1455128-.3624314.0319283-.5442359l-.4077268-.6610755c.166152-.2503707.3199066-.5210342.4614024-.8028484l.7748678.0283269c.197734.0135054.3931131-.0970317.4544764-.3046696.06822-.1941325 0-.3967146-.1578408-.5226964l-.6026211-.4796175c.0762539-.2965663.1304143-.6065688.1574253-.925298l.7263174-.23548c.210062-.0669733.3439393-.2284849.3439393-.4385469 0-.2156028-.1338773-.3715736-.3439393-.4397936l-.7263174-.2342749c-.027011-.3199204-.0811714-.621979-.1574253-.92525647l.6013744-.48522045c.1535468-.12160466.2273075-.31626353.1590875-.5091563-.0613633-.20885694-.2567424-.3181543-.4544764-.30584701l-.7748678.02150487c-.1414958-.28298466-.2952504-.54690237-.4614024-.81081315l.4077268-.65863764c.1056197-.16827819.0884435-.38200402-.0319283-.53188013-.1486988-.17693554-.3464327-.22482109-.54853-.14311645l-.7151667.28163412c-.2189964-.19871745-.4638264-.40419455-.707479-.58626909l.1555554-.74778069c.0454338-.22116423-.0343524-.41338519-.2093695-.50671839-.1941325-.1099761-.4066186-.08048569-.5564947.0614118l-.5731861.50239665c-.2829916-.11565533-.5739479-.21900336-.8692676-.3032775l-.1168396-.76563769c-.0239636-.2100752-.1707231-.3648245-.3752444-.4022945-.210062-.03625257-.3999005.05951882-.4839807.23090659l-.3715044.69921847c-.1561787-.01352625-.3100025-.01907388-.4638264-.01907388-.160542 0-.3088251.00554763-.4693671.01907388l-.365929-.6980009c-.0909023-.1738227-.2751377-.26837673-.4876515-.23090673-.2020903.03625257-.33654942.19100187-.37158746.40107707l-.11808631.76009005c-.29529888.08982178-.58626909.19316981-.87358936.30882514l-.56637795-.49563698c-.1566427-.14865716-.3648209-.17814757-.56569921-.06817147-.16827819.0933332-.24808514.28555416-.2026375.50793735l.15001464.74656173c-.23807724.18207454-.48846177.38755164-.70868408.58626909l-.70841396-.28163412c-.20209728-.08170464-.39986587-.03381909-.54852303.14311645-.12039263.14987611-.14311645.36360194-.03746903.53188013l.4132536.65863764c-.16611731.26391078-.31437276.52782849-.46141619.81081315l-.77361423-.02150487c-.20452826-.01230729-.39431339.09699007-.45572658.30462805-.06695875.19411173-.00554555.38998263.15786096.51037526l.60263218.48643941c-.0762886.30205851-.12918157.60411711-.15069336.92403751l-.73857896.2342749c-.2100752.06261-.32613707.2241908-.32613707.4397936 0 .2156027.11606187.3715736.32613707.4385469l.73857896.23548c.02151179.3187292.07440476.6287317.15069336.925298l-.60141461.4796175c-.16462408.1271592-.22603728.3285639-.15907853.521519.06141319.2088153.25119832.3193524.45694554.305847l.77239527-.0283269c.14704343.2818142.29529888.5524777.46141619.8028484l-.40892492.6623222c-.10564742.1793804-.09279991.3931131.03314035.5429892.14865716.1713464.34642575.2248142.55528269.1418421l.70043535-.2939345c.22144126.2122784.47182579.4121594.70990303.5930634l-.15001464.7545057c-.03746902.207638.03314036.4041946.20506848.5067669.19722838.109983.40662553.0693974.56204928-.0669733l.5675969-.5079442c.28732027.1199563.57707152.2300778.87358936.3131191l.11808631.7669031c.03503804.210062.16949716.3647863.37524436.4022553.2088569.0362916.3930923-.0594934.4839946-.2388737l.365929-.6979905c.1550013.012328.3088251.0202928.4693671.0202928zm0-1.2788643c-2.95553755 0-5.23810088-2.3502985-5.23810088-5.2947685 0-2.95000378 2.28256333-5.30710347 5.23810088-5.30710347 2.9555514 0 5.2504428 2.35709969 5.2504428 5.30710347 0 2.94447-2.2948914 5.2947685-5.2504428 5.2947685zm-1.2912894-6.3838429.9344679-.58761268-2.19695941-3.77326273-.98044188.52147053zm2.8944929 1.6249992h4.3821448v-1.1013539h-4.3808982zm-1.9550384 1.1438789-.9228116-.6017207-2.32964545 3.8092357.97002535.544236zm.3407535.205491c1.0428302 0 1.8852947-.8357464 1.8852947-1.879754 0-1.0428095-.8424645-1.88527389-1.8852947-1.88527389-1.0440215 0-1.87972627.84246439-1.87972627 1.88527389 0 1.0440076.83570477 1.879754 1.87972627 1.879754zm0-1.119292c-.4309977 0-.7648253-.3239236-.7648253-.760462s.3338276-.7715919.7648253-.7715919c.4365384 0 .7716126.3350535.7716126.7715919s-.3350742.760462-.7716126.760462z" fill="#fff"/></g></svg>