<svg fill="none" height="435" viewBox="0 0 454 435" width="454" xmlns="http://www.w3.org/2000/svg" xmlns:xlink="http://www.w3.org/1999/xlink"><filter id="a" color-interpolation-filters="sRGB" filterUnits="userSpaceOnUse" height="498" width="518" x="-32" y="-31.8395"><feFlood flood-opacity="0" result="BackgroundImageFix"/><feGaussianBlur in="BackgroundImageFix" stdDeviation="16"/><feComposite in2="SourceAlpha" operator="in" result="effect1_backgroundBlur_229_224"/><feBlend in="SourceGraphic" in2="effect1_backgroundBlur_229_224" mode="normal" result="shape"/></filter><filter id="b" color-interpolation-filters="sRGB" filterUnits="userSpaceOnUse" height="289" width="285" x="84" y="110"><feFlood flood-opacity="0" result="BackgroundImageFix"/><feColorMatrix in="SourceAlpha" result="hardAlpha" type="matrix" values="0 0 0 0 0 0 0 0 0 0 0 0 0 0 0 0 0 0 127 0"/><feOffset dy="11"/><feGaussianBlur stdDeviation="16"/><feComposite in2="hardAlpha" operator="out"/><feColorMatrix type="matrix" values="0 0 0 0 0.0941176 0 0 0 0 0.101961 0 0 0 0 0.105882 0 0 0 0.14 0"/><feBlend in2="BackgroundImageFix" mode="normal" result="effect1_dropShadow_229_224"/><feBlend in="SourceGraphic" in2="effect1_dropShadow_229_224" mode="normal" result="shape"/></filter><filter id="c" color-interpolation-filters="sRGB" filterUnits="userSpaceOnUse" height="107" width="103" x="175" y="177"><feFlood flood-opacity="0" result="BackgroundImageFix"/><feBlend in="SourceGraphic" in2="BackgroundImageFix" mode="normal" result="shape"/><feColorMatrix in="SourceAlpha" result="hardAlpha" type="matrix" values="0 0 0 0 0 0 0 0 0 0 0 0 0 0 0 0 0 0 127 0"/><feOffset dy="2"/><feGaussianBlur stdDeviation="2"/><feComposite in2="hardAlpha" k2="-1" k3="1" operator="arithmetic"/><feColorMatrix type="matrix" values="0 0 0 0 1 0 0 0 0 1 0 0 0 0 1 0 0 0 0.25 0"/><feBlend in2="shape" mode="normal" result="effect1_innerShadow_229_224"/><feColorMatrix in="SourceAlpha" result="hardAlpha" type="matrix" values="0 0 0 0 0 0 0 0 0 0 0 0 0 0 0 0 0 0 127 0"/><feOffset dy="-4"/><feGaussianBlur stdDeviation="1"/><feComposite in2="hardAlpha" k2="-1" k3="1" operator="arithmetic"/><feColorMatrix type="matrix" values="0 0 0 0 0 0 0 0 0 0 0 0 0 0 0 0 0 0 0.1 0"/><feBlend in2="effect1_innerShadow_229_224" mode="multiply" result="effect2_innerShadow_229_224"/></filter><filter id="d" color-interpolation-filters="sRGB" filterUnits="userSpaceOnUse" height="70.866" width="61.3652" x="195.812" y="198.039"><feFlood flood-opacity="0" result="BackgroundImageFix"/><feColorMatrix in="SourceAlpha" result="hardAlpha" type="matrix" values="0 0 0 0 0 0 0 0 0 0 0 0 0 0 0 0 0 0 127 0"/><feOffset dy="4"/><feGaussianBlur stdDeviation="2"/><feComposite in2="hardAlpha" operator="out"/><feColorMatrix type="matrix" values="0 0 0 0 0 0 0 0 0 0 0 0 0 0 0 0 0 0 0.15 0"/><feBlend in2="BackgroundImageFix" mode="normal" result="effect1_dropShadow_229_224"/><feBlend in="SourceGraphic" in2="effect1_dropShadow_229_224" mode="normal" result="shape"/></filter><linearGradient id="e"><stop offset="0" stop-color="#e5e5e5"/><stop offset=".505208" stop-color="#88a2ea" stop-opacity=".3"/><stop offset="1" stop-color="#88a2ea" stop-opacity=".3"/></linearGradient><linearGradient id="f" gradientUnits="userSpaceOnUse" x1="68.0101" x2="382.71" xlink:href="#e" y1="114.35" y2="320.089"/><linearGradient id="g" gradientUnits="userSpaceOnUse" x1="343.631" x2="107.079" xlink:href="#e" y1="140.47" y2="293.966"/><radialGradient id="h" cx="0" cy="0" gradientTransform="matrix(-93.91283981 -136.32266913 136.32266913 -93.91283981 278 301.388)" gradientUnits="userSpaceOnUse" r="1"><stop offset="0" stop-color="#1e2d86"/><stop offset="1" stop-color="#4b5cc5"/></radialGradient><clipPath id="i"><path d="m380 89h34v34h-34z"/></clipPath><g filter="url(#a)"><rect fill="#f6f7fb" fill-opacity=".9" height="434" rx="36.2264" width="454" y=".160522"/><rect height="432.868" rx="35.6604" stroke="#81899b" stroke-opacity=".2" stroke-width="1.13208" width="452.868" x=".566038" y=".72656"/></g><path d="m328.015 60.1973c86.721 56.6947 111.062 172.9567 54.367 259.6777s-172.956 111.062-259.677 54.367c-86.7214-56.695-111.0624-172.957-54.3675-259.678 56.6945-86.7206 172.9565-111.06155 259.6775-54.3667z" stroke="url(#f)" stroke-width=".783302"/><path d="m301.889 335.166c-65.14 42.269-152.213 23.728-194.482-41.413-42.2685-65.14-23.7275-152.213 41.413-194.4819 65.14-42.269 152.213-23.728 194.482 41.4129 42.269 65.14 23.728 152.213-41.413 194.482z" stroke="url(#g)" stroke-width=".783302"/><rect fill="#fff" height="250.453" rx="13.7864" width="355" x="51" y="106"/><rect height="249.152" rx="13.1361" stroke="#81899b" stroke-opacity=".2" stroke-width="1.3006" width="353.699" x="51.6503" y="106.65"/><g filter="url(#b)"><path d="m116 147c0-8.837 7.163-16 16-16h189c8.837 0 16 7.163 16 16v209h-221z" fill="#fff"/><path d="m132 131.566h189c8.524 0 15.434 6.91 15.434 15.434v208.434h-219.868v-208.434c0-8.524 6.91-15.434 15.434-15.434z" stroke="#81899b" stroke-opacity=".1" stroke-width="1.13208"/></g><g filter="url(#c)"><rect fill="url(#h)" height="103" rx="20" width="103" x="175" y="179"/></g><g filter="url(#d)"><path clip-rule="evenodd" d="m205.157 212.772 26.284-10.945c.403-.167.849-.126 1.171.04.325.167.325.329.325.339v7.974c-.001.047-.002.094-.002.142v13.19c-.04.692-.539 1.512-1.657 1.974l-.005.002-11.221 4.671v-.002l-8.04 3.349-5.546 2.309.011.025c-1.01.526-1.828 1.263-2.397 2.136-.389-.974-.587-1.991-.587-3.01v-20.129c0-.71.492-1.581 1.66-2.063zm31.461-10.566v4.254c1.179-.161 2.496.099 3.565.985l.002.002 6.809 5.669 1.411 1.175c3.003 2.5 4.773 5.976 4.773 9.683v20.134c0 2.476-1.666 4.526-3.932 5.464l-.003.001-26.28 10.943-.002.001c-1.455.604-3.031.469-4.266-.166-1.231-.633-2.323-1.896-2.323-3.612v-4.259c-1.18.162-2.498-.098-3.567-.985l-7.518-6.259c-.041-.034-.082-.069-.123-.105l-.579-.482c-3.002-2.5-4.773-5.976-4.773-9.683v-20.129c0-2.477 1.666-4.526 3.933-5.464l.002-.001 26.283-10.944c1.455-.604 3.031-.469 4.265.166 1.231.633 2.323 1.896 2.323 3.612zm9.893 20.893.013.031-24.807 10.327-.004.002c-1.168.482-1.66 1.354-1.66 2.063v21.217c0 .01 0 .172.326.339.322.166.767.207 1.171.04l26.283-10.945.005-.002c1.167-.482 1.659-1.353 1.659-2.063v-20.134c0-1.02-.198-2.038-.588-3.013-.568.874-1.387 1.612-2.398 2.138zm-9.893-12.77v12.932l7.921-3.299c.995-.414 1.44-1.092 1.55-1.653.105-.539-.049-1.198-.744-1.777l-7.512-6.254-.001-.001c-.209-.173-.569-.245-.927-.122-.165.057-.253.133-.284.17zm-28.268 32.668.001-.002-.791-.658c-.625-.562-.762-1.189-.661-1.706.109-.561.555-1.239 1.55-1.653l4.995-2.081 2.928-1.219v12.93l-.006.007c-.031.037-.118.113-.284.17-.357.123-.718.051-.927-.122l-.001-.001z" fill="#fff" fill-rule="evenodd"/></g><g fill="#4d5982" opacity=".2"><circle cx="66.1754" cy="121.174" r="3.03474"/><circle cx="76.5797" cy="121.174" r="3.03474"/><circle cx="86.9859" cy="121.174" r="3.03474"/></g><circle cx="396.944" cy="105.944" fill="#eb94c6" r="30.9436"/><g clip-path="url(#i)" fill="#f7f7f7"><path d="m397 89c-3.362 0-6.649.997-9.445 2.865-2.795 1.868-4.974 4.523-6.261 7.6294-1.287 3.1066-1.623 6.5246-.967 9.8226.656 3.297 2.275 6.326 4.652 8.704 2.378 2.377 5.407 3.996 8.704 4.652 3.298.656 6.716.32 9.823-.967 3.106-1.287 5.761-3.466 7.629-6.261 1.868-2.796 2.865-6.083 2.865-9.445-.013-4.505-1.809-8.8207-4.994-12.006-3.185-3.1852-7.501-4.9805-12.006-4.994zm0 29.75c-2.522 0-4.987-.748-7.084-2.149-2.096-1.401-3.73-3.392-4.695-5.722s-1.218-4.893-.726-7.366c.492-2.474 1.706-4.7455 3.489-6.5286 1.784-1.7831 4.055-2.9975 6.529-3.4894 2.473-.492 5.036-.2395 7.366.7255 2.33.9651 4.321 2.5993 5.722 4.696 1.401 2.0965 2.149 4.5615 2.149 7.0835-.01 3.378-1.357 6.616-3.746 9.004-2.388 2.389-5.626 3.736-9.004 3.746z"/><path d="m404.438 103.875h-5.313v-5.3125c0-.5636-.224-1.1041-.622-1.5026-.399-.3985-.939-.6224-1.503-.6224s-1.104.2239-1.503.6224c-.398.3985-.622.939-.622 1.5026v7.4375c0 .564.224 1.104.622 1.503.399.398.939.622 1.503.622h7.438c.563 0 1.104-.224 1.502-.622.399-.399.622-.939.622-1.503s-.223-1.104-.622-1.503c-.398-.398-.939-.622-1.502-.622z"/></g></svg>