<svg width="28" height="28" viewBox="0 0 28 28" fill="none" xmlns="http://www.w3.org/2000/svg">
<g filter="url(#filter0_i_561_2623)">
<path d="M22.2662 14.5788L13.6212 23.2237C11.4188 25.4378 8.45771 25.2299 6.56537 23.3142C4.6592 21.4218 4.45341 18.482 6.65795 16.2679L18.4899 4.44557C19.7848 3.15275 21.7083 2.92307 22.97 4.17721C24.2262 5.45268 23.9944 7.36237 22.7091 8.65729L11.1045 20.2682C10.5851 20.8047 9.95584 20.6479 9.59748 20.2917C9.24334 19.9258 9.09615 19.3157 9.61342 18.7771L17.7146 10.6973C18.121 10.2792 18.1423 9.67916 17.7476 9.28659C17.3551 8.90573 16.7529 8.92495 16.3465 9.33135L8.21983 17.4581C6.96546 18.7124 7.01866 20.6418 8.1303 21.7513C9.33991 22.9609 11.1671 22.9354 12.4311 21.6714L24.091 10.0115C26.3541 7.74838 26.273 4.76643 24.2848 2.77823C22.3435 0.839015 19.3126 0.708937 17.0494 2.96995L5.15256 14.8828C2.18843 17.8469 2.39843 22.106 5.08975 24.7994C7.78529 27.4811 12.0444 27.6932 15.0085 24.7387L23.7162 16.031C24.1088 15.6447 24.1046 14.9245 23.7003 14.5553C23.314 14.1414 22.6726 14.1862 22.2662 14.5788Z" fill="white"/>
</g>
<defs>
<filter id="filter0_i_561_2623" x="0" y="-1" width="28" height="29" filterUnits="userSpaceOnUse" color-interpolation-filters="sRGB">
<feFlood flood-opacity="0" result="BackgroundImageFix"/>
<feBlend mode="normal" in="SourceGraphic" in2="BackgroundImageFix" result="shape"/>
<feColorMatrix in="SourceAlpha" type="matrix" values="0 0 0 0 0 0 0 0 0 0 0 0 0 0 0 0 0 0 127 0" result="hardAlpha"/>
<feOffset dy="-1"/>
<feGaussianBlur stdDeviation="0.5"/>
<feComposite in2="hardAlpha" operator="arithmetic" k2="-1" k3="1"/>
<feColorMatrix type="matrix" values="0 0 0 0 0 0 0 0 0 0 0 0 0 0 0 0 0 0 0.25 0"/>
<feBlend mode="normal" in2="shape" result="effect1_innerShadow_561_2623"/>
</filter>
</defs>
</svg>
