<svg width="28" height="28" viewBox="0 0 28 28" fill="none" xmlns="http://www.w3.org/2000/svg">
<g filter="url(#filter0_i_659_2404)">
<path d="M1 7.50039C1 11.5595 5.93359 15.7145 14.1224 15.7145C18.0454 15.7145 21.5326 14.7346 23.9814 12.9473C23.2541 12.632 22.6365 12.0911 22.2372 11.399C20.4562 13.113 17.6078 14.0334 14.1224 14.0334C7.03679 14.0334 4.38437 10.304 4.38437 8.08726C4.38437 7.55663 4.46429 7.08249 4.63585 6.67234C3.47945 6.03437 2.71914 4.79476 2.69359 3.46984C1.57727 4.50953 1 5.875 1 7.50039ZM20.6994 18.299C20.6994 13.2065 15.7401 5.55554 10.2034 3.04398C10.2151 3.15789 10.2173 3.26008 10.2173 3.36648C10.2173 4.03632 10.0448 4.68062 9.7232 5.24078C14.0277 6.5732 18.0916 12.3051 18.0916 17.1198C18.0916 19.8873 16.4882 21.7963 14.3544 21.8048C14.4449 22.1615 14.4981 22.5299 14.4981 22.8887C14.4981 23.7247 14.2276 24.5256 13.7261 25.1753C13.8337 25.187 13.9701 25.187 14.1011 25.187C17.9312 25.187 20.6994 22.2995 20.6994 18.299ZM21.5029 2.23562C14.8075 2.23562 7.51984 12.1403 7.51984 18.299C7.51984 19.0307 7.6157 19.7699 7.82875 20.4974C8.40999 19.6722 9.52515 19.1493 10.4345 19.1301C10.2332 18.5219 10.1181 17.8368 10.1181 17.1198C10.1181 11.8152 15.2971 4.93726 20.4037 4.93726C21.7865 4.93726 22.855 5.43906 23.4142 6.35429C24.0287 5.94437 24.738 5.73461 25.4823 5.73461C26.0404 5.73461 26.5888 5.86562 27.0862 6.08921C26.5185 3.69695 24.4309 2.23562 21.5029 2.23562Z" fill="white"/>
<path d="M6.46023 5.73507C7.76382 5.73507 8.82882 4.67968 8.82882 3.36648C8.82882 2.06289 7.76804 1 6.46023 1C5.14492 1 4.08203 2.06289 4.08203 3.36648C4.08203 4.67968 5.14703 5.73507 6.46023 5.73507ZM25.4839 11.8715C26.7971 11.8715 27.8525 10.8065 27.8525 9.50288C27.8525 8.18968 26.7971 7.12468 25.4839 7.12468C24.1803 7.12468 23.1153 8.18968 23.1153 9.50288C23.1153 10.8065 24.1803 11.8715 25.4839 11.8715ZM10.739 25.2573C12.0542 25.2573 13.1075 24.204 13.1075 22.8887C13.1075 21.5755 12.0446 20.5223 10.739 20.5223C9.42577 20.5223 8.37038 21.5755 8.37038 22.8887C8.37038 24.204 9.42577 25.2573 10.739 25.2573Z" fill="white"/>
</g>
<defs>
<filter id="filter0_i_659_2404" x="0" y="-1" width="28" height="29" filterUnits="userSpaceOnUse" color-interpolation-filters="sRGB">
<feFlood flood-opacity="0" result="BackgroundImageFix"/>
<feBlend mode="normal" in="SourceGraphic" in2="BackgroundImageFix" result="shape"/>
<feColorMatrix in="SourceAlpha" type="matrix" values="0 0 0 0 0 0 0 0 0 0 0 0 0 0 0 0 0 0 127 0" result="hardAlpha"/>
<feOffset dy="-1"/>
<feGaussianBlur stdDeviation="0.5"/>
<feComposite in2="hardAlpha" operator="arithmetic" k2="-1" k3="1"/>
<feColorMatrix type="matrix" values="0 0 0 0 0 0 0 0 0 0 0 0 0 0 0 0 0 0 0.25 0"/>
<feBlend mode="normal" in2="shape" result="effect1_innerShadow_659_2404"/>
</filter>
</defs>
</svg>
