<svg width="28" height="28" viewBox="0 0 28 28" fill="none" xmlns="http://www.w3.org/2000/svg">
<g filter="url(#filter0_i_658_2358)">
<path d="M9.15647 9.49928C11.2072 9.49928 12.9109 7.79561 12.9109 5.75655C12.9109 3.70578 11.2051 2 9.15647 2C7.1078 2 5.40414 3.70578 5.40414 5.75655C5.40414 7.786 7.0982 9.49928 9.15647 9.49928ZM17.9551 9.49928C20.0059 9.49928 21.715 7.79772 21.715 5.75655C21.715 3.70578 20.0038 2 17.9551 2C15.9065 2 14.2007 3.70578 14.2007 5.75655C14.2007 7.79561 15.9022 9.49928 17.9551 9.49928ZM4.75445 17.3916C6.81483 17.3916 8.5185 15.6879 8.5185 13.6393C8.5185 11.5906 6.81483 9.88695 4.75445 9.88695C2.70367 9.88695 1 11.5906 1 13.6393C1 15.6804 2.69406 17.3916 4.75445 17.3916ZM22.3551 17.3916C24.4079 17.3916 26.1095 15.6879 26.1095 13.6393C26.1095 11.5906 24.4079 9.88695 22.3551 9.88695C20.3043 9.88695 18.591 11.5906 18.591 13.6393C18.591 15.6879 20.3043 17.3916 22.3551 17.3916ZM9.15647 25.2765C11.2051 25.2765 12.9109 23.5728 12.9109 21.5199C12.9109 19.4712 11.2072 17.7697 9.15647 17.7697C7.1057 17.7697 5.40414 19.4691 5.40414 21.5199C5.40414 23.5611 7.0982 25.2765 9.15647 25.2765ZM17.9551 25.2765C20.0038 25.2765 21.715 23.5728 21.715 21.5199C21.715 19.4691 20.0059 17.7697 17.9551 17.7697C15.9022 17.7697 14.2007 19.4712 14.2007 21.5199C14.2007 23.5728 15.9065 25.2765 17.9551 25.2765Z" fill="white"/>
</g>
<defs>
<filter id="filter0_i_658_2358" x="0" y="-1" width="28" height="29" filterUnits="userSpaceOnUse" color-interpolation-filters="sRGB">
<feFlood flood-opacity="0" result="BackgroundImageFix"/>
<feBlend mode="normal" in="SourceGraphic" in2="BackgroundImageFix" result="shape"/>
<feColorMatrix in="SourceAlpha" type="matrix" values="0 0 0 0 0 0 0 0 0 0 0 0 0 0 0 0 0 0 127 0" result="hardAlpha"/>
<feOffset dy="-1"/>
<feGaussianBlur stdDeviation="0.5"/>
<feComposite in2="hardAlpha" operator="arithmetic" k2="-1" k3="1"/>
<feColorMatrix type="matrix" values="0 0 0 0 0 0 0 0 0 0 0 0 0 0 0 0 0 0 0.25 0"/>
<feBlend mode="normal" in2="shape" result="effect1_innerShadow_658_2358"/>
</filter>
</defs>
</svg>
