<svg width="28" height="28" viewBox="0 0 28 28" fill="none" xmlns="http://www.w3.org/2000/svg">
<g filter="url(#filter0_i_451_2881)">
<path d="M12.105 25.7385C13.4784 25.7385 14.8413 25.4837 16.1264 25.0285C16.2937 24.972 16.4473 24.9102 16.608 24.8356C16.0917 24.3287 15.702 23.7449 15.4706 23.1559C15.3427 23.106 15.2295 22.9145 15.1045 22.6851C13.3144 19.69 12.4619 16.4045 12.4619 13.2503C12.4619 9.88578 13.3723 6.6514 15.098 3.87546C18.6082 4.96202 21.3342 7.91375 22.1224 11.5388C22.7313 11.5442 23.2615 11.6584 24.0778 11.9518C23.2509 6.09899 18.1444 1.52844 12.0954 1.52844C5.46351 1.52844 0 7.00157 0 13.6335C0 20.2557 5.47312 25.6904 12.105 25.7385ZM12.105 23.8621C6.51023 23.8621 1.87639 19.2282 1.87639 13.6335C1.87639 8.03867 6.50062 3.40484 12.0954 3.40484C12.5559 3.40484 13.0219 3.43788 13.4782 3.49976C11.7717 6.45781 10.8689 9.81031 10.8689 13.2503C10.8689 16.9939 11.857 20.7317 13.6758 23.7287C13.1871 23.8194 12.6415 23.8621 12.105 23.8621ZM2.04492 8.60141C4.90781 11.7362 9.0007 13.5512 13.3387 13.5416C16.7805 13.532 20.0763 12.3615 22.7215 10.2186L21.9787 8.73946C19.5719 10.8099 16.5464 11.941 13.3387 11.9506C9.19124 11.9603 5.35148 10.1239 2.78132 6.96267L2.04492 8.60141ZM6.60023 23.3225L8.49233 23.7451C7.64483 21.7888 7.20514 19.7017 7.17632 17.5602C6.90725 11.795 9.42022 6.32469 13.8968 2.72633L12.2271 2.05813C7.79202 5.95555 5.32804 11.6375 5.58749 17.5794C5.60671 19.5303 5.94749 21.4536 6.60023 23.3225ZM12.9834 18.384C8.69835 18.2575 4.4782 16.5882 1.16882 13.4839L0.767807 15.2612C4.31109 18.3057 8.7471 19.9025 13.2171 19.9888L12.9834 18.384ZM16.6333 12.3174C16.1339 10.9646 15.8463 9.50211 15.8367 8.00235C15.8175 6.37227 16.1051 4.74547 16.7016 3.23282L15.1798 2.79969C14.5418 4.45508 14.2287 6.20422 14.2479 8.01196C14.2575 9.665 14.5589 11.2712 15.1148 12.789L16.6333 12.3174ZM7.07483 13.4073C8.13327 13.4073 8.99788 12.5352 8.99788 11.4746C8.99788 10.4162 8.13327 9.55157 7.07483 9.55157C6.00468 9.55157 5.14007 10.4162 5.14007 11.4746C5.14007 12.5352 6.00468 13.4073 7.07483 13.4073ZM15.8735 13.9496C16.8874 13.9496 17.7192 13.122 17.7192 12.0943C17.7192 11.0783 16.8874 10.2369 15.8735 10.2369C14.8341 10.2369 14.0065 11.0783 14.0065 12.0943C14.0065 13.122 14.8341 13.9496 15.8735 13.9496ZM12.4247 20.9851C13.4662 20.9851 14.3023 20.1395 14.3023 19.0862C14.3023 18.0446 13.4662 17.2086 12.4247 17.2086C11.3714 17.2086 10.5258 18.0446 10.5258 19.0862C10.5258 20.1395 11.3714 20.9851 12.4247 20.9851Z" fill="white"/>
<path d="M16.125 20.7613C16.125 23.1765 17.5505 24.1283 21.0973 26.1294C21.4798 26.3415 21.9476 26.3031 22.2586 26.1294C25.8012 24.1177 27.2212 23.1765 27.2212 20.7613V16.1792C27.2212 15.3704 26.9433 14.8677 26.1321 14.5238C25.4168 14.2264 23.092 13.4464 22.5068 13.231C21.9705 13.0234 21.4237 13.0288 20.9376 13.1926C20.2542 13.4293 17.9412 14.2264 17.2237 14.5238C16.4126 14.8656 16.125 15.3704 16.125 16.1792V20.7613ZM17.9215 20.5323V16.6794C17.9215 16.3384 18.0206 16.1731 18.3469 16.0527C19.181 15.7459 20.4759 15.2602 21.2119 15.0031C21.3958 14.9403 21.5278 14.9106 21.6769 14.9106V24.2764C21.5681 24.2764 21.4573 24.2434 21.3464 24.1869C18.6839 22.5845 17.9215 22.1839 17.9215 20.5323Z" fill="white"/>
</g>
<defs>
<filter id="filter0_i_451_2881" x="0" y="-1" width="28" height="29" filterUnits="userSpaceOnUse" color-interpolation-filters="sRGB">
<feFlood flood-opacity="0" result="BackgroundImageFix"/>
<feBlend mode="normal" in="SourceGraphic" in2="BackgroundImageFix" result="shape"/>
<feColorMatrix in="SourceAlpha" type="matrix" values="0 0 0 0 0 0 0 0 0 0 0 0 0 0 0 0 0 0 127 0" result="hardAlpha"/>
<feOffset dy="-1"/>
<feGaussianBlur stdDeviation="0.5"/>
<feComposite in2="hardAlpha" operator="arithmetic" k2="-1" k3="1"/>
<feColorMatrix type="matrix" values="0 0 0 0 0 0 0 0 0 0 0 0 0 0 0 0 0 0 0.25 0"/>
<feBlend mode="normal" in2="shape" result="effect1_innerShadow_451_2881"/>
</filter>
</defs>
</svg>
