<svg width="64" height="64" viewBox="0 0 64 64" fill="none" xmlns="http://www.w3.org/2000/svg">
<g clip-path="url(#clip0_441_671)">
<path fill-rule="evenodd" clip-rule="evenodd" d="M55.5172 8.84847L55.5179 8.84778L55.3356 8.66548L55.1533 8.48318L55.1526 8.48387C42.3124 -4.16129 21.6897 -4.16129 8.84955 8.48387L8.84886 8.48318L8.66655 8.66548L8.48425 8.84778L8.48495 8.84847C-4.22046 21.7498 -4.15993 42.508 8.66655 55.3345C21.5539 68.2218 42.4483 68.2218 55.3356 55.3345C68.1621 42.508 68.2226 21.7498 55.5172 8.84847ZM54.4234 9.2131C48.2047 3.09187 40.1029 0.0312505 32.0011 0.0312505C23.8993 0.0312505 15.7975 3.09187 9.57878 9.2131L14.3188 13.9531C24.1382 4.32813 39.864 4.32813 49.6834 13.9531L54.4234 9.2131ZM9.21418 9.5777C3.09294 15.7964 0.0323285 23.8982 0.0323285 32C0.0323285 40.1018 3.09294 48.2036 9.21418 54.4223L13.9542 49.6823C4.32921 39.8629 4.32921 24.1371 13.9542 14.3177L9.21418 9.5777ZM54.788 9.5777L50.048 14.3177C59.6729 24.1371 59.6729 39.8629 50.048 49.6823L54.788 54.4223C60.9092 48.2036 63.9698 40.1018 63.9698 32C63.9698 23.8982 60.9092 15.7964 54.788 9.5777ZM54.4234 54.7869L49.6834 50.0469C39.864 59.6719 24.1382 59.6719 14.3188 50.0469L9.57878 54.7869C15.7975 60.9081 23.8993 63.9687 32.0011 63.9687C40.1029 63.9687 48.2047 60.9081 54.4234 54.7869ZM14.3188 49.3177C4.89517 39.6997 4.89517 24.3003 14.3188 14.6823L19.059 19.4225C12.2526 26.4222 12.2526 37.5778 19.059 44.5775L14.3188 49.3177ZM14.6834 14.3177L19.4236 19.0579C26.4233 12.2515 37.5789 12.2515 44.5786 19.0579L49.3187 14.3177C39.7008 4.89409 24.3014 4.89409 14.6834 14.3177ZM19.4236 44.2129C12.8186 37.4146 12.8186 26.5854 19.4236 19.7871L25.9879 26.3515C23.0055 29.5228 23.0055 34.4772 25.9879 37.6485L19.4236 44.2129ZM19.7882 19.4225L26.3525 25.9869C29.5239 23.0044 34.4782 23.0044 37.6496 25.9869L44.2139 19.4225C37.4157 12.8175 26.5865 12.8175 19.7882 19.4225ZM26.3527 37.2837C23.5714 34.314 23.5714 29.686 26.3527 26.7163L31.6365 32L26.3527 37.2837ZM26.7173 26.3517L32.0011 31.6354L37.2848 26.3517C34.3151 23.5703 29.6871 23.5703 26.7173 26.3517ZM26.7173 37.6483L32.0011 32.3646L37.2848 37.6483C34.3151 40.4297 29.6871 40.4297 26.7173 37.6483ZM32.3657 32L37.6494 37.2837C40.4308 34.314 40.4308 29.686 37.6494 26.7163L32.3657 32ZM26.3525 38.0131C29.5239 40.9956 34.4782 40.9956 37.6496 38.0131L44.2139 44.5775C37.4157 51.1825 26.5865 51.1825 19.7882 44.5775L26.3525 38.0131ZM38.0142 37.6485L44.5785 44.2129C51.1836 37.4146 51.1836 26.5854 44.5785 19.7871L38.0142 26.3515C40.9967 29.5228 40.9967 34.4772 38.0142 37.6485ZM19.4236 44.9421C26.4233 51.7485 37.5789 51.7485 44.5786 44.9421L49.3187 49.6823C39.7008 59.1059 24.3014 59.1059 14.6834 49.6823L19.4236 44.9421ZM44.9432 44.5775L49.6833 49.3177C59.107 39.6997 59.107 24.3003 49.6833 14.6823L44.9432 19.4225C51.7496 26.4222 51.7495 37.5778 44.9432 44.5775Z" fill="#DCDFEA"/>
</g>
<rect x="-0.679245" y="0.679245" width="62.6415" height="62.6415" rx="31.3208" transform="matrix(-1 0 0 1 62.6415 0)" stroke="#DCDFEA" stroke-width="1.35849"/>
<defs>
<clipPath id="clip0_441_671">
<rect width="64" height="64" rx="32" transform="matrix(-1 0 0 1 64 0)" fill="white"/>
</clipPath>
</defs>
</svg>
