<svg width="28" height="28" viewBox="0 0 28 28" fill="none" xmlns="http://www.w3.org/2000/svg">
<g filter="url(#filter0_i_560_5534)">
<path d="M13.7336 25.8078C13.9401 25.8078 14.2457 25.7269 14.5429 25.5746C21.2573 22.1162 23.4672 20.3005 23.4672 16.0955V7.37563C23.4672 6.01251 22.9431 5.52243 21.7942 5.04056C20.5075 4.51181 16.1964 2.97923 14.9404 2.55477C14.5565 2.43243 14.125 2.35907 13.7336 2.35907C13.3443 2.35907 12.9128 2.44204 12.5364 2.55477C11.2708 2.96001 6.96179 4.52142 5.67507 5.04056C4.53578 5.51071 4 6.01251 4 7.37563V16.0955C4 20.3005 6.31023 21.9486 12.9243 25.5746C13.2311 25.7366 13.5292 25.8078 13.7336 25.8078Z" fill="white"/>
<path d="M14.8015 8.53862C14.8015 7.96698 15.3698 7.78089 15.7966 8.07034L18.7479 10.0745C19.1471 10.3438 19.1609 10.8631 18.7831 11.1111L15.8063 13.127C15.3699 13.4164 14.8015 13.2207 14.8015 12.6373V11.4507H9.02062C8.54906 11.4507 8.15625 11.0633 8.15625 10.5917C8.15625 10.1202 8.54906 9.72527 9.02062 9.72527H14.8015V8.53862ZM8.43937 17.2848C8.05945 17.0293 8.06578 16.5099 8.46281 16.2385L11.4258 14.2344C11.8451 13.9566 12.4188 14.1427 12.4188 14.7048V15.8989H18.1996C18.6733 15.8989 19.0565 16.2959 19.0565 16.7696C19.0565 17.2391 18.6733 17.6244 18.1996 17.6244H12.4188V18.8131C12.4188 19.3848 11.8451 19.5784 11.4162 19.3006L8.43937 17.2848Z" fill="#735DC5"/>
</g>
<defs>
<filter id="filter0_i_560_5534" x="0" y="-1" width="28" height="29" filterUnits="userSpaceOnUse" color-interpolation-filters="sRGB">
<feFlood flood-opacity="0" result="BackgroundImageFix"/>
<feBlend mode="normal" in="SourceGraphic" in2="BackgroundImageFix" result="shape"/>
<feColorMatrix in="SourceAlpha" type="matrix" values="0 0 0 0 0 0 0 0 0 0 0 0 0 0 0 0 0 0 127 0" result="hardAlpha"/>
<feOffset dy="-1"/>
<feGaussianBlur stdDeviation="0.5"/>
<feComposite in2="hardAlpha" operator="arithmetic" k2="-1" k3="1"/>
<feColorMatrix type="matrix" values="0 0 0 0 0 0 0 0 0 0 0 0 0 0 0 0 0 0 0.25 0"/>
<feBlend mode="normal" in2="shape" result="effect1_innerShadow_560_5534"/>
</filter>
</defs>
</svg>
