<svg width="43" height="28" viewBox="0 0 43 28" fill="none" xmlns="http://www.w3.org/2000/svg">
<g filter="url(#filter0_i_559_5523)">
<path d="M21.9072 11.9656L23.1714 14.1495L23.5794 13.4346C24.088 13.635 24.8507 13.9027 25.6998 14.3806C28.4387 15.9739 29.5921 18.5775 32.4648 20.2451C33.3634 20.7764 34.3091 21.1503 35.0385 21.2302C35.9202 21.3164 36.6817 21.0418 37.2091 20.1277L41.9191 11.9745C42.3393 11.235 42.0243 10.5268 41.3254 10.1161C40.795 9.81473 39.7262 9.5452 38.5262 8.85356C35.7777 7.26989 34.634 4.65661 31.7591 2.98903C30.8626 2.46731 29.9073 2.09559 29.1855 2.01356C28.3059 1.93153 27.5465 2.21161 27.017 3.12989L21.9072 11.9656ZM20.1993 19.2956L18.9276 17.1021L14.5661 24.6638C14.263 25.1848 14.4566 25.8622 14.968 26.1694C15.5008 26.4767 16.161 26.296 16.4565 25.7611L20.1993 19.2956Z" fill="white"/>
<path d="M27.5442 24.6638L15.0933 3.12989C14.5638 2.21161 13.8044 1.93153 12.9248 2.01356C12.1933 2.09559 11.2476 2.46731 10.3512 2.98903C7.47631 4.65661 6.32295 7.26989 3.57443 8.85356C2.37443 9.5452 1.31529 9.81473 0.784898 10.1161C0.0763859 10.5268 -0.229003 11.235 0.191229 11.9745L4.89162 20.1277C5.41896 21.0418 6.19006 21.3164 7.06216 21.2302C7.79154 21.1503 8.74685 20.7764 9.63372 20.2451C12.5182 18.5775 13.6619 15.9739 16.4104 14.3806C17.25 13.9027 18.0223 13.635 18.5308 13.4346L25.6441 25.7611C25.9493 26.296 26.6074 26.4767 27.1422 26.1694C27.6537 25.8622 27.8376 25.1848 27.5442 24.6638Z" fill="white"/>
</g>
<defs>
<filter id="filter0_i_559_5523" x="0" y="-1" width="42.1094" height="29" filterUnits="userSpaceOnUse" color-interpolation-filters="sRGB">
<feFlood flood-opacity="0" result="BackgroundImageFix"/>
<feBlend mode="normal" in="SourceGraphic" in2="BackgroundImageFix" result="shape"/>
<feColorMatrix in="SourceAlpha" type="matrix" values="0 0 0 0 0 0 0 0 0 0 0 0 0 0 0 0 0 0 127 0" result="hardAlpha"/>
<feOffset dy="-1"/>
<feGaussianBlur stdDeviation="0.5"/>
<feComposite in2="hardAlpha" operator="arithmetic" k2="-1" k3="1"/>
<feColorMatrix type="matrix" values="0 0 0 0 0 0 0 0 0 0 0 0 0 0 0 0 0 0 0.25 0"/>
<feBlend mode="normal" in2="shape" result="effect1_innerShadow_559_5523"/>
</filter>
</defs>
</svg>
