<svg width="32" height="32" viewBox="0 0 32 32" fill="none" xmlns="http://www.w3.org/2000/svg">
<g filter="url(#filter0_i_561_2618)">
<path d="M30.5644 8.55353L19.1107 3.3141C17.888 2.76238 16.8816 2.49824 15.892 2.51957C14.9121 2.49824 13.9057 2.76238 12.6734 3.3141L1.22929 8.55353C0.420232 8.92083 0 9.58173 0 10.2722C0 10.9605 0.420232 11.6182 1.22929 11.9887L5.78743 14.0505L13.3805 10.5047C13.3228 10.429 13.3036 10.3479 13.3036 10.2722C13.3036 9.43273 14.6027 8.82163 15.9305 8.82163C17.2657 8.82163 18.5477 9.42843 18.5477 10.2722C18.5477 11.133 17.2699 11.7558 15.9305 11.7558C15.5184 11.7558 15.1064 11.693 14.7434 11.5866L7.59562 14.9114L12.6734 17.2378C13.9057 17.8033 14.9121 18.0462 15.892 18.0323C16.8816 18.0462 17.888 17.7991 19.1107 17.2378L30.5644 11.9887C31.3734 11.6119 31.7937 10.9605 31.7937 10.2722C31.7937 9.58173 31.3734 8.92083 30.5644 8.55353ZM7.55719 16.7702V23.6569C9.58711 24.8796 12.4713 25.6167 15.892 25.6167C22.785 25.6167 27.4765 22.6392 27.4765 19.0066V15.2812L19.8208 18.7826C18.4076 19.4344 17.1169 19.7592 15.892 19.7475C14.6768 19.7592 13.3786 19.4344 11.9611 18.7826L7.55719 16.7702ZM4.31719 15.2833V19.0066C4.31719 20.0241 4.86094 21.2391 5.83969 22.2792V15.9881L4.31719 15.2833ZM5.83969 26.1942L7.55719 26.1963V23.6569C6.87844 23.2526 6.29743 22.7888 5.83969 22.2792V26.1942ZM4.81478 26.4408V29.4827C4.81478 30.4781 5.46306 31.1264 6.45844 31.1264H6.92672C7.92211 31.1264 8.57039 30.4781 8.57039 29.4827V26.4408C8.57039 25.4433 7.92211 24.7971 6.92672 24.7971H6.45844C5.46306 24.7971 4.81478 25.4433 4.81478 26.4408Z" fill="white"/>
</g>
<defs>
<filter id="filter0_i_561_2618" x="0" y="-1" width="31.793" height="32.1264" filterUnits="userSpaceOnUse" color-interpolation-filters="sRGB">
<feFlood flood-opacity="0" result="BackgroundImageFix"/>
<feBlend mode="normal" in="SourceGraphic" in2="BackgroundImageFix" result="shape"/>
<feColorMatrix in="SourceAlpha" type="matrix" values="0 0 0 0 0 0 0 0 0 0 0 0 0 0 0 0 0 0 127 0" result="hardAlpha"/>
<feOffset dy="-1"/>
<feGaussianBlur stdDeviation="0.5"/>
<feComposite in2="hardAlpha" operator="arithmetic" k2="-1" k3="1"/>
<feColorMatrix type="matrix" values="0 0 0 0 0 0 0 0 0 0 0 0 0 0 0 0 0 0 0.25 0"/>
<feBlend mode="normal" in2="shape" result="effect1_innerShadow_561_2618"/>
</filter>
</defs>
</svg>
