<svg width="28" height="28" viewBox="0 0 28 28" fill="none" xmlns="http://www.w3.org/2000/svg">
<g filter="url(#filter0_i_658_2380)">
<path d="M9.76571 24.2699C8.82868 24.2699 8.29688 23.7658 8.29688 22.8726V4.75866C8.29688 3.86545 8.82868 3.36131 9.76571 3.36131H11.2973C11.487 3.36131 11.5828 3.45717 11.5828 3.63506V3.93834C11.5828 4.45162 11.9236 4.79451 12.4273 4.79451H15.4845C15.9977 4.79451 16.3289 4.45162 16.3289 3.93834V3.63506C16.3289 3.45717 16.4248 3.36131 16.6123 3.36131H18.1482C19.0735 3.36131 19.6053 3.86967 19.6053 4.76076V22.8705C19.6053 23.7615 19.0735 24.2699 18.1482 24.2699H9.76571Z" fill="#4374CC"/>
<path d="M9.37101 26.6312H18.5798C20.5701 26.6312 21.9002 25.3365 21.9002 23.3987V4.23249C21.9002 2.29258 20.5701 1 18.5798 1H9.37101C7.35117 1 6 2.29258 6 4.23038V23.4008C6 25.3365 7.35117 26.6312 9.37101 26.6312ZM9.76475 24.2699C8.82772 24.2699 8.29592 23.7658 8.29592 22.8726V4.75866C8.29592 3.86545 8.82772 3.36131 9.76475 3.36131H11.2964C11.486 3.36131 11.5819 3.45717 11.5819 3.63506V3.93834C11.5819 4.45162 11.9226 4.79451 12.4263 4.79451H15.4835C15.9968 4.79451 16.3279 4.45162 16.3279 3.93834V3.63506C16.3279 3.45717 16.4238 3.36131 16.6113 3.36131H18.1472C19.0725 3.36131 19.6043 3.86967 19.6043 4.76076V22.8705C19.6043 23.7615 19.0725 24.2699 18.1472 24.2699H9.76475ZM11.4304 23.3575H16.489C16.8307 23.3575 17.0723 23.1201 17.0723 22.7645C17.0723 22.4069 16.8307 22.1769 16.489 22.1769H11.4304C11.0887 22.1769 10.8354 22.4069 10.8354 22.7645C10.8354 23.1201 11.0887 23.3575 11.4304 23.3575Z" fill="white"/>
</g>
<defs>
<filter id="filter0_i_658_2380" x="0" y="-1" width="28" height="29" filterUnits="userSpaceOnUse" color-interpolation-filters="sRGB">
<feFlood flood-opacity="0" result="BackgroundImageFix"/>
<feBlend mode="normal" in="SourceGraphic" in2="BackgroundImageFix" result="shape"/>
<feColorMatrix in="SourceAlpha" type="matrix" values="0 0 0 0 0 0 0 0 0 0 0 0 0 0 0 0 0 0 127 0" result="hardAlpha"/>
<feOffset dy="-1"/>
<feGaussianBlur stdDeviation="0.5"/>
<feComposite in2="hardAlpha" operator="arithmetic" k2="-1" k3="1"/>
<feColorMatrix type="matrix" values="0 0 0 0 0 0 0 0 0 0 0 0 0 0 0 0 0 0 0.25 0"/>
<feBlend mode="normal" in2="shape" result="effect1_innerShadow_658_2380"/>
</filter>
</defs>
</svg>
