<svg width="36" height="28" viewBox="0 0 36 28" fill="none" xmlns="http://www.w3.org/2000/svg">
<g filter="url(#filter0_i_447_1376)">
<path d="M18.6937 24.6384C19.5141 24.6384 20.2828 24.2454 21.8222 24.2454C23.3817 24.2454 23.8247 24.6384 24.9858 24.6384C26.7138 24.6384 27.6637 23.913 27.6637 22.6648C27.6637 20.6149 25.5225 19.1161 21.9581 19.1161C20.1731 19.1161 19.3997 19.3329 18.3773 19.5663L17.0716 16.6392C15.7873 13.8187 13.623 12.1132 10.804 12.1132H9.40218C8.89664 12.1132 8.56664 11.8802 8.56664 11.3991C8.56664 10.6113 9.5857 10.4208 10.6985 10.4208C14.2123 10.4208 16.9038 12.3012 18.5287 16.155L19.3289 18.0445C20.114 17.8847 20.9695 17.8048 21.8388 17.8048C22.5323 17.8048 23.182 17.8516 23.8584 17.9686C24.5859 17.4834 25.4072 16.9727 26.4874 16.4824C27.8231 17.373 29.3126 18.0443 31.1264 18.0443C34.192 18.0443 35.6726 17.2547 35.6726 14.1602C35.6726 10.4477 33.0302 7.51969 29.2748 7.58414L26.2502 3.42797C24.54 1.08352 22.3704 0 20.2549 0C18.5334 0 15.8301 0.975938 15.8301 2.35453C15.8301 3.27305 17.7497 4.59609 19.2251 5.52375L25.9055 9.69726C25.3802 10.1864 24.9347 10.4644 24.2981 10.4644C23.3557 10.4644 22.3474 9.85453 20.978 9.07641C17.3095 6.89766 14.6175 4.96172 10.7557 4.96172C6.87234 4.96172 3.81047 7.15782 2.22 11.6501C0.953437 11.6332 0 12.4514 0 13.6542C0 15.003 1.07602 15.8564 2.56523 15.848C4.30359 18.4263 7.01578 19.4168 10.4503 19.4168C10.6366 19.4168 10.8251 19.4051 11.0135 19.403L15.8018 23.3953C16.9854 24.4458 17.7736 24.6384 18.6937 24.6384ZM9.95531 25.5811C12.1727 25.5811 13.5619 25.1665 14.6974 24.3973L11.0899 21.378C10.9259 21.3898 10.7287 21.4111 10.4911 21.4111C9.91781 21.4111 8.98313 21.2332 7.96664 21.2332C6.66258 21.2332 5.85398 21.93 5.85398 22.9762C5.85398 24.5402 7.46039 25.5811 9.95531 25.5811ZM30.6185 13.6589C30.0532 13.6589 29.5955 13.1798 29.5955 12.622C29.5955 12.0525 30.0628 11.5521 30.6323 11.5521C31.2094 11.5521 31.6671 12.0077 31.6671 12.573C31.6671 13.1468 31.1976 13.6589 30.6185 13.6589Z" fill="white"/>
</g>
<defs>
<filter id="filter0_i_447_1376" x="0" y="-1" width="35.6719" height="29" filterUnits="userSpaceOnUse" color-interpolation-filters="sRGB">
<feFlood flood-opacity="0" result="BackgroundImageFix"/>
<feBlend mode="normal" in="SourceGraphic" in2="BackgroundImageFix" result="shape"/>
<feColorMatrix in="SourceAlpha" type="matrix" values="0 0 0 0 0 0 0 0 0 0 0 0 0 0 0 0 0 0 127 0" result="hardAlpha"/>
<feOffset dy="-1"/>
<feGaussianBlur stdDeviation="0.5"/>
<feComposite in2="hardAlpha" operator="arithmetic" k2="-1" k3="1"/>
<feColorMatrix type="matrix" values="0 0 0 0 0 0 0 0 0 0 0 0 0 0 0 0 0 0 0.25 0"/>
<feBlend mode="normal" in2="shape" result="effect1_innerShadow_447_1376"/>
</filter>
</defs>
</svg>
