<svg width="43" height="28" viewBox="0 0 43 28" fill="none" xmlns="http://www.w3.org/2000/svg">
<g filter="url(#filter0_i_447_816)">
<path d="M8.71218 13.4106C11.0372 13.4106 13.0261 11.3315 13.0261 8.65565C13.0261 6.04143 11.0212 4.03284 8.71218 4.03284C6.3914 4.03284 4.38445 6.07026 4.39617 8.67698C4.39828 11.3411 6.38508 13.4106 8.71218 13.4106ZM1.9282 23.304H15.4844C16.7025 23.304 17.4126 22.727 17.4126 21.7593C17.4126 19.0005 14.228 15.2514 8.70257 15.2514C3.18468 15.2514 0 19.0005 0 21.7593C0 22.727 0.702654 23.304 1.9282 23.304ZM33.6354 13.4106C35.9604 13.4106 37.9514 11.3315 37.9514 8.65565C37.9514 6.04143 35.9466 4.03284 33.6354 4.03284C31.3146 4.03284 29.3077 6.07026 29.3194 8.67698C29.3215 11.3411 31.3104 13.4106 33.6354 13.4106ZM26.8514 23.304H40.4098C41.6257 23.304 42.3358 22.727 42.3358 21.7593C42.3358 19.0005 39.1512 15.2514 33.6258 15.2514C28.11 15.2514 24.9232 19.0005 24.9232 21.7593C24.9232 22.727 25.6259 23.304 26.8514 23.304Z" fill="white"/>
<path d="M16.5555 14.3636C17.4543 14.3636 18.1731 13.6448 18.1731 12.7438C18.1731 11.8546 17.4543 11.1358 16.5555 11.1358C15.6641 11.1358 14.9453 11.8546 14.9453 12.7438C14.9453 13.6448 15.6641 14.3636 16.5555 14.3636ZM21.1715 14.3636C22.0607 14.3636 22.7795 13.6448 22.7795 12.7438C22.7795 11.8546 22.0607 11.1358 21.1715 11.1358C20.2706 11.1358 19.5634 11.8546 19.5634 12.7438C19.5634 13.6448 20.2706 14.3636 21.1715 14.3636ZM25.7662 14.3636C26.665 14.3636 27.3838 13.6448 27.3838 12.7438C27.3838 11.8546 26.665 11.1358 25.7662 11.1358C24.8748 11.1358 24.1581 11.8546 24.1581 12.7438C24.1581 13.6448 24.8748 14.3636 25.7662 14.3636Z" fill="white"/>
</g>
<defs>
<filter id="filter0_i_447_816" x="0" y="-1" width="42.3359" height="29" filterUnits="userSpaceOnUse" color-interpolation-filters="sRGB">
<feFlood flood-opacity="0" result="BackgroundImageFix"/>
<feBlend mode="normal" in="SourceGraphic" in2="BackgroundImageFix" result="shape"/>
<feColorMatrix in="SourceAlpha" type="matrix" values="0 0 0 0 0 0 0 0 0 0 0 0 0 0 0 0 0 0 127 0" result="hardAlpha"/>
<feOffset dy="-1"/>
<feGaussianBlur stdDeviation="0.5"/>
<feComposite in2="hardAlpha" operator="arithmetic" k2="-1" k3="1"/>
<feColorMatrix type="matrix" values="0 0 0 0 0 0 0 0 0 0 0 0 0 0 0 0 0 0 0.25 0"/>
<feBlend mode="normal" in2="shape" result="effect1_innerShadow_447_816"/>
</filter>
</defs>
</svg>
