<svg width="28" height="28" viewBox="0 0 28 28" fill="none" xmlns="http://www.w3.org/2000/svg">
<g filter="url(#filter0_i_560_5550)">
<path d="M1 8.00484H11.4015V3.06351C11.4015 1.14609 10.2299 0 8.27734 0H4.22242C2.21219 0 1 1.14609 1 3.06351V8.00484ZM1 17.6876H11.4015V9.70828H1V17.6876ZM4.22242 27.4055H8.27734C10.2299 27.4055 11.4015 26.2476 11.4015 24.3302V19.4006H1V24.3302C1 26.2476 2.21219 27.4055 4.22242 27.4055ZM13.0565 9.4671L18.6327 12.6888L21.0859 8.43139C22.044 6.7664 21.5905 5.09179 19.8829 4.11023L16.5137 2.16141C15.2287 1.41656 13.9766 1.47563 13.0532 2.23946C13.0963 2.59125 13.0949 2.95992 13.0565 3.34874V9.4671ZM13.0565 22.3296L17.781 14.1666L13.0565 11.4452V22.3296ZM21.0154 20.2936L25.2632 17.8404C26.9282 16.8823 27.3561 15.1959 26.3767 13.4883L24.4375 10.1191C24.0029 9.35976 23.4395 8.8657 22.8037 8.62524C22.7228 8.88093 22.607 9.11952 22.4734 9.36561L18.5966 16.0919L21.0154 20.2936ZM13.7294 24.4994L19.528 21.1453L17.5958 17.7975L13.7294 24.4994Z" fill="white"/>
</g>
<defs>
<filter id="filter0_i_560_5550" x="0" y="-1" width="28" height="29" filterUnits="userSpaceOnUse" color-interpolation-filters="sRGB">
<feFlood flood-opacity="0" result="BackgroundImageFix"/>
<feBlend mode="normal" in="SourceGraphic" in2="BackgroundImageFix" result="shape"/>
<feColorMatrix in="SourceAlpha" type="matrix" values="0 0 0 0 0 0 0 0 0 0 0 0 0 0 0 0 0 0 127 0" result="hardAlpha"/>
<feOffset dy="-1"/>
<feGaussianBlur stdDeviation="0.5"/>
<feComposite in2="hardAlpha" operator="arithmetic" k2="-1" k3="1"/>
<feColorMatrix type="matrix" values="0 0 0 0 0 0 0 0 0 0 0 0 0 0 0 0 0 0 0.25 0"/>
<feBlend mode="normal" in2="shape" result="effect1_innerShadow_560_5550"/>
</filter>
</defs>
</svg>

