<svg width="28" height="28" viewBox="0 0 28 28" fill="none" xmlns="http://www.w3.org/2000/svg">
<g filter="url(#filter0_i_560_5540)">
<path d="M8.71265 25.3487H19.6863C21.4659 25.3487 22.399 24.3943 22.399 22.4731V14.1732C22.399 12.2584 21.4659 11.3136 19.6863 11.3136H8.71265C6.93094 11.3136 6 12.2584 6 14.1732V22.4731C6 24.3943 6.93094 25.3487 8.71265 25.3487ZM8.14148 12.2982H10.3359L10.338 8.3457C10.338 5.6035 12.0982 4.09858 14.1947 4.09858C16.2869 4.09858 18.0727 5.6035 18.0727 8.3457L18.0684 12.2982H20.2554L20.2575 8.56344C20.2575 4.23945 17.3958 2 14.1947 2C11.0032 2 8.14359 4.23945 8.14359 8.56344L8.14148 12.2982Z" fill="white"/>
</g>
<defs>
<filter id="filter0_i_560_5540" x="0" y="-1" width="28" height="29" filterUnits="userSpaceOnUse" color-interpolation-filters="sRGB">
<feFlood flood-opacity="0" result="BackgroundImageFix"/>
<feBlend mode="normal" in="SourceGraphic" in2="BackgroundImageFix" result="shape"/>
<feColorMatrix in="SourceAlpha" type="matrix" values="0 0 0 0 0 0 0 0 0 0 0 0 0 0 0 0 0 0 127 0" result="hardAlpha"/>
<feOffset dy="-1"/>
<feGaussianBlur stdDeviation="0.5"/>
<feComposite in2="hardAlpha" operator="arithmetic" k2="-1" k3="1"/>
<feColorMatrix type="matrix" values="0 0 0 0 0 0 0 0 0 0 0 0 0 0 0 0 0 0 0.25 0"/>
<feBlend mode="normal" in2="shape" result="effect1_innerShadow_560_5540"/>
</filter>
</defs>
</svg>
