<svg width="29" height="28" viewBox="0 0 29 28" fill="none" xmlns="http://www.w3.org/2000/svg">
<g filter="url(#filter0_i_561_2639)">
<path d="M14.5504 26.6835L18.1124 22.4397C18.4724 22.019 18.5256 21.9168 18.6662 21.479L18.8861 20.7981L16.9234 18.336L16.3715 20.9254L12.8573 25.0905C11.7051 26.4737 13.5941 27.824 14.5504 26.6835ZM23.1707 26.3214C23.9172 27.8495 26.1822 26.905 25.3633 25.2437L22.9452 20.3469C22.7556 19.9794 22.4999 19.5789 22.2667 19.2456L20.7487 17.0926L20.8478 16.7931C21.2537 15.5491 21.4187 14.8119 21.5008 13.5923L21.7394 10.1634C21.8587 8.50515 20.8715 7.26109 19.195 7.26109C17.9254 7.26109 17.0701 7.90117 15.9187 9.02921L14.1025 10.8177C13.5081 11.4004 13.3101 11.8839 13.2494 12.6709L13.0246 15.4724C12.9618 16.2051 13.3738 16.7226 14.0575 16.746C14.7454 16.795 15.167 16.383 15.2277 15.6076L15.4876 12.5514L16.3253 11.8033C16.611 11.5389 17.0064 11.7116 16.9808 12.0259L16.7955 14.5691C16.69 15.8784 16.9883 16.5226 17.9181 17.6697L20.3148 20.6821C20.5567 20.9847 20.5844 21.0976 20.6919 21.2936L23.1707 26.3214ZM27.3215 11.8884H24.6114L22.9469 10.0544L22.7371 13.0115L23.3197 13.592C23.7074 13.9797 24.0599 14.1032 24.7724 14.1032H27.3215C28.0701 14.1032 28.5503 13.6816 28.5503 12.9958C28.5503 12.3313 28.0583 11.8884 27.3215 11.8884ZM20.5316 6.25492C21.9876 6.25492 23.158 5.07273 23.158 3.6264C23.158 2.17047 21.9876 1 20.5316 1C19.0757 1 17.9031 2.17047 17.9031 3.6264C17.9031 5.07273 19.0757 6.25492 20.5316 6.25492Z" fill="white"/>
<path d="M5.31631 5.48148H12.1202C12.5536 5.48148 12.9028 5.11843 12.9028 4.67125C12.9028 4.22406 12.5536 3.8514 12.1202 3.8514H5.31631C4.87123 3.8514 4.53163 4.22406 4.53163 4.67125C4.53163 5.11843 4.87123 5.48148 5.31631 5.48148ZM0.768748 11.4116H9.10616C9.54913 11.4116 9.88662 11.0486 9.88662 10.6014C9.88662 10.1542 9.54913 9.78156 9.10616 9.78156H0.768748C0.337499 9.78156 0 10.1638 0 10.6014C0 11.039 0.337499 11.4116 0.768748 11.4116ZM4.54053 17.3418H9.13194C9.56529 17.3418 9.90279 16.9787 9.90279 16.5316C9.90279 16.0844 9.56529 15.7117 9.13194 15.7117H4.54053C4.09757 15.7117 3.75796 16.0844 3.75796 16.5316C3.75796 16.9787 4.09757 17.3418 4.54053 17.3418ZM1.2539 23.2122H7.61577C8.04913 23.2122 8.38873 22.8491 8.38873 22.4019C8.38873 21.9548 8.04913 21.5821 7.61577 21.5821H1.2539C0.820544 21.5821 0.480935 21.9548 0.480935 22.4019C0.480935 22.8491 0.820544 23.2122 1.2539 23.2122Z" fill="white"/>
</g>
<defs>
<filter id="filter0_i_561_2639" x="0" y="-1" width="28.5508" height="29" filterUnits="userSpaceOnUse" color-interpolation-filters="sRGB">
<feFlood flood-opacity="0" result="BackgroundImageFix"/>
<feBlend mode="normal" in="SourceGraphic" in2="BackgroundImageFix" result="shape"/>
<feColorMatrix in="SourceAlpha" type="matrix" values="0 0 0 0 0 0 0 0 0 0 0 0 0 0 0 0 0 0 127 0" result="hardAlpha"/>
<feOffset dy="-1"/>
<feGaussianBlur stdDeviation="0.5"/>
<feComposite in2="hardAlpha" operator="arithmetic" k2="-1" k3="1"/>
<feColorMatrix type="matrix" values="0 0 0 0 0 0 0 0 0 0 0 0 0 0 0 0 0 0 0.25 0"/>
<feBlend mode="normal" in2="shape" result="effect1_innerShadow_561_2639"/>
</filter>
</defs>
</svg>
