<svg width="28" height="28" viewBox="0 0 28 28" fill="none" xmlns="http://www.w3.org/2000/svg">
<g filter="url(#filter0_i_561_2607)">
<path d="M11.9052 14.2162C14.469 14.2162 16.6327 11.9451 16.6327 9.00912C16.6327 6.12724 14.453 3.9342 11.9052 3.9342C9.35727 3.9342 7.17758 6.16779 7.17969 9.03044C7.1818 11.9451 9.35305 14.2162 11.9052 14.2162ZM4.10515 25.1184H19.4867C19.3545 24.8351 19.2884 24.5325 19.2884 24.2107V19.9129C18.6364 19.3971 18.1522 18.7134 17.8686 17.9468C16.3191 16.9636 14.2951 16.297 11.9052 16.297C5.82523 16.297 2 20.4436 2 23.4586C2 24.4945 2.78797 25.1184 4.10515 25.1184Z" fill="white"/>
<path d="M22.2993 11.8645C20.2786 11.8645 18.6797 13.4751 18.6797 15.4629C18.6797 16.9661 19.5651 18.2711 20.9194 18.825V24.2107C20.9194 24.3703 20.996 24.4957 21.1066 24.6192L22.0589 25.5642C22.1897 25.6886 22.3959 25.7025 22.5543 25.5558L24.2986 23.8019C24.4591 23.6489 24.4528 23.4417 24.2943 23.2908L23.2814 22.2597L24.7195 20.86C24.8587 20.7112 24.8512 20.4977 24.7003 20.3276L23.3163 18.9415C24.9693 18.2374 25.904 16.9844 25.904 15.4629C25.904 13.4751 24.2934 11.8645 22.2993 11.8645ZM22.2897 13.624C22.8853 13.624 23.3775 14.1236 23.3775 14.7117C23.3775 15.3361 22.8853 15.8282 22.2897 15.8282C21.6888 15.8282 21.1849 15.3361 21.1849 14.7117C21.1849 14.1236 21.6771 13.624 22.2897 13.624Z" fill="white"/>
</g>
<defs>
<filter id="filter0_i_561_2607" x="0" y="-1" width="28" height="29" filterUnits="userSpaceOnUse" color-interpolation-filters="sRGB">
<feFlood flood-opacity="0" result="BackgroundImageFix"/>
<feBlend mode="normal" in="SourceGraphic" in2="BackgroundImageFix" result="shape"/>
<feColorMatrix in="SourceAlpha" type="matrix" values="0 0 0 0 0 0 0 0 0 0 0 0 0 0 0 0 0 0 127 0" result="hardAlpha"/>
<feOffset dy="-1"/>
<feGaussianBlur stdDeviation="0.5"/>
<feComposite in2="hardAlpha" operator="arithmetic" k2="-1" k3="1"/>
<feColorMatrix type="matrix" values="0 0 0 0 0 0 0 0 0 0 0 0 0 0 0 0 0 0 0.25 0"/>
<feBlend mode="normal" in2="shape" result="effect1_innerShadow_561_2607"/>
</filter>
</defs>
</svg>
