<svg width="34" height="28" viewBox="0 0 34 28" fill="none" xmlns="http://www.w3.org/2000/svg">
<g filter="url(#filter0_i_659_2410)">
<path d="M7.49625 25.4571C7.9882 25.4571 8.35218 25.2269 8.93671 24.686L12.2562 21.6283C11.6105 21.0968 11.044 20.212 11.044 18.3778V10.1759C11.044 6.50133 13.2996 4.27665 16.9837 4.27665H25.3957L25.3861 3.91688C25.1787 1.57453 23.6177 0.00749969 20.8413 0.00749969H4.57125C1.76953 0.00749969 0 1.64461 0 4.50234V16.2274C0 19.0385 1.74422 20.7893 4.49531 20.7893H6.37945V24.1943C6.37945 24.9555 6.79781 25.4571 7.49625 25.4571Z" fill="white"/>
<path d="M27.1517 27.1312C27.8598 27.1312 28.2664 26.6393 28.2664 25.8684V22.473H29.4917C32.2428 22.473 33.987 20.7222 33.987 17.8994V10.4749C33.987 7.62469 32.2154 5.98969 29.4137 5.98969H17.3195C14.4153 5.98969 12.7578 7.61836 12.7578 10.5204V17.8994C12.7578 20.7433 14.4195 22.473 17.3195 22.473H21.4048L25.7091 26.3698C26.2958 26.899 26.6576 27.1312 27.1517 27.1312Z" fill="white"/>
</g>
<defs>
<filter id="filter0_i_659_2410" x="0" y="-1" width="33.9883" height="29" filterUnits="userSpaceOnUse" color-interpolation-filters="sRGB">
<feFlood flood-opacity="0" result="BackgroundImageFix"/>
<feBlend mode="normal" in="SourceGraphic" in2="BackgroundImageFix" result="shape"/>
<feColorMatrix in="SourceAlpha" type="matrix" values="0 0 0 0 0 0 0 0 0 0 0 0 0 0 0 0 0 0 127 0" result="hardAlpha"/>
<feOffset dy="-1"/>
<feGaussianBlur stdDeviation="0.5"/>
<feComposite in2="hardAlpha" operator="arithmetic" k2="-1" k3="1"/>
<feColorMatrix type="matrix" values="0 0 0 0 0 0 0 0 0 0 0 0 0 0 0 0 0 0 0.25 0"/>
<feBlend mode="normal" in2="shape" result="effect1_innerShadow_659_2410"/>
</filter>
</defs>
</svg>
