<svg width="28" height="28" viewBox="0 0 28 28" fill="none" xmlns="http://www.w3.org/2000/svg">
<g filter="url(#filter0_i_451_6973)">
<path d="M7.31151 24.6505H9.82495C10.0467 24.6505 10.2077 24.7145 10.3729 24.8797L12.1565 26.6516C13.6774 28.1842 15.1096 28.1745 16.6305 26.6516L18.4141 24.8797C18.5889 24.7145 18.7403 24.6505 18.9717 24.6505H21.4755C23.6343 24.6505 24.6492 23.641 24.6492 21.4747V18.9709C24.6492 18.7417 24.7153 18.5881 24.8805 18.4133L26.6524 16.6318C28.1828 15.111 28.1732 13.6787 26.6524 12.1557L24.8805 10.3742C24.7132 10.209 24.6492 10.048 24.6492 9.82627V7.31283C24.6492 5.16362 23.6397 4.13916 21.4755 4.13916H18.9717C18.7403 4.13916 18.5868 4.08268 18.4141 3.91745L16.6305 2.14557C15.1075 0.612993 13.6774 0.622602 12.1565 2.14768L10.3729 3.91745C10.2098 4.08268 10.0467 4.13916 9.82495 4.13916H7.31151C5.15269 4.13916 4.13784 5.14229 4.13784 7.31283V9.82627C4.13784 10.048 4.08136 10.2111 3.91613 10.3742L2.14425 12.1557C0.613783 13.6787 0.623392 15.111 2.14425 16.6318L3.91613 18.4133C4.08136 18.5881 4.13784 18.7417 4.13784 18.9709V21.4747C4.13784 23.6335 5.1548 24.6505 7.31151 24.6505Z" fill="white"/>
<path d="M13.0927 20.1753C12.65 20.1753 12.2902 19.9935 11.9624 19.5685L9.09055 16.0752C8.88102 15.807 8.77344 15.527 8.77344 15.2396C8.77344 14.6331 9.24688 14.1489 9.85133 14.1489C10.2132 14.1489 10.4942 14.2829 10.7956 14.6696L13.0543 17.5375L17.8979 9.77893C18.1543 9.36924 18.4864 9.16815 18.8556 9.16815C19.4291 9.16815 19.9686 9.57877 19.9686 10.1832C19.9686 10.4633 19.8268 10.7497 19.663 11.0094L14.1784 19.5601C13.9112 19.9604 13.5313 20.1753 13.0927 20.1753Z" fill="#644EB4"/>
</g>
<defs>
<filter id="filter0_i_451_6973" x="0" y="-1" width="28" height="29" filterUnits="userSpaceOnUse" color-interpolation-filters="sRGB">
<feFlood flood-opacity="0" result="BackgroundImageFix"/>
<feBlend mode="normal" in="SourceGraphic" in2="BackgroundImageFix" result="shape"/>
<feColorMatrix in="SourceAlpha" type="matrix" values="0 0 0 0 0 0 0 0 0 0 0 0 0 0 0 0 0 0 127 0" result="hardAlpha"/>
<feOffset dy="-1"/>
<feGaussianBlur stdDeviation="0.5"/>
<feComposite in2="hardAlpha" operator="arithmetic" k2="-1" k3="1"/>
<feColorMatrix type="matrix" values="0 0 0 0 0 0 0 0 0 0 0 0 0 0 0 0 0 0 0.25 0"/>
<feBlend mode="normal" in2="shape" result="effect1_innerShadow_451_6973"/>
</filter>
</defs>
</svg>
