<svg width="28" height="29" viewBox="0 0 28 29" fill="none" xmlns="http://www.w3.org/2000/svg">
<g filter="url(#filter0_i_658_2363)">
<path d="M1 15.5864V17.3545C1 19.855 2.30523 21.1603 4.84421 21.1603H7.97147V18.8643H4.97733C3.88772 18.8643 3.29592 18.2927 3.29592 17.152V15.5864H1ZM3.29592 13.8733V8.57408H1V13.8733H3.29592ZM3.29592 6.87065V5.60901C3.29592 4.47041 3.88772 3.89877 4.97733 3.89877H6.50359V1.60284H4.84421C2.30523 1.60284 1 2.90597 1 5.40862V6.87065H3.29592ZM13.5041 1.60284H8.20702V3.89877H13.5041V1.60284ZM15.2076 3.89877H16.5705C17.6505 3.89877 18.2519 4.47041 18.2519 5.60901V8.15643H20.5478V5.40862C20.5478 2.90597 19.233 1.60284 16.7132 1.60284H15.2076V3.89877ZM26.379 19.9954V10.9778C26.379 8.47729 25.0663 7.17206 22.5444 7.17206H10.6776C8.13647 7.17206 6.83124 8.46768 6.83124 10.9778V22.9258C6.83124 25.4264 8.13647 26.7316 10.6776 26.7316H16.7441V24.4357H10.8107C9.72857 24.4357 9.12716 23.8619 9.12716 22.7233V11.1803C9.12716 10.0417 9.72857 9.47009 10.8107 9.47009H22.4017C23.4817 9.47009 24.0831 10.0417 24.0831 11.1803V17.6899L26.379 19.9954Z" fill="white"/>
<path d="M17.9728 24.5999C17.9611 25.1139 18.555 25.2841 18.888 24.9522L20.5692 23.2457L22.4782 27.9696C22.5888 28.2344 22.8485 28.3821 23.1311 28.2768L24.3009 27.8186C24.5761 27.7017 24.6403 27.3881 24.521 27.1506L22.5056 22.476L24.9166 22.4139C25.405 22.4031 25.653 21.9042 25.2986 21.5402L18.937 15.0344C18.6082 14.696 18.1026 14.8928 18.0909 15.3728L17.9728 24.5999Z" fill="white"/>
</g>
<defs>
<filter id="filter0_i_658_2363" x="0" y="-1" width="28" height="29.311" filterUnits="userSpaceOnUse" color-interpolation-filters="sRGB">
<feFlood flood-opacity="0" result="BackgroundImageFix"/>
<feBlend mode="normal" in="SourceGraphic" in2="BackgroundImageFix" result="shape"/>
<feColorMatrix in="SourceAlpha" type="matrix" values="0 0 0 0 0 0 0 0 0 0 0 0 0 0 0 0 0 0 127 0" result="hardAlpha"/>
<feOffset dy="-1"/>
<feGaussianBlur stdDeviation="0.5"/>
<feComposite in2="hardAlpha" operator="arithmetic" k2="-1" k3="1"/>
<feColorMatrix type="matrix" values="0 0 0 0 0 0 0 0 0 0 0 0 0 0 0 0 0 0 0.25 0"/>
<feBlend mode="normal" in2="shape" result="effect1_innerShadow_658_2363"/>
</filter>
</defs>
</svg>
