<svg height="6" viewBox="0 0 11 6" width="11" xmlns="http://www.w3.org/2000/svg"><path d="m5.27429356 6c.09047768-.00039683.17616032-.01807239.2570479-.05302667s.15327634-.08817937.21716629-.15967526l4.61356835-4.71396683c.1239438-.12434068.1859158-.27120157.1859158-.44058269 0-.12017394-.0280098-.22764925-.0840292-.32242596-.0560194-.0947767-.1312357-.1701913-.2256485-.22624381-.094413-.05605252-.201475-.08407878-.32118595-.08407878-.17103462 0-.32226056.0625341-.4536781.18760231l-4.49699899 4.60463963h.61756974l-4.50453876-4.60463963c-.12844127-.12506821-.27798079-.18760231-.44861853-.18760231-.11971098 0-.22677293.02802626-.32118587.08407878-.09441294.05605251-.16962913.13146711-.22564857.22624381-.05601944.09477671-.08402917.20225202-.08402917.32242596 0 .0863771.01645199.16666944.04935597.240877.03290398.07420759.07842392.14077615.13655981.19970569l4.60850872 4.7197209c.14140447.13796523.30136081.20694786.47986906.20694786z" opacity=".803734"/></svg>