<svg height="20" viewBox="0 0 20 20" width="20" xmlns="http://www.w3.org/2000/svg"><path d="m9.99919957.5c5.24525323 0 9.50080043 4.25558491 9.50080043 9.49919957 0 5.24365233-4.2555472 9.49919953-9.50080043 9.49919953-5.24361466 0-9.49919957-4.2555472-9.49919957-9.49919953 0-5.24361466 4.25558491-9.49919957 9.49919957-9.49919957zm0 1.87121283c-4.21788944 0-7.62798674 3.4100973-7.62798674 7.62798674 0 4.21788003 3.4100973 7.62798673 7.62798674 7.62798673 4.21788003 0 7.62968173-3.4101067 7.62968173-7.62798673 0-4.21788944-3.4118017-7.62798674-7.62968173-7.62798674zm3.31810453 3.72258447c.4326079 0 .8401671.30641334.8401671.76658423 0 .20727324-.1112124.42117591-.2273216.61999286l-4.11322166 6.42491491c-.19551165.3033152-.48279947.4669792-.81275481.4669792-.33326064 0-.60307087-.1469021-.84952742-.4602933l-2.1743303-2.6496057c-.15192127-.1995421-.23799085-.3992725-.23799085-.621509 0-.4509707.35735824-.81087145.80078606-.81087145.27735308 0 .49457047.09010938.72024414.38108855l1.70899899 2.179519 3.63096835-5.83332311c.1946454-.30309862.444379-.46347619.713982-.46347619z"/></svg>