<svg height="20" viewBox="0 0 20 20" width="20" xmlns="http://www.w3.org/2000/svg"><path d="m6.72963448 6.72963448c.29147453-.2901001.29147453-.78656891 0-1.0842987l-1.66054739-1.64941132c-.29147453-.29772979-.78031366-.29772979-1.07941788 0-.29147454.29284897-.29147454.7816881 0 1.07941789l1.65566657 1.65429213c.29147453.29772979.7941986.29772979 1.0842987 0zm-1.35808516 3.36131422c0-.4624261-.34898226-.85150481-.76369546-.85150481h-2.34553519c-.41334187 0-.76231867.38907871-.76231867.85150481 0 .4623389.3489768.8498852.76231867.8498852h2.34553519c.4147132 0 .76369546-.3875463.76369546-.8498852zm1.35808516 3.1780658c-.2901001-.2901157-.79282417-.2901157-1.0842987 0l-1.65566657 1.6618984c-.29147454.2915214-.29147454.7865533 0 1.0794023.29910422.2915214.78794335.2915214 1.07941788 0l1.66054739-1.6569786c.29147453-.2901157.29147453-.7866313 0-1.0843221zm3.35159142 1.359444c-.46053826 0-.84803727.3489979-.84803727.763672v2.3441975c0 .4146741.38749901.763672.84803727.763672.4673886 0 .8533528-.3489979.8533528-.763672v-2.3441975c0-.4146741-.3859642-.763672-.8533528-.763672zm3.1877886-1.359444c-.2901157.2976908-.2901157.7942064 0 1.0843221l1.6618984 1.6569786c.2915214.2915214.7803059.2915214 1.0794023 0 .2915214-.292849.2915214-.7878809 0-1.0794023l-1.6569786-1.6618984c-.2901157-.2901157-.7928788-.2901157-1.0843221 0zm1.359444-3.1780658c0 .4623389.3489979.8498852.763672.8498852h2.33795c.4209216 0 .7699195-.3875463.7699195-.8498852 0-.4624261-.3489979-.85150481-.7699195-.85150481h-2.33795c-.4146741 0-.763672.38907871-.763672.85150481zm-1.359444-3.36131422c.2914433.29772979.7942064.29772979 1.0843221 0l1.6569786-1.65429213c.2915214-.29772979.2915214-.78656892 0-1.07941789-.2990964-.29772979-.7878809-.29772979-1.0794023 0l-1.6618984 1.64941132c-.2901157.29772979-.2901157.7941986 0 1.0842987zm-3.1877886-1.35182991c.4673886 0 .8533528-.34898226.8533528-.76995071v-2.33928149c0-.41959557-.3859642-.76857237-.8533528-.76857237-.46053826 0-.84803727.3489768-.84803727.76857237v2.33928149c0 .42096845.38749901.76995071.84803727.76995071z"/></svg>