<svg height="20" viewBox="0 0 20 20" width="20" xmlns="http://www.w3.org/2000/svg"><path d="m8.94015814 15c.39857038 0 .74560041-.1976984.9817692-.5640887l4.96857646-7.76099203c.1402543-.24016144.2745937-.4985457.2745937-.74892193 0-.55586458-.4923122-.92599734-1.014882-.92599734-.3256677 0-.627334.19372848-.8624563.55985722l-4.38603736 7.04637718-2.06438961-2.63275533c-.27260308-.35148905-.53499136-.46033691-.87002071-.46033691-.53563974 0-.96731152.43474305-.96731152.97949424 0 .2684511.10396796.509716.28748164.7507533l2.62648772 3.2005978c.29770781.3785617.62362575.5560125 1.02618878.5560125z"/></svg>