<svg height="20" viewBox="0 0 20 20" width="20" xmlns="http://www.w3.org/2000/svg"><path d="m4.02302824 4.60592602c.41014121-.42935363 1.11493331-.42935363 1.53586316 0l11.0205511 11.04029868c.4224835.4377601.4224835 1.1034628.0069911 1.5343182-.408674.4224834-1.114942.4293882-1.5344046 0l-11.02208739-11.04566709c-.42244027-.43087267-.42244027-1.09655808-.00691337-1.52894979zm1.35110111 8.69139448c.0957514 0 .17463798.0774193.19840753.1746897.17160854.9607938.12861793.9815943 1.18001042 1.1784655.10417518.0183839.17160854.1026216.17160854.1998921 0 .0972704-.0689524.1716689-.17312758.1969575-1.05677818.1983385-1.02070957.2329485-1.17849138 1.1700072-.02376955.1041752-.09423236.1815945-.19840753.1815945-.10417518 0-.17615703-.0774193-.19992658-.1830617-.19622391-.9355915-.12558848-.9702015-1.18001042-1.16854-.10417518-.0252886-.17311895-.0996871-.17311895-.1969575 0-.1041752.06894377-.180041.18306176-.1998921 1.04447913-.176157.9738437-.2176717 1.17006761-1.164656.02376955-.1110799.0957514-.1884992.19992658-.1884992zm-2.8515775-4.17501655c.13553993 0 .2304455.09336927.24881209.22352351.24679246 1.58308294.24679246 1.68138904 1.96168674 1.96016774.13165602.0183838.22200446.1063329.22200446.2419246 0 .1339518-.09186748.2219872-.22200446.2418383-1.71033716.2622073-1.71641332.3634479-1.96168674 1.9587004-.01836659.1286007-.11176175.2219872-.24881209.2219872-.12861794 0-.22200447-.0933865-.24189873-.2219872-.24223533-1.5846364-.24527342-1.681389-1.96167811-1.9587004-.13013784-.0214047-.21897501-.1078865-.21897501-.2418383 0-.1386126.08883717-.2235408.22504341-.2419246 1.70730684-.2697162 1.71185533-.374064 1.95560971-1.95861418.01989426-.1317078.11328079-.22507707.24189873-.22507707zm2.61793856-3.88103019c-.13620451-.13620452-.35045841-.12929115-.47823915 0-.13468547.1346941-.13316643.34051559 0 .47520106l3.06330254 3.07172631.47907635-.47132578zm7.18503179-4.74127376c.1377494 0 .2426151.09642288.2723917.25791512.3184809 1.99673949.6616462 2.44126627 2.7423878 2.73693561.1530262.01837523.2525406.13317506.2525406.2832063 0 .13772355-.0995144.2540338-.2525406.27392806-2.1004201.29567798-2.3715172.7117141-2.7423878 2.7522788-.0267558.14159883-.1346423.23954248-.2723917.23954248-.1623476 0-.2633293-.09794365-.2831804-.24645585-.3284064-2.04275695-.6676878-2.42845539-2.73695032-2.74536543-.15846364-.02831804-.25789181-.13620451-.25789181-.27392806 0-.15003124.09942817-.26483107.25789181-.2832063 2.08592022-.29870743 2.36910062-.72013787 2.73695032-2.74384725.0252886-.1545806.133175-.25100348.2831804-.25100348z"/></svg>