<svg height="20" viewBox="0 0 20 20" width="20" xmlns="http://www.w3.org/2000/svg"><path d="m5.05009896 17.5h10.02036584c1.3823202 0 2.0500414-.4348124 2.0500414-1.3775502 0-2.1967608-2.7494257-5.1496526-7.0576707-5.1496526-4.31336048 0-7.0628355 2.9528918-7.0628355 5.1496526 0 .9427378.66773106 1.3775502 2.05009896 1.3775502zm-.26183322-1.3876659c-.18857223 0-.26535317-.0577338-.26535317-.2075783 0-1.236999 1.98937984-3.5428124 5.53992293-3.5428124 3.5439719 0 5.5347992 2.3058134 5.5347992 3.5428124 0 .1498445-.0702345.2075783-.260213.2075783zm5.27456976-6.0827188c1.9418194 0 3.5143649-1.7076359 3.5143649-3.80865899 0-2.0748373-1.5717231-3.72095631-3.5143649-3.72095631-1.92802748 0-3.51294214 1.67246106-3.51294214 3.73413144 0 2.09443552 1.57254549 3.79548386 3.51294214 3.79548386zm0-1.38765773c-1.11042883 0-2.05797775-1.0397502-2.05797775-2.40927358 0-1.33386334.93871615-2.34501807 2.05797775-2.34501807 1.1287358 0 2.0594252.99140025 2.0594252 2.33329039 0 1.36807592-.9395222 2.42100126-2.0594252 2.42100126z"/></svg>